<svg xmlns="http://www.w3.org/2000/svg" xmlns:xlink="http://www.w3.org/1999/xlink" width="600" height="100" viewBox="0 0 600 100"><defs><style>.cls-1,.cls-4{fill:#fff;}.cls-1,.cls-9{fill-opacity:0.8;}.cls-2,.cls-8{fill:#c3ebf0;}.cls-3{opacity:0.8;}.cls-5{fill:#e6e6e6;}.cls-6{fill:url(#linear-gradient);}.cls-7,.cls-9{fill:#7ed6e0;}.cls-8{opacity:0.5;}.cls-10{fill:#6db5bb;}.cls-11{fill:none;}</style><linearGradient id="linear-gradient" x1="280.75" y1="44.58" x2="280.66" y2="70.11" gradientUnits="userSpaceOnUse"><stop offset="0" stop-opacity="0.25"/><stop offset="0" stop-opacity="0.24"/><stop offset="0.17" stop-opacity="0"/></linearGradient></defs><title>bar</title><g id="Layer_2" data-name="Layer 2"><path class="cls-1" d="M508.66,22.5c-20.55,0-35.77,11-42,28l-12.35-.45a8.2,8.2,0,0,0-1.32.12,5.54,5.54,0,0,0-1.15-.12c-6.05,0-9.54,9.19-9.54,20.52V84.76l19.65,2.72a.06.06,0,0,1,0,0,5.3,5.3,0,0,0,.85.07l11.76-2c6.73.62,15.29,1.82,16.76,2,14.53,2.17,29.29,1.57,44,1A76.2,76.2,0,0,0,545,87.8a54.42,54.42,0,0,0,10.26-3c2.29-3.07,3.54-7.6,3.54-14.22C558.81,43.26,536,22.5,508.66,22.5Z"/><path class="cls-2" d="M119.53,82.78l.14,0-.18,0c-4.66-7.16-10.82-15.21-16.16-19.11l0,0a47.75,47.75,0,0,0-4.64-3.36c-.06-.06-.13-.11-.17-.16-3.81-2.41-7.59-4.68-11.31-6.63A7.27,7.27,0,0,1,87,52.26a18.28,18.28,0,0,1,.75-6.06,9.54,9.54,0,0,1,1.13-2.85.8.8,0,0,1,.13-.13c1.69-6.11,9-9.52,16.41-7.61a15.82,15.82,0,0,1,7.74,4.52c-.48-6-5.13-10.72-14.13-13a32.09,32.09,0,0,0-20.81,1.58c-8.1-.36-28.07,18.68-28.81,19.39h-.14l-1.36-.24a1.25,1.25,0,0,1-.43-.25,4.23,4.23,0,0,1-.94-1.54,12.75,12.75,0,0,1-.83-3,14.92,14.92,0,0,1,.21-5.65,11.05,11.05,0,0,1,.39-1.36A7.43,7.43,0,0,1,47,34.2a11,11,0,0,1,10.08-7.29A10.15,10.15,0,0,1,61.59,28c-1.38-4.61-4.4-6.77-12.55-6.77-12.21,0-24.52,18.94-29.34,35.91C12.11,59.49,8.84,86.27,1,87c12.15,3.6,17.16-14.2,30.06-1.58a2.35,2.35,0,0,0,1.1.47,9,9,0,0,0,6.76.73,12.52,12.52,0,0,0,4.36-3c.54.18,1.08.35,1.63.49s.87.2,1.29.28a14.49,14.49,0,0,1,2,.29l1,.19c1.45.3,3,.64,3.66.69,5.55.35,10.73.88,16.26.35q4.7-.44,9.32-1.31a6.84,6.84,0,0,1,1.75-.16c2.5-.55,5-1,7.53-1.42L88,83c.55-.09,1.11-.17,1.66-.24l.7-.09c1.11-.15,2.22-.28,3.34-.38l.28,0,1.57-.14.93-.06L98,82l1.25-.06c.74,0,1.5,0,2.25-.06l1.19,0h1.4l1.63,0,1.85.07,1.49.08,1.3.08q.87.06,1.74.15l1.63.16q.95.09,1.89.21l1.25.17,1.81.27,1.08.16ZM91.31,56.64l-.94-.33a5.58,5.58,0,0,1-2.44-1.22,2.92,2.92,0,0,1-.65-1.18A10.21,10.21,0,0,1,91.31,56.64Z"/><g class="cls-3"><rect class="cls-4" x="135.91" y="45.35" width="289.61" height="21.23" rx="10.61"/><rect class="cls-4" x="135.91" y="45.35" width="289.61" height="21.23" rx="10.61"/></g><rect class="cls-5" x="135.91" y="43.85" width="289.61" height="21.23" rx="10.61"/><rect class="cls-6" x="135.91" y="43.85" width="289.61" height="21.23" rx="10.61"/><path class="cls-7" d="M31.06,85.43a2.35,2.35,0,0,0,1.1.47,9,9,0,0,0,6.76.73,14.12,14.12,0,0,0,4.93-3.54A118.72,118.72,0,0,0,56.51,68.47c.42-.56.83-1.13,1.28-1.65,5.5-8.3,13-14,22.93-14,8.51,0,12.23,3.88,13.4,9.93a10.5,10.5,0,0,0-6.93-2.67c-6.4,0-11.6,6-11.6,13.49a14.35,14.35,0,0,0,4.5,10.66L80.5,84l9.17-4.84a11.51,11.51,0,0,0,1.21-.74c2.9-2,17.49,2.25,28.79,4.37C114.06,84,106.11,67.06,102,63c-.71-.71-2.83-2.12-3.53-2.83-11.15-7-22.09-13-31.81-13a162.48,162.48,0,0,0-17.65,1,2.93,2.93,0,0,1-1.53-.52,4.23,4.23,0,0,1-.94-1.54,12.75,12.75,0,0,1-.83-3,14.92,14.92,0,0,1,.21-5.65,11.05,11.05,0,0,1,.39-1.36A7.43,7.43,0,0,1,47,34.2a11,11,0,0,1,10.08-7.29A10.15,10.15,0,0,1,61.59,28c-1.38-4.61-4.4-6.77-12.55-6.77-12.21,0-24.52,18.94-29.34,35.91C12.11,59.49,8.84,86.27,1,87,13.15,90.61,18.16,72.81,31.06,85.43Z"/><path class="cls-8" d="M56.11,59.67a16.07,16.07,0,0,0-6.71-3.55A15.47,15.47,0,0,0,30.39,67a12.49,12.49,0,0,0-.24,1.31h0c-.49,3.91,1.33,7.46,4.31,10.26h0A17.76,17.76,0,0,0,36.2,80h0a25,25,0,0,0,8.71,4.14c.44.11.87.2,1.29.28a14.49,14.49,0,0,1,2,.29l1,.19c1.45.3,3,.64,3.66.69,5.55.35,10.73.88,16.26.35q4.7-.44,9.32-1.31a6.84,6.84,0,0,1,1.75-.16c2.5-.55,5-1,7.53-1.42L88,83c.55-.09,1.11-.17,1.66-.24l.7-.09c1.11-.15,2.22-.28,3.34-.38l.28,0,1.57-.14.93-.06L98,82l1.25-.06c.74,0,1.5,0,2.25-.06l1.19,0h1.4l1.63,0,1.85.07,1.49.08,1.3.08q.87.06,1.74.15l1.63.16q.95.09,1.89.21l1.25.17,1.81.27,1.08.16c-4.7-7.27-11-15.59-16.47-19.57l0,0a40.41,40.41,0,0,0-12.92-7.33,5.58,5.58,0,0,1-2.44-1.22A4.36,4.36,0,0,1,87,52.26a18.28,18.28,0,0,1,.75-6.06,9.54,9.54,0,0,1,1.13-2.85.8.8,0,0,1,.13-.13c1.69-6.11,9-9.52,16.41-7.61a15.82,15.82,0,0,1,7.74,4.52c-.48-6-5.13-10.72-14.13-13a32.09,32.09,0,0,0-20.81,1.58C70,28.32,49.38,48.11,49.38,48.11L42,46.8h-.1c.49.11,1,.22,1.49.35C51.85,49.32,55.45,53.81,56.11,59.67Z"/><path class="cls-9" d="M490.78,85.67c14.53,2.17,29.28,1.57,44,1a76.2,76.2,0,0,0,9.78-.83,54.42,54.42,0,0,0,10.26-3c2.29-3.07,3.54-7.6,3.54-14.22,0-27.35-22.84-48.11-50.15-48.11S463,39.84,463,67.2c0,7.88-.45,13.08,2.82,16.27C467.83,82.46,488.42,85.31,490.78,85.67Z"/><path class="cls-9" d="M462.25,68.61v17l-20.48-2.83V68.61c0-11.33,3.49-20.52,9.53-20.52S462.25,57.28,462.25,68.61Z"/><path class="cls-10" d="M482.73,57.29c0-4.67-4.52-8.49-9.18-8.49l-19.78-.71a7.87,7.87,0,0,0-1.38.13c5.14,1.16,9.15,10.48,9.15,21.81,0,6.7.44,12-.13,15.49a5.09,5.09,0,0,0,.84.07l21.19-3.53Z"/><rect class="cls-11" x="2" y="-0.5" width="599" height="100"/></g></svg>
