<svg xmlns="http://www.w3.org/2000/svg" xmlns:xlink="http://www.w3.org/1999/xlink" width="583" height="106" viewBox="0 0 583 106"><defs><style>.cls-1,.cls-4{fill:#fff;}.cls-1,.cls-11{fill-opacity:0.8;}.cls-10,.cls-2{fill:#cfebf0;}.cls-3{opacity:0.8;}.cls-5{fill:#e6e6e6;}.cls-6{fill:url(#linear-gradient);}.cls-7{fill:url(#linear-gradient-2);}.cls-8{fill:url(#linear-gradient-3);}.cls-11,.cls-9{fill:#9dd6e0;}.cls-10{opacity:0.5;}.cls-12{fill:#86b5ba;}</style><linearGradient id="linear-gradient" x1="292.22" y1="51.07" x2="292.13" y2="76.61" gradientUnits="userSpaceOnUse"><stop offset="0" stop-opacity="0.25"/><stop offset="0" stop-opacity="0.24"/><stop offset="0.17" stop-opacity="0"/></linearGradient><linearGradient id="linear-gradient-2" x1="223.59" y1="51.28" x2="223.52" y2="70.51" gradientUnits="userSpaceOnUse"><stop offset="0" stop-color="#84b9bc"/><stop offset="1" stop-color="#9fffff"/></linearGradient><linearGradient id="linear-gradient-3" x1="223.56" y1="51.12" x2="223.54" y2="70.67" gradientUnits="userSpaceOnUse"><stop offset="0" stop-color="#fff"/><stop offset="0.01" stop-color="#fff" stop-opacity="0.91"/><stop offset="0.03" stop-color="#fff" stop-opacity="0.7"/><stop offset="0.06" stop-color="#fff" stop-opacity="0.51"/><stop offset="0.08" stop-color="#fff" stop-opacity="0.36"/><stop offset="0.11" stop-color="#fff" stop-opacity="0.23"/><stop offset="0.13" stop-color="#fff" stop-opacity="0.13"/><stop offset="0.16" stop-color="#fff" stop-opacity="0.06"/><stop offset="0.19" stop-color="#fff" stop-opacity="0.01"/><stop offset="0.22" stop-color="#fff" stop-opacity="0"/></linearGradient></defs><title>Bar</title><g id="bar"><path class="cls-1" d="M520.51,29c-20.59,0-35.83,11-42.12,28L466,56.59a8.2,8.2,0,0,0-1.32.12,5.64,5.64,0,0,0-1.16-.12c-6.06,0-9.55,9.19-9.55,20.52V91.26L473.68,94v0a5.21,5.21,0,0,0,.85.07l11.78-2c6.74.62,15.32,1.82,16.79,2,14.56,2.17,29.34,1.57,44,1a76.66,76.66,0,0,0,9.81-.83,54.52,54.52,0,0,0,10.27-3c2.29-3.07,3.55-7.6,3.55-14.22C570.74,49.76,547.86,29,520.51,29Z"/><path class="cls-2" d="M130.72,89.28l.15,0-.18,0C126,82.07,119.85,74,114.5,70.12a.05.05,0,0,1,0,0,47.9,47.9,0,0,0-4.65-3.36l-.17-.16c-3.81-2.41-7.6-4.68-11.33-6.63a8.43,8.43,0,0,1-.15-1.23,18.27,18.27,0,0,1,.74-6.06A9.54,9.54,0,0,1,100,49.85a.83.83,0,0,1,.14-.13c1.69-6.11,9-9.52,16.44-7.61a15.9,15.9,0,0,1,7.75,4.52c-.48-6-5.14-10.72-14.16-13a32.18,32.18,0,0,0-20.84,1.58c-8.12-.36-28.12,18.68-28.86,19.39h-.14L59,54.35a1.48,1.48,0,0,1-.43-.25,4.52,4.52,0,0,1-.94-1.54,12.73,12.73,0,0,1-.82-3,14.72,14.72,0,0,1,.2-5.65c.11-.46.24-.91.39-1.36a7.45,7.45,0,0,1,.69-1.86,11,11,0,0,1,10.09-7.29,10.2,10.2,0,0,1,4.52,1.07c-1.39-4.61-4.41-6.77-12.57-6.77-12.23,0-24.57,18.94-29.39,35.91C23.13,66,19.85,92.77,12,93.51c12.17,3.6,17.18-14.2,30.11-1.58a2.35,2.35,0,0,0,1.1.47,9,9,0,0,0,6.78.73,12.61,12.61,0,0,0,4.36-3c.54.18,1.08.35,1.63.49s.87.2,1.3.28a14.38,14.38,0,0,1,2,.29l1,.19c1.46.3,3,.64,3.66.69,5.57.35,10.76.88,16.29.35,3.13-.29,6.25-.73,9.33-1.31A7,7,0,0,1,91.27,91q3.75-.83,7.54-1.42l.36-.05c.56-.09,1.11-.17,1.67-.24l.7-.09c1.11-.15,2.23-.28,3.35-.38l.27,0,1.57-.14.94-.06,1.53-.1,1.25-.06c.75,0,1.5,0,2.26-.06l1.19,0h1.4l1.63,0,1.86.07,1.49.08,1.3.08,1.75.15,1.63.16q.95.09,1.89.21l1.25.17,1.82.27,1.07.16ZM102.46,63.14c-.32-.11-.63-.23-.95-.33a5.54,5.54,0,0,1-2.43-1.22,3.07,3.07,0,0,1-.66-1.18A10.25,10.25,0,0,1,102.46,63.14Z"/><g class="cls-3"><rect class="cls-4" x="147.14" y="51.85" width="290.09" height="21.23" rx="10.61"/><rect class="cls-4" x="147.14" y="51.85" width="290.09" height="21.23" rx="10.61"/></g><rect class="cls-5" x="147.14" y="50.35" width="290.09" height="21.23" rx="10.61"/><rect class="cls-6" x="147.14" y="50.35" width="290.09" height="21.23" rx="10.61"/><rect class="cls-5" x="147.14" y="50.35" width="152.83" height="21.23" rx="10.61"/><rect class="cls-7" x="147.14" y="50.35" width="152.83" height="21.23" rx="10.61"/><rect class="cls-8" x="147.14" y="50.35" width="152.83" height="21.23" rx="10.61"/><path class="cls-9" d="M42.11,91.93a2.35,2.35,0,0,0,1.1.47,9,9,0,0,0,6.78.73,14.21,14.21,0,0,0,4.93-3.54A118.87,118.87,0,0,0,67.6,75c.42-.56.84-1.13,1.28-1.65,5.51-8.3,13-14,23-14,8.51,0,12.25,3.88,13.42,9.93a10.55,10.55,0,0,0-6.94-2.67c-6.42,0-11.62,6-11.62,13.49a14.31,14.31,0,0,0,4.5,10.66l.41-.29,9.19-4.84a12.64,12.64,0,0,0,1.21-.74c2.9-2,17.52,2.25,28.84,4.37-5.62,1.24-13.58-15.7-17.69-19.81-.71-.71-2.83-2.12-3.54-2.83-11.16-7.05-22.13-13-31.86-13a163,163,0,0,0-17.68,1,3,3,0,0,1-1.54-.52,4.52,4.52,0,0,1-.94-1.54,12.73,12.73,0,0,1-.82-3,14.72,14.72,0,0,1,.2-5.65c.11-.46.24-.91.39-1.36a7.45,7.45,0,0,1,.69-1.86,11,11,0,0,1,10.09-7.29,10.2,10.2,0,0,1,4.52,1.07c-1.39-4.61-4.41-6.77-12.57-6.77-12.23,0-24.57,18.94-29.39,35.91C23.13,66,19.85,92.77,12,93.51,24.17,97.11,29.18,79.31,42.11,91.93Z"/><path class="cls-10" d="M67.2,66.17a16.11,16.11,0,0,0-6.72-3.55,15.5,15.5,0,0,0-19,10.85,12.49,12.49,0,0,0-.24,1.31h0c-.49,3.91,1.33,7.46,4.31,10.26h0a19.16,19.16,0,0,0,1.75,1.47h0A25.14,25.14,0,0,0,56,90.63c.44.11.87.2,1.3.28a14.38,14.38,0,0,1,2,.29l1,.19c1.46.3,3,.64,3.66.69,5.57.35,10.76.88,16.29.35,3.13-.29,6.25-.73,9.33-1.31A7,7,0,0,1,91.27,91q3.75-.83,7.54-1.42l.36-.05c.56-.09,1.11-.17,1.67-.24l.7-.09c1.11-.15,2.23-.28,3.35-.38l.27,0,1.57-.14.94-.06,1.53-.1,1.25-.06c.75,0,1.5,0,2.26-.06l1.19,0h1.4l1.63,0,1.86.07,1.49.08,1.3.08,1.75.15,1.63.16q.95.09,1.89.21l1.25.17,1.82.27,1.07.16c-4.7-7.27-11-15.59-16.49-19.57a.05.05,0,0,1,0,0,40.34,40.34,0,0,0-12.95-7.33,5.54,5.54,0,0,1-2.43-1.22,4.3,4.3,0,0,1-.92-2.83,18.27,18.27,0,0,1,.74-6.06A9.54,9.54,0,0,1,100,49.85a.83.83,0,0,1,.14-.13c1.69-6.11,9-9.52,16.44-7.61a15.9,15.9,0,0,1,7.75,4.52c-.48-6-5.14-10.72-14.16-13a32.18,32.18,0,0,0-20.84,1.58c-8.27-.37-28.9,19.42-28.9,19.42L53.11,53.3H53c.49.11,1,.22,1.49.35C62.94,55.82,66.54,60.31,67.2,66.17Z"/><path class="cls-11" d="M502.59,92.17c14.56,2.17,29.34,1.57,44,1a76.66,76.66,0,0,0,9.8-.83,54.52,54.52,0,0,0,10.27-3c2.29-3.07,3.55-7.6,3.55-14.22C570.24,47.76,547.36,27,520,27s-45.28,19.34-45.28,46.7c0,7.88-.45,13.08,2.83,16.27C479.6,89,500.23,91.81,502.59,92.17Z"/><path class="cls-11" d="M474,75.11v17L453.5,89.26V75.11c0-11.33,3.5-20.52,9.55-20.52S474,63.78,474,75.11Z"/><path class="cls-12" d="M494.54,63.79c0-4.67-4.53-8.49-9.2-8.49l-19.81-.71a8,8,0,0,0-1.39.13c5.16,1.16,9.17,10.48,9.17,21.81,0,6.7.43,12-.14,15.49a5.21,5.21,0,0,0,.85.07l21.22-3.53Z"/></g></svg>
