<svg xmlns="http://www.w3.org/2000/svg" xmlns:xlink="http://www.w3.org/1999/xlink" width="6000" height="100" viewBox="0 0 6000 100"><defs><style>.cls-1{fill:#fff;}.cls-1,.cls-5{fill-opacity:0.8;}.cls-2,.cls-4{fill:#c3ebf0;}.cls-3,.cls-5{fill:#7ed6e0;}.cls-4{opacity:0.5;}.cls-6{fill:#6db5bb;}.cls-7{fill:#e6e6e6;}.cls-8{fill:url(#linear-gradient);}.cls-9{fill:url(#linear-gradient-2);}.cls-10{fill:url(#linear-gradient-3);}.cls-11{fill:none;}.cls-12{fill:url(#linear-gradient-4);}.cls-13{fill:url(#linear-gradient-5);}.cls-14{fill:url(#linear-gradient-6);}.cls-15{fill:url(#linear-gradient-7);}.cls-16{fill:url(#linear-gradient-8);}.cls-17{fill:url(#linear-gradient-9);}.cls-18{fill:url(#linear-gradient-10);}.cls-19{fill:url(#linear-gradient-11);}.cls-20{fill:url(#linear-gradient-12);}.cls-21{fill:url(#linear-gradient-13);}.cls-22{fill:url(#linear-gradient-14);}.cls-23{fill:url(#linear-gradient-15);}.cls-24{fill:url(#linear-gradient-16);}.cls-25{fill:url(#linear-gradient-17);}.cls-26{fill:url(#linear-gradient-18);}.cls-27{fill:url(#linear-gradient-19);}.cls-28{fill:url(#linear-gradient-20);}.cls-29{fill:url(#linear-gradient-21);}.cls-30{fill:url(#linear-gradient-22);}.cls-31{fill:url(#linear-gradient-23);}.cls-32{fill:url(#linear-gradient-24);}.cls-33{fill:url(#linear-gradient-25);}.cls-34{fill:url(#linear-gradient-26);}.cls-35{fill:url(#linear-gradient-27);}.cls-36{fill:url(#linear-gradient-28);}.cls-37{fill:url(#linear-gradient-29);}.cls-38{fill:url(#linear-gradient-30);}</style><linearGradient id="linear-gradient" x1="5606.62" y1="45.27" x2="5606.55" y2="64.5" gradientUnits="userSpaceOnUse"><stop offset="0" stop-color="#66b9bd"/><stop offset="1" stop-color="#58ffff"/></linearGradient><linearGradient id="linear-gradient-2" x1="5529.65" y1="55.1" x2="5676.97" y2="54.85" gradientUnits="userSpaceOnUse"><stop offset="0" stop-color="#c40200"/><stop offset="0.72" stop-color="#ff187c"/><stop offset="1" stop-color="red" stop-opacity="0"/></linearGradient><linearGradient id="linear-gradient-3" x1="5606.58" y1="45.12" x2="5606.57" y2="64.67" gradientUnits="userSpaceOnUse"><stop offset="0" stop-color="#fff"/><stop offset="0.01" stop-color="#fff" stop-opacity="0.91"/><stop offset="0.03" stop-color="#fff" stop-opacity="0.7"/><stop offset="0.06" stop-color="#fff" stop-opacity="0.51"/><stop offset="0.08" stop-color="#fff" stop-opacity="0.36"/><stop offset="0.11" stop-color="#fff" stop-opacity="0.23"/><stop offset="0.13" stop-color="#fff" stop-opacity="0.13"/><stop offset="0.16" stop-color="#fff" stop-opacity="0.06"/><stop offset="0.19" stop-color="#fff" stop-opacity="0.01"/><stop offset="0.22" stop-color="#fff" stop-opacity="0"/></linearGradient><linearGradient id="linear-gradient-4" x1="3829.05" y1="45.34" x2="3828.98" y2="64.43" xlink:href="#linear-gradient"/><linearGradient id="linear-gradient-5" x1="3776.24" y1="55.06" x2="3877.3" y2="54.89" xlink:href="#linear-gradient-2"/><linearGradient id="linear-gradient-6" x1="3829.01" y1="45.14" x2="3829" y2="64.65" xlink:href="#linear-gradient-3"/><linearGradient id="linear-gradient-7" x1="4424.05" y1="45.32" x2="4423.98" y2="64.45" xlink:href="#linear-gradient"/><linearGradient id="linear-gradient-8" x1="4365.85" y1="55.07" x2="4477.23" y2="54.88" xlink:href="#linear-gradient-2"/><linearGradient id="linear-gradient-9" x1="4424.01" y1="45.13" x2="4424" y2="64.66" xlink:href="#linear-gradient-3"/><linearGradient id="linear-gradient-10" x1="5018.55" y1="45.31" x2="5018.48" y2="64.46" xlink:href="#linear-gradient"/><linearGradient id="linear-gradient-11" x1="4955.51" y1="55.08" x2="5076.16" y2="54.87" xlink:href="#linear-gradient-2"/><linearGradient id="linear-gradient-12" x1="5018.51" y1="45.13" x2="5018.5" y2="64.66" xlink:href="#linear-gradient-3"/><linearGradient id="linear-gradient-13" x1="2049.05" y1="45.4" x2="2048.98" y2="64.37" xlink:href="#linear-gradient"/><linearGradient id="linear-gradient-14" x1="2017.77" y1="55.02" x2="2077.59" y2="54.92" xlink:href="#linear-gradient-2"/><linearGradient id="linear-gradient-15" x1="2049.01" y1="45.15" x2="2049" y2="64.64" xlink:href="#linear-gradient-3"/><linearGradient id="linear-gradient-16" x1="2644.05" y1="45.38" x2="2643.98" y2="64.38" xlink:href="#linear-gradient"/><linearGradient id="linear-gradient-17" x1="2607.39" y1="55.03" x2="2677.52" y2="54.91" xlink:href="#linear-gradient-2"/><linearGradient id="linear-gradient-18" x1="2644.01" y1="45.15" x2="2644" y2="64.64" xlink:href="#linear-gradient-3"/><linearGradient id="linear-gradient-19" x1="3239.05" y1="45.37" x2="3238.98" y2="64.4" xlink:href="#linear-gradient"/><linearGradient id="linear-gradient-20" x1="3197" y1="55.04" x2="3277.45" y2="54.9" xlink:href="#linear-gradient-2"/><linearGradient id="linear-gradient-21" x1="3239.01" y1="45.14" x2="3239" y2="64.65" xlink:href="#linear-gradient-3"/><linearGradient id="linear-gradient-22" x1="272.33" y1="45.47" x2="272.26" y2="64.3" xlink:href="#linear-gradient"/><linearGradient id="linear-gradient-23" x1="266.11" y1="54.98" x2="277.93" y2="54.96" xlink:href="#linear-gradient-2"/><linearGradient id="linear-gradient-24" x1="272.29" y1="45.17" x2="272.27" y2="64.62" xlink:href="#linear-gradient-3"/><linearGradient id="linear-gradient-25" x1="864.05" y1="45.44" x2="863.98" y2="64.32" xlink:href="#linear-gradient"/><linearGradient id="linear-gradient-26" x1="848.92" y1="55" x2="877.81" y2="54.95" xlink:href="#linear-gradient-2"/><linearGradient id="linear-gradient-27" x1="864.01" y1="45.16" x2="864" y2="64.63" xlink:href="#linear-gradient-3"/><linearGradient id="linear-gradient-28" x1="1454.05" y1="45.41" x2="1453.98" y2="64.35" xlink:href="#linear-gradient"/><linearGradient id="linear-gradient-29" x1="1428.16" y1="55.01" x2="1477.67" y2="54.93" xlink:href="#linear-gradient-2"/><linearGradient id="linear-gradient-30" x1="1454.01" y1="45.15" x2="1454" y2="64.64" xlink:href="#linear-gradient-3"/></defs><title>enegy bar_1</title><g id="Layer_2" data-name="Layer 2"><path class="cls-1" d="M5908.51,23c-20.59,0-35.83,11-42.12,28L5854,50.59a8.2,8.2,0,0,0-1.32.12,5.64,5.64,0,0,0-1.16-.12c-6.06,0-9.55,9.19-9.55,20.52V85.26L5861.68,88v0a5.21,5.21,0,0,0,.85.07l11.78-2c6.74.62,15.32,1.82,16.79,2,14.56,2.17,29.34,1.57,44,1a76.66,76.66,0,0,0,9.81-.83,54.52,54.52,0,0,0,10.27-3c2.29-3.07,3.55-7.6,3.55-14.22C5958.74,43.76,5935.86,23,5908.51,23Z"/><path class="cls-2" d="M5518.72,83.28l.15,0-.18,0C5514,76.07,5507.85,68,5502.5,64.12l0,0a47.9,47.9,0,0,0-4.65-3.36l-.17-.16c-3.81-2.41-7.6-4.68-11.33-6.63a8.43,8.43,0,0,1-.15-1.23,18.27,18.27,0,0,1,.74-6.06,9.54,9.54,0,0,1,1.13-2.85.83.83,0,0,1,.14-.13c1.69-6.11,9-9.52,16.44-7.61a15.9,15.9,0,0,1,7.75,4.52c-.48-6-5.14-10.72-14.16-13a32.18,32.18,0,0,0-20.84,1.58c-8.12-.36-28.12,18.68-28.86,19.39h-.14l-1.37-.24a1.48,1.48,0,0,1-.43-.25,4.52,4.52,0,0,1-.94-1.54,12.73,12.73,0,0,1-.82-3,14.72,14.72,0,0,1,.2-5.65c.11-.46.24-.91.39-1.36a7.45,7.45,0,0,1,.69-1.86,11,11,0,0,1,10.09-7.29,10.2,10.2,0,0,1,4.52,1.07c-1.39-4.61-4.41-6.77-12.57-6.77-12.23,0-24.57,18.94-29.39,35.91-7.6,2.37-10.88,29.15-18.73,29.89,12.17,3.6,17.18-14.2,30.11-1.58a2.35,2.35,0,0,0,1.1.47,9,9,0,0,0,6.78.73,12.61,12.61,0,0,0,4.36-3c.54.18,1.08.35,1.63.49s.87.2,1.3.28a14.38,14.38,0,0,1,2,.29l1,.19c1.46.3,3,.64,3.66.69,5.57.35,10.76.88,16.29.35,3.13-.29,6.25-.73,9.33-1.31a7,7,0,0,1,1.76-.16q3.75-.83,7.54-1.42l.36-.05c.56-.09,1.11-.17,1.67-.24l.7-.09c1.11-.15,2.23-.28,3.35-.38l.27,0,1.57-.14.94-.06,1.53-.1,1.25-.06c.75,0,1.5,0,2.26-.06l1.19,0h1.4l1.63,0,1.86.07,1.49.08,1.3.08,1.75.15,1.63.16q.95.09,1.89.21l1.25.17,1.82.27,1.07.16Zm-28.26-26.14c-.32-.11-.63-.23-.95-.33a5.54,5.54,0,0,1-2.43-1.22,3.07,3.07,0,0,1-.66-1.18A10.25,10.25,0,0,1,5490.46,57.14Z"/><path class="cls-3" d="M5430.11,85.93a2.35,2.35,0,0,0,1.1.47,9,9,0,0,0,6.78.73,14.21,14.21,0,0,0,4.93-3.54A118.87,118.87,0,0,0,5455.6,69c.42-.56.84-1.13,1.28-1.65,5.51-8.3,13-14,23-14,8.51,0,12.25,3.88,13.42,9.93a10.55,10.55,0,0,0-6.94-2.67c-6.42,0-11.62,6-11.62,13.49a14.31,14.31,0,0,0,4.5,10.66l.41-.29,9.19-4.84a12.64,12.64,0,0,0,1.21-.74c2.9-2,17.52,2.25,28.84,4.37-5.62,1.24-13.58-15.7-17.69-19.81-.71-.71-2.83-2.12-3.54-2.83-11.16-7-22.13-13-31.86-13a163,163,0,0,0-17.68,1,3,3,0,0,1-1.54-.52,4.52,4.52,0,0,1-.94-1.54,12.73,12.73,0,0,1-.82-3,14.72,14.72,0,0,1,.2-5.65c.11-.46.24-.91.39-1.36a7.45,7.45,0,0,1,.69-1.86,11,11,0,0,1,10.09-7.29,10.2,10.2,0,0,1,4.52,1.07c-1.39-4.61-4.41-6.77-12.57-6.77-12.23,0-24.57,18.94-29.39,35.91-7.6,2.37-10.88,29.15-18.73,29.89C5412.17,91.11,5417.18,73.31,5430.11,85.93Z"/><path class="cls-4" d="M5455.2,60.17a16.11,16.11,0,0,0-6.72-3.55,15.5,15.5,0,0,0-19,10.85,12.49,12.49,0,0,0-.24,1.31h0c-.49,3.91,1.33,7.46,4.31,10.26h0a19.16,19.16,0,0,0,1.75,1.47h0a25.14,25.14,0,0,0,8.72,4.14c.44.11.87.2,1.3.28a14.38,14.38,0,0,1,2,.29l1,.19c1.46.3,3,.64,3.66.69,5.57.35,10.76.88,16.29.35,3.13-.29,6.25-.73,9.33-1.31a7,7,0,0,1,1.76-.16q3.75-.83,7.54-1.42l.36-.05c.56-.09,1.11-.17,1.67-.24l.7-.09c1.11-.15,2.23-.28,3.35-.38l.27,0,1.57-.14.94-.06,1.53-.1,1.25-.06c.75,0,1.5,0,2.26-.06l1.19,0h1.4l1.63,0,1.86.07,1.49.08,1.3.08,1.75.15,1.63.16q.95.09,1.89.21l1.25.17,1.82.27,1.07.16c-4.7-7.27-11-15.59-16.49-19.57l0,0a40.34,40.34,0,0,0-12.95-7.33,5.54,5.54,0,0,1-2.43-1.22,4.3,4.3,0,0,1-.92-2.83,18.27,18.27,0,0,1,.74-6.06,9.54,9.54,0,0,1,1.13-2.85.83.83,0,0,1,.14-.13c1.69-6.11,9-9.52,16.44-7.61a15.9,15.9,0,0,1,7.75,4.52c-.48-6-5.14-10.72-14.16-13a32.18,32.18,0,0,0-20.84,1.58c-8.27-.37-28.9,19.42-28.9,19.42l-7.35-1.31h-.1c.49.11,1,.22,1.49.35C5450.94,49.82,5454.54,54.31,5455.2,60.17Z"/><path class="cls-5" d="M5890.59,86.17c14.56,2.17,29.34,1.57,44,1a76.66,76.66,0,0,0,9.8-.83,54.52,54.52,0,0,0,10.27-3c2.29-3.07,3.55-7.6,3.55-14.22,0-27.35-22.88-48.11-50.23-48.11s-45.28,19.34-45.28,46.7c0,7.88-.45,13.08,2.83,16.27C5867.6,83,5888.23,85.81,5890.59,86.17Z"/><path class="cls-5" d="M5862,69.11v17l-20.52-2.83V69.11c0-11.33,3.5-20.52,9.55-20.52S5862,57.78,5862,69.11Z"/><path class="cls-6" d="M5882.54,57.79c0-4.67-4.53-8.49-9.2-8.49l-19.81-.71a8,8,0,0,0-1.39.13c5.16,1.16,9.17,10.48,9.17,21.81,0,6.7.43,12-.14,15.49a5.21,5.21,0,0,0,.85.07l21.22-3.53Z"/><path class="cls-7" d="M5677.17,65.57H5545.75A10.61,10.61,0,0,1,5535.14,55h0a10.61,10.61,0,0,1,10.61-10.61H5677.7a.29.29,0,0,1,.3.3V64.74A.83.83,0,0,1,5677.17,65.57Z"/><path class="cls-8" d="M5677.17,65.57H5545.75A10.61,10.61,0,0,1,5535.14,55h0a10.61,10.61,0,0,1,10.61-10.61H5677.7a.29.29,0,0,1,.3.3V64.74A.83.83,0,0,1,5677.17,65.57Z"/><path class="cls-9" d="M5677.17,65.57H5545.75A10.61,10.61,0,0,1,5535.14,55h0a10.61,10.61,0,0,1,10.61-10.61H5677.7a.29.29,0,0,1,.3.3V64.74A.83.83,0,0,1,5677.17,65.57Z"/><path class="cls-10" d="M5677.17,65.57H5545.75A10.61,10.61,0,0,1,5535.14,55h0a10.61,10.61,0,0,1,10.61-10.61H5677.7a.29.29,0,0,1,.3.3V64.74A.83.83,0,0,1,5677.17,65.57Z"/><rect class="cls-11" x="5400" width="600" height="100"/><path class="cls-1" d="M4108.51,23c-20.59,0-35.83,11-42.12,28L4054,50.59a8.2,8.2,0,0,0-1.32.12,5.64,5.64,0,0,0-1.16-.12c-6.06,0-9.55,9.19-9.55,20.52V85.26L4061.68,88v0a5.21,5.21,0,0,0,.85.07l11.78-2c6.74.62,15.32,1.82,16.79,2,14.56,2.17,29.34,1.57,44,1a76.66,76.66,0,0,0,9.81-.83,54.52,54.52,0,0,0,10.27-3c2.29-3.07,3.55-7.6,3.55-14.22C4158.74,43.76,4135.86,23,4108.51,23Z"/><path class="cls-2" d="M3718.72,83.28l.15,0-.18,0C3714,76.07,3707.85,68,3702.5,64.12a.05.05,0,0,1,0,0,47.9,47.9,0,0,0-4.65-3.36l-.17-.16c-3.81-2.41-7.6-4.68-11.33-6.63a8.43,8.43,0,0,1-.15-1.23,18.27,18.27,0,0,1,.74-6.06,9.54,9.54,0,0,1,1.13-2.85.83.83,0,0,1,.14-.13c1.69-6.11,9-9.52,16.44-7.61a15.9,15.9,0,0,1,7.75,4.52c-.48-6-5.14-10.72-14.16-13a32.18,32.18,0,0,0-20.84,1.58c-8.12-.36-28.12,18.68-28.86,19.39h-.14l-1.37-.24a1.48,1.48,0,0,1-.43-.25,4.52,4.52,0,0,1-.94-1.54,12.73,12.73,0,0,1-.82-3,14.72,14.72,0,0,1,.2-5.65c.11-.46.24-.91.39-1.36a7.45,7.45,0,0,1,.69-1.86,11,11,0,0,1,10.09-7.29,10.2,10.2,0,0,1,4.52,1.07c-1.39-4.61-4.41-6.77-12.57-6.77-12.23,0-24.57,18.94-29.39,35.91-7.6,2.37-10.88,29.15-18.73,29.89,12.17,3.6,17.18-14.2,30.11-1.58a2.35,2.35,0,0,0,1.1.47,9,9,0,0,0,6.78.73,12.61,12.61,0,0,0,4.36-3c.54.18,1.08.35,1.63.49s.87.2,1.3.28a14.38,14.38,0,0,1,2,.29l1,.19c1.46.3,3,.64,3.66.69,5.57.35,10.76.88,16.29.35,3.13-.29,6.25-.73,9.33-1.31a7,7,0,0,1,1.76-.16q3.75-.83,7.54-1.42l.36-.05c.56-.09,1.11-.17,1.67-.24l.7-.09c1.11-.15,2.23-.28,3.35-.38l.27,0,1.57-.14.94-.06,1.53-.1,1.25-.06c.75,0,1.5,0,2.26-.06l1.19,0h1.4l1.63,0,1.86.07,1.49.08,1.3.08,1.75.15,1.63.16q.95.09,1.89.21l1.25.17,1.82.27,1.07.16Zm-28.26-26.14c-.32-.11-.63-.23-.95-.33a5.54,5.54,0,0,1-2.43-1.22,3.07,3.07,0,0,1-.66-1.18A10.25,10.25,0,0,1,3690.46,57.14Z"/><path class="cls-3" d="M3630.11,85.93a2.35,2.35,0,0,0,1.1.47,9,9,0,0,0,6.78.73,14.21,14.21,0,0,0,4.93-3.54A118.87,118.87,0,0,0,3655.6,69c.42-.56.84-1.13,1.28-1.65,5.51-8.3,13-14,23-14,8.51,0,12.25,3.88,13.42,9.93a10.55,10.55,0,0,0-6.94-2.67c-6.42,0-11.62,6-11.62,13.49a14.31,14.31,0,0,0,4.5,10.66l.41-.29,9.19-4.84a12.64,12.64,0,0,0,1.21-.74c2.9-2,17.52,2.25,28.84,4.37-5.62,1.24-13.58-15.7-17.69-19.81-.71-.71-2.83-2.12-3.54-2.83-11.16-7-22.13-13-31.86-13a163,163,0,0,0-17.68,1,3,3,0,0,1-1.54-.52,4.52,4.52,0,0,1-.94-1.54,12.73,12.73,0,0,1-.82-3,14.72,14.72,0,0,1,.2-5.65c.11-.46.24-.91.39-1.36a7.45,7.45,0,0,1,.69-1.86,11,11,0,0,1,10.09-7.29,10.2,10.2,0,0,1,4.52,1.07c-1.39-4.61-4.41-6.77-12.57-6.77-12.23,0-24.57,18.94-29.39,35.91-7.6,2.37-10.88,29.15-18.73,29.89C3612.17,91.11,3617.18,73.31,3630.11,85.93Z"/><path class="cls-4" d="M3655.2,60.17a16.11,16.11,0,0,0-6.72-3.55,15.5,15.5,0,0,0-19,10.85,12.49,12.49,0,0,0-.24,1.31h0c-.49,3.91,1.33,7.46,4.31,10.26h0a19.16,19.16,0,0,0,1.75,1.47h0a25.14,25.14,0,0,0,8.72,4.14c.44.11.87.2,1.3.28a14.38,14.38,0,0,1,2,.29l1,.19c1.46.3,3,.64,3.66.69,5.57.35,10.76.88,16.29.35,3.13-.29,6.25-.73,9.33-1.31a7,7,0,0,1,1.76-.16q3.75-.83,7.54-1.42l.36-.05c.56-.09,1.11-.17,1.67-.24l.7-.09c1.11-.15,2.23-.28,3.35-.38l.27,0,1.57-.14.94-.06,1.53-.1,1.25-.06c.75,0,1.5,0,2.26-.06l1.19,0h1.4l1.63,0,1.86.07,1.49.08,1.3.08,1.75.15,1.63.16q.95.09,1.89.21l1.25.17,1.82.27,1.07.16c-4.7-7.27-11-15.59-16.49-19.57a.05.05,0,0,1,0,0,40.34,40.34,0,0,0-12.95-7.33,5.54,5.54,0,0,1-2.43-1.22,4.3,4.3,0,0,1-.92-2.83,18.27,18.27,0,0,1,.74-6.06,9.54,9.54,0,0,1,1.13-2.85.83.83,0,0,1,.14-.13c1.69-6.11,9-9.52,16.44-7.61a15.9,15.9,0,0,1,7.75,4.52c-.48-6-5.14-10.72-14.16-13a32.18,32.18,0,0,0-20.84,1.58c-8.27-.37-28.9,19.42-28.9,19.42l-7.35-1.31h-.1c.49.11,1,.22,1.49.35C3650.94,49.82,3654.54,54.31,3655.2,60.17Z"/><path class="cls-5" d="M4090.59,86.17c14.56,2.17,29.34,1.57,44,1a76.66,76.66,0,0,0,9.8-.83,54.52,54.52,0,0,0,10.27-3c2.29-3.07,3.55-7.6,3.55-14.22,0-27.35-22.88-48.11-50.23-48.11s-45.28,19.34-45.28,46.7c0,7.88-.45,13.08,2.83,16.27C4067.6,83,4088.23,85.81,4090.59,86.17Z"/><path class="cls-5" d="M4062,69.11v17l-20.52-2.83V69.11c0-11.33,3.5-20.52,9.55-20.52S4062,57.78,4062,69.11Z"/><path class="cls-6" d="M4082.54,57.79c0-4.67-4.53-8.49-9.2-8.49l-19.81-.71a8,8,0,0,0-1.39.13c5.16,1.16,9.17,10.48,9.17,21.81,0,6.7.43,12-.14,15.49a5.21,5.21,0,0,0,.85.07l21.22-3.53Z"/><path class="cls-7" d="M3877.17,65.57h-86.56A10.61,10.61,0,0,1,3780,55h0a10.61,10.61,0,0,1,10.61-10.61h87.09a.29.29,0,0,1,.3.3V64.74A.83.83,0,0,1,3877.17,65.57Z"/><path class="cls-12" d="M3877.17,65.57h-86.56A10.61,10.61,0,0,1,3780,55h0a10.61,10.61,0,0,1,10.61-10.61h87.09a.29.29,0,0,1,.3.3V64.74A.83.83,0,0,1,3877.17,65.57Z"/><path class="cls-13" d="M3877.17,65.57h-86.56A10.61,10.61,0,0,1,3780,55h0a10.61,10.61,0,0,1,10.61-10.61h87.09a.29.29,0,0,1,.3.3V64.74A.83.83,0,0,1,3877.17,65.57Z"/><path class="cls-14" d="M3877.17,65.57h-86.56A10.61,10.61,0,0,1,3780,55h0a10.61,10.61,0,0,1,10.61-10.61h87.09a.29.29,0,0,1,.3.3V64.74A.83.83,0,0,1,3877.17,65.57Z"/><rect class="cls-11" x="3600" width="600" height="100"/><path class="cls-1" d="M4708.51,23c-20.59,0-35.83,11-42.12,28L4654,50.59a8.2,8.2,0,0,0-1.32.12,5.64,5.64,0,0,0-1.16-.12c-6.06,0-9.55,9.19-9.55,20.52V85.26L4661.68,88v0a5.21,5.21,0,0,0,.85.07l11.78-2c6.74.62,15.32,1.82,16.79,2,14.56,2.17,29.34,1.57,44,1a76.66,76.66,0,0,0,9.81-.83,54.52,54.52,0,0,0,10.27-3c2.29-3.07,3.55-7.6,3.55-14.22C4758.74,43.76,4735.86,23,4708.51,23Z"/><path class="cls-2" d="M4318.72,83.28l.15,0-.18,0C4314,76.07,4307.85,68,4302.5,64.12l0,0a47.9,47.9,0,0,0-4.65-3.36l-.17-.16c-3.81-2.41-7.6-4.68-11.33-6.63a8.43,8.43,0,0,1-.15-1.23,18.27,18.27,0,0,1,.74-6.06,9.54,9.54,0,0,1,1.13-2.85.83.83,0,0,1,.14-.13c1.69-6.11,9-9.52,16.44-7.61a15.9,15.9,0,0,1,7.75,4.52c-.48-6-5.14-10.72-14.16-13a32.18,32.18,0,0,0-20.84,1.58c-8.12-.36-28.12,18.68-28.86,19.39h-.14l-1.37-.24a1.48,1.48,0,0,1-.43-.25,4.52,4.52,0,0,1-.94-1.54,12.73,12.73,0,0,1-.82-3,14.72,14.72,0,0,1,.2-5.65c.11-.46.24-.91.39-1.36a7.45,7.45,0,0,1,.69-1.86,11,11,0,0,1,10.09-7.29,10.2,10.2,0,0,1,4.52,1.07c-1.39-4.61-4.41-6.77-12.57-6.77-12.23,0-24.57,18.94-29.39,35.91-7.6,2.37-10.88,29.15-18.73,29.89,12.17,3.6,17.18-14.2,30.11-1.58a2.35,2.35,0,0,0,1.1.47,9,9,0,0,0,6.78.73,12.61,12.61,0,0,0,4.36-3c.54.18,1.08.35,1.63.49s.87.2,1.3.28a14.38,14.38,0,0,1,2,.29l1,.19c1.46.3,3,.64,3.66.69,5.57.35,10.76.88,16.29.35,3.13-.29,6.25-.73,9.33-1.31a7,7,0,0,1,1.76-.16q3.75-.83,7.54-1.42l.36-.05c.56-.09,1.11-.17,1.67-.24l.7-.09c1.11-.15,2.23-.28,3.35-.38l.27,0,1.57-.14.94-.06,1.53-.1,1.25-.06c.75,0,1.5,0,2.26-.06l1.19,0h1.4l1.63,0,1.86.07,1.49.08,1.3.08,1.75.15,1.63.16q.95.09,1.89.21l1.25.17,1.82.27,1.07.16Zm-28.26-26.14c-.32-.11-.63-.23-.95-.33a5.54,5.54,0,0,1-2.43-1.22,3.07,3.07,0,0,1-.66-1.18A10.25,10.25,0,0,1,4290.46,57.14Z"/><path class="cls-3" d="M4230.11,85.93a2.35,2.35,0,0,0,1.1.47,9,9,0,0,0,6.78.73,14.21,14.21,0,0,0,4.93-3.54A118.87,118.87,0,0,0,4255.6,69c.42-.56.84-1.13,1.28-1.65,5.51-8.3,13-14,23-14,8.51,0,12.25,3.88,13.42,9.93a10.55,10.55,0,0,0-6.94-2.67c-6.42,0-11.62,6-11.62,13.49a14.31,14.31,0,0,0,4.5,10.66l.41-.29,9.19-4.84a12.64,12.64,0,0,0,1.21-.74c2.9-2,17.52,2.25,28.84,4.37-5.62,1.24-13.58-15.7-17.69-19.81-.71-.71-2.83-2.12-3.54-2.83-11.16-7-22.13-13-31.86-13a163,163,0,0,0-17.68,1,3,3,0,0,1-1.54-.52,4.52,4.52,0,0,1-.94-1.54,12.73,12.73,0,0,1-.82-3,14.72,14.72,0,0,1,.2-5.65c.11-.46.24-.91.39-1.36a7.45,7.45,0,0,1,.69-1.86,11,11,0,0,1,10.09-7.29,10.2,10.2,0,0,1,4.52,1.07c-1.39-4.61-4.41-6.77-12.57-6.77-12.23,0-24.57,18.94-29.39,35.91-7.6,2.37-10.88,29.15-18.73,29.89C4212.17,91.11,4217.18,73.31,4230.11,85.93Z"/><path class="cls-4" d="M4255.2,60.17a16.11,16.11,0,0,0-6.72-3.55,15.5,15.5,0,0,0-19,10.85,12.49,12.49,0,0,0-.24,1.31h0c-.49,3.91,1.33,7.46,4.31,10.26h0a19.16,19.16,0,0,0,1.75,1.47h0a25.14,25.14,0,0,0,8.72,4.14c.44.11.87.2,1.3.28a14.38,14.38,0,0,1,2,.29l1,.19c1.46.3,3,.64,3.66.69,5.57.35,10.76.88,16.29.35,3.13-.29,6.25-.73,9.33-1.31a7,7,0,0,1,1.76-.16q3.75-.83,7.54-1.42l.36-.05c.56-.09,1.11-.17,1.67-.24l.7-.09c1.11-.15,2.23-.28,3.35-.38l.27,0,1.57-.14.94-.06,1.53-.1,1.25-.06c.75,0,1.5,0,2.26-.06l1.19,0h1.4l1.63,0,1.86.07,1.49.08,1.3.08,1.75.15,1.63.16q.95.09,1.89.21l1.25.17,1.82.27,1.07.16c-4.7-7.27-11-15.59-16.49-19.57l0,0a40.34,40.34,0,0,0-12.95-7.33,5.54,5.54,0,0,1-2.43-1.22,4.3,4.3,0,0,1-.92-2.83,18.27,18.27,0,0,1,.74-6.06,9.54,9.54,0,0,1,1.13-2.85.83.83,0,0,1,.14-.13c1.69-6.11,9-9.52,16.44-7.61a15.9,15.9,0,0,1,7.75,4.52c-.48-6-5.14-10.72-14.16-13a32.18,32.18,0,0,0-20.84,1.58c-8.27-.37-28.9,19.42-28.9,19.42l-7.35-1.31h-.1c.49.11,1,.22,1.49.35C4250.94,49.82,4254.54,54.31,4255.2,60.17Z"/><path class="cls-5" d="M4690.59,86.17c14.56,2.17,29.34,1.57,44,1a76.66,76.66,0,0,0,9.8-.83,54.52,54.52,0,0,0,10.27-3c2.29-3.07,3.55-7.6,3.55-14.22,0-27.35-22.88-48.11-50.23-48.11s-45.28,19.34-45.28,46.7c0,7.88-.45,13.08,2.83,16.27C4667.6,83,4688.23,85.81,4690.59,86.17Z"/><path class="cls-5" d="M4662,69.11v17l-20.52-2.83V69.11c0-11.33,3.5-20.52,9.55-20.52S4662,57.78,4662,69.11Z"/><path class="cls-6" d="M4682.54,57.79c0-4.67-4.53-8.49-9.2-8.49l-19.81-.71a8,8,0,0,0-1.39.13c5.16,1.16,9.17,10.48,9.17,21.81,0,6.7.43,12-.14,15.49a5.21,5.21,0,0,0,.85.07l21.22-3.53Z"/><path class="cls-7" d="M4477.17,65.57h-96.56A10.61,10.61,0,0,1,4370,55h0a10.61,10.61,0,0,1,10.61-10.61h97.09a.29.29,0,0,1,.3.3V64.74A.83.83,0,0,1,4477.17,65.57Z"/><path class="cls-15" d="M4477.17,65.57h-96.56A10.61,10.61,0,0,1,4370,55h0a10.61,10.61,0,0,1,10.61-10.61h97.09a.29.29,0,0,1,.3.3V64.74A.83.83,0,0,1,4477.17,65.57Z"/><path class="cls-16" d="M4477.17,65.57h-96.56A10.61,10.61,0,0,1,4370,55h0a10.61,10.61,0,0,1,10.61-10.61h97.09a.29.29,0,0,1,.3.3V64.74A.83.83,0,0,1,4477.17,65.57Z"/><path class="cls-17" d="M4477.17,65.57h-96.56A10.61,10.61,0,0,1,4370,55h0a10.61,10.61,0,0,1,10.61-10.61h97.09a.29.29,0,0,1,.3.3V64.74A.83.83,0,0,1,4477.17,65.57Z"/><rect class="cls-11" x="4200" width="600" height="100"/><path class="cls-1" d="M5308.51,23c-20.59,0-35.83,11-42.12,28L5254,50.59a8.2,8.2,0,0,0-1.32.12,5.64,5.64,0,0,0-1.16-.12c-6.06,0-9.55,9.19-9.55,20.52V85.26L5261.68,88v0a5.21,5.21,0,0,0,.85.07l11.78-2c6.74.62,15.32,1.82,16.79,2,14.56,2.17,29.34,1.57,44,1a76.66,76.66,0,0,0,9.81-.83,54.52,54.52,0,0,0,10.27-3c2.29-3.07,3.55-7.6,3.55-14.22C5358.74,43.76,5335.86,23,5308.51,23Z"/><path class="cls-2" d="M4918.72,83.28l.15,0-.18,0C4914,76.07,4907.85,68,4902.5,64.12l0,0a47.9,47.9,0,0,0-4.65-3.36l-.17-.16c-3.81-2.41-7.6-4.68-11.33-6.63a8.43,8.43,0,0,1-.15-1.23,18.27,18.27,0,0,1,.74-6.06,9.54,9.54,0,0,1,1.13-2.85.83.83,0,0,1,.14-.13c1.69-6.11,9-9.52,16.44-7.61a15.9,15.9,0,0,1,7.75,4.52c-.48-6-5.14-10.72-14.16-13a32.18,32.18,0,0,0-20.84,1.58c-8.12-.36-28.12,18.68-28.86,19.39h-.14l-1.37-.24a1.48,1.48,0,0,1-.43-.25,4.52,4.52,0,0,1-.94-1.54,12.73,12.73,0,0,1-.82-3,14.72,14.72,0,0,1,.2-5.65c.11-.46.24-.91.39-1.36a7.45,7.45,0,0,1,.69-1.86,11,11,0,0,1,10.09-7.29,10.2,10.2,0,0,1,4.52,1.07c-1.39-4.61-4.41-6.77-12.57-6.77-12.23,0-24.57,18.94-29.39,35.91-7.6,2.37-10.88,29.15-18.73,29.89,12.17,3.6,17.18-14.2,30.11-1.58a2.35,2.35,0,0,0,1.1.47,9,9,0,0,0,6.78.73,12.61,12.61,0,0,0,4.36-3c.54.18,1.08.35,1.63.49s.87.2,1.3.28a14.38,14.38,0,0,1,2,.29l1,.19c1.46.3,3,.64,3.66.69,5.57.35,10.76.88,16.29.35,3.13-.29,6.25-.73,9.33-1.31a7,7,0,0,1,1.76-.16q3.75-.83,7.54-1.42l.36-.05c.56-.09,1.11-.17,1.67-.24l.7-.09c1.11-.15,2.23-.28,3.35-.38l.27,0,1.57-.14.94-.06,1.53-.1,1.25-.06c.75,0,1.5,0,2.26-.06l1.19,0h1.4l1.63,0,1.86.07,1.49.08,1.3.08,1.75.15,1.63.16q.95.09,1.89.21l1.25.17,1.82.27,1.07.16Zm-28.26-26.14c-.32-.11-.63-.23-.95-.33a5.54,5.54,0,0,1-2.43-1.22,3.07,3.07,0,0,1-.66-1.18A10.25,10.25,0,0,1,4890.46,57.14Z"/><path class="cls-3" d="M4830.11,85.93a2.35,2.35,0,0,0,1.1.47,9,9,0,0,0,6.78.73,14.21,14.21,0,0,0,4.93-3.54A118.87,118.87,0,0,0,4855.6,69c.42-.56.84-1.13,1.28-1.65,5.51-8.3,13-14,23-14,8.51,0,12.25,3.88,13.42,9.93a10.55,10.55,0,0,0-6.94-2.67c-6.42,0-11.62,6-11.62,13.49a14.31,14.31,0,0,0,4.5,10.66l.41-.29,9.19-4.84a12.64,12.64,0,0,0,1.21-.74c2.9-2,17.52,2.25,28.84,4.37-5.62,1.24-13.58-15.7-17.69-19.81-.71-.71-2.83-2.12-3.54-2.83-11.16-7-22.13-13-31.86-13a163,163,0,0,0-17.68,1,3,3,0,0,1-1.54-.52,4.52,4.52,0,0,1-.94-1.54,12.73,12.73,0,0,1-.82-3,14.72,14.72,0,0,1,.2-5.65c.11-.46.24-.91.39-1.36a7.45,7.45,0,0,1,.69-1.86,11,11,0,0,1,10.09-7.29,10.2,10.2,0,0,1,4.52,1.07c-1.39-4.61-4.41-6.77-12.57-6.77-12.23,0-24.57,18.94-29.39,35.91-7.6,2.37-10.88,29.15-18.73,29.89C4812.17,91.11,4817.18,73.31,4830.11,85.93Z"/><path class="cls-4" d="M4855.2,60.17a16.11,16.11,0,0,0-6.72-3.55,15.5,15.5,0,0,0-19,10.85,12.49,12.49,0,0,0-.24,1.31h0c-.49,3.91,1.33,7.46,4.31,10.26h0a19.16,19.16,0,0,0,1.75,1.47h0a25.14,25.14,0,0,0,8.72,4.14c.44.11.87.2,1.3.28a14.38,14.38,0,0,1,2,.29l1,.19c1.46.3,3,.64,3.66.69,5.57.35,10.76.88,16.29.35,3.13-.29,6.25-.73,9.33-1.31a7,7,0,0,1,1.76-.16q3.75-.83,7.54-1.42l.36-.05c.56-.09,1.11-.17,1.67-.24l.7-.09c1.11-.15,2.23-.28,3.35-.38l.27,0,1.57-.14.94-.06,1.53-.1,1.25-.06c.75,0,1.5,0,2.26-.06l1.19,0h1.4l1.63,0,1.86.07,1.49.08,1.3.08,1.75.15,1.63.16q.95.09,1.89.21l1.25.17,1.82.27,1.07.16c-4.7-7.27-11-15.59-16.49-19.57l0,0a40.34,40.34,0,0,0-12.95-7.33,5.54,5.54,0,0,1-2.43-1.22,4.3,4.3,0,0,1-.92-2.83,18.27,18.27,0,0,1,.74-6.06,9.54,9.54,0,0,1,1.13-2.85.83.83,0,0,1,.14-.13c1.69-6.11,9-9.52,16.44-7.61a15.9,15.9,0,0,1,7.75,4.52c-.48-6-5.14-10.72-14.16-13a32.18,32.18,0,0,0-20.84,1.58c-8.27-.37-28.9,19.42-28.9,19.42l-7.35-1.31h-.1c.49.11,1,.22,1.49.35C4850.94,49.82,4854.54,54.31,4855.2,60.17Z"/><path class="cls-5" d="M5290.59,86.17c14.56,2.17,29.34,1.57,44,1a76.66,76.66,0,0,0,9.8-.83,54.52,54.52,0,0,0,10.27-3c2.29-3.07,3.55-7.6,3.55-14.22,0-27.35-22.88-48.11-50.23-48.11s-45.28,19.34-45.28,46.7c0,7.88-.45,13.08,2.83,16.27C5267.6,83,5288.23,85.81,5290.59,86.17Z"/><path class="cls-5" d="M5262,69.11v17l-20.52-2.83V69.11c0-11.33,3.5-20.52,9.55-20.52S5262,57.78,5262,69.11Z"/><path class="cls-6" d="M5282.54,57.79c0-4.67-4.53-8.49-9.2-8.49l-19.81-.71a8,8,0,0,0-1.39.13c5.16,1.16,9.17,10.48,9.17,21.81,0,6.7.43,12-.14,15.49a5.21,5.21,0,0,0,.85.07l21.22-3.53Z"/><path class="cls-7" d="M5076.17,65.57H4970.61A10.61,10.61,0,0,1,4960,55h0a10.61,10.61,0,0,1,10.61-10.61H5076.7a.29.29,0,0,1,.3.3V64.74A.83.83,0,0,1,5076.17,65.57Z"/><path class="cls-18" d="M5076.17,65.57H4970.61A10.61,10.61,0,0,1,4960,55h0a10.61,10.61,0,0,1,10.61-10.61H5076.7a.29.29,0,0,1,.3.3V64.74A.83.83,0,0,1,5076.17,65.57Z"/><path class="cls-19" d="M5076.17,65.57H4970.61A10.61,10.61,0,0,1,4960,55h0a10.61,10.61,0,0,1,10.61-10.61H5076.7a.29.29,0,0,1,.3.3V64.74A.83.83,0,0,1,5076.17,65.57Z"/><path class="cls-20" d="M5076.17,65.57H4970.61A10.61,10.61,0,0,1,4960,55h0a10.61,10.61,0,0,1,10.61-10.61H5076.7a.29.29,0,0,1,.3.3V64.74A.83.83,0,0,1,5076.17,65.57Z"/><rect class="cls-11" x="4800" width="600" height="100"/><path class="cls-1" d="M2308.51,23c-20.59,0-35.83,11-42.12,28L2254,50.59a8.2,8.2,0,0,0-1.32.12,5.64,5.64,0,0,0-1.16-.12c-6.06,0-9.55,9.19-9.55,20.52V85.26L2261.68,88v0a5.21,5.21,0,0,0,.85.07l11.78-2c6.74.62,15.32,1.82,16.79,2,14.56,2.17,29.34,1.57,44,1a76.66,76.66,0,0,0,9.81-.83,54.52,54.52,0,0,0,10.27-3c2.29-3.07,3.55-7.6,3.55-14.22C2358.74,43.76,2335.86,23,2308.51,23Z"/><path class="cls-2" d="M1918.72,83.28l.15,0-.18,0C1914,76.07,1907.85,68,1902.5,64.12a.05.05,0,0,1,0,0,47.9,47.9,0,0,0-4.65-3.36l-.17-.16c-3.81-2.41-7.6-4.68-11.33-6.63a8.43,8.43,0,0,1-.15-1.23,18.27,18.27,0,0,1,.74-6.06,9.54,9.54,0,0,1,1.13-2.85.83.83,0,0,1,.14-.13c1.69-6.11,9-9.52,16.44-7.61a15.9,15.9,0,0,1,7.75,4.52c-.48-6-5.14-10.72-14.16-13a32.18,32.18,0,0,0-20.84,1.58c-8.12-.36-28.12,18.68-28.86,19.39h-.14l-1.37-.24a1.48,1.48,0,0,1-.43-.25,4.52,4.52,0,0,1-.94-1.54,12.73,12.73,0,0,1-.82-3,14.72,14.72,0,0,1,.2-5.65c.11-.46.24-.91.39-1.36a7.45,7.45,0,0,1,.69-1.86,11,11,0,0,1,10.09-7.29,10.2,10.2,0,0,1,4.52,1.07c-1.39-4.61-4.41-6.77-12.57-6.77-12.23,0-24.57,18.94-29.39,35.91-7.6,2.37-10.88,29.15-18.73,29.89,12.17,3.6,17.18-14.2,30.11-1.58a2.35,2.35,0,0,0,1.1.47,9,9,0,0,0,6.78.73,12.61,12.61,0,0,0,4.36-3c.54.18,1.08.35,1.63.49s.87.2,1.3.28a14.38,14.38,0,0,1,2,.29l1,.19c1.46.3,3,.64,3.66.69,5.57.35,10.76.88,16.29.35,3.13-.29,6.25-.73,9.33-1.31a7,7,0,0,1,1.76-.16q3.75-.83,7.54-1.42l.36-.05c.56-.09,1.11-.17,1.67-.24l.7-.09c1.11-.15,2.23-.28,3.35-.38l.27,0,1.57-.14.94-.06,1.53-.1,1.25-.06c.75,0,1.5,0,2.26-.06l1.19,0h1.4l1.63,0,1.86.07,1.49.08,1.3.08,1.75.15,1.63.16q.94.09,1.89.21l1.25.17,1.82.27,1.07.16Zm-28.26-26.14c-.32-.11-.63-.23-1-.33a5.54,5.54,0,0,1-2.43-1.22,3.07,3.07,0,0,1-.66-1.18A10.25,10.25,0,0,1,1890.46,57.14Z"/><path class="cls-3" d="M1830.11,85.93a2.35,2.35,0,0,0,1.1.47,9,9,0,0,0,6.78.73,14.21,14.21,0,0,0,4.93-3.54A118.87,118.87,0,0,0,1855.6,69c.42-.56.84-1.13,1.28-1.65,5.51-8.3,13-14,23-14,8.51,0,12.25,3.88,13.42,9.93a10.55,10.55,0,0,0-6.94-2.67c-6.42,0-11.62,6-11.62,13.49a14.31,14.31,0,0,0,4.5,10.66l.41-.29,9.19-4.84a12.64,12.64,0,0,0,1.21-.74c2.9-2,17.52,2.25,28.84,4.37-5.62,1.24-13.58-15.7-17.69-19.81-.71-.71-2.83-2.12-3.54-2.83-11.16-7-22.13-13-31.86-13a163,163,0,0,0-17.68,1,3,3,0,0,1-1.54-.52,4.52,4.52,0,0,1-.94-1.54,12.73,12.73,0,0,1-.82-3,14.72,14.72,0,0,1,.2-5.65c.11-.46.24-.91.39-1.36a7.45,7.45,0,0,1,.69-1.86,11,11,0,0,1,10.09-7.29,10.2,10.2,0,0,1,4.52,1.07c-1.39-4.61-4.41-6.77-12.57-6.77-12.23,0-24.57,18.94-29.39,35.91-7.6,2.37-10.88,29.15-18.73,29.89C1812.17,91.11,1817.18,73.31,1830.11,85.93Z"/><path class="cls-4" d="M1855.2,60.17a16.11,16.11,0,0,0-6.72-3.55,15.5,15.5,0,0,0-19,10.85,12.49,12.49,0,0,0-.24,1.31h0c-.49,3.91,1.33,7.46,4.31,10.26h0a19.16,19.16,0,0,0,1.75,1.47h0a25.14,25.14,0,0,0,8.72,4.14c.44.11.87.2,1.3.28a14.38,14.38,0,0,1,2,.29l1,.19c1.46.3,3,.64,3.66.69,5.57.35,10.76.88,16.29.35,3.13-.29,6.25-.73,9.33-1.31a7,7,0,0,1,1.76-.16q3.75-.83,7.54-1.42l.36-.05c.56-.09,1.11-.17,1.67-.24l.7-.09c1.11-.15,2.23-.28,3.35-.38l.27,0,1.57-.14.94-.06,1.53-.1,1.25-.06c.75,0,1.5,0,2.26-.06l1.19,0h1.4l1.63,0,1.86.07,1.49.08,1.3.08,1.75.15,1.63.16q.94.09,1.89.21l1.25.17,1.82.27,1.07.16c-4.7-7.27-11-15.59-16.49-19.57a.05.05,0,0,1,0,0,40.34,40.34,0,0,0-13-7.33,5.54,5.54,0,0,1-2.43-1.22,4.3,4.3,0,0,1-.92-2.83,18.27,18.27,0,0,1,.74-6.06,9.54,9.54,0,0,1,1.13-2.85.83.83,0,0,1,.14-.13c1.69-6.11,9-9.52,16.44-7.61a15.9,15.9,0,0,1,7.75,4.52c-.48-6-5.14-10.72-14.16-13a32.18,32.18,0,0,0-20.84,1.58c-8.27-.37-28.9,19.42-28.9,19.42l-7.35-1.31h-.1c.49.11,1,.22,1.49.35C1850.94,49.82,1854.54,54.31,1855.2,60.17Z"/><path class="cls-5" d="M2290.59,86.17c14.56,2.17,29.34,1.57,44,1a76.66,76.66,0,0,0,9.8-.83,54.52,54.52,0,0,0,10.27-3c2.29-3.07,3.55-7.6,3.55-14.22,0-27.35-22.88-48.11-50.23-48.11s-45.28,19.34-45.28,46.7c0,7.88-.45,13.08,2.83,16.27C2267.6,83,2288.23,85.81,2290.59,86.17Z"/><path class="cls-5" d="M2262,69.11v17l-20.52-2.83V69.11c0-11.33,3.5-20.52,9.55-20.52S2262,57.78,2262,69.11Z"/><path class="cls-6" d="M2282.54,57.79c0-4.67-4.53-8.49-9.2-8.49l-19.81-.71a8,8,0,0,0-1.39.13c5.16,1.16,9.17,10.48,9.17,21.81,0,6.7.43,12-.14,15.49a5.21,5.21,0,0,0,.85.07l21.22-3.53Z"/><path class="cls-7" d="M2077.17,65.57h-46.56A10.61,10.61,0,0,1,2020,55h0a10.61,10.61,0,0,1,10.61-10.61h47.09a.29.29,0,0,1,.3.3V64.74A.83.83,0,0,1,2077.17,65.57Z"/><path class="cls-21" d="M2077.17,65.57h-46.56A10.61,10.61,0,0,1,2020,55h0a10.61,10.61,0,0,1,10.61-10.61h47.09a.29.29,0,0,1,.3.3V64.74A.83.83,0,0,1,2077.17,65.57Z"/><path class="cls-22" d="M2077.17,65.57h-46.56A10.61,10.61,0,0,1,2020,55h0a10.61,10.61,0,0,1,10.61-10.61h47.09a.29.29,0,0,1,.3.3V64.74A.83.83,0,0,1,2077.17,65.57Z"/><path class="cls-23" d="M2077.17,65.57h-46.56A10.61,10.61,0,0,1,2020,55h0a10.61,10.61,0,0,1,10.61-10.61h47.09a.29.29,0,0,1,.3.3V64.74A.83.83,0,0,1,2077.17,65.57Z"/><rect class="cls-11" x="1800" width="600" height="100"/><path class="cls-1" d="M2908.51,23c-20.59,0-35.83,11-42.12,28L2854,50.59a8.2,8.2,0,0,0-1.32.12,5.64,5.64,0,0,0-1.16-.12c-6.06,0-9.55,9.19-9.55,20.52V85.26L2861.68,88v0a5.21,5.21,0,0,0,.85.07l11.78-2c6.74.62,15.32,1.82,16.79,2,14.56,2.17,29.34,1.57,44,1a76.66,76.66,0,0,0,9.81-.83,54.52,54.52,0,0,0,10.27-3c2.29-3.07,3.55-7.6,3.55-14.22C2958.74,43.76,2935.86,23,2908.51,23Z"/><path class="cls-2" d="M2518.72,83.28l.15,0-.18,0C2514,76.07,2507.85,68,2502.5,64.12a.05.05,0,0,1,0,0,47.9,47.9,0,0,0-4.65-3.36l-.17-.16c-3.81-2.41-7.6-4.68-11.33-6.63a8.43,8.43,0,0,1-.15-1.23,18.27,18.27,0,0,1,.74-6.06,9.54,9.54,0,0,1,1.13-2.85.83.83,0,0,1,.14-.13c1.69-6.11,9-9.52,16.44-7.61a15.9,15.9,0,0,1,7.75,4.52c-.48-6-5.14-10.72-14.16-13a32.18,32.18,0,0,0-20.84,1.58c-8.12-.36-28.12,18.68-28.86,19.39h-.14l-1.37-.24a1.48,1.48,0,0,1-.43-.25,4.52,4.52,0,0,1-.94-1.54,12.73,12.73,0,0,1-.82-3,14.72,14.72,0,0,1,.2-5.65c.11-.46.24-.91.39-1.36a7.45,7.45,0,0,1,.69-1.86,11,11,0,0,1,10.09-7.29,10.2,10.2,0,0,1,4.52,1.07c-1.39-4.61-4.41-6.77-12.57-6.77-12.23,0-24.57,18.94-29.39,35.91-7.6,2.37-10.88,29.15-18.73,29.89,12.17,3.6,17.18-14.2,30.11-1.58a2.35,2.35,0,0,0,1.1.47,9,9,0,0,0,6.78.73,12.61,12.61,0,0,0,4.36-3c.54.18,1.08.35,1.63.49s.87.2,1.3.28a14.38,14.38,0,0,1,2,.29l1,.19c1.46.3,3,.64,3.66.69,5.57.35,10.76.88,16.29.35,3.13-.29,6.25-.73,9.33-1.31a7,7,0,0,1,1.76-.16q3.75-.83,7.54-1.42l.36-.05c.56-.09,1.11-.17,1.67-.24l.7-.09c1.11-.15,2.23-.28,3.35-.38l.27,0,1.57-.14.94-.06,1.53-.1,1.25-.06c.75,0,1.5,0,2.26-.06l1.19,0h1.4l1.63,0,1.86.07,1.49.08,1.3.08,1.75.15,1.63.16q.95.09,1.89.21l1.25.17,1.82.27,1.07.16Zm-28.26-26.14c-.32-.11-.63-.23-.95-.33a5.54,5.54,0,0,1-2.43-1.22,3.07,3.07,0,0,1-.66-1.18A10.25,10.25,0,0,1,2490.46,57.14Z"/><path class="cls-3" d="M2430.11,85.93a2.35,2.35,0,0,0,1.1.47,9,9,0,0,0,6.78.73,14.21,14.21,0,0,0,4.93-3.54A118.87,118.87,0,0,0,2455.6,69c.42-.56.84-1.13,1.28-1.65,5.51-8.3,13-14,23-14,8.51,0,12.25,3.88,13.42,9.93a10.55,10.55,0,0,0-6.94-2.67c-6.42,0-11.62,6-11.62,13.49a14.31,14.31,0,0,0,4.5,10.66l.41-.29,9.19-4.84a12.64,12.64,0,0,0,1.21-.74c2.9-2,17.52,2.25,28.84,4.37-5.62,1.24-13.58-15.7-17.69-19.81-.71-.71-2.83-2.12-3.54-2.83-11.16-7-22.13-13-31.86-13a163,163,0,0,0-17.68,1,3,3,0,0,1-1.54-.52,4.52,4.52,0,0,1-.94-1.54,12.73,12.73,0,0,1-.82-3,14.72,14.72,0,0,1,.2-5.65c.11-.46.24-.91.39-1.36a7.45,7.45,0,0,1,.69-1.86,11,11,0,0,1,10.09-7.29,10.2,10.2,0,0,1,4.52,1.07c-1.39-4.61-4.41-6.77-12.57-6.77-12.23,0-24.57,18.94-29.39,35.91-7.6,2.37-10.88,29.15-18.73,29.89C2412.17,91.11,2417.18,73.31,2430.11,85.93Z"/><path class="cls-4" d="M2455.2,60.17a16.11,16.11,0,0,0-6.72-3.55,15.5,15.5,0,0,0-19,10.85,12.49,12.49,0,0,0-.24,1.31h0c-.49,3.91,1.33,7.46,4.31,10.26h0a19.16,19.16,0,0,0,1.75,1.47h0a25.14,25.14,0,0,0,8.72,4.14c.44.11.87.2,1.3.28a14.38,14.38,0,0,1,2,.29l1,.19c1.46.3,3,.64,3.66.69,5.57.35,10.76.88,16.29.35,3.13-.29,6.25-.73,9.33-1.31a7,7,0,0,1,1.76-.16q3.75-.83,7.54-1.42l.36-.05c.56-.09,1.11-.17,1.67-.24l.7-.09c1.11-.15,2.23-.28,3.35-.38l.27,0,1.57-.14.94-.06,1.53-.1,1.25-.06c.75,0,1.5,0,2.26-.06l1.19,0h1.4l1.63,0,1.86.07,1.49.08,1.3.08,1.75.15,1.63.16q.95.09,1.89.21l1.25.17,1.82.27,1.07.16c-4.7-7.27-11-15.59-16.49-19.57a.05.05,0,0,1,0,0,40.34,40.34,0,0,0-12.95-7.33,5.54,5.54,0,0,1-2.43-1.22,4.3,4.3,0,0,1-.92-2.83,18.27,18.27,0,0,1,.74-6.06,9.54,9.54,0,0,1,1.13-2.85.83.83,0,0,1,.14-.13c1.69-6.11,9-9.52,16.44-7.61a15.9,15.9,0,0,1,7.75,4.52c-.48-6-5.14-10.72-14.16-13a32.18,32.18,0,0,0-20.84,1.58c-8.27-.37-28.9,19.42-28.9,19.42l-7.35-1.31h-.1c.49.11,1,.22,1.49.35C2450.94,49.82,2454.54,54.31,2455.2,60.17Z"/><path class="cls-5" d="M2890.59,86.17c14.56,2.17,29.34,1.57,44,1a76.66,76.66,0,0,0,9.8-.83,54.52,54.52,0,0,0,10.27-3c2.29-3.07,3.55-7.6,3.55-14.22,0-27.35-22.88-48.11-50.23-48.11s-45.28,19.34-45.28,46.7c0,7.88-.45,13.08,2.83,16.27C2867.6,83,2888.23,85.81,2890.59,86.17Z"/><path class="cls-5" d="M2862,69.11v17l-20.52-2.83V69.11c0-11.33,3.5-20.52,9.55-20.52S2862,57.78,2862,69.11Z"/><path class="cls-6" d="M2882.54,57.79c0-4.67-4.53-8.49-9.2-8.49l-19.81-.71a8,8,0,0,0-1.39.13c5.16,1.16,9.17,10.48,9.17,21.81,0,6.7.43,12-.14,15.49a5.21,5.21,0,0,0,.85.07l21.22-3.53Z"/><path class="cls-7" d="M2677.17,65.57h-56.56A10.61,10.61,0,0,1,2610,55h0a10.61,10.61,0,0,1,10.61-10.61h57.09a.29.29,0,0,1,.3.3V64.74A.83.83,0,0,1,2677.17,65.57Z"/><path class="cls-24" d="M2677.17,65.57h-56.56A10.61,10.61,0,0,1,2610,55h0a10.61,10.61,0,0,1,10.61-10.61h57.09a.29.29,0,0,1,.3.3V64.74A.83.83,0,0,1,2677.17,65.57Z"/><path class="cls-25" d="M2677.17,65.57h-56.56A10.61,10.61,0,0,1,2610,55h0a10.61,10.61,0,0,1,10.61-10.61h57.09a.29.29,0,0,1,.3.3V64.74A.83.83,0,0,1,2677.17,65.57Z"/><path class="cls-26" d="M2677.17,65.57h-56.56A10.61,10.61,0,0,1,2610,55h0a10.61,10.61,0,0,1,10.61-10.61h57.09a.29.29,0,0,1,.3.3V64.74A.83.83,0,0,1,2677.17,65.57Z"/><rect class="cls-11" x="2400" width="600" height="100"/><path class="cls-1" d="M3508.51,23c-20.59,0-35.83,11-42.12,28L3454,50.59a8.2,8.2,0,0,0-1.32.12,5.64,5.64,0,0,0-1.16-.12c-6.06,0-9.55,9.19-9.55,20.52V85.26L3461.68,88v0a5.21,5.21,0,0,0,.85.07l11.78-2c6.74.62,15.32,1.82,16.79,2,14.56,2.17,29.34,1.57,44,1a76.66,76.66,0,0,0,9.81-.83,54.52,54.52,0,0,0,10.27-3c2.29-3.07,3.55-7.6,3.55-14.22C3558.74,43.76,3535.86,23,3508.51,23Z"/><path class="cls-2" d="M3118.72,83.28l.15,0-.18,0C3114,76.07,3107.85,68,3102.5,64.12a.05.05,0,0,1,0,0,47.9,47.9,0,0,0-4.65-3.36l-.17-.16c-3.81-2.41-7.6-4.68-11.33-6.63a8.43,8.43,0,0,1-.15-1.23,18.27,18.27,0,0,1,.74-6.06,9.54,9.54,0,0,1,1.13-2.85.83.83,0,0,1,.14-.13c1.69-6.11,9-9.52,16.44-7.61a15.9,15.9,0,0,1,7.75,4.52c-.48-6-5.14-10.72-14.16-13a32.18,32.18,0,0,0-20.84,1.58c-8.12-.36-28.12,18.68-28.86,19.39h-.14l-1.37-.24a1.48,1.48,0,0,1-.43-.25,4.52,4.52,0,0,1-.94-1.54,12.73,12.73,0,0,1-.82-3,14.72,14.72,0,0,1,.2-5.65c.11-.46.24-.91.39-1.36a7.45,7.45,0,0,1,.69-1.86,11,11,0,0,1,10.09-7.29,10.2,10.2,0,0,1,4.52,1.07c-1.39-4.61-4.41-6.77-12.57-6.77-12.23,0-24.57,18.94-29.39,35.91-7.6,2.37-10.88,29.15-18.73,29.89,12.17,3.6,17.18-14.2,30.11-1.58a2.35,2.35,0,0,0,1.1.47,9,9,0,0,0,6.78.73,12.61,12.61,0,0,0,4.36-3c.54.18,1.08.35,1.63.49s.87.2,1.3.28a14.38,14.38,0,0,1,2,.29l1,.19c1.46.3,3,.64,3.66.69,5.57.35,10.76.88,16.29.35,3.13-.29,6.25-.73,9.33-1.31a7,7,0,0,1,1.76-.16q3.75-.83,7.54-1.42l.36-.05c.56-.09,1.11-.17,1.67-.24l.7-.09c1.11-.15,2.23-.28,3.35-.38l.27,0,1.57-.14.94-.06,1.53-.1,1.25-.06c.75,0,1.5,0,2.26-.06l1.19,0h1.4l1.63,0,1.86.07,1.49.08,1.3.08,1.75.15,1.63.16q.95.09,1.89.21l1.25.17,1.82.27,1.07.16Zm-28.26-26.14c-.32-.11-.63-.23-.95-.33a5.54,5.54,0,0,1-2.43-1.22,3.07,3.07,0,0,1-.66-1.18A10.25,10.25,0,0,1,3090.46,57.14Z"/><path class="cls-3" d="M3030.11,85.93a2.35,2.35,0,0,0,1.1.47,9,9,0,0,0,6.78.73,14.21,14.21,0,0,0,4.93-3.54A118.87,118.87,0,0,0,3055.6,69c.42-.56.84-1.13,1.28-1.65,5.51-8.3,13-14,23-14,8.51,0,12.25,3.88,13.42,9.93a10.55,10.55,0,0,0-6.94-2.67c-6.42,0-11.62,6-11.62,13.49a14.31,14.31,0,0,0,4.5,10.66l.41-.29,9.19-4.84a12.64,12.64,0,0,0,1.21-.74c2.9-2,17.52,2.25,28.84,4.37-5.62,1.24-13.58-15.7-17.69-19.81-.71-.71-2.83-2.12-3.54-2.83-11.16-7-22.13-13-31.86-13a163,163,0,0,0-17.68,1,3,3,0,0,1-1.54-.52,4.52,4.52,0,0,1-.94-1.54,12.73,12.73,0,0,1-.82-3,14.72,14.72,0,0,1,.2-5.65c.11-.46.24-.91.39-1.36a7.45,7.45,0,0,1,.69-1.86,11,11,0,0,1,10.09-7.29,10.2,10.2,0,0,1,4.52,1.07c-1.39-4.61-4.41-6.77-12.57-6.77-12.23,0-24.57,18.94-29.39,35.91-7.6,2.37-10.88,29.15-18.73,29.89C3012.17,91.11,3017.18,73.31,3030.11,85.93Z"/><path class="cls-4" d="M3055.2,60.17a16.11,16.11,0,0,0-6.72-3.55,15.5,15.5,0,0,0-19,10.85,12.49,12.49,0,0,0-.24,1.31h0c-.49,3.91,1.33,7.46,4.31,10.26h0a19.16,19.16,0,0,0,1.75,1.47h0a25.14,25.14,0,0,0,8.72,4.14c.44.11.87.2,1.3.28a14.38,14.38,0,0,1,2,.29l1,.19c1.46.3,3,.64,3.66.69,5.57.35,10.76.88,16.29.35,3.13-.29,6.25-.73,9.33-1.31a7,7,0,0,1,1.76-.16q3.75-.83,7.54-1.42l.36-.05c.56-.09,1.11-.17,1.67-.24l.7-.09c1.11-.15,2.23-.28,3.35-.38l.27,0,1.57-.14.94-.06,1.53-.1,1.25-.06c.75,0,1.5,0,2.26-.06l1.19,0h1.4l1.63,0,1.86.07,1.49.08,1.3.08,1.75.15,1.63.16q.95.09,1.89.21l1.25.17,1.82.27,1.07.16c-4.7-7.27-11-15.59-16.49-19.57a.05.05,0,0,1,0,0,40.34,40.34,0,0,0-12.95-7.33,5.54,5.54,0,0,1-2.43-1.22,4.3,4.3,0,0,1-.92-2.83,18.27,18.27,0,0,1,.74-6.06,9.54,9.54,0,0,1,1.13-2.85.83.83,0,0,1,.14-.13c1.69-6.11,9-9.52,16.44-7.61a15.9,15.9,0,0,1,7.75,4.52c-.48-6-5.14-10.72-14.16-13a32.18,32.18,0,0,0-20.84,1.58c-8.27-.37-28.9,19.42-28.9,19.42l-7.35-1.31h-.1c.49.11,1,.22,1.49.35C3050.94,49.82,3054.54,54.31,3055.2,60.17Z"/><path class="cls-5" d="M3490.59,86.17c14.56,2.17,29.34,1.57,44,1a76.66,76.66,0,0,0,9.8-.83,54.52,54.52,0,0,0,10.27-3c2.29-3.07,3.55-7.6,3.55-14.22,0-27.35-22.88-48.11-50.23-48.11s-45.28,19.34-45.28,46.7c0,7.88-.45,13.08,2.83,16.27C3467.6,83,3488.23,85.81,3490.59,86.17Z"/><path class="cls-5" d="M3462,69.11v17l-20.52-2.83V69.11c0-11.33,3.5-20.52,9.55-20.52S3462,57.78,3462,69.11Z"/><path class="cls-6" d="M3482.54,57.79c0-4.67-4.53-8.49-9.2-8.49l-19.81-.71a8,8,0,0,0-1.39.13c5.16,1.16,9.17,10.48,9.17,21.81,0,6.7.43,12-.14,15.49a5.21,5.21,0,0,0,.85.07l21.22-3.53Z"/><path class="cls-7" d="M3277.17,65.57h-66.56A10.61,10.61,0,0,1,3200,55h0a10.61,10.61,0,0,1,10.61-10.61h67.09a.29.29,0,0,1,.3.3V64.74A.83.83,0,0,1,3277.17,65.57Z"/><path class="cls-27" d="M3277.17,65.57h-66.56A10.61,10.61,0,0,1,3200,55h0a10.61,10.61,0,0,1,10.61-10.61h67.09a.29.29,0,0,1,.3.3V64.74A.83.83,0,0,1,3277.17,65.57Z"/><path class="cls-28" d="M3277.17,65.57h-66.56A10.61,10.61,0,0,1,3200,55h0a10.61,10.61,0,0,1,10.61-10.61h67.09a.29.29,0,0,1,.3.3V64.74A.83.83,0,0,1,3277.17,65.57Z"/><path class="cls-29" d="M3277.17,65.57h-66.56A10.61,10.61,0,0,1,3200,55h0a10.61,10.61,0,0,1,10.61-10.61h67.09a.29.29,0,0,1,.3.3V64.74A.83.83,0,0,1,3277.17,65.57Z"/><rect class="cls-11" x="3000" width="600" height="100"/><path class="cls-1" d="M508.51,23c-20.59,0-35.83,11-42.12,28L454,50.59a8.2,8.2,0,0,0-1.32.12,5.64,5.64,0,0,0-1.16-.12c-6.06,0-9.55,9.19-9.55,20.52V85.26L461.68,88v0a5.21,5.21,0,0,0,.85.07l11.78-2c6.74.62,15.32,1.82,16.79,2,14.56,2.17,29.34,1.57,44,1a76.66,76.66,0,0,0,9.81-.83,54.52,54.52,0,0,0,10.27-3c2.29-3.07,3.55-7.6,3.55-14.22C558.74,43.76,535.86,23,508.51,23Z"/><path class="cls-2" d="M118.72,83.28l.15,0-.18,0C114,76.07,107.85,68,102.5,64.12a.05.05,0,0,1,0,0,47.9,47.9,0,0,0-4.65-3.36l-.17-.16C93.83,58.21,90,55.94,86.31,54a8.43,8.43,0,0,1-.15-1.23,18.27,18.27,0,0,1,.74-6.06A9.54,9.54,0,0,1,88,43.85a.83.83,0,0,1,.14-.13c1.69-6.11,9-9.52,16.44-7.61a15.9,15.9,0,0,1,7.75,4.52c-.48-6-5.14-10.72-14.16-13a32.18,32.18,0,0,0-20.84,1.58c-8.12-.36-28.12,18.68-28.86,19.39h-.14L47,48.35a1.48,1.48,0,0,1-.43-.25,4.52,4.52,0,0,1-.94-1.54,12.73,12.73,0,0,1-.82-3,14.72,14.72,0,0,1,.2-5.65c.11-.46.24-.91.39-1.36a7.45,7.45,0,0,1,.69-1.86,11,11,0,0,1,10.09-7.29,10.2,10.2,0,0,1,4.52,1.07c-1.39-4.61-4.41-6.77-12.57-6.77-12.23,0-24.57,18.94-29.39,35.91C11.13,60,7.85,86.77,0,87.51c12.17,3.6,17.18-14.2,30.11-1.58a2.35,2.35,0,0,0,1.1.47,9,9,0,0,0,6.78.73,12.61,12.61,0,0,0,4.36-3c.54.18,1.08.35,1.63.49s.87.2,1.3.28a14.38,14.38,0,0,1,2,.29l1,.19c1.46.3,3,.64,3.66.69,5.57.35,10.76.88,16.29.35,3.13-.29,6.25-.73,9.33-1.31A7,7,0,0,1,79.27,85q3.75-.83,7.54-1.42l.36-.05c.56-.09,1.11-.17,1.67-.24l.7-.09c1.11-.15,2.23-.28,3.35-.38l.27,0,1.57-.14.94-.06,1.53-.1,1.25-.06c.75,0,1.5,0,2.26-.06l1.19,0h1.4l1.63,0,1.86.07,1.49.08,1.3.08,1.75.15,1.63.16q.95.09,1.89.21l1.25.17,1.82.27,1.07.16ZM90.46,57.14c-.32-.11-.63-.23-.95-.33a5.54,5.54,0,0,1-2.43-1.22,3.07,3.07,0,0,1-.66-1.18A10.25,10.25,0,0,1,90.46,57.14Z"/><path class="cls-3" d="M30.11,85.93a2.35,2.35,0,0,0,1.1.47,9,9,0,0,0,6.78.73,14.21,14.21,0,0,0,4.93-3.54A118.87,118.87,0,0,0,55.6,69c.42-.56.84-1.13,1.28-1.65,5.51-8.3,13-14,23-14,8.51,0,12.25,3.88,13.42,9.93a10.55,10.55,0,0,0-6.94-2.67c-6.42,0-11.62,6-11.62,13.49a14.31,14.31,0,0,0,4.5,10.66l.41-.29,9.19-4.84A12.64,12.64,0,0,0,90,78.89c2.9-2,17.52,2.25,28.84,4.37-5.62,1.24-13.58-15.7-17.69-19.81-.71-.71-2.83-2.12-3.54-2.83-11.16-7-22.13-13-31.86-13a163,163,0,0,0-17.68,1,3,3,0,0,1-1.54-.52,4.52,4.52,0,0,1-.94-1.54,12.73,12.73,0,0,1-.82-3,14.72,14.72,0,0,1,.2-5.65c.11-.46.24-.91.39-1.36a7.45,7.45,0,0,1,.69-1.86,11,11,0,0,1,10.09-7.29,10.2,10.2,0,0,1,4.52,1.07c-1.39-4.61-4.41-6.77-12.57-6.77-12.23,0-24.57,18.94-29.39,35.91C11.13,60,7.85,86.77,0,87.51,12.17,91.11,17.18,73.31,30.11,85.93Z"/><path class="cls-4" d="M55.2,60.17a16.11,16.11,0,0,0-6.72-3.55,15.5,15.5,0,0,0-19,10.85,12.49,12.49,0,0,0-.24,1.31h0c-.49,3.91,1.33,7.46,4.31,10.26h0a19.16,19.16,0,0,0,1.75,1.47h0A25.14,25.14,0,0,0,44,84.63c.44.11.87.2,1.3.28a14.38,14.38,0,0,1,2,.29l1,.19c1.46.3,3,.64,3.66.69,5.57.35,10.76.88,16.29.35,3.13-.29,6.25-.73,9.33-1.31A7,7,0,0,1,79.27,85q3.75-.83,7.54-1.42l.36-.05c.56-.09,1.11-.17,1.67-.24l.7-.09c1.11-.15,2.23-.28,3.35-.38l.27,0,1.57-.14.94-.06,1.53-.1,1.25-.06c.75,0,1.5,0,2.26-.06l1.19,0h1.4l1.63,0,1.86.07,1.49.08,1.3.08,1.75.15,1.63.16q.95.09,1.89.21l1.25.17,1.82.27,1.07.16c-4.7-7.27-11-15.59-16.49-19.57a.05.05,0,0,1,0,0,40.34,40.34,0,0,0-12.95-7.33,5.54,5.54,0,0,1-2.43-1.22,4.3,4.3,0,0,1-.92-2.83,18.27,18.27,0,0,1,.74-6.06A9.54,9.54,0,0,1,88,43.85a.83.83,0,0,1,.14-.13c1.69-6.11,9-9.52,16.44-7.61a15.9,15.9,0,0,1,7.75,4.52c-.48-6-5.14-10.72-14.16-13a32.18,32.18,0,0,0-20.84,1.58c-8.27-.37-28.9,19.42-28.9,19.42L41.11,47.3H41c.49.11,1,.22,1.49.35C50.94,49.82,54.54,54.31,55.2,60.17Z"/><path class="cls-5" d="M490.59,86.17c14.56,2.17,29.34,1.57,44,1a76.66,76.66,0,0,0,9.8-.83,54.52,54.52,0,0,0,10.27-3c2.29-3.07,3.55-7.6,3.55-14.22C558.24,41.76,535.36,21,508,21s-45.28,19.34-45.28,46.7c0,7.88-.45,13.08,2.83,16.27C467.6,83,488.23,85.81,490.59,86.17Z"/><path class="cls-5" d="M462,69.11v17L441.5,83.26V69.11c0-11.33,3.5-20.52,9.55-20.52S462,57.78,462,69.11Z"/><path class="cls-6" d="M482.54,57.79c0-4.67-4.53-8.49-9.2-8.49l-19.81-.71a8,8,0,0,0-1.39.13c5.16,1.16,9.17,10.48,9.17,21.81,0,6.7.43,12-.14,15.49a5.21,5.21,0,0,0,.85.07l21.22-3.53Z"/><path class="cls-7" d="M277.17,65.57h0A10.61,10.61,0,0,1,266.55,55h0a10.61,10.61,0,0,1,10.62-10.61h.53a.29.29,0,0,1,.3.3V64.74A.83.83,0,0,1,277.17,65.57Z"/><path class="cls-30" d="M277.17,65.57h0A10.61,10.61,0,0,1,266.55,55h0a10.61,10.61,0,0,1,10.62-10.61h.53a.29.29,0,0,1,.3.3V64.74A.83.83,0,0,1,277.17,65.57Z"/><path class="cls-31" d="M277.17,65.57h0A10.61,10.61,0,0,1,266.55,55h0a10.61,10.61,0,0,1,10.62-10.61h.53a.29.29,0,0,1,.3.3V64.74A.83.83,0,0,1,277.17,65.57Z"/><path class="cls-32" d="M277.17,65.57h0A10.61,10.61,0,0,1,266.55,55h0a10.61,10.61,0,0,1,10.62-10.61h.53a.29.29,0,0,1,.3.3V64.74A.83.83,0,0,1,277.17,65.57Z"/><rect class="cls-11" width="600" height="100"/><path class="cls-1" d="M1108.51,23c-20.59,0-35.83,11-42.12,28L1054,50.59a8.2,8.2,0,0,0-1.32.12,5.64,5.64,0,0,0-1.16-.12c-6.06,0-9.55,9.19-9.55,20.52V85.26L1061.68,88v0a5.21,5.21,0,0,0,.85.07l11.78-2c6.74.62,15.32,1.82,16.79,2,14.56,2.17,29.34,1.57,44,1a76.66,76.66,0,0,0,9.81-.83,54.52,54.52,0,0,0,10.27-3c2.29-3.07,3.55-7.6,3.55-14.22C1158.74,43.76,1135.86,23,1108.51,23Z"/><path class="cls-2" d="M718.72,83.28l.15,0-.18,0C714,76.07,707.85,68,702.5,64.12a.05.05,0,0,1,0,0,47.9,47.9,0,0,0-4.65-3.36l-.17-.16c-3.81-2.41-7.6-4.68-11.33-6.63a8.43,8.43,0,0,1-.15-1.23,18.27,18.27,0,0,1,.74-6.06A9.54,9.54,0,0,1,688,43.85a.83.83,0,0,1,.14-.13c1.69-6.11,9-9.52,16.44-7.61a15.9,15.9,0,0,1,7.75,4.52c-.48-6-5.14-10.72-14.16-13a32.18,32.18,0,0,0-20.84,1.58c-8.12-.36-28.12,18.68-28.86,19.39h-.14L647,48.35a1.48,1.48,0,0,1-.43-.25,4.52,4.52,0,0,1-.94-1.54,12.73,12.73,0,0,1-.82-3,14.72,14.72,0,0,1,.2-5.65c.11-.46.24-.91.39-1.36a7.45,7.45,0,0,1,.69-1.86,11,11,0,0,1,10.09-7.29,10.2,10.2,0,0,1,4.52,1.07c-1.39-4.61-4.41-6.77-12.57-6.77-12.23,0-24.57,18.94-29.39,35.91C611.13,60,607.85,86.77,600,87.51c12.17,3.6,17.18-14.2,30.11-1.58a2.35,2.35,0,0,0,1.1.47,9,9,0,0,0,6.78.73,12.61,12.61,0,0,0,4.36-3c.54.18,1.08.35,1.63.49s.87.2,1.3.28a14.38,14.38,0,0,1,2,.29l1,.19c1.46.3,3,.64,3.66.69,5.57.35,10.76.88,16.29.35,3.13-.29,6.25-.73,9.33-1.31a7,7,0,0,1,1.76-.16q3.75-.83,7.54-1.42l.36-.05c.56-.09,1.11-.17,1.67-.24l.7-.09c1.11-.15,2.23-.28,3.35-.38l.27,0,1.57-.14.94-.06,1.53-.1,1.25-.06c.75,0,1.5,0,2.26-.06l1.19,0h1.4l1.63,0,1.86.07,1.49.08,1.3.08,1.75.15,1.63.16q.94.09,1.89.21l1.25.17,1.82.27,1.07.16ZM690.46,57.14c-.32-.11-.63-.23-1-.33a5.54,5.54,0,0,1-2.43-1.22,3.07,3.07,0,0,1-.66-1.18A10.25,10.25,0,0,1,690.46,57.14Z"/><path class="cls-3" d="M630.11,85.93a2.35,2.35,0,0,0,1.1.47,9,9,0,0,0,6.78.73,14.21,14.21,0,0,0,4.93-3.54A118.87,118.87,0,0,0,655.6,69c.42-.56.84-1.13,1.28-1.65,5.51-8.3,13-14,23-14,8.51,0,12.25,3.88,13.42,9.93a10.55,10.55,0,0,0-6.94-2.67c-6.42,0-11.62,6-11.62,13.49a14.31,14.31,0,0,0,4.5,10.66l.41-.29,9.19-4.84a12.64,12.64,0,0,0,1.21-.74c2.9-2,17.52,2.25,28.84,4.37-5.62,1.24-13.58-15.7-17.69-19.81-.71-.71-2.83-2.12-3.54-2.83-11.16-7-22.13-13-31.86-13a163,163,0,0,0-17.68,1,3,3,0,0,1-1.54-.52,4.52,4.52,0,0,1-.94-1.54,12.73,12.73,0,0,1-.82-3,14.72,14.72,0,0,1,.2-5.65c.11-.46.24-.91.39-1.36a7.45,7.45,0,0,1,.69-1.86,11,11,0,0,1,10.09-7.29,10.2,10.2,0,0,1,4.52,1.07c-1.39-4.61-4.41-6.77-12.57-6.77-12.23,0-24.57,18.94-29.39,35.91C611.13,60,607.85,86.77,600,87.51,612.17,91.11,617.18,73.31,630.11,85.93Z"/><path class="cls-4" d="M655.2,60.17a16.11,16.11,0,0,0-6.72-3.55,15.5,15.5,0,0,0-19,10.85,12.49,12.49,0,0,0-.24,1.31h0c-.49,3.91,1.33,7.46,4.31,10.26h0a19.16,19.16,0,0,0,1.75,1.47h0A25.14,25.14,0,0,0,644,84.63c.44.11.87.2,1.3.28a14.38,14.38,0,0,1,2,.29l1,.19c1.46.3,3,.64,3.66.69,5.57.35,10.76.88,16.29.35,3.13-.29,6.25-.73,9.33-1.31a7,7,0,0,1,1.76-.16q3.75-.83,7.54-1.42l.36-.05c.56-.09,1.11-.17,1.67-.24l.7-.09c1.11-.15,2.23-.28,3.35-.38l.27,0,1.57-.14.94-.06,1.53-.1,1.25-.06c.75,0,1.5,0,2.26-.06l1.19,0h1.4l1.63,0,1.86.07,1.49.08,1.3.08,1.75.15,1.63.16q.94.09,1.89.21l1.25.17,1.82.27,1.07.16c-4.7-7.27-11-15.59-16.49-19.57a.05.05,0,0,1,0,0,40.34,40.34,0,0,0-13-7.33,5.54,5.54,0,0,1-2.43-1.22,4.3,4.3,0,0,1-.92-2.83,18.27,18.27,0,0,1,.74-6.06A9.54,9.54,0,0,1,688,43.85a.83.83,0,0,1,.14-.13c1.69-6.11,9-9.52,16.44-7.61a15.9,15.9,0,0,1,7.75,4.52c-.48-6-5.14-10.72-14.16-13a32.18,32.18,0,0,0-20.84,1.58c-8.27-.37-28.9,19.42-28.9,19.42l-7.35-1.31H641c.49.11,1,.22,1.49.35C650.94,49.82,654.54,54.31,655.2,60.17Z"/><path class="cls-5" d="M1090.59,86.17c14.56,2.17,29.34,1.57,44,1a76.66,76.66,0,0,0,9.8-.83,54.52,54.52,0,0,0,10.27-3c2.29-3.07,3.55-7.6,3.55-14.22,0-27.35-22.88-48.11-50.23-48.11s-45.28,19.34-45.28,46.7c0,7.88-.45,13.08,2.83,16.27C1067.6,83,1088.23,85.81,1090.59,86.17Z"/><path class="cls-5" d="M1062,69.11v17l-20.52-2.83V69.11c0-11.33,3.5-20.52,9.55-20.52S1062,57.78,1062,69.11Z"/><path class="cls-6" d="M1082.54,57.79c0-4.67-4.53-8.49-9.2-8.49l-19.81-.71a8,8,0,0,0-1.39.13c5.16,1.16,9.17,10.48,9.17,21.81,0,6.7.43,12-.14,15.49a5.21,5.21,0,0,0,.85.07l21.22-3.53Z"/><path class="cls-7" d="M877.17,65.57H860.61A10.61,10.61,0,0,1,850,55h0a10.61,10.61,0,0,1,10.61-10.61H877.7a.29.29,0,0,1,.3.3V64.74A.83.83,0,0,1,877.17,65.57Z"/><path class="cls-33" d="M877.17,65.57H860.61A10.61,10.61,0,0,1,850,55h0a10.61,10.61,0,0,1,10.61-10.61H877.7a.29.29,0,0,1,.3.3V64.74A.83.83,0,0,1,877.17,65.57Z"/><path class="cls-34" d="M877.17,65.57H860.61A10.61,10.61,0,0,1,850,55h0a10.61,10.61,0,0,1,10.61-10.61H877.7a.29.29,0,0,1,.3.3V64.74A.83.83,0,0,1,877.17,65.57Z"/><path class="cls-35" d="M877.17,65.57H860.61A10.61,10.61,0,0,1,850,55h0a10.61,10.61,0,0,1,10.61-10.61H877.7a.29.29,0,0,1,.3.3V64.74A.83.83,0,0,1,877.17,65.57Z"/><rect class="cls-11" x="600" width="600" height="100"/><path class="cls-1" d="M1708.51,23c-20.59,0-35.83,11-42.12,28L1654,50.59a8.2,8.2,0,0,0-1.32.12,5.64,5.64,0,0,0-1.16-.12c-6.06,0-9.55,9.19-9.55,20.52V85.26L1661.68,88v0a5.21,5.21,0,0,0,.85.07l11.78-2c6.74.62,15.32,1.82,16.79,2,14.56,2.17,29.34,1.57,44,1a76.66,76.66,0,0,0,9.81-.83,54.52,54.52,0,0,0,10.27-3c2.29-3.07,3.55-7.6,3.55-14.22C1758.74,43.76,1735.86,23,1708.51,23Z"/><path class="cls-2" d="M1318.72,83.28l.15,0-.18,0C1314,76.07,1307.85,68,1302.5,64.12a.05.05,0,0,1,0,0,47.9,47.9,0,0,0-4.65-3.36l-.17-.16c-3.81-2.41-7.6-4.68-11.33-6.63a8.43,8.43,0,0,1-.15-1.23,18.27,18.27,0,0,1,.74-6.06,9.54,9.54,0,0,1,1.13-2.85.83.83,0,0,1,.14-.13c1.69-6.11,9-9.52,16.44-7.61a15.9,15.9,0,0,1,7.75,4.52c-.48-6-5.14-10.72-14.16-13a32.18,32.18,0,0,0-20.84,1.58c-8.12-.36-28.12,18.68-28.86,19.39h-.14l-1.37-.24a1.48,1.48,0,0,1-.43-.25,4.52,4.52,0,0,1-.94-1.54,12.73,12.73,0,0,1-.82-3,14.72,14.72,0,0,1,.2-5.65c.11-.46.24-.91.39-1.36a7.45,7.45,0,0,1,.69-1.86,11,11,0,0,1,10.09-7.29,10.2,10.2,0,0,1,4.52,1.07c-1.39-4.61-4.41-6.77-12.57-6.77-12.23,0-24.57,18.94-29.39,35.91-7.6,2.37-10.88,29.15-18.73,29.89,12.17,3.6,17.18-14.2,30.11-1.58a2.35,2.35,0,0,0,1.1.47,9,9,0,0,0,6.78.73,12.61,12.61,0,0,0,4.36-3c.54.18,1.08.35,1.63.49s.87.2,1.3.28a14.38,14.38,0,0,1,2,.29l1,.19c1.46.3,3,.64,3.66.69,5.57.35,10.76.88,16.29.35,3.13-.29,6.25-.73,9.33-1.31a7,7,0,0,1,1.76-.16q3.75-.83,7.54-1.42l.36-.05c.56-.09,1.11-.17,1.67-.24l.7-.09c1.11-.15,2.23-.28,3.35-.38l.27,0,1.57-.14.94-.06,1.53-.1,1.25-.06c.75,0,1.5,0,2.26-.06l1.19,0h1.4l1.63,0,1.86.07,1.49.08,1.3.08,1.75.15,1.63.16q.94.09,1.89.21l1.25.17,1.82.27,1.07.16Zm-28.26-26.14c-.32-.11-.63-.23-1-.33a5.54,5.54,0,0,1-2.43-1.22,3.07,3.07,0,0,1-.66-1.18A10.25,10.25,0,0,1,1290.46,57.14Z"/><path class="cls-3" d="M1230.11,85.93a2.35,2.35,0,0,0,1.1.47,9,9,0,0,0,6.78.73,14.21,14.21,0,0,0,4.93-3.54A118.87,118.87,0,0,0,1255.6,69c.42-.56.84-1.13,1.28-1.65,5.51-8.3,13-14,23-14,8.51,0,12.25,3.88,13.42,9.93a10.55,10.55,0,0,0-6.94-2.67c-6.42,0-11.62,6-11.62,13.49a14.31,14.31,0,0,0,4.5,10.66l.41-.29,9.19-4.84a12.64,12.64,0,0,0,1.21-.74c2.9-2,17.52,2.25,28.84,4.37-5.62,1.24-13.58-15.7-17.69-19.81-.71-.71-2.83-2.12-3.54-2.83-11.16-7-22.13-13-31.86-13a163,163,0,0,0-17.68,1,3,3,0,0,1-1.54-.52,4.52,4.52,0,0,1-.94-1.54,12.73,12.73,0,0,1-.82-3,14.72,14.72,0,0,1,.2-5.65c.11-.46.24-.91.39-1.36a7.45,7.45,0,0,1,.69-1.86,11,11,0,0,1,10.09-7.29,10.2,10.2,0,0,1,4.52,1.07c-1.39-4.61-4.41-6.77-12.57-6.77-12.23,0-24.57,18.94-29.39,35.91-7.6,2.37-10.88,29.15-18.73,29.89C1212.17,91.11,1217.18,73.31,1230.11,85.93Z"/><path class="cls-4" d="M1255.2,60.17a16.11,16.11,0,0,0-6.72-3.55,15.5,15.5,0,0,0-19,10.85,12.49,12.49,0,0,0-.24,1.31h0c-.49,3.91,1.33,7.46,4.31,10.26h0a19.16,19.16,0,0,0,1.75,1.47h0a25.14,25.14,0,0,0,8.72,4.14c.44.11.87.2,1.3.28a14.38,14.38,0,0,1,2,.29l1,.19c1.46.3,3,.64,3.66.69,5.57.35,10.76.88,16.29.35,3.13-.29,6.25-.73,9.33-1.31a7,7,0,0,1,1.76-.16q3.75-.83,7.54-1.42l.36-.05c.56-.09,1.11-.17,1.67-.24l.7-.09c1.11-.15,2.23-.28,3.35-.38l.27,0,1.57-.14.94-.06,1.53-.1,1.25-.06c.75,0,1.5,0,2.26-.06l1.19,0h1.4l1.63,0,1.86.07,1.49.08,1.3.08,1.75.15,1.63.16q.94.09,1.89.21l1.25.17,1.82.27,1.07.16c-4.7-7.27-11-15.59-16.49-19.57a.05.05,0,0,1,0,0,40.34,40.34,0,0,0-13-7.33,5.54,5.54,0,0,1-2.43-1.22,4.3,4.3,0,0,1-.92-2.83,18.27,18.27,0,0,1,.74-6.06,9.54,9.54,0,0,1,1.13-2.85.83.83,0,0,1,.14-.13c1.69-6.11,9-9.52,16.44-7.61a15.9,15.9,0,0,1,7.75,4.52c-.48-6-5.14-10.72-14.16-13a32.18,32.18,0,0,0-20.84,1.58c-8.27-.37-28.9,19.42-28.9,19.42l-7.35-1.31h-.1c.49.11,1,.22,1.49.35C1250.94,49.82,1254.54,54.31,1255.2,60.17Z"/><path class="cls-5" d="M1690.59,86.17c14.56,2.17,29.34,1.57,44,1a76.66,76.66,0,0,0,9.8-.83,54.52,54.52,0,0,0,10.27-3c2.29-3.07,3.55-7.6,3.55-14.22,0-27.35-22.88-48.11-50.23-48.11s-45.28,19.34-45.28,46.7c0,7.88-.45,13.08,2.83,16.27C1667.6,83,1688.23,85.81,1690.59,86.17Z"/><path class="cls-5" d="M1662,69.11v17l-20.52-2.83V69.11c0-11.33,3.5-20.52,9.55-20.52S1662,57.78,1662,69.11Z"/><path class="cls-6" d="M1682.54,57.79c0-4.67-4.53-8.49-9.2-8.49l-19.81-.71a8,8,0,0,0-1.39.13c5.16,1.16,9.17,10.48,9.17,21.81,0,6.7.43,12-.14,15.49a5.21,5.21,0,0,0,.85.07l21.22-3.53Z"/><path class="cls-7" d="M1477.17,65.57h-36.56A10.61,10.61,0,0,1,1430,55h0a10.61,10.61,0,0,1,10.61-10.61h37.09a.29.29,0,0,1,.3.3V64.74A.83.83,0,0,1,1477.17,65.57Z"/><path class="cls-36" d="M1477.17,65.57h-36.56A10.61,10.61,0,0,1,1430,55h0a10.61,10.61,0,0,1,10.61-10.61h37.09a.29.29,0,0,1,.3.3V64.74A.83.83,0,0,1,1477.17,65.57Z"/><path class="cls-37" d="M1477.17,65.57h-36.56A10.61,10.61,0,0,1,1430,55h0a10.61,10.61,0,0,1,10.61-10.61h37.09a.29.29,0,0,1,.3.3V64.74A.83.83,0,0,1,1477.17,65.57Z"/><path class="cls-38" d="M1477.17,65.57h-36.56A10.61,10.61,0,0,1,1430,55h0a10.61,10.61,0,0,1,10.61-10.61h37.09a.29.29,0,0,1,.3.3V64.74A.83.83,0,0,1,1477.17,65.57Z"/><rect class="cls-11" x="1200" width="600" height="100"/></g></svg>