<svg xmlns="http://www.w3.org/2000/svg" xmlns:xlink="http://www.w3.org/1999/xlink" width="1173" height="767" viewBox="0 0 1173 767"><defs><style>.cls-1{isolation:isolate;}.cls-2{opacity:0.75;mix-blend-mode:screen;}.cls-3{opacity:0.8;}.cls-4{fill:#fff;}.cls-5{fill:#e6e6e6;}.cls-6{fill:url(#linear-gradient);}.cls-7{fill:url(#linear-gradient-2);}.cls-8{fill:url(#linear-gradient-3);}.cls-9{fill:url(#linear-gradient-4);}.cls-10{fill:url(#linear-gradient-5);}.cls-11{fill:#1b1464;}</style><linearGradient id="linear-gradient" x1="532.22" y1="167.07" x2="532.13" y2="192.61" gradientUnits="userSpaceOnUse"><stop offset="0" stop-opacity="0.25"/><stop offset="0" stop-opacity="0.24"/><stop offset="0.17" stop-opacity="0"/></linearGradient><linearGradient id="linear-gradient-2" x1="463.59" y1="167.28" x2="463.52" y2="186.51" gradientUnits="userSpaceOnUse"><stop offset="0" stop-color="#84b9bc"/><stop offset="1" stop-color="#9fffff"/></linearGradient><linearGradient id="linear-gradient-3" x1="463.56" y1="167.12" x2="463.54" y2="186.67" gradientUnits="userSpaceOnUse"><stop offset="0" stop-color="#fff"/><stop offset="0.01" stop-color="#fff" stop-opacity="0.91"/><stop offset="0.03" stop-color="#fff" stop-opacity="0.7"/><stop offset="0.06" stop-color="#fff" stop-opacity="0.51"/><stop offset="0.08" stop-color="#fff" stop-opacity="0.36"/><stop offset="0.11" stop-color="#fff" stop-opacity="0.23"/><stop offset="0.13" stop-color="#fff" stop-opacity="0.13"/><stop offset="0.16" stop-color="#fff" stop-opacity="0.06"/><stop offset="0.19" stop-color="#fff" stop-opacity="0.01"/><stop offset="0.22" stop-color="#fff" stop-opacity="0"/></linearGradient><linearGradient id="linear-gradient-4" x1="583.3" y1="-0.01" x2="590.45" y2="853.44" gradientUnits="userSpaceOnUse"><stop offset="0" stop-color="#c6e0f4"/><stop offset="0.18" stop-color="#c3dff3"/><stop offset="0.33" stop-color="#b8daf2"/><stop offset="0.48" stop-color="#a6d3ee"/><stop offset="0.62" stop-color="#8cc9ea"/><stop offset="0.76" stop-color="#6cbbe4"/><stop offset="0.89" stop-color="#44acde"/><stop offset="1" stop-color="#1e9cd7"/></linearGradient><linearGradient id="linear-gradient-5" x1="585.57" y1="-15.7" x2="587.6" y2="848.53" gradientUnits="userSpaceOnUse"><stop offset="0"/><stop offset="0.09" stop-opacity="0"/></linearGradient></defs><title>Menu</title><g class="cls-1"><g id="Layer_13" data-name="Layer 13"><image class="cls-2" width="321" height="54" transform="translate(372 151)" xlink:href="Menu1.png"/><g class="cls-3"><rect class="cls-4" x="387.14" y="167.85" width="290.09" height="21.23" rx="10.61"/><rect class="cls-4" x="387.14" y="167.85" width="290.09" height="21.23" rx="10.61"/></g><rect class="cls-5" x="387.14" y="166.35" width="290.09" height="21.23" rx="10.61"/><rect class="cls-6" x="387.14" y="166.35" width="290.09" height="21.23" rx="10.61"/><rect class="cls-5" x="387.14" y="166.35" width="152.83" height="21.23" rx="10.61"/><rect class="cls-7" x="387.14" y="166.35" width="152.83" height="21.23" rx="10.61"/><rect class="cls-8" x="387.14" y="166.35" width="152.83" height="21.23" rx="10.61"/><image class="cls-2" width="1173" height="767" xlink:href="Menu2.png"/><g class="cls-3"><rect class="cls-4" x="15" y="19" width="1143" height="733"/><rect class="cls-4" x="16.5" y="20.5" width="1140" height="730"/><path class="cls-4" d="M1155,22V749H18V22H1155m3-3H15V752H1158V19Z"/></g><rect class="cls-9" x="15" y="15" width="1143" height="733"/><rect class="cls-10" x="16.5" y="16.5" width="1140" height="730"/><path class="cls-4" d="M1155,18V745H18V18H1155m3-3H15V748H1158V15Z"/><path class="cls-11" d="M495.35,161.12a20.6,20.6,0,0,1-3.45,11.55,24.09,24.09,0,0,1-9.45,8.3,28.83,28.83,0,0,1-13.3,3.05,34.83,34.83,0,0,1-7.1-.7A18.43,18.43,0,0,1,452,178a21.84,21.84,0,0,1-4.85-7.75,20.45,20.45,0,0,1-1.25-5.4l-.1-1.9a20,20,0,0,1,2.1-9.35,15.78,15.78,0,0,1,5.45-6.2,12.86,12.86,0,0,1,7.05-2.15,10.86,10.86,0,0,1,3.1.4c2.6.8,4.3,2.14,5.1,4v.1c0,.2-.17.3-.5.3a1.48,1.48,0,0,1-.9-.3,5.73,5.73,0,0,0-5-2.4q-4.69,0-7.65,4.6a19.56,19.56,0,0,0-2.95,10.8,20.18,20.18,0,0,0,3.95,12.4q3.94,5.31,11.75,6,11,.21,14.8-5.05a18.57,18.57,0,0,0,3.8-11,24,24,0,0,0-2.8-11.2A48.53,48.53,0,0,0,476.3,144q-3.94-4.44-10.85-11.25-6.49-6.19-10.4-10.55a46.25,46.25,0,0,1-6.55-9.4,22,22,0,0,1-2.65-10.35q-.11-9.39,5-14a18.18,18.18,0,0,1,12.65-4.65q7.8,0,12.8.1c1.4-.13,2.87-.31,4.4-.55a8.67,8.67,0,0,0,2.7-.65.82.82,0,0,1,.6-.2,1.2,1.2,0,0,1,.5.1,1.72,1.72,0,0,1,.3.2c0-.2-.3.54-.9,2.2a45.48,45.48,0,0,0-1.65,6.2,40.87,40.87,0,0,0-.75,8.1c0,.94.07,2.4.2,4.4,0,1-.44,1.5-1.3,1.5a4.83,4.83,0,0,1-2.1-.6l-.8-.4c.07-.26.2-.91.4-2a18.17,18.17,0,0,0,.3-3.45q0-7.39-4.9-10.5a14.42,14.42,0,0,0-7.2-1.7,16.66,16.66,0,0,0-7.45,1.7,9.2,9.2,0,0,0-4.65,4.5,13.08,13.08,0,0,0-1,4.9q0,7.5,7.9,17.1,3.49,4.2,10.5,11.2,9.41,9.4,16.6,17.7T495.35,161.12Z"/><path class="cls-11" d="M508.05,156.82c0,.07,0,.27-.05.6a13,13,0,0,0-.05,1.4,34.31,34.31,0,0,0,3.3,14.4q3.3,7.2,12.7,7.9a12.62,12.62,0,0,0,11-4.65,6.59,6.59,0,0,0,1.65-3.85,2.13,2.13,0,0,0-.4-1.2,3.47,3.47,0,0,0-.75-.55,1.72,1.72,0,0,0-.75-.25,2.35,2.35,0,0,1-2-.85,3.12,3.12,0,0,1-.85-2.15,3.49,3.49,0,0,1,1.3-2.65,4.5,4.5,0,0,1,6.4.9,7.54,7.54,0,0,1,1.3,4.45,11.41,11.41,0,0,1-2.05,6.4,14.91,14.91,0,0,1-5.95,5.05,19.87,19.87,0,0,1-9,1.95q-8.21,0-13.6-3.8a22.72,22.72,0,0,1-8-9.95,34.49,34.49,0,0,1-2.6-13.55,32,32,0,0,1,2.65-13.35,21.1,21.1,0,0,1,7.8-9.2,22.17,22.17,0,0,1,12.35-3.35A20.27,20.27,0,0,1,532.2,133a18,18,0,0,1,7.3,7.6,26.64,26.64,0,0,1,2.75,12.65c0,.67-.07,1.87-.2,3.6Zm26-5.6q0-7.69-3.25-12.65a10.35,10.35,0,0,0-9.15-4.95,10.56,10.56,0,0,0-8.5,3.65,19.59,19.59,0,0,0-4.2,8.3,27.86,27.86,0,0,0-.9,8H534A19.12,19.12,0,0,0,534.05,151.22Z"/><path class="cls-11" d="M570.7,171.42a5.52,5.52,0,0,1,1.45,3.5,7.41,7.41,0,0,1-2.35,6.5,8.94,8.94,0,0,1-6,2.3c-3.87,0-6.78-.75-8.75-2.25a10,10,0,0,1-3.8-5.8,39.1,39.1,0,0,1-.85-8.95v-32h-6.5c-.47,0-.7-.26-.7-.8a.92.92,0,0,1,.25-.6.79.79,0,0,1,.65-.3,10.13,10.13,0,0,0,6.35-2.2,16.37,16.37,0,0,0,4.5-5.25,16,16,0,0,0,2-5.25q0-.6.9-.6c.67,0,1,.2,1,.6V133h8.8a.82.82,0,0,1,.65.3.92.92,0,0,1,.25.6.87.87,0,0,1-.2.55.7.7,0,0,1-.6.25h-8.9v38.8a13.81,13.81,0,0,0,1,5.8c.63,1.34,2,2,4,2a5.19,5.19,0,0,0,3.9-1.25,3.89,3.89,0,0,0,1.2-2.75,2.27,2.27,0,0,0-.35-1.3c-.23-.33-.48-.46-.75-.4a3.33,3.33,0,0,1-1.3.3,2,2,0,0,1-1.65-.85,3.12,3.12,0,0,1-.65-1.95,3.1,3.1,0,0,1,3.4-3.2A4.12,4.12,0,0,1,570.7,171.42Z"/><path class="cls-11" d="M600.8,171.42a5.52,5.52,0,0,1,1.45,3.5,7.41,7.41,0,0,1-2.35,6.5,9,9,0,0,1-6,2.3q-5.8,0-8.75-2.25a10,10,0,0,1-3.8-5.8,39.1,39.1,0,0,1-.85-8.95v-32H574c-.47,0-.7-.26-.7-.8a.92.92,0,0,1,.25-.6.79.79,0,0,1,.65-.3,10.13,10.13,0,0,0,6.35-2.2,16.37,16.37,0,0,0,4.5-5.25,16,16,0,0,0,2-5.25q0-.6.9-.6c.66,0,1,.2,1,.6V133h8.8a.82.82,0,0,1,.65.3,1,1,0,0,1,.25.6.87.87,0,0,1-.2.55.73.73,0,0,1-.6.25h-8.9v38.8a13.81,13.81,0,0,0,.95,5.8c.63,1.34,2,2,4.05,2a5.19,5.19,0,0,0,3.9-1.25,3.89,3.89,0,0,0,1.2-2.75,2.27,2.27,0,0,0-.35-1.3c-.24-.33-.49-.46-.75-.4a3.33,3.33,0,0,1-1.3.3,2,2,0,0,1-1.65-.85,3.06,3.06,0,0,1-.65-1.95,3.1,3.1,0,0,1,3.4-3.2A4.12,4.12,0,0,1,600.8,171.42Z"/><path class="cls-11" d="M621.65,182.32a.76.76,0,0,1,.6.25.89.89,0,0,1,.2.55.57.57,0,0,1-.2.4.81.81,0,0,1-.6.2h-17.5a.78.78,0,0,1-.6-.2.57.57,0,0,1-.2-.4.89.89,0,0,1,.2-.55.73.73,0,0,1,.6-.25c1.8,0,3-.56,3.6-1.7a9.77,9.77,0,0,0,1-4.2v-33.9c0-.2,0-1,0-2.45a5,5,0,0,0-1.35-3.65,5.63,5.63,0,0,0-4.3-1.5.7.7,0,0,1-.6-.25.74.74,0,0,1-.2-.45.61.61,0,0,1,.2-.4.82.82,0,0,1,.6-.2h1.6a17.36,17.36,0,0,0,2-.2l3.2-.4a16.06,16.06,0,0,0,4-1.05,10.1,10.1,0,0,0,2.5-1.35.92.92,0,0,1,.85-.3.5.5,0,0,1,.45.5,83.78,83.78,0,0,0-.7,12.7v32.9C617.18,180.36,618.71,182.32,621.65,182.32Zm-14.2-59.75A4.74,4.74,0,0,1,606,119a4.91,4.91,0,0,1,1.5-3.6,4.79,4.79,0,0,1,3.5-1.5,5.12,5.12,0,0,1,5.1,5.1,4.74,4.74,0,0,1-1.5,3.55A5,5,0,0,1,611,124,4.85,4.85,0,0,1,607.45,122.57Z"/><path class="cls-11" d="M629.65,139.82a5.3,5.3,0,0,0-1.1-3.45c-.74-.9-2.17-1.38-4.3-1.45a.7.7,0,0,1-.6-.25.74.74,0,0,1-.2-.45c0-.4.27-.6.8-.6h1.6a16.26,16.26,0,0,0,1.95-.2l3.05-.4a16.06,16.06,0,0,0,4-1.05,10.1,10.1,0,0,0,2.5-1.35,1,1,0,0,1,.7-.3.69.69,0,0,1,.4.15.38.38,0,0,1,.1.45c0,.14,0,.72-.15,1.75s-.19,2.52-.25,4.45a11.69,11.69,0,0,1,4.15-4.85,14,14,0,0,1,8.65-2.45,16.5,16.5,0,0,1,2,.1,14.23,14.23,0,0,1,8.9,4.35q3.79,3.85,3.8,11.95v30.2a9.85,9.85,0,0,0,1,4.3c.6,1.14,1.8,1.7,3.6,1.7a.85.85,0,0,1,.6.2.7.7,0,0,1,.2.5.57.57,0,0,1-.2.4.81.81,0,0,1-.6.2h-17.6a.78.78,0,0,1-.6-.2.53.53,0,0,1-.2-.4.62.62,0,0,1,.25-.5.87.87,0,0,1,.55-.2c1.8,0,3-.56,3.6-1.7a10,10,0,0,0,1-4.3v-33.3c0-3.53-.84-6-2.5-7.25a9.33,9.33,0,0,0-4.8-2.15,9.51,9.51,0,0,0-6.7,2,12.78,12.78,0,0,0-4,5.6,19.48,19.48,0,0,0-1.25,6.8l-.1,29.8a4.69,4.69,0,0,0,1.15,3.15,4.14,4.14,0,0,0,3.35,1.35.85.85,0,0,1,.6.2.7.7,0,0,1,.2.5.57.57,0,0,1-.2.4.81.81,0,0,1-.6.2h-17.3c-.54,0-.8-.2-.8-.6a.62.62,0,0,1,.25-.5.87.87,0,0,1,.55-.2q4,0,4.4-4.6v-35.5Z"/><path class="cls-11" d="M711.85,130.32a7.63,7.63,0,0,0-1.3,4,6,6,0,0,0,.9,3.3,20.28,20.28,0,0,1,2.6,6.7,12.18,12.18,0,0,1,.2,2.6,19.31,19.31,0,0,1-3.7,11,21.11,21.11,0,0,1-10.6,7.9l-1.3.5a26.13,26.13,0,0,1-6.7.9,21.41,21.41,0,0,1-5.8-.8q-2.1,1.31-2.1,3a2.29,2.29,0,0,0,1.1,1.9,20.79,20.79,0,0,0,4.7,2.6q2.7,1.11,7.5,2.7,6.2,2,10.35,3.8A26.67,26.67,0,0,1,715,185a13.59,13.59,0,0,1,4.3,10.4,21.59,21.59,0,0,1-3.7,11.7,28.78,28.78,0,0,1-10.5,9.6,31.4,31.4,0,0,1-15.6,3.8c-1.47,0-2.57,0-3.3-.1q-9.1-.79-13.65-5.55A16,16,0,0,1,668,203.42a18.29,18.29,0,0,1,3.45-10.85,25.11,25.11,0,0,1,8.65-7.65,24.53,24.53,0,0,1,10.1-3.1,24.49,24.49,0,0,1-8.85-4q-3.85-2.79-3.85-6.2a7.08,7.08,0,0,1,2.4-5,8.35,8.35,0,0,1,2.5-1.7,17.06,17.06,0,0,1-7.2-7.1,17.36,17.36,0,0,1,2.15-19.95A22.06,22.06,0,0,1,688,130.82c.53-.13,1.56-.36,3.1-.7a26.53,26.53,0,0,1,4.7-.5,19.22,19.22,0,0,1,9.7,2.4,2.14,2.14,0,0,0,2.3-.75,3.94,3.94,0,0,0,.8-2.45,3.68,3.68,0,0,0-.7-2.3,1.75,1.75,0,0,0-1.8-.7,3.91,3.91,0,0,1-1.1.1,3.78,3.78,0,0,1-2.55-.9,3.49,3.49,0,0,1-1-2.8,4,4,0,0,1,1.5-3.25,5.31,5.31,0,0,1,3.5-1.25,5.86,5.86,0,0,1,3.6,1.2,7.25,7.25,0,0,1,2.25,2.75,8.8,8.8,0,0,1,.85,3.85A9.5,9.5,0,0,1,711.85,130.32Zm-1.7,68.2a11.61,11.61,0,0,0-3.1-8.4,17.24,17.24,0,0,0-6-4.3q-3-1.09-6.65-2.1a25.29,25.29,0,0,0-9.05,2.85,21.17,21.17,0,0,0-7.4,6.45,16,16,0,0,0-2.95,9.6,14.07,14.07,0,0,0,3,9.3q3,3.71,9.25,4.8a26.21,26.21,0,0,0,3.9.3,20.6,20.6,0,0,0,9.45-2.2,17.13,17.13,0,0,0,6.95-6.4A18.46,18.46,0,0,0,710.15,198.52Zm-27.8-45.2a20.89,20.89,0,0,0,4.25,7,12.8,12.8,0,0,0,5.55,3.55,12.44,12.44,0,0,0,3.4.5,9.89,9.89,0,0,0,3.2-.5,10.56,10.56,0,0,0,5.55-4.35,14,14,0,0,0,2.05-7.75,25.06,25.06,0,0,0-.7-5.8,22.12,22.12,0,0,0-4.75-9.4,10.68,10.68,0,0,0-8.35-4,11.9,11.9,0,0,0-3.6.6,10.32,10.32,0,0,0-6.15,4.65,15,15,0,0,0-1.95,7.65A20.33,20.33,0,0,0,682.35,153.32Z"/><path class="cls-11" d="M730.05,145.42a60.79,60.79,0,0,0,8.8,5.1,94.65,94.65,0,0,1,8.75,4.7,19.83,19.83,0,0,1,5.7,5.45,13.57,13.57,0,0,1,2.35,8,13.36,13.36,0,0,1-2.6,8,17.25,17.25,0,0,1-7,5.6,22.6,22.6,0,0,1-9.5,2,26.1,26.1,0,0,1-4.8-.5q-6.71-1.4-10.35-5.45a12.81,12.81,0,0,1-3.65-8.75,9.1,9.1,0,0,1,3-7.1,6.35,6.35,0,0,1,2.15-1.4,6.85,6.85,0,0,1,2.55-.5,4.41,4.41,0,0,1,3.6,1.6,3.23,3.23,0,0,1,.6,1.8,3.19,3.19,0,0,1-1.1,2.35,3.54,3.54,0,0,1-2.5,1,4.39,4.39,0,0,1-1.5-.4,1.85,1.85,0,0,0-.8-.2,1.81,1.81,0,0,0-1.3.6,4.37,4.37,0,0,0-.9,3,9.36,9.36,0,0,0,2.6,6.2c1.73,2,4.36,3.34,7.9,4a15.9,15.9,0,0,0,3.7.4,12,12,0,0,0,8.6-3.1,10,10,0,0,0,3.3-7.6,7.53,7.53,0,0,0-1.7-4.95,15.86,15.86,0,0,0-4.2-3.5c-1.67-1-4-2.15-7-3.55a76.78,76.78,0,0,1-8.3-4.25,18.52,18.52,0,0,1-5.4-4.95,12,12,0,0,1-2.2-7.3,10,10,0,0,1,4.1-8.3q4.09-3.19,11-3.2a19,19,0,0,1,5.55.75,38.76,38.76,0,0,1,4.15,1.5c1.13.5,1.86.82,2.2.95a25,25,0,0,0,2.4,1,7.1,7.1,0,0,0,2.3.45,4,4,0,0,0,1.6-.3,1.48,1.48,0,0,1,.6-.1c.53,0,.8.24.8.7a1.42,1.42,0,0,1-.8,1.2c-.27.14-.67.37-1.2.7a7.07,7.07,0,0,0-1.8,1.9c-.14.2-.8,1.4-2,3.6a26.67,26.67,0,0,1-1.7,3.2,2,2,0,0,1-1.6,1,1.15,1.15,0,0,1-1.05-.55.82.82,0,0,1,.05-1,6.88,6.88,0,0,0,.85-2.45c.23-1.16.38-1.95.45-2.35a5.26,5.26,0,0,0-1.6-4,10.28,10.28,0,0,0-3.55-2.2,10.07,10.07,0,0,0-3.15-.7q-4.91-.19-7.05,1.9a6.51,6.51,0,0,0-2.15,4.8A6.36,6.36,0,0,0,730.05,145.42Z"/><path class="cls-11" d="M135.52,264.79c-.36-6.77-.79-14.9-.72-21h-.22c-1.65,5.69-3.67,11.74-6.12,18.43l-8.56,23.55h-4.76l-7.85-23.11c-2.3-6.85-4.24-13.11-5.61-18.87h-.15c-.14,6-.5,14.18-.93,21.46l-1.3,20.81h-6l3.38-48.54h8L113,261.05c2,6,3.68,11.3,4.9,16.34h.22c1.22-4.89,3-10.22,5.11-16.34l8.64-23.48h8l3,48.54h-6.12Z"/><path class="cls-11" d="M181.67,276.6c0,3.6.07,6.77.29,9.51h-5.62l-.36-5.69h-.14a13.12,13.12,0,0,1-11.52,6.48c-5.48,0-12-3-12-15.27V251.26h6.34v19.29c0,6.63,2,11.09,7.77,11.09a8.89,8.89,0,0,0,8.93-9V251.26h6.34Z"/><path class="cls-11" d="M191.32,279.63a16.62,16.62,0,0,0,8.35,2.52c4.61,0,6.77-2.31,6.77-5.19s-1.8-4.68-6.48-6.41c-6.27-2.23-9.22-5.68-9.22-9.86,0-5.62,4.54-10.23,12-10.23a17.41,17.41,0,0,1,8.57,2.16l-1.58,4.61a13.62,13.62,0,0,0-7.13-2c-3.74,0-5.83,2.16-5.83,4.75,0,2.88,2.09,4.17,6.62,5.9,6.05,2.31,9.15,5.33,9.15,10.52,0,6.12-4.76,10.44-13,10.44a19.89,19.89,0,0,1-9.79-2.38Z"/><path class="cls-11" d="M227.75,241.46a3.93,3.93,0,0,1-7.85,0,3.86,3.86,0,0,1,4-4A3.76,3.76,0,0,1,227.75,241.46Zm-7.06,44.65V251.26H227v34.85Z"/><path class="cls-11" d="M262.38,284.81a23.41,23.41,0,0,1-10,2C241.86,286.83,235,279.7,235,269s7.34-18.5,18.72-18.5a21,21,0,0,1,8.78,1.8l-1.44,4.89a14.71,14.71,0,0,0-7.34-1.65c-8,0-12.31,5.9-12.31,13.17,0,8.07,5.18,13,12.09,13a18,18,0,0,0,7.78-1.73Z"/><path class="cls-11" d="M93.76,451.27A22.18,22.18,0,0,0,105,454.44c6.41,0,10.15-3.38,10.15-8.28,0-4.53-2.59-7.13-9.14-9.65-7.92-2.81-12.82-6.91-12.82-13.75,0-7.56,6.27-13.18,15.7-13.18A22,22,0,0,1,119.61,412l-1.73,5.11a19.36,19.36,0,0,0-9.22-2.3c-6.62,0-9.14,4-9.14,7.27,0,4.54,3,6.77,9.65,9.36,8.21,3.17,12.38,7.13,12.38,14.26,0,7.49-5.54,14-17,14-4.68,0-9.79-1.37-12.39-3.1Z"/><path class="cls-11" d="M161.87,441.19c0,12.89-8.93,18.51-17.35,18.51-9.44,0-16.71-6.91-16.71-17.93,0-11.67,7.64-18.51,17.28-18.51C155.1,423.26,161.87,430.54,161.87,441.19Zm-27.65.36c0,7.64,4.39,13.4,10.59,13.4,6,0,10.58-5.69,10.58-13.54,0-5.91-2.95-13.39-10.44-13.39S134.22,434.93,134.22,441.55Z"/><path class="cls-11" d="M199,449.4c0,3.6.08,6.77.29,9.51h-5.62l-.36-5.69h-.14a13.12,13.12,0,0,1-11.52,6.48c-5.47,0-12-3-12-15.27V424.06H176v19.29c0,6.63,2,11.09,7.78,11.09a9.15,9.15,0,0,0,8.35-5.76,9.25,9.25,0,0,0,.58-3.24V424.06H199Z"/><path class="cls-11" d="M209.53,433.49c0-3.6-.07-6.55-.29-9.43h5.62l.36,5.76h.14a12.82,12.82,0,0,1,11.53-6.56c4.82,0,12.31,2.88,12.31,14.84v20.81h-6.34V438.82c0-5.62-2.09-10.3-8.06-10.3a9.28,9.28,0,0,0-8.93,9.43v21h-6.34Z"/><path class="cls-11" d="M279.59,407.78v42.13c0,3.09.07,6.62.29,9h-5.69l-.29-6.05h-.14c-1.95,3.89-6.19,6.84-11.88,6.84-8.43,0-14.91-7.13-14.91-17.72-.07-11.59,7.13-18.72,15.63-18.72,5.33,0,8.93,2.52,10.51,5.33h.14V407.78Zm-6.34,30.46a11.46,11.46,0,0,0-.28-2.66,9.33,9.33,0,0,0-9.15-7.35c-6.55,0-10.44,5.76-10.44,13.47,0,7.05,3.46,12.89,10.3,12.89A9.53,9.53,0,0,0,273,447a11.36,11.36,0,0,0,.28-2.74Z"/><path class="cls-11" d="M308.89,442.63c.15,8.57,5.62,12.1,11.95,12.1a22.86,22.86,0,0,0,9.65-1.8l1.08,4.54A28.36,28.36,0,0,1,320,459.63c-10.73,0-17.14-7.06-17.14-17.57s6.2-18.8,16.35-18.8c11.37,0,14.4,10,14.4,16.42a22.19,22.19,0,0,1-.22,2.95Zm18.58-4.53c.07-4-1.66-10.3-8.79-10.3-6.4,0-9.21,5.9-9.72,10.3Z"/><path class="cls-11" d="M363,458.91v-30H348.35v30h-6.27v-30h-4.89v-4.82h4.89V422.9c0-4.89,1.15-9.14,3.89-11.88a12,12,0,0,1,8.79-3.24,11.08,11.08,0,0,1,5,1.23l-1.29,4.68a9.17,9.17,0,0,0-3.75-.87c-5,0-6.33,4.25-6.33,9.72v1.52H363V422.4c0-4.9,1.16-9.36,4.11-12.17a12.07,12.07,0,0,1,8.42-3.24,14.22,14.22,0,0,1,5.4,1l-.79,4.89a9.86,9.86,0,0,0-4.1-.79c-5.33,0-6.77,4.75-6.77,10.08v1.88h8.42v4.82H369.3v30Z"/><path class="cls-11" d="M386,442.63c.15,8.57,5.62,12.1,12,12.1a22.84,22.84,0,0,0,9.64-1.8l1.09,4.54a28.41,28.41,0,0,1-11.6,2.16c-10.73,0-17.14-7.06-17.14-17.57s6.2-18.8,16.35-18.8c11.38,0,14.4,10,14.4,16.42a24.49,24.49,0,0,1-.21,2.95Zm18.58-4.53c.07-4-1.66-10.3-8.78-10.3-6.41,0-9.22,5.9-9.72,10.3Z"/><path class="cls-11" d="M443.39,457.61a23.41,23.41,0,0,1-10,2c-10.51,0-17.35-7.13-17.35-17.79s7.34-18.51,18.72-18.51a21.06,21.06,0,0,1,8.78,1.81L442.09,430a14.74,14.74,0,0,0-7.34-1.65c-8,0-12.32,5.9-12.32,13.17,0,8.07,5.19,13,12.1,13a18,18,0,0,0,7.78-1.73Z"/><path class="cls-11" d="M457.07,440h.14c.86-1.22,2.09-2.74,3.1-4l10.22-12h7.63L464.7,438.38,480,458.91h-7.71l-12-16.71-3.24,3.6v13.11H450.8V407.78h6.27Z"/><path class="cls-11" d="M492.2,414.05v10h9.07v4.82H492.2v18.79c0,4.32,1.23,6.77,4.75,6.77a14,14,0,0,0,3.68-.43l.29,4.75a15.4,15.4,0,0,1-5.62.87,8.78,8.78,0,0,1-6.84-2.67c-1.8-1.87-2.45-5-2.45-9.07v-19h-5.4v-4.82H486V415.7Z"/><path class="cls-11" d="M507.54,452.43a16.62,16.62,0,0,0,8.35,2.52c4.61,0,6.77-2.31,6.77-5.19s-1.8-4.68-6.48-6.41c-6.27-2.23-9.22-5.69-9.22-9.86,0-5.62,4.54-10.23,12-10.23a17.39,17.39,0,0,1,8.56,2.16L526,430a13.62,13.62,0,0,0-7.13-2c-3.74,0-5.83,2.16-5.83,4.75,0,2.88,2.09,4.17,6.62,5.9,6,2.31,9.15,5.33,9.15,10.52,0,6.12-4.75,10.44-13,10.44a19.9,19.9,0,0,1-9.8-2.38Z"/><path class="cls-11" d="M105.28,631.71,89.44,583.17h6.77l7.56,23.91c2.08,6.55,3.88,12.46,5.18,18.15h.14c1.37-5.62,3.39-11.74,5.55-18.08l8.21-24h6.69l-17.35,48.54Z"/><path class="cls-11" d="M163.75,614c0,12.89-8.93,18.51-17.36,18.51-9.43,0-16.7-6.91-16.7-17.93,0-11.67,7.63-18.51,17.28-18.51C157,596.06,163.75,603.34,163.75,614Zm-27.66.36c0,7.64,4.4,13.4,10.59,13.4s10.58-5.69,10.58-13.54c0-5.91-2.95-13.39-10.44-13.39S136.09,607.73,136.09,614.35Z"/><path class="cls-11" d="M171.73,580.58h6.34v51.13h-6.34Z"/><path class="cls-11" d="M217.89,622.2c0,3.6.07,6.77.29,9.51h-5.62L212.2,626h-.14a13.12,13.12,0,0,1-11.53,6.48c-5.47,0-12-3-12-15.27V596.86h6.34v19.29c0,6.63,2,11.09,7.77,11.09a9.18,9.18,0,0,0,8.36-5.76,9.53,9.53,0,0,0,.57-3.24V596.86h6.34Z"/><path class="cls-11" d="M228.4,606.29c0-3.6-.07-6.55-.29-9.43h5.54l.29,5.61h.22a12,12,0,0,1,10.94-6.41,10.31,10.31,0,0,1,9.87,7h.14a14.31,14.31,0,0,1,3.89-4.54,11.91,11.91,0,0,1,7.7-2.45c4.61,0,11.45,3,11.45,15.12v20.53H272V612c0-6.7-2.45-10.73-7.56-10.73a8.2,8.2,0,0,0-7.49,5.76,10.33,10.33,0,0,0-.5,3.17v21.53h-6.2V610.82c0-5.54-2.44-9.57-7.27-9.57-4,0-6.84,3.17-7.85,6.33a8.77,8.77,0,0,0-.5,3.1v21H228.4Z"/><path class="cls-11" d="M292,615.43c.15,8.57,5.62,12.1,12,12.1a22.93,22.93,0,0,0,9.65-1.8l1.08,4.54a28.41,28.41,0,0,1-11.6,2.16c-10.73,0-17.14-7.06-17.14-17.57s6.2-18.8,16.35-18.8c11.38,0,14.4,10,14.4,16.42a24.49,24.49,0,0,1-.21,2.95Zm18.58-4.53c.07-4-1.66-10.3-8.78-10.3-6.41,0-9.22,5.9-9.72,10.3Z"/></g></g></svg>
