<svg xmlns="http://www.w3.org/2000/svg" width="240" height="370" viewBox="0 0 240 370"><defs><style>.cls-1{fill:#59b2b0;}.cls-2{fill:#ceefef;}.cls-3{fill:#8fe2df;}.cls-4{fill:#1833a0;}.cls-5{fill:#162872;}.cls-6{fill:#ff8b00;}</style></defs><title>Litle dude on ice</title><g id="Foat"><path class="cls-1" d="M5.42,298c-1.46,7.6,1.16,15.36,1.36,23.1.08,3.08-.22,6.15-.26,9.22a6.77,6.77,0,0,0,.62,3.52c.61,1,1.61,1.1,2.8,1.1A432,432,0,0,1,70.5,339a7.22,7.22,0,0,1,2.66.73c1.86,1.07,2.41,3.45,3.11,5.5C78.85,352.76,85.59,358.28,93,361s15.44,3.13,23.33,3c26.44-.3,52.65-5.35,79.09-6,8.89-.23,17.9,0,26.57-2a32.78,32.78,0,0,1,6.24-.78,7.68,7.68,0,0,0,3.74-.8c1.31-.73.85-1.52.73-2.94-.15-1.71-.24-3.43-.27-5.14a74.25,74.25,0,0,1,.47-10c.16-1.4.36-2.79.49-4.19,1-10.15-1.32-20.46.11-30.56Z"/><path class="cls-2" d="M81.59,268.17c-13.29-1.62-27-2.14-39.83,1.83-9.44,2.92-18,8.16-26.4,13.35-5.09,3.13-10.8,7.34-10.73,13.35.1,7.92,9.74,11.56,17.53,12.66a215.51,215.51,0,0,0,40.14,1.86c10-.47,21.47-1.16,28.58,6,3.17,3.18,5.09,7.63,8.85,10.07,2.52,1.64,5.59,2.17,8.58,2.52,29.21,3.42,58.18-6.87,87.52-8.82,9.79-.66,20.18-.52,28.61-5.6s13.12-17.88,6.31-25c-2.29-2.4-5.45-3.73-8-5.86-3.22-2.7-5.29-6.54-8.16-9.62-7.74-8.31-20.21-10-31.5-9.34s-22.62,3.3-33.82,1.66c-8.41-1.24-16.3-4.82-24.57-6.78-6.92-1.65-14.06-2.15-21.16-2.64-8-.56-16.37-1.82-24.33-1.47C77.86,261,82.35,263.68,81.59,268.17Z"/><path class="cls-3" d="M176,153.64a229.93,229.93,0,0,0-3.14-38A171.71,171.71,0,0,0,164.33,83c-3-7.92-6.78-16-12.44-22.36a26.37,26.37,0,0,0-6.47-5.44c-1.92-1.11-4.22-1.2-6.18-2.22a23.78,23.78,0,0,1-5.32-4.22A6.39,6.39,0,0,0,131,46.84a4.91,4.91,0,0,0-3.71,1,58.91,58.91,0,0,0-5.71,4.63,70.51,70.51,0,0,0-8.18,8.83A117.1,117.1,0,0,0,98.52,86.56a136.83,136.83,0,0,0-9.75,32.08,112.59,112.59,0,0,0-.76,35c2,14,3.18,23.43,5,35a62.38,62.38,0,0,1,1,12,81.41,81.41,0,0,0,1.18,19.59c.58,11.69,2.6,26,5.82,34.41l.43,1.14L103,278.64c0,3.58,3.93,0,7.5,0H112c3.58,0,5-2.92,5-6.5V261.65a31,31,0,0,0,4.27-4.52,17.85,17.85,0,0,0,6.73.51,94,94,0,0,0,15.89-3l-.89,5c0,.75-.32,4.1,0,4a6.52,6.52,0,0,1,4.74.07l3.26.93c1.92.15,3.86,1.92,4,0l3.52-19.36c6.36-9,4.92-23.13,9.48-44.64C170.45,189.16,176,166.76,176,153.64Z"/><path class="cls-4" d="M200,157.64c-7.4-24.68-19.41-39.69-27.6-47.31,1.06,8.19,5.18,41.59,3,54.3.22.34.43.68.65,1,17,26,16.1,54.35,24.57,51.81S209.24,188.42,200,157.64Z"/><path class="cls-4" d="M133,45.64a30.91,30.91,0,0,0-5,0,18.31,18.31,0,0,1-8.17-1.23,20.11,20.11,0,0,1-6.79-4.81,6.7,6.7,0,0,0-2.59-2.23,3.12,3.12,0,0,0-2.68.22c-1,.65-1.21,1.75-1.38,2.87-.26,1.74-.5,3.47-.72,5.21-.44,3.48-.78,7-1,10.47-.08,1.17-.16,2.34-.22,3.51a26.07,26.07,0,0,1-.79,6.05,24.68,24.68,0,0,1-2.91,5.75c-25.93,42-44.21,89.93-44.83,139.31a57.45,57.45,0,0,0,1.37,15.32c.23.85.62,1.83,1.47,2,1.06.28,2-.77,2.5-1.71,5.68-9.77,6.08-21.59,7.56-32.8,3.9-29.55,26.62-53.91,33.22-83,5-22,8-33,18-47,3.38-4.72,6-4,8.86-10.94,1-2.42,5.28-5.54,3.14-7.06C131.81,45.5,133.25,45.72,133,45.64Z"/><path class="cls-5" d="M116,301.64l-6,3c-6-7-14,3.6-14-3l2-7c5-6,5-9,5-16l14-8c-1-1,2,6,2,13l3,11C130,304.64,122.61,301.64,116,301.64Z"/><path class="cls-5" d="M167,297.64l-17-5c-6.6,0-19,12-15-4l6-16c0-6.6.4-21,7-21l5,11c6.6,0-6,13,14,26l5,7C167,293.64,173.61,297.64,167,297.64Z"/><path class="cls-5" d="M163,9.64c-6,2.24-26.26-2.2-31-1a4.37,4.37,0,0,0-.55.19A22.21,22.21,0,0,0,123,10.64c-11.18,4.76-16,19.72-16,28,0,9,34,8,34,5,0-5.78,7.56-12.71,11.32-18.29,1.44-.9,3.3-2.12,5.68-3.71,21-14,31.32-12.33,34-13C196,7.64,179,3.64,163,9.64Z"/><path class="cls-6" d="M175,11.64c1.94-.48-14.73,2.84-21,5s-8.54,4.44-8,6,5,2,8-1C158.14,17.52,171,12.64,175,11.64Z"/><path class="cls-6" d="M120.15,41.37a7.17,7.17,0,0,1-1.79-4.18A9.59,9.59,0,0,1,120,31.64c2.75-4.47.09-10-3.5-10s-8.5,10.76-8.5,16c0,4.64,4.72,8.12,19,8.16a24.91,24.91,0,0,1-3.09-1.46A13.91,13.91,0,0,1,120.15,41.37Z"/><path class="cls-6" d="M156.36,66.19a20.25,20.25,0,0,0-3.29-4.53c-1.93-2-3.85-4-5.74-6.08a67.09,67.09,0,0,1-4.57-5.12,6.81,6.81,0,0,1-1.4-2.82c-.29-1.53.23-3.15-.2-4.65a1.87,1.87,0,0,0-.79-1.17c-1.74-1-3.93.85-5.23,1.87a12.78,12.78,0,0,0-1.95,1.94H133q-3.25.18-6,.16c.39.16.77.33,1.17.47,1.08.4,2.17.75,3.28,1l.46.16-.2-.08.11,0,.06,0H132a.31.31,0,0,1,.12,0l.07.06h0l-.23-.09.23.09c-.89,2.25-1.69,5.2-1.23,7a6.11,6.11,0,0,0,2.86,3.33,22.81,22.81,0,0,0,4.75,2.28,71.57,71.57,0,0,1,11.18,4.86,23.81,23.81,0,0,1,8.61,8l4.7,8.64Z"/></g></svg>
