<svg xmlns="http://www.w3.org/2000/svg" xmlns:xlink="http://www.w3.org/1999/xlink" width="190" height="190" viewBox="0 0 190 190"><defs><style>.cls-1{fill:url(#linear-gradient);}.cls-2{filter:url(#AI_BevelShadow_1);}.cls-3{fill:url(#linear-gradient-2);}.cls-4{fill:#2c2c44;}</style><linearGradient id="linear-gradient" x1="-3.72" y1="76.08" x2="180.95" y2="111.48" gradientUnits="userSpaceOnUse"><stop offset="0" stop-color="#56dbe4"/><stop offset="1" stop-color="#ca23b8"/></linearGradient><filter id="AI_BevelShadow_1" x="-20" y="-20" width="140" height="140" name="AI_BevelShadow_1"><feGaussianBlur result="blur" stdDeviation="4" in="SourceAlpha"/><feOffset result="offsetBlur" dx="4" dy="4" in="blur"/><feSpecularLighting result="specOut" surfaceScale="5" specularExponent="10" in="blur"><fePointLight x="-5000" y="-10000" z="-20000"/></feSpecularLighting><feComposite result="specOut" operator="in" in="specOut" in2="SourceAlpha"/><feComposite result="litPaint" operator="arithmetic" k2="1" k3="1" in="SourceGraphic" in2="specOut"/><feMerge><feMergeNode in="offsetBlur"/><feMergeNode in="litPaint"/></feMerge></filter><linearGradient id="linear-gradient-2" x1="72.12" y1="94.69" x2="133.58" y2="94.69" gradientUnits="userSpaceOnUse"><stop offset="0" stop-color="#00d1e3"/><stop offset="1" stop-color="#eb1ebd"/></linearGradient></defs><title>Play</title><g id="play_buton" data-name="play buton"><path class="cls-1" d="M95,1a94,94,0,1,0,94,94A94,94,0,0,0,95,1Zm0,182.28A88.28,88.28,0,1,1,183.28,95,88.29,88.29,0,0,1,95,183.28Z"/><g class="cls-2"><path class="cls-3" d="M129.48,102.15l-43.8,27.74a8.83,8.83,0,0,1-13.56-7.46V67a8.83,8.83,0,0,1,13.56-7.46l43.8,27.74A8.83,8.83,0,0,1,129.48,102.15Z"/></g><path class="cls-4" d="M128.47,102.09,85.73,129.68a8.83,8.83,0,0,1-13.62-7.41V67.07a8.83,8.83,0,0,1,13.62-7.41l42.74,27.59A8.83,8.83,0,0,1,128.47,102.09Z"/></g></svg>
