<svg xmlns="http://www.w3.org/2000/svg" xmlns:xlink="http://www.w3.org/1999/xlink" width="8400" height="100" viewBox="0 0 8400 100"><defs><style>.cls-1{fill:#fff;}.cls-1,.cls-5{fill-opacity:0.8;}.cls-2,.cls-4{fill:#c3ebf0;}.cls-3,.cls-5{fill:#7ed6e0;}.cls-13,.cls-16,.cls-19,.cls-22,.cls-25,.cls-28,.cls-31,.cls-34,.cls-37,.cls-4,.cls-40,.cls-43,.cls-46,.cls-49,.cls-9{opacity:0.5;}.cls-6{fill:#6db5bb;}.cls-7{fill:#e6e6e6;}.cls-8{fill:url(#linear-gradient);}.cls-9{fill:url(#linear-gradient-2);}.cls-10{fill:url(#linear-gradient-3);}.cls-11{fill:none;}.cls-12{fill:url(#linear-gradient-4);}.cls-13{fill:url(#linear-gradient-5);}.cls-14{fill:url(#linear-gradient-6);}.cls-15{fill:url(#linear-gradient-7);}.cls-16{fill:url(#linear-gradient-8);}.cls-17{fill:url(#linear-gradient-9);}.cls-18{fill:url(#linear-gradient-10);}.cls-19{fill:url(#linear-gradient-11);}.cls-20{fill:url(#linear-gradient-12);}.cls-21{fill:url(#linear-gradient-13);}.cls-22{fill:url(#linear-gradient-14);}.cls-23{fill:url(#linear-gradient-15);}.cls-24{fill:url(#linear-gradient-16);}.cls-25{fill:url(#linear-gradient-17);}.cls-26{fill:url(#linear-gradient-18);}.cls-27{fill:url(#linear-gradient-19);}.cls-28{fill:url(#linear-gradient-20);}.cls-29{fill:url(#linear-gradient-21);}.cls-30{fill:url(#linear-gradient-22);}.cls-31{fill:url(#linear-gradient-23);}.cls-32{fill:url(#linear-gradient-24);}.cls-33{fill:url(#linear-gradient-25);}.cls-34{fill:url(#linear-gradient-26);}.cls-35{fill:url(#linear-gradient-27);}.cls-36{fill:url(#linear-gradient-28);}.cls-37{fill:url(#linear-gradient-29);}.cls-38{fill:url(#linear-gradient-30);}.cls-39{fill:url(#linear-gradient-31);}.cls-40{fill:url(#linear-gradient-32);}.cls-41{fill:url(#linear-gradient-33);}.cls-42{fill:url(#linear-gradient-34);}.cls-43{fill:url(#linear-gradient-35);}.cls-44{fill:url(#linear-gradient-36);}.cls-45{fill:url(#linear-gradient-37);}.cls-46{fill:url(#linear-gradient-38);}.cls-47{fill:url(#linear-gradient-39);}.cls-48{fill:url(#linear-gradient-40);}.cls-49{fill:url(#linear-gradient-41);}.cls-50{fill:url(#linear-gradient-42);}</style><linearGradient id="linear-gradient" x1="283.28" y1="45.5" x2="283.21" y2="64.33" gradientUnits="userSpaceOnUse"><stop offset="0" stop-color="#66b9bd"/><stop offset="1" stop-color="#58ffff"/></linearGradient><linearGradient id="linear-gradient-2" x1="277.54" y1="54.96" x2="288.98" y2="54.96" gradientUnits="userSpaceOnUse"><stop offset="0" stop-color="#00eaea" stop-opacity="0"/><stop offset="0.29" stop-color="#00eaea"/><stop offset="1" stop-color="#cdfdff"/></linearGradient><linearGradient id="linear-gradient-3" x1="283.26" y1="45.18" x2="283.25" y2="64.63" gradientUnits="userSpaceOnUse"><stop offset="0" stop-color="#fff"/><stop offset="0.01" stop-color="#fff" stop-opacity="0.91"/><stop offset="0.03" stop-color="#fff" stop-opacity="0.7"/><stop offset="0.06" stop-color="#fff" stop-opacity="0.51"/><stop offset="0.08" stop-color="#fff" stop-opacity="0.36"/><stop offset="0.11" stop-color="#fff" stop-opacity="0.23"/><stop offset="0.13" stop-color="#fff" stop-opacity="0.13"/><stop offset="0.16" stop-color="#fff" stop-opacity="0.06"/><stop offset="0.19" stop-color="#fff" stop-opacity="0.01"/><stop offset="0.22" stop-color="#fff" stop-opacity="0"/></linearGradient><linearGradient id="linear-gradient-4" x1="888.78" y1="45.49" x2="888.72" y2="64.35" xlink:href="#linear-gradient"/><linearGradient id="linear-gradient-5" x1="877.54" y1="54.96" x2="900" y2="54.96" xlink:href="#linear-gradient-2"/><linearGradient id="linear-gradient-6" x1="888.77" y1="45.17" x2="888.76" y2="64.63" xlink:href="#linear-gradient-3"/><linearGradient id="linear-gradient-7" x1="1493.78" y1="45.47" x2="1493.72" y2="64.36" xlink:href="#linear-gradient"/><linearGradient id="linear-gradient-8" x1="1477.54" y1="54.96" x2="1510" y2="54.96" xlink:href="#linear-gradient-2"/><linearGradient id="linear-gradient-9" x1="1493.77" y1="45.17" x2="1493.76" y2="64.64" xlink:href="#linear-gradient-3"/><linearGradient id="linear-gradient-10" x1="2098.78" y1="45.46" x2="2098.72" y2="64.38" xlink:href="#linear-gradient"/><linearGradient id="linear-gradient-11" x1="2077.54" y1="54.96" x2="2120" y2="54.96" xlink:href="#linear-gradient-2"/><linearGradient id="linear-gradient-12" x1="2098.77" y1="45.16" x2="2098.76" y2="64.64" xlink:href="#linear-gradient-3"/><linearGradient id="linear-gradient-13" x1="2702.78" y1="44.44" x2="2702.72" y2="63.39" xlink:href="#linear-gradient"/><linearGradient id="linear-gradient-14" x1="2676.54" y1="53.96" x2="2729" y2="53.96" xlink:href="#linear-gradient-2"/><linearGradient id="linear-gradient-15" x1="2702.77" y1="44.16" x2="2702.76" y2="63.65" xlink:href="#linear-gradient-3"/><linearGradient id="linear-gradient-16" x1="3308.3" y1="45.42" x2="3308.23" y2="64.41" xlink:href="#linear-gradient"/><linearGradient id="linear-gradient-17" x1="3277" y1="54.96" x2="3339.57" y2="54.96" xlink:href="#linear-gradient-2"/><linearGradient id="linear-gradient-18" x1="3308.29" y1="45.16" x2="3308.27" y2="64.65" xlink:href="#linear-gradient-3"/><linearGradient id="linear-gradient-19" x1="3913.81" y1="45.41" x2="3913.74" y2="64.43" xlink:href="#linear-gradient"/><linearGradient id="linear-gradient-20" x1="3877" y1="54.96" x2="3950.59" y2="54.96" xlink:href="#linear-gradient-2"/><linearGradient id="linear-gradient-21" x1="3913.8" y1="45.15" x2="3913.78" y2="64.65" xlink:href="#linear-gradient-3"/><linearGradient id="linear-gradient-22" x1="4518.32" y1="45.39" x2="4518.25" y2="64.44" xlink:href="#linear-gradient"/><linearGradient id="linear-gradient-23" x1="4477" y1="54.96" x2="4559.6" y2="54.96" xlink:href="#linear-gradient-2"/><linearGradient id="linear-gradient-24" x1="4518.3" y1="45.15" x2="4518.29" y2="64.66" xlink:href="#linear-gradient-3"/><linearGradient id="linear-gradient-25" x1="5123.32" y1="45.38" x2="5123.26" y2="64.46" xlink:href="#linear-gradient"/><linearGradient id="linear-gradient-26" x1="5077" y1="54.96" x2="5169.62" y2="54.96" xlink:href="#linear-gradient-2"/><linearGradient id="linear-gradient-27" x1="5123.31" y1="45.15" x2="5123.3" y2="64.66" xlink:href="#linear-gradient-3"/><linearGradient id="linear-gradient-28" x1="5728.33" y1="45.36" x2="5728.27" y2="64.47" xlink:href="#linear-gradient"/><linearGradient id="linear-gradient-29" x1="5677" y1="54.96" x2="5779.63" y2="54.96" xlink:href="#linear-gradient-2"/><linearGradient id="linear-gradient-30" x1="5728.32" y1="45.14" x2="5728.31" y2="64.66" xlink:href="#linear-gradient-3"/><linearGradient id="linear-gradient-31" x1="6332.84" y1="45.35" x2="6332.77" y2="64.48" xlink:href="#linear-gradient"/><linearGradient id="linear-gradient-32" x1="6277" y1="54.96" x2="6388.65" y2="54.96" xlink:href="#linear-gradient-2"/><linearGradient id="linear-gradient-33" x1="6332.83" y1="45.14" x2="6332.81" y2="64.67" xlink:href="#linear-gradient-3"/><linearGradient id="linear-gradient-34" x1="6938.78" y1="45.33" x2="6938.72" y2="64.5" xlink:href="#linear-gradient"/><linearGradient id="linear-gradient-35" x1="6877.54" y1="54.96" x2="7000" y2="54.96" xlink:href="#linear-gradient-2"/><linearGradient id="linear-gradient-36" x1="6938.77" y1="45.14" x2="6938.76" y2="64.67" xlink:href="#linear-gradient-3"/><linearGradient id="linear-gradient-37" x1="7543.78" y1="45.32" x2="7543.72" y2="64.52" xlink:href="#linear-gradient"/><linearGradient id="linear-gradient-38" x1="7477.54" y1="54.96" x2="7610" y2="54.96" xlink:href="#linear-gradient-2"/><linearGradient id="linear-gradient-39" x1="7543.77" y1="45.13" x2="7543.76" y2="64.67" xlink:href="#linear-gradient-3"/><linearGradient id="linear-gradient-40" x1="8150.78" y1="45.3" x2="8150.72" y2="64.54" xlink:href="#linear-gradient"/><linearGradient id="linear-gradient-41" x1="8077.54" y1="54.96" x2="8224" y2="54.96" xlink:href="#linear-gradient-2"/><linearGradient id="linear-gradient-42" x1="8150.77" y1="45.13" x2="8150.76" y2="64.68" xlink:href="#linear-gradient-3"/></defs><title>point bar</title><g id="Layer_2" data-name="Layer 2"><path class="cls-1" d="M507.66,23c-20.55,0-35.77,11-42,28l-12.35-.45a8.2,8.2,0,0,0-1.32.12,5.54,5.54,0,0,0-1.15-.12c-6.05,0-9.54,9.19-9.54,20.52V85.26L460.91,88a.06.06,0,0,1,0,0,5.3,5.3,0,0,0,.85.07l11.76-2c6.73.62,15.29,1.82,16.76,2,14.53,2.17,29.29,1.57,44,1A76.2,76.2,0,0,0,544,88.3a54.42,54.42,0,0,0,10.26-3c2.29-3.07,3.54-7.6,3.54-14.22C557.81,43.76,535,23,507.66,23Z"/><path class="cls-2" d="M118.53,83.28l.14,0-.18,0c-4.66-7.16-10.82-15.21-16.16-19.11l0,0a47.75,47.75,0,0,0-4.64-3.36c-.06-.06-.13-.11-.17-.16-3.81-2.41-7.59-4.68-11.31-6.63A7.27,7.27,0,0,1,86,52.76a18.28,18.28,0,0,1,.75-6.06,9.54,9.54,0,0,1,1.13-2.85.8.8,0,0,1,.13-.13c1.69-6.11,9-9.52,16.41-7.61a15.82,15.82,0,0,1,7.74,4.52c-.48-6-5.13-10.72-14.13-13a32.09,32.09,0,0,0-20.81,1.58c-8.1-.36-28.07,18.68-28.81,19.39h-.14l-1.36-.24a1.25,1.25,0,0,1-.43-.25,4.23,4.23,0,0,1-.94-1.54,12.75,12.75,0,0,1-.83-3,14.92,14.92,0,0,1,.21-5.65,11.05,11.05,0,0,1,.39-1.36A7.43,7.43,0,0,1,46,34.7a11,11,0,0,1,10.08-7.29,10.15,10.15,0,0,1,4.51,1.07c-1.38-4.61-4.4-6.77-12.55-6.77-12.21,0-24.52,18.94-29.34,35.91C11.11,60,7.84,86.77,0,87.51c12.15,3.6,17.16-14.2,30.06-1.58a2.35,2.35,0,0,0,1.1.47,9,9,0,0,0,6.76.73,12.52,12.52,0,0,0,4.36-3c.54.18,1.08.35,1.63.49s.87.2,1.29.28a14.49,14.49,0,0,1,2,.29l1,.19c1.45.3,3,.64,3.66.69,5.55.35,10.73.88,16.26.35q4.7-.44,9.32-1.31A6.84,6.84,0,0,1,79.14,85c2.5-.55,5-1,7.53-1.42l.36-.05c.55-.09,1.11-.17,1.66-.24l.7-.09c1.11-.15,2.22-.28,3.34-.38l.28,0,1.57-.14.93-.06,1.53-.1,1.25-.06c.74,0,1.5,0,2.25-.06l1.19,0h1.4l1.63,0,1.85.07,1.49.08,1.3.08q.87.06,1.74.15l1.63.16q.95.09,1.89.21l1.25.17,1.81.27,1.08.16ZM90.31,57.14l-.94-.33a5.58,5.58,0,0,1-2.44-1.22,2.92,2.92,0,0,1-.65-1.18A10.21,10.21,0,0,1,90.31,57.14Z"/><path class="cls-3" d="M30.06,85.93a2.35,2.35,0,0,0,1.1.47,9,9,0,0,0,6.76.73,14.12,14.12,0,0,0,4.93-3.54A118.72,118.72,0,0,0,55.51,69c.42-.56.83-1.13,1.28-1.65,5.5-8.3,13-14,22.93-14,8.51,0,12.23,3.88,13.4,9.93a10.5,10.5,0,0,0-6.93-2.67c-6.4,0-11.6,6-11.6,13.49a14.35,14.35,0,0,0,4.5,10.66l.41-.29,9.17-4.84a11.51,11.51,0,0,0,1.21-.74c2.9-2,17.49,2.25,28.79,4.37-5.61,1.24-13.56-15.7-17.66-19.81-.71-.71-2.83-2.12-3.53-2.83-11.15-7-22.09-13-31.81-13a162.48,162.48,0,0,0-17.65,1,2.93,2.93,0,0,1-1.53-.52,4.23,4.23,0,0,1-.94-1.54,12.75,12.75,0,0,1-.83-3,14.92,14.92,0,0,1,.21-5.65,11.05,11.05,0,0,1,.39-1.36A7.43,7.43,0,0,1,46,34.7a11,11,0,0,1,10.08-7.29,10.15,10.15,0,0,1,4.51,1.07c-1.38-4.61-4.4-6.77-12.55-6.77-12.21,0-24.52,18.94-29.34,35.91C11.11,60,7.84,86.77,0,87.51,12.15,91.11,17.16,73.31,30.06,85.93Z"/><path class="cls-4" d="M55.11,60.17a16.07,16.07,0,0,0-6.71-3.55,15.47,15.47,0,0,0-19,10.85,12.49,12.49,0,0,0-.24,1.31h0c-.49,3.91,1.33,7.46,4.31,10.26h0a17.76,17.76,0,0,0,1.74,1.47h0a25,25,0,0,0,8.71,4.14c.44.11.87.2,1.29.28a14.49,14.49,0,0,1,2,.29l1,.19c1.45.3,3,.64,3.66.69,5.55.35,10.73.88,16.26.35q4.7-.44,9.32-1.31A6.84,6.84,0,0,1,79.14,85c2.5-.55,5-1,7.53-1.42l.36-.05c.55-.09,1.11-.17,1.66-.24l.7-.09c1.11-.15,2.22-.28,3.34-.38l.28,0,1.57-.14.93-.06,1.53-.1,1.25-.06c.74,0,1.5,0,2.25-.06l1.19,0h1.4l1.63,0,1.85.07,1.49.08,1.3.08q.87.06,1.74.15l1.63.16q.95.09,1.89.21l1.25.17,1.81.27,1.08.16c-4.7-7.27-11-15.59-16.47-19.57l0,0a40.41,40.41,0,0,0-12.92-7.33,5.58,5.58,0,0,1-2.44-1.22A4.36,4.36,0,0,1,86,52.76a18.28,18.28,0,0,1,.75-6.06,9.54,9.54,0,0,1,1.13-2.85.8.8,0,0,1,.13-.13c1.69-6.11,9-9.52,16.41-7.61a15.82,15.82,0,0,1,7.74,4.52c-.48-6-5.13-10.72-14.13-13a32.09,32.09,0,0,0-20.81,1.58C69,28.82,48.38,48.61,48.38,48.61L41,47.3h-.1c.49.11,1,.22,1.49.35C50.85,49.82,54.45,54.31,55.11,60.17Z"/><path class="cls-5" d="M489.78,86.17c14.53,2.17,29.28,1.57,44,1a76.2,76.2,0,0,0,9.78-.83,54.42,54.42,0,0,0,10.26-3c2.29-3.07,3.54-7.6,3.54-14.22,0-27.35-22.84-48.11-50.15-48.11S462,40.34,462,67.7c0,7.88-.45,13.08,2.82,16.27C466.83,83,487.42,85.81,489.78,86.17Z"/><path class="cls-5" d="M461.25,69.11v17l-20.48-2.83V69.11c0-11.33,3.49-20.52,9.53-20.52S461.25,57.78,461.25,69.11Z"/><path class="cls-6" d="M481.73,57.79c0-4.67-4.52-8.49-9.18-8.49l-19.78-.71a7.87,7.87,0,0,0-1.38.13c5.14,1.16,9.15,10.48,9.15,21.81,0,6.7.44,12-.13,15.49a5.09,5.09,0,0,0,.84.07l21.19-3.53Z"/><path class="cls-7" d="M278.37,65.57h0A10.61,10.61,0,0,0,289,55h0a10.61,10.61,0,0,0-10.61-10.61h-.53a.29.29,0,0,0-.3.3V64.74A.83.83,0,0,0,278.37,65.57Z"/><path class="cls-8" d="M278.37,65.57h0A10.61,10.61,0,0,0,289,55h0a10.61,10.61,0,0,0-10.61-10.61h-.53a.29.29,0,0,0-.3.3V64.74A.83.83,0,0,0,278.37,65.57Z"/><path class="cls-9" d="M278.37,65.57h0A10.61,10.61,0,0,0,289,55h0a10.61,10.61,0,0,0-10.61-10.61h-.53a.29.29,0,0,0-.3.3V64.74A.83.83,0,0,0,278.37,65.57Z"/><path class="cls-10" d="M278.37,65.57h0A10.61,10.61,0,0,0,289,55h0a10.61,10.61,0,0,0-10.61-10.61h-.53a.29.29,0,0,0-.3.3V64.74A.83.83,0,0,0,278.37,65.57Z"/><rect class="cls-11" x="1" width="599" height="100"/><path class="cls-1" d="M1107.66,23c-20.55,0-35.77,11-42,28l-12.35-.45a8.2,8.2,0,0,0-1.32.12,5.54,5.54,0,0,0-1.15-.12c-6,0-9.54,9.19-9.54,20.52V85.26L1060.91,88a.06.06,0,0,1,0,0,5.3,5.3,0,0,0,.85.07l11.76-2c6.73.62,15.29,1.82,16.76,2,14.53,2.17,29.29,1.57,44,1a76.2,76.2,0,0,0,9.79-.83,54.42,54.42,0,0,0,10.26-3c2.29-3.07,3.54-7.6,3.54-14.22C1157.81,43.76,1135,23,1107.66,23Z"/><path class="cls-2" d="M718.53,83.28l.14,0-.18,0c-4.66-7.16-10.82-15.21-16.16-19.11l0,0a47.75,47.75,0,0,0-4.64-3.36c-.06-.06-.13-.11-.17-.16-3.81-2.41-7.59-4.68-11.31-6.63a7.27,7.27,0,0,1-.16-1.23,18.28,18.28,0,0,1,.75-6.06,9.54,9.54,0,0,1,1.13-2.85.8.8,0,0,1,.13-.13c1.69-6.11,9-9.52,16.41-7.61a15.82,15.82,0,0,1,7.74,4.52c-.48-6-5.13-10.72-14.13-13a32.09,32.09,0,0,0-20.81,1.58c-8.1-.36-28.07,18.68-28.81,19.39h-.14l-1.36-.24a1.25,1.25,0,0,1-.43-.25,4.23,4.23,0,0,1-.94-1.54,12.75,12.75,0,0,1-.83-3,14.92,14.92,0,0,1,.21-5.65,11.05,11.05,0,0,1,.39-1.36A7.43,7.43,0,0,1,646,34.7a11,11,0,0,1,10.08-7.29,10.15,10.15,0,0,1,4.51,1.07c-1.38-4.61-4.4-6.77-12.55-6.77-12.21,0-24.52,18.94-29.34,35.91C611.11,60,607.84,86.77,600,87.51c12.15,3.6,17.16-14.2,30.06-1.58a2.35,2.35,0,0,0,1.1.47,9,9,0,0,0,6.76.73,12.52,12.52,0,0,0,4.36-3c.54.18,1.08.35,1.63.49s.87.2,1.29.28a14.49,14.49,0,0,1,2,.29l1,.19c1.45.3,3,.64,3.66.69,5.55.35,10.73.88,16.26.35q4.7-.44,9.32-1.31a6.84,6.84,0,0,1,1.75-.16c2.5-.55,5-1,7.53-1.42l.36-.05c.55-.09,1.11-.17,1.66-.24l.7-.09c1.11-.15,2.22-.28,3.34-.38l.28,0,1.57-.14.93-.06,1.53-.1,1.25-.06c.74,0,1.5,0,2.25-.06l1.19,0h1.4l1.63,0,1.85.07,1.49.08,1.3.08q.87.06,1.74.15l1.63.16q.94.09,1.89.21l1.25.17,1.81.27,1.08.16ZM690.31,57.14l-.94-.33a5.58,5.58,0,0,1-2.44-1.22,2.92,2.92,0,0,1-.65-1.18A10.21,10.21,0,0,1,690.31,57.14Z"/><path class="cls-3" d="M630.06,85.93a2.35,2.35,0,0,0,1.1.47,9,9,0,0,0,6.76.73,14.12,14.12,0,0,0,4.93-3.54A118.72,118.72,0,0,0,655.51,69c.42-.56.83-1.13,1.28-1.65,5.5-8.3,13-14,22.93-14,8.51,0,12.23,3.88,13.4,9.93a10.5,10.5,0,0,0-6.93-2.67c-6.4,0-11.6,6-11.6,13.49a14.35,14.35,0,0,0,4.5,10.66l.41-.29,9.17-4.84a11.51,11.51,0,0,0,1.21-.74c2.9-2,17.49,2.25,28.79,4.37-5.61,1.24-13.56-15.7-17.66-19.81-.71-.71-2.83-2.12-3.53-2.83-11.15-7-22.09-13-31.81-13a162.48,162.48,0,0,0-17.65,1,2.93,2.93,0,0,1-1.53-.52,4.23,4.23,0,0,1-.94-1.54,12.75,12.75,0,0,1-.83-3,14.92,14.92,0,0,1,.21-5.65,11.05,11.05,0,0,1,.39-1.36A7.43,7.43,0,0,1,646,34.7a11,11,0,0,1,10.08-7.29,10.15,10.15,0,0,1,4.51,1.07c-1.38-4.61-4.4-6.77-12.55-6.77-12.21,0-24.52,18.94-29.34,35.91C611.11,60,607.84,86.77,600,87.51,612.15,91.11,617.16,73.31,630.06,85.93Z"/><path class="cls-4" d="M655.11,60.17a16.07,16.07,0,0,0-6.71-3.55,15.47,15.47,0,0,0-19,10.85,12.49,12.49,0,0,0-.24,1.31h0c-.49,3.91,1.33,7.46,4.31,10.26h0a17.76,17.76,0,0,0,1.74,1.47h0a25,25,0,0,0,8.71,4.14c.44.11.87.2,1.29.28a14.49,14.49,0,0,1,2,.29l1,.19c1.45.3,3,.64,3.66.69,5.55.35,10.73.88,16.26.35q4.7-.44,9.32-1.31a6.84,6.84,0,0,1,1.75-.16c2.5-.55,5-1,7.53-1.42l.36-.05c.55-.09,1.11-.17,1.66-.24l.7-.09c1.11-.15,2.22-.28,3.34-.38l.28,0,1.57-.14.93-.06,1.53-.1,1.25-.06c.74,0,1.5,0,2.25-.06l1.19,0h1.4l1.63,0,1.85.07,1.49.08,1.3.08q.87.06,1.74.15l1.63.16q.94.09,1.89.21l1.25.17,1.81.27,1.08.16c-4.7-7.27-11-15.59-16.47-19.57l0,0a40.41,40.41,0,0,0-12.92-7.33,5.58,5.58,0,0,1-2.44-1.22,4.36,4.36,0,0,1-.92-2.83,18.28,18.28,0,0,1,.75-6.06,9.54,9.54,0,0,1,1.13-2.85.8.8,0,0,1,.13-.13c1.69-6.11,9-9.52,16.41-7.61a15.82,15.82,0,0,1,7.74,4.52c-.48-6-5.13-10.72-14.13-13a32.09,32.09,0,0,0-20.81,1.58c-8.26-.37-28.85,19.42-28.85,19.42L641,47.3h-.1c.49.11,1,.22,1.49.35C650.85,49.82,654.45,54.31,655.11,60.17Z"/><path class="cls-5" d="M1089.78,86.17c14.53,2.17,29.28,1.57,44,1a76.2,76.2,0,0,0,9.78-.83,54.42,54.42,0,0,0,10.26-3c2.29-3.07,3.54-7.6,3.54-14.22,0-27.35-22.84-48.11-50.15-48.11S1062,40.34,1062,67.7c0,7.88-.45,13.08,2.82,16.27C1066.83,83,1087.42,85.81,1089.78,86.17Z"/><path class="cls-5" d="M1061.25,69.11v17l-20.48-2.83V69.11c0-11.33,3.49-20.52,9.53-20.52S1061.25,57.78,1061.25,69.11Z"/><path class="cls-6" d="M1081.73,57.79c0-4.67-4.52-8.49-9.18-8.49l-19.78-.71a7.87,7.87,0,0,0-1.38.13c5.14,1.16,9.15,10.48,9.15,21.81,0,6.7.44,12-.13,15.49a5.09,5.09,0,0,0,.84.07l21.19-3.53Z"/><path class="cls-7" d="M878.37,65.57h11A10.61,10.61,0,0,0,900,55h0a10.61,10.61,0,0,0-10.61-10.61H877.84a.29.29,0,0,0-.3.3V64.74A.83.83,0,0,0,878.37,65.57Z"/><path class="cls-12" d="M878.37,65.57h11A10.61,10.61,0,0,0,900,55h0a10.61,10.61,0,0,0-10.61-10.61H877.84a.29.29,0,0,0-.3.3V64.74A.83.83,0,0,0,878.37,65.57Z"/><path class="cls-13" d="M878.37,65.57h11A10.61,10.61,0,0,0,900,55h0a10.61,10.61,0,0,0-10.61-10.61H877.84a.29.29,0,0,0-.3.3V64.74A.83.83,0,0,0,878.37,65.57Z"/><path class="cls-14" d="M878.37,65.57h11A10.61,10.61,0,0,0,900,55h0a10.61,10.61,0,0,0-10.61-10.61H877.84a.29.29,0,0,0-.3.3V64.74A.83.83,0,0,0,878.37,65.57Z"/><rect class="cls-11" x="601" width="599" height="100"/><path class="cls-1" d="M1707.66,23c-20.55,0-35.77,11-42,28l-12.35-.45a8.2,8.2,0,0,0-1.32.12,5.54,5.54,0,0,0-1.15-.12c-6,0-9.54,9.19-9.54,20.52V85.26L1660.91,88a.06.06,0,0,1,0,0,5.3,5.3,0,0,0,.85.07l11.76-2c6.73.62,15.29,1.82,16.76,2,14.53,2.17,29.29,1.57,44,1a76.2,76.2,0,0,0,9.79-.83,54.42,54.42,0,0,0,10.26-3c2.29-3.07,3.54-7.6,3.54-14.22C1757.81,43.76,1735,23,1707.66,23Z"/><path class="cls-2" d="M1318.53,83.28l.14,0-.18,0c-4.66-7.16-10.82-15.21-16.16-19.11l0,0a47.75,47.75,0,0,0-4.64-3.36c-.06-.06-.13-.11-.17-.16-3.81-2.41-7.59-4.68-11.31-6.63a7.27,7.27,0,0,1-.16-1.23,18.28,18.28,0,0,1,.75-6.06,9.54,9.54,0,0,1,1.13-2.85.8.8,0,0,1,.13-.13c1.69-6.11,9-9.52,16.41-7.61a15.82,15.82,0,0,1,7.74,4.52c-.48-6-5.13-10.72-14.13-13a32.09,32.09,0,0,0-20.81,1.58c-8.1-.36-28.07,18.68-28.81,19.39h-.14l-1.36-.24a1.25,1.25,0,0,1-.43-.25,4.23,4.23,0,0,1-.94-1.54,12.75,12.75,0,0,1-.83-3,14.92,14.92,0,0,1,.21-5.65,11.05,11.05,0,0,1,.39-1.36,7.43,7.43,0,0,1,.68-1.86,11,11,0,0,1,10.08-7.29,10.15,10.15,0,0,1,4.51,1.07c-1.38-4.61-4.4-6.77-12.55-6.77-12.21,0-24.52,18.94-29.34,35.91-7.59,2.37-10.86,29.15-18.7,29.89,12.15,3.6,17.16-14.2,30.06-1.58a2.35,2.35,0,0,0,1.1.47,9,9,0,0,0,6.76.73,12.52,12.52,0,0,0,4.36-3c.54.18,1.08.35,1.63.49s.87.2,1.29.28a14.49,14.49,0,0,1,2,.29l1,.19c1.45.3,3,.64,3.66.69,5.55.35,10.73.88,16.26.35q4.7-.44,9.32-1.31a6.84,6.84,0,0,1,1.75-.16c2.5-.55,5-1,7.53-1.42l.36-.05c.55-.09,1.11-.17,1.66-.24l.7-.09c1.11-.15,2.22-.28,3.34-.38l.28,0,1.57-.14.93-.06,1.53-.1,1.25-.06c.74,0,1.5,0,2.25-.06l1.19,0h1.4l1.63,0,1.85.07,1.49.08,1.3.08,1.74.15,1.63.16q.95.09,1.89.21l1.25.17,1.81.27,1.08.16Zm-28.22-26.14-.94-.33a5.58,5.58,0,0,1-2.44-1.22,2.92,2.92,0,0,1-.65-1.18A10.21,10.21,0,0,1,1290.31,57.14Z"/><path class="cls-3" d="M1230.06,85.93a2.35,2.35,0,0,0,1.1.47,9,9,0,0,0,6.76.73,14.12,14.12,0,0,0,4.93-3.54A118.72,118.72,0,0,0,1255.51,69c.42-.56.83-1.13,1.28-1.65,5.5-8.3,13-14,22.93-14,8.51,0,12.23,3.88,13.4,9.93a10.5,10.5,0,0,0-6.93-2.67c-6.4,0-11.6,6-11.6,13.49a14.35,14.35,0,0,0,4.5,10.66l.41-.29,9.17-4.84a11.51,11.51,0,0,0,1.21-.74c2.9-2,17.49,2.25,28.79,4.37-5.61,1.24-13.56-15.7-17.66-19.81-.71-.71-2.83-2.12-3.53-2.83-11.15-7-22.09-13-31.81-13a162.48,162.48,0,0,0-17.65,1,2.93,2.93,0,0,1-1.53-.52,4.23,4.23,0,0,1-.94-1.54,12.75,12.75,0,0,1-.83-3,14.92,14.92,0,0,1,.21-5.65,11.05,11.05,0,0,1,.39-1.36,7.43,7.43,0,0,1,.68-1.86,11,11,0,0,1,10.08-7.29,10.15,10.15,0,0,1,4.51,1.07c-1.38-4.61-4.4-6.77-12.55-6.77-12.21,0-24.52,18.94-29.34,35.91-7.59,2.37-10.86,29.15-18.7,29.89C1212.15,91.11,1217.16,73.31,1230.06,85.93Z"/><path class="cls-4" d="M1255.11,60.17a16.07,16.07,0,0,0-6.71-3.55,15.47,15.47,0,0,0-19,10.85,12.49,12.49,0,0,0-.24,1.31h0c-.49,3.91,1.33,7.46,4.31,10.26h0a17.76,17.76,0,0,0,1.74,1.47h0a25,25,0,0,0,8.71,4.14c.44.11.87.2,1.29.28a14.49,14.49,0,0,1,2,.29l1,.19c1.45.3,3,.64,3.66.69,5.55.35,10.73.88,16.26.35q4.7-.44,9.32-1.31a6.84,6.84,0,0,1,1.75-.16c2.5-.55,5-1,7.53-1.42l.36-.05c.55-.09,1.11-.17,1.66-.24l.7-.09c1.11-.15,2.22-.28,3.34-.38l.28,0,1.57-.14.93-.06,1.53-.1,1.25-.06c.74,0,1.5,0,2.25-.06l1.19,0h1.4l1.63,0,1.85.07,1.49.08,1.3.08,1.74.15,1.63.16q.95.09,1.89.21l1.25.17,1.81.27,1.08.16c-4.7-7.27-11-15.59-16.47-19.57l0,0a40.41,40.41,0,0,0-12.92-7.33,5.58,5.58,0,0,1-2.44-1.22,4.36,4.36,0,0,1-.92-2.83,18.28,18.28,0,0,1,.75-6.06,9.54,9.54,0,0,1,1.13-2.85.8.8,0,0,1,.13-.13c1.69-6.11,9-9.52,16.41-7.61a15.82,15.82,0,0,1,7.74,4.52c-.48-6-5.13-10.72-14.13-13a32.09,32.09,0,0,0-20.81,1.58c-8.26-.37-28.85,19.42-28.85,19.42L1241,47.3h-.1c.49.11,1,.22,1.49.35C1250.85,49.82,1254.45,54.31,1255.11,60.17Z"/><path class="cls-5" d="M1689.78,86.17c14.53,2.17,29.28,1.57,44,1a76.2,76.2,0,0,0,9.78-.83,54.42,54.42,0,0,0,10.26-3c2.29-3.07,3.54-7.6,3.54-14.22,0-27.35-22.84-48.11-50.15-48.11S1662,40.34,1662,67.7c0,7.88-.45,13.08,2.82,16.27C1666.83,83,1687.42,85.81,1689.78,86.17Z"/><path class="cls-5" d="M1661.25,69.11v17l-20.48-2.83V69.11c0-11.33,3.49-20.52,9.53-20.52S1661.25,57.78,1661.25,69.11Z"/><path class="cls-6" d="M1681.73,57.79c0-4.67-4.52-8.49-9.18-8.49l-19.78-.71a7.87,7.87,0,0,0-1.38.13c5.14,1.16,9.15,10.48,9.15,21.81,0,6.7.44,12-.13,15.49a5.09,5.09,0,0,0,.84.07l21.19-3.53Z"/><path class="cls-7" d="M1478.37,65.57h21A10.61,10.61,0,0,0,1510,55h0a10.61,10.61,0,0,0-10.61-10.61h-21.55a.29.29,0,0,0-.3.3V64.74A.83.83,0,0,0,1478.37,65.57Z"/><path class="cls-15" d="M1478.37,65.57h21A10.61,10.61,0,0,0,1510,55h0a10.61,10.61,0,0,0-10.61-10.61h-21.55a.29.29,0,0,0-.3.3V64.74A.83.83,0,0,0,1478.37,65.57Z"/><path class="cls-16" d="M1478.37,65.57h21A10.61,10.61,0,0,0,1510,55h0a10.61,10.61,0,0,0-10.61-10.61h-21.55a.29.29,0,0,0-.3.3V64.74A.83.83,0,0,0,1478.37,65.57Z"/><path class="cls-17" d="M1478.37,65.57h21A10.61,10.61,0,0,0,1510,55h0a10.61,10.61,0,0,0-10.61-10.61h-21.55a.29.29,0,0,0-.3.3V64.74A.83.83,0,0,0,1478.37,65.57Z"/><rect class="cls-11" x="1201" width="599" height="100"/><path class="cls-1" d="M2307.66,23c-20.55,0-35.77,11-42,28l-12.35-.45a8.2,8.2,0,0,0-1.32.12,5.54,5.54,0,0,0-1.15-.12c-6.05,0-9.54,9.19-9.54,20.52V85.26L2260.91,88a.06.06,0,0,1,0,0,5.3,5.3,0,0,0,.85.07l11.76-2c6.73.62,15.29,1.82,16.76,2,14.53,2.17,29.29,1.57,43.95,1a76.2,76.2,0,0,0,9.79-.83,54.42,54.42,0,0,0,10.26-3c2.29-3.07,3.54-7.6,3.54-14.22C2357.81,43.76,2335,23,2307.66,23Z"/><path class="cls-2" d="M1918.53,83.28l.14,0-.18,0c-4.66-7.16-10.82-15.21-16.16-19.11l0,0a47.75,47.75,0,0,0-4.64-3.36c-.06-.06-.13-.11-.17-.16-3.81-2.41-7.59-4.68-11.31-6.63a7.27,7.27,0,0,1-.16-1.23,18.28,18.28,0,0,1,.75-6.06,9.54,9.54,0,0,1,1.13-2.85.8.8,0,0,1,.13-.13c1.69-6.11,9-9.52,16.41-7.61a15.82,15.82,0,0,1,7.74,4.52c-.48-6-5.13-10.72-14.13-13a32.09,32.09,0,0,0-20.81,1.58c-8.1-.36-28.07,18.68-28.81,19.39h-.14l-1.36-.24a1.25,1.25,0,0,1-.43-.25,4.23,4.23,0,0,1-.94-1.54,12.75,12.75,0,0,1-.83-3,14.92,14.92,0,0,1,.21-5.65,11.05,11.05,0,0,1,.39-1.36,7.43,7.43,0,0,1,.68-1.86,11,11,0,0,1,10.08-7.29,10.15,10.15,0,0,1,4.51,1.07c-1.38-4.61-4.4-6.77-12.55-6.77-12.21,0-24.52,18.94-29.34,35.91-7.59,2.37-10.86,29.15-18.7,29.89,12.15,3.6,17.16-14.2,30.06-1.58a2.35,2.35,0,0,0,1.1.47,9,9,0,0,0,6.76.73,12.52,12.52,0,0,0,4.36-3c.54.18,1.08.35,1.63.49s.87.2,1.29.28a14.49,14.49,0,0,1,2,.29l1,.19c1.45.3,3,.64,3.66.69,5.55.35,10.73.88,16.26.35q4.7-.44,9.32-1.31a6.84,6.84,0,0,1,1.75-.16c2.5-.55,5-1,7.53-1.42l.36-.05c.55-.09,1.11-.17,1.66-.24l.7-.09c1.11-.15,2.22-.28,3.34-.38l.28,0,1.57-.14.93-.06,1.53-.1,1.25-.06c.74,0,1.5,0,2.25-.06l1.19,0h1.4l1.63,0,1.85.07,1.49.08,1.3.08,1.74.15,1.63.16q.95.09,1.89.21l1.25.17,1.81.27,1.08.16Zm-28.22-26.14-.94-.33a5.58,5.58,0,0,1-2.44-1.22,2.92,2.92,0,0,1-.65-1.18A10.21,10.21,0,0,1,1890.31,57.14Z"/><path class="cls-3" d="M1830.06,85.93a2.35,2.35,0,0,0,1.1.47,9,9,0,0,0,6.76.73,14.12,14.12,0,0,0,4.93-3.54A118.72,118.72,0,0,0,1855.51,69c.42-.56.83-1.13,1.28-1.65,5.5-8.3,13-14,22.93-14,8.51,0,12.23,3.88,13.4,9.93a10.5,10.5,0,0,0-6.93-2.67c-6.4,0-11.6,6-11.6,13.49a14.35,14.35,0,0,0,4.5,10.66l.41-.29,9.17-4.84a11.51,11.51,0,0,0,1.21-.74c2.9-2,17.49,2.25,28.79,4.37-5.61,1.24-13.56-15.7-17.66-19.81-.71-.71-2.83-2.12-3.53-2.83-11.15-7-22.09-13-31.81-13a162.48,162.48,0,0,0-17.65,1,2.93,2.93,0,0,1-1.53-.52,4.23,4.23,0,0,1-.94-1.54,12.75,12.75,0,0,1-.83-3,14.92,14.92,0,0,1,.21-5.65,11.05,11.05,0,0,1,.39-1.36,7.43,7.43,0,0,1,.68-1.86,11,11,0,0,1,10.08-7.29,10.15,10.15,0,0,1,4.51,1.07c-1.38-4.61-4.4-6.77-12.55-6.77-12.21,0-24.52,18.94-29.34,35.91-7.59,2.37-10.86,29.15-18.7,29.89C1812.15,91.11,1817.16,73.31,1830.06,85.93Z"/><path class="cls-4" d="M1855.11,60.17a16.07,16.07,0,0,0-6.71-3.55,15.47,15.47,0,0,0-19,10.85,12.49,12.49,0,0,0-.24,1.31h0c-.49,3.91,1.33,7.46,4.31,10.26h0a17.76,17.76,0,0,0,1.74,1.47h0a25,25,0,0,0,8.71,4.14c.44.11.87.2,1.29.28a14.49,14.49,0,0,1,2,.29l1,.19c1.45.3,3,.64,3.66.69,5.55.35,10.73.88,16.26.35q4.7-.44,9.32-1.31a6.84,6.84,0,0,1,1.75-.16c2.5-.55,5-1,7.53-1.42l.36-.05c.55-.09,1.11-.17,1.66-.24l.7-.09c1.11-.15,2.22-.28,3.34-.38l.28,0,1.57-.14.93-.06,1.53-.1,1.25-.06c.74,0,1.5,0,2.25-.06l1.19,0h1.4l1.63,0,1.85.07,1.49.08,1.3.08,1.74.15,1.63.16q.95.09,1.89.21l1.25.17,1.81.27,1.08.16c-4.7-7.27-11-15.59-16.47-19.57l0,0a40.41,40.41,0,0,0-12.92-7.33,5.58,5.58,0,0,1-2.44-1.22,4.36,4.36,0,0,1-.92-2.83,18.28,18.28,0,0,1,.75-6.06,9.54,9.54,0,0,1,1.13-2.85.8.8,0,0,1,.13-.13c1.69-6.11,9-9.52,16.41-7.61a15.82,15.82,0,0,1,7.74,4.52c-.48-6-5.13-10.72-14.13-13a32.09,32.09,0,0,0-20.81,1.58c-8.26-.37-28.85,19.42-28.85,19.42L1841,47.3h-.1c.49.11,1,.22,1.49.35C1850.85,49.82,1854.45,54.31,1855.11,60.17Z"/><path class="cls-5" d="M2289.78,86.17c14.53,2.17,29.28,1.57,43.95,1a76.2,76.2,0,0,0,9.78-.83,54.42,54.42,0,0,0,10.26-3c2.29-3.07,3.54-7.6,3.54-14.22,0-27.35-22.84-48.11-50.15-48.11S2262,40.34,2262,67.7c0,7.88-.45,13.08,2.82,16.27C2266.83,83,2287.42,85.81,2289.78,86.17Z"/><path class="cls-5" d="M2261.25,69.11v17l-20.48-2.83V69.11c0-11.33,3.49-20.52,9.53-20.52S2261.25,57.78,2261.25,69.11Z"/><path class="cls-6" d="M2281.73,57.79c0-4.67-4.52-8.49-9.18-8.49l-19.78-.71a7.87,7.87,0,0,0-1.38.13c5.14,1.16,9.15,10.48,9.15,21.81,0,6.7.44,12-.13,15.49a5.09,5.09,0,0,0,.84.07l21.19-3.53Z"/><path class="cls-7" d="M2078.37,65.57h31A10.61,10.61,0,0,0,2120,55h0a10.61,10.61,0,0,0-10.61-10.61h-31.55a.29.29,0,0,0-.3.3V64.74A.83.83,0,0,0,2078.37,65.57Z"/><path class="cls-18" d="M2078.37,65.57h31A10.61,10.61,0,0,0,2120,55h0a10.61,10.61,0,0,0-10.61-10.61h-31.55a.29.29,0,0,0-.3.3V64.74A.83.83,0,0,0,2078.37,65.57Z"/><path class="cls-19" d="M2078.37,65.57h31A10.61,10.61,0,0,0,2120,55h0a10.61,10.61,0,0,0-10.61-10.61h-31.55a.29.29,0,0,0-.3.3V64.74A.83.83,0,0,0,2078.37,65.57Z"/><path class="cls-20" d="M2078.37,65.57h31A10.61,10.61,0,0,0,2120,55h0a10.61,10.61,0,0,0-10.61-10.61h-31.55a.29.29,0,0,0-.3.3V64.74A.83.83,0,0,0,2078.37,65.57Z"/><rect class="cls-11" x="1801" width="599" height="100"/><path class="cls-1" d="M2906.66,22c-20.55,0-35.77,11-42,28l-12.35-.45a8.2,8.2,0,0,0-1.32.12,5.54,5.54,0,0,0-1.15-.12c-6.05,0-9.54,9.19-9.54,20.52V84.26L2859.91,87a.06.06,0,0,1,0,0,5.3,5.3,0,0,0,.85.07l11.76-2c6.73.62,15.29,1.82,16.76,2,14.53,2.17,29.29,1.57,43.95,1a76.2,76.2,0,0,0,9.79-.83,54.42,54.42,0,0,0,10.26-3c2.29-3.07,3.54-7.6,3.54-14.22C2956.81,42.76,2934,22,2906.66,22Z"/><path class="cls-2" d="M2517.53,82.28l.14,0-.18,0c-4.66-7.16-10.82-15.21-16.16-19.11l0,0a47.75,47.75,0,0,0-4.64-3.36c-.06-.06-.13-.11-.17-.16-3.81-2.41-7.59-4.68-11.31-6.63a7.27,7.27,0,0,1-.16-1.23,18.28,18.28,0,0,1,.75-6.06,9.54,9.54,0,0,1,1.13-2.85.8.8,0,0,1,.13-.13c1.69-6.11,9-9.52,16.41-7.61a15.82,15.82,0,0,1,7.74,4.52c-.48-6-5.13-10.72-14.13-13a32.09,32.09,0,0,0-20.81,1.58c-8.1-.36-28.07,18.68-28.81,19.39h-.14l-1.36-.24a1.25,1.25,0,0,1-.43-.25,4.23,4.23,0,0,1-.94-1.54,12.75,12.75,0,0,1-.83-3,14.92,14.92,0,0,1,.21-5.65,11.05,11.05,0,0,1,.39-1.36,7.43,7.43,0,0,1,.68-1.86,11,11,0,0,1,10.08-7.29,10.15,10.15,0,0,1,4.51,1.07c-1.38-4.61-4.4-6.77-12.55-6.77-12.21,0-24.52,18.94-29.34,35.91-7.59,2.37-10.86,29.15-18.7,29.89,12.15,3.6,17.16-14.2,30.06-1.58a2.35,2.35,0,0,0,1.1.47,9,9,0,0,0,6.76.73,12.52,12.52,0,0,0,4.36-3c.54.18,1.08.35,1.63.49s.87.2,1.29.28a14.49,14.49,0,0,1,2,.29l1,.19c1.45.3,3,.64,3.66.69,5.55.35,10.73.88,16.26.35q4.69-.44,9.32-1.31a6.84,6.84,0,0,1,1.75-.16c2.5-.55,5-1,7.53-1.42l.36-.05c.55-.09,1.11-.17,1.66-.24l.7-.09c1.11-.15,2.22-.28,3.34-.38l.28,0,1.57-.14.93-.06,1.53-.1,1.25-.06c.74,0,1.5,0,2.25-.06l1.19,0h1.4l1.63,0,1.85.07,1.49.08,1.3.08q.87.06,1.74.15l1.63.16q.95.09,1.89.21l1.25.17,1.81.27,1.08.16Zm-28.22-26.14-.94-.33a5.58,5.58,0,0,1-2.44-1.22,2.92,2.92,0,0,1-.65-1.18A10.21,10.21,0,0,1,2489.31,56.14Z"/><path class="cls-3" d="M2429.06,84.93a2.35,2.35,0,0,0,1.1.47,9,9,0,0,0,6.76.73,14.12,14.12,0,0,0,4.93-3.54A118.72,118.72,0,0,0,2454.51,68c.42-.56.83-1.13,1.28-1.65,5.5-8.3,13-14,22.93-14,8.51,0,12.23,3.88,13.4,9.93a10.5,10.5,0,0,0-6.93-2.67c-6.4,0-11.6,6-11.6,13.49a14.35,14.35,0,0,0,4.5,10.66l.41-.29,9.17-4.84a11.51,11.51,0,0,0,1.21-.74c2.9-2,17.49,2.25,28.79,4.37-5.61,1.24-13.56-15.7-17.66-19.81-.71-.71-2.83-2.12-3.53-2.83-11.15-7-22.09-13-31.81-13a162.48,162.48,0,0,0-17.65,1,2.93,2.93,0,0,1-1.53-.52,4.23,4.23,0,0,1-.94-1.54,12.75,12.75,0,0,1-.83-3,14.92,14.92,0,0,1,.21-5.65,11.05,11.05,0,0,1,.39-1.36,7.43,7.43,0,0,1,.68-1.86,11,11,0,0,1,10.08-7.29,10.15,10.15,0,0,1,4.51,1.07c-1.38-4.61-4.4-6.77-12.55-6.77-12.21,0-24.52,18.94-29.34,35.91-7.59,2.37-10.86,29.15-18.7,29.89C2411.15,90.11,2416.16,72.31,2429.06,84.93Z"/><path class="cls-4" d="M2454.11,59.17a16.07,16.07,0,0,0-6.71-3.55,15.47,15.47,0,0,0-19,10.85,12.49,12.49,0,0,0-.24,1.31h0c-.49,3.91,1.33,7.46,4.31,10.26h0a17.76,17.76,0,0,0,1.74,1.47h0a25,25,0,0,0,8.71,4.14c.44.11.87.2,1.29.28a14.49,14.49,0,0,1,2,.29l1,.19c1.45.3,3,.64,3.66.69,5.55.35,10.73.88,16.26.35q4.69-.44,9.32-1.31a6.84,6.84,0,0,1,1.75-.16c2.5-.55,5-1,7.53-1.42l.36-.05c.55-.09,1.11-.17,1.66-.24l.7-.09c1.11-.15,2.22-.28,3.34-.38l.28,0,1.57-.14.93-.06,1.53-.1,1.25-.06c.74,0,1.5,0,2.25-.06l1.19,0h1.4l1.63,0,1.85.07,1.49.08,1.3.08q.87.06,1.74.15l1.63.16q.95.09,1.89.21l1.25.17,1.81.27,1.08.16c-4.7-7.27-11-15.59-16.47-19.57l0,0a40.41,40.41,0,0,0-12.92-7.33,5.58,5.58,0,0,1-2.44-1.22,4.36,4.36,0,0,1-.92-2.83,18.28,18.28,0,0,1,.75-6.06,9.54,9.54,0,0,1,1.13-2.85.8.8,0,0,1,.13-.13c1.69-6.11,9-9.52,16.41-7.61a15.82,15.82,0,0,1,7.74,4.52c-.48-6-5.13-10.72-14.13-13a32.09,32.09,0,0,0-20.81,1.58c-8.26-.37-28.85,19.42-28.85,19.42L2440,46.3h-.1c.49.11,1,.22,1.49.35C2449.85,48.82,2453.45,53.31,2454.11,59.17Z"/><path class="cls-5" d="M2888.78,85.17c14.53,2.17,29.28,1.57,43.95,1a76.2,76.2,0,0,0,9.78-.83,54.42,54.42,0,0,0,10.26-3c2.29-3.07,3.54-7.6,3.54-14.22,0-27.35-22.84-48.11-50.15-48.11S2861,39.34,2861,66.7c0,7.88-.45,13.08,2.82,16.27C2865.83,82,2886.42,84.81,2888.78,85.17Z"/><path class="cls-5" d="M2860.25,68.11v17l-20.48-2.83V68.11c0-11.33,3.49-20.52,9.53-20.52S2860.25,56.78,2860.25,68.11Z"/><path class="cls-6" d="M2880.73,56.79c0-4.67-4.52-8.49-9.18-8.49l-19.78-.71a7.87,7.87,0,0,0-1.38.13c5.14,1.16,9.15,10.48,9.15,21.81,0,6.7.44,12-.13,15.49a5.09,5.09,0,0,0,.84.07l21.19-3.53Z"/><path class="cls-7" d="M2677.37,64.57h41A10.61,10.61,0,0,0,2729,54h0a10.61,10.61,0,0,0-10.61-10.61h-41.55a.29.29,0,0,0-.3.3V63.74A.83.83,0,0,0,2677.37,64.57Z"/><path class="cls-21" d="M2677.37,64.57h41A10.61,10.61,0,0,0,2729,54h0a10.61,10.61,0,0,0-10.61-10.61h-41.55a.29.29,0,0,0-.3.3V63.74A.83.83,0,0,0,2677.37,64.57Z"/><path class="cls-22" d="M2677.37,64.57h41A10.61,10.61,0,0,0,2729,54h0a10.61,10.61,0,0,0-10.61-10.61h-41.55a.29.29,0,0,0-.3.3V63.74A.83.83,0,0,0,2677.37,64.57Z"/><path class="cls-23" d="M2677.37,64.57h41A10.61,10.61,0,0,0,2729,54h0a10.61,10.61,0,0,0-10.61-10.61h-41.55a.29.29,0,0,0-.3.3V63.74A.83.83,0,0,0,2677.37,64.57Z"/><rect class="cls-11" x="2400" width="600" height="100"/><path class="cls-1" d="M3506.66,23c-20.55,0-35.77,11-42,28l-12.35-.45a8.2,8.2,0,0,0-1.32.12,5.54,5.54,0,0,0-1.15-.12c-6.05,0-9.54,9.19-9.54,20.52V85.26L3459.91,88a.06.06,0,0,1,0,0,5.3,5.3,0,0,0,.85.07l11.76-2c6.73.62,15.29,1.82,16.76,2,14.53,2.17,29.29,1.57,43.95,1a76.2,76.2,0,0,0,9.79-.83,54.42,54.42,0,0,0,10.26-3c2.29-3.07,3.54-7.6,3.54-14.22C3556.81,43.76,3534,23,3506.66,23Z"/><path class="cls-2" d="M3117.53,83.28l.14,0-.18,0c-4.66-7.16-10.82-15.21-16.16-19.11l0,0a47.75,47.75,0,0,0-4.64-3.36c-.06-.06-.13-.11-.17-.16-3.81-2.41-7.59-4.68-11.31-6.63a7.27,7.27,0,0,1-.16-1.23,18.28,18.28,0,0,1,.75-6.06,9.54,9.54,0,0,1,1.13-2.85.8.8,0,0,1,.13-.13c1.69-6.11,9-9.52,16.41-7.61a15.82,15.82,0,0,1,7.74,4.52c-.48-6-5.13-10.72-14.13-13a32.09,32.09,0,0,0-20.81,1.58c-8.1-.36-28.07,18.68-28.81,19.39h-.14l-1.36-.24a1.25,1.25,0,0,1-.43-.25,4.23,4.23,0,0,1-.94-1.54,12.75,12.75,0,0,1-.83-3,14.92,14.92,0,0,1,.21-5.65,11.05,11.05,0,0,1,.39-1.36,7.43,7.43,0,0,1,.68-1.86,11,11,0,0,1,10.08-7.29,10.15,10.15,0,0,1,4.51,1.07c-1.38-4.61-4.4-6.77-12.55-6.77-12.21,0-24.52,18.94-29.34,35.91-7.59,2.37-10.86,29.15-18.7,29.89,12.15,3.6,17.16-14.2,30.06-1.58a2.35,2.35,0,0,0,1.1.47,9,9,0,0,0,6.76.73,12.52,12.52,0,0,0,4.36-3c.54.18,1.08.35,1.63.49s.87.2,1.29.28a14.49,14.49,0,0,1,2,.29l1,.19c1.45.3,3,.64,3.66.69,5.55.35,10.73.88,16.26.35q4.69-.44,9.32-1.31a6.84,6.84,0,0,1,1.75-.16c2.5-.55,5-1,7.53-1.42l.36-.05c.55-.09,1.11-.17,1.66-.24l.7-.09c1.11-.15,2.22-.28,3.34-.38l.28,0,1.57-.14.93-.06,1.53-.1,1.25-.06c.74,0,1.5,0,2.25-.06l1.19,0h1.4l1.63,0,1.85.07,1.49.08,1.3.08q.87.06,1.74.15l1.63.16q.95.09,1.89.21l1.25.17,1.81.27,1.08.16Zm-28.22-26.14-.94-.33a5.58,5.58,0,0,1-2.44-1.22,2.92,2.92,0,0,1-.65-1.18A10.21,10.21,0,0,1,3089.31,57.14Z"/><path class="cls-3" d="M3029.06,85.93a2.35,2.35,0,0,0,1.1.47,9,9,0,0,0,6.76.73,14.12,14.12,0,0,0,4.93-3.54A118.72,118.72,0,0,0,3054.51,69c.42-.56.83-1.13,1.28-1.65,5.5-8.3,13-14,22.93-14,8.51,0,12.23,3.88,13.4,9.93a10.5,10.5,0,0,0-6.93-2.67c-6.4,0-11.6,6-11.6,13.49a14.35,14.35,0,0,0,4.5,10.66l.41-.29,9.17-4.84a11.51,11.51,0,0,0,1.21-.74c2.9-2,17.49,2.25,28.79,4.37-5.61,1.24-13.56-15.7-17.66-19.81-.71-.71-2.83-2.12-3.53-2.83-11.15-7-22.09-13-31.81-13a162.48,162.48,0,0,0-17.65,1,2.93,2.93,0,0,1-1.53-.52,4.23,4.23,0,0,1-.94-1.54,12.75,12.75,0,0,1-.83-3,14.92,14.92,0,0,1,.21-5.65,11.05,11.05,0,0,1,.39-1.36,7.43,7.43,0,0,1,.68-1.86,11,11,0,0,1,10.08-7.29,10.15,10.15,0,0,1,4.51,1.07c-1.38-4.61-4.4-6.77-12.55-6.77-12.21,0-24.52,18.94-29.34,35.91-7.59,2.37-10.86,29.15-18.7,29.89C3011.15,91.11,3016.16,73.31,3029.06,85.93Z"/><path class="cls-4" d="M3054.11,60.17a16.07,16.07,0,0,0-6.71-3.55,15.47,15.47,0,0,0-19,10.85,12.49,12.49,0,0,0-.24,1.31h0c-.49,3.91,1.33,7.46,4.31,10.26h0a17.76,17.76,0,0,0,1.74,1.47h0a25,25,0,0,0,8.71,4.14c.44.11.87.2,1.29.28a14.49,14.49,0,0,1,2,.29l1,.19c1.45.3,3,.64,3.66.69,5.55.35,10.73.88,16.26.35q4.69-.44,9.32-1.31a6.84,6.84,0,0,1,1.75-.16c2.5-.55,5-1,7.53-1.42l.36-.05c.55-.09,1.11-.17,1.66-.24l.7-.09c1.11-.15,2.22-.28,3.34-.38l.28,0,1.57-.14.93-.06,1.53-.1,1.25-.06c.74,0,1.5,0,2.25-.06l1.19,0h1.4l1.63,0,1.85.07,1.49.08,1.3.08q.87.06,1.74.15l1.63.16q.95.09,1.89.21l1.25.17,1.81.27,1.08.16c-4.7-7.27-11-15.59-16.47-19.57l0,0a40.41,40.41,0,0,0-12.92-7.33,5.58,5.58,0,0,1-2.44-1.22,4.36,4.36,0,0,1-.92-2.83,18.28,18.28,0,0,1,.75-6.06,9.54,9.54,0,0,1,1.13-2.85.8.8,0,0,1,.13-.13c1.69-6.11,9-9.52,16.41-7.61a15.82,15.82,0,0,1,7.74,4.52c-.48-6-5.13-10.72-14.13-13a32.09,32.09,0,0,0-20.81,1.58c-8.26-.37-28.85,19.42-28.85,19.42L3040,47.3h-.1c.49.11,1,.22,1.49.35C3049.85,49.82,3053.45,54.31,3054.11,60.17Z"/><path class="cls-5" d="M3488.78,86.17c14.53,2.17,29.28,1.57,43.95,1a76.2,76.2,0,0,0,9.78-.83,54.42,54.42,0,0,0,10.26-3c2.29-3.07,3.54-7.6,3.54-14.22,0-27.35-22.84-48.11-50.15-48.11S3461,40.34,3461,67.7c0,7.88-.45,13.08,2.82,16.27C3465.83,83,3486.42,85.81,3488.78,86.17Z"/><path class="cls-5" d="M3460.25,69.11v17l-20.48-2.83V69.11c0-11.33,3.49-20.52,9.53-20.52S3460.25,57.78,3460.25,69.11Z"/><path class="cls-6" d="M3480.73,57.79c0-4.67-4.52-8.49-9.18-8.49l-19.78-.71a7.87,7.87,0,0,0-1.38.13c5.14,1.16,9.15,10.48,9.15,21.81,0,6.7.44,12-.13,15.49a5.09,5.09,0,0,0,.84.07l21.19-3.53Z"/><path class="cls-7" d="M3277.83,65.57H3329A10.61,10.61,0,0,0,3339.57,55h0A10.61,10.61,0,0,0,3329,44.35H3277.3a.29.29,0,0,0-.3.3V64.74A.83.83,0,0,0,3277.83,65.57Z"/><path class="cls-24" d="M3277.83,65.57H3329A10.61,10.61,0,0,0,3339.57,55h0A10.61,10.61,0,0,0,3329,44.35H3277.3a.29.29,0,0,0-.3.3V64.74A.83.83,0,0,0,3277.83,65.57Z"/><path class="cls-25" d="M3277.83,65.57H3329A10.61,10.61,0,0,0,3339.57,55h0A10.61,10.61,0,0,0,3329,44.35H3277.3a.29.29,0,0,0-.3.3V64.74A.83.83,0,0,0,3277.83,65.57Z"/><path class="cls-26" d="M3277.83,65.57H3329A10.61,10.61,0,0,0,3339.57,55h0A10.61,10.61,0,0,0,3329,44.35H3277.3a.29.29,0,0,0-.3.3V64.74A.83.83,0,0,0,3277.83,65.57Z"/><rect class="cls-11" x="3000" width="600" height="100"/><path class="cls-1" d="M4106.66,23c-20.55,0-35.77,11-42,28l-12.35-.45a8.2,8.2,0,0,0-1.32.12,5.54,5.54,0,0,0-1.15-.12c-6.05,0-9.54,9.19-9.54,20.52V85.26L4059.91,88a.06.06,0,0,1,0,0,5.3,5.3,0,0,0,.85.07l11.76-2c6.73.62,15.29,1.82,16.76,2,14.53,2.17,29.29,1.57,44,1a76.2,76.2,0,0,0,9.79-.83,54.42,54.42,0,0,0,10.26-3c2.29-3.07,3.54-7.6,3.54-14.22C4156.81,43.76,4134,23,4106.66,23Z"/><path class="cls-2" d="M3717.53,83.28l.14,0-.18,0c-4.66-7.16-10.82-15.21-16.16-19.11l0,0a47.75,47.75,0,0,0-4.64-3.36c-.06-.06-.13-.11-.17-.16-3.81-2.41-7.59-4.68-11.31-6.63a7.27,7.27,0,0,1-.16-1.23,18.28,18.28,0,0,1,.75-6.06,9.54,9.54,0,0,1,1.13-2.85.8.8,0,0,1,.13-.13c1.69-6.11,9-9.52,16.41-7.61a15.82,15.82,0,0,1,7.74,4.52c-.48-6-5.13-10.72-14.13-13a32.09,32.09,0,0,0-20.81,1.58c-8.1-.36-28.07,18.68-28.81,19.39h-.14l-1.36-.24a1.25,1.25,0,0,1-.43-.25,4.23,4.23,0,0,1-.94-1.54,12.75,12.75,0,0,1-.83-3,14.92,14.92,0,0,1,.21-5.65,11.05,11.05,0,0,1,.39-1.36,7.43,7.43,0,0,1,.68-1.86,11,11,0,0,1,10.08-7.29,10.15,10.15,0,0,1,4.51,1.07c-1.38-4.61-4.4-6.77-12.55-6.77-12.21,0-24.52,18.94-29.34,35.91-7.59,2.37-10.86,29.15-18.7,29.89,12.15,3.6,17.16-14.2,30.06-1.58a2.35,2.35,0,0,0,1.1.47,9,9,0,0,0,6.76.73,12.52,12.52,0,0,0,4.36-3c.54.18,1.08.35,1.63.49s.87.2,1.29.28a14.49,14.49,0,0,1,2,.29l1,.19c1.45.3,3,.64,3.66.69,5.55.35,10.73.88,16.26.35q4.69-.44,9.32-1.31a6.84,6.84,0,0,1,1.75-.16c2.5-.55,5-1,7.53-1.42l.36-.05c.55-.09,1.11-.17,1.66-.24l.7-.09c1.11-.15,2.22-.28,3.34-.38l.28,0,1.57-.14.93-.06,1.53-.1,1.25-.06c.74,0,1.5,0,2.25-.06l1.19,0h1.4l1.63,0,1.85.07,1.49.08,1.3.08q.87.06,1.74.15l1.63.16q.95.09,1.89.21l1.25.17,1.81.27,1.08.16Zm-28.22-26.14-.94-.33a5.58,5.58,0,0,1-2.44-1.22,2.92,2.92,0,0,1-.65-1.18A10.21,10.21,0,0,1,3689.31,57.14Z"/><path class="cls-3" d="M3629.06,85.93a2.35,2.35,0,0,0,1.1.47,9,9,0,0,0,6.76.73,14.12,14.12,0,0,0,4.93-3.54A118.72,118.72,0,0,0,3654.51,69c.42-.56.83-1.13,1.28-1.65,5.5-8.3,13-14,22.93-14,8.51,0,12.23,3.88,13.4,9.93a10.5,10.5,0,0,0-6.93-2.67c-6.4,0-11.6,6-11.6,13.49a14.35,14.35,0,0,0,4.5,10.66l.41-.29,9.17-4.84a11.51,11.51,0,0,0,1.21-.74c2.9-2,17.49,2.25,28.79,4.37-5.61,1.24-13.56-15.7-17.66-19.81-.71-.71-2.83-2.12-3.53-2.83-11.15-7-22.09-13-31.81-13a162.48,162.48,0,0,0-17.65,1,2.93,2.93,0,0,1-1.53-.52,4.23,4.23,0,0,1-.94-1.54,12.75,12.75,0,0,1-.83-3,14.92,14.92,0,0,1,.21-5.65,11.05,11.05,0,0,1,.39-1.36,7.43,7.43,0,0,1,.68-1.86,11,11,0,0,1,10.08-7.29,10.15,10.15,0,0,1,4.51,1.07c-1.38-4.61-4.4-6.77-12.55-6.77-12.21,0-24.52,18.94-29.34,35.91-7.59,2.37-10.86,29.15-18.7,29.89C3611.15,91.11,3616.16,73.31,3629.06,85.93Z"/><path class="cls-4" d="M3654.11,60.17a16.07,16.07,0,0,0-6.71-3.55,15.47,15.47,0,0,0-19,10.85,12.49,12.49,0,0,0-.24,1.31h0c-.49,3.91,1.33,7.46,4.31,10.26h0a17.76,17.76,0,0,0,1.74,1.47h0a25,25,0,0,0,8.71,4.14c.44.11.87.2,1.29.28a14.49,14.49,0,0,1,2,.29l1,.19c1.45.3,3,.64,3.66.69,5.55.35,10.73.88,16.26.35q4.69-.44,9.32-1.31a6.84,6.84,0,0,1,1.75-.16c2.5-.55,5-1,7.53-1.42l.36-.05c.55-.09,1.11-.17,1.66-.24l.7-.09c1.11-.15,2.22-.28,3.34-.38l.28,0,1.57-.14.93-.06,1.53-.1,1.25-.06c.74,0,1.5,0,2.25-.06l1.19,0h1.4l1.63,0,1.85.07,1.49.08,1.3.08q.87.06,1.74.15l1.63.16q.95.09,1.89.21l1.25.17,1.81.27,1.08.16c-4.7-7.27-11-15.59-16.47-19.57l0,0a40.41,40.41,0,0,0-12.92-7.33,5.58,5.58,0,0,1-2.44-1.22,4.36,4.36,0,0,1-.92-2.83,18.28,18.28,0,0,1,.75-6.06,9.54,9.54,0,0,1,1.13-2.85.8.8,0,0,1,.13-.13c1.69-6.11,9-9.52,16.41-7.61a15.82,15.82,0,0,1,7.74,4.52c-.48-6-5.13-10.72-14.13-13a32.09,32.09,0,0,0-20.81,1.58c-8.26-.37-28.85,19.42-28.85,19.42L3640,47.3h-.1c.49.11,1,.22,1.49.35C3649.85,49.82,3653.45,54.31,3654.11,60.17Z"/><path class="cls-5" d="M4088.78,86.17c14.53,2.17,29.28,1.57,43.95,1a76.2,76.2,0,0,0,9.78-.83,54.42,54.42,0,0,0,10.26-3c2.29-3.07,3.54-7.6,3.54-14.22,0-27.35-22.84-48.11-50.15-48.11S4061,40.34,4061,67.7c0,7.88-.45,13.08,2.82,16.27C4065.83,83,4086.42,85.81,4088.78,86.17Z"/><path class="cls-5" d="M4060.25,69.11v17l-20.48-2.83V69.11c0-11.33,3.49-20.52,9.53-20.52S4060.25,57.78,4060.25,69.11Z"/><path class="cls-6" d="M4080.73,57.79c0-4.67-4.52-8.49-9.18-8.49l-19.78-.71a7.87,7.87,0,0,0-1.38.13c5.14,1.16,9.15,10.48,9.15,21.81,0,6.7.44,12-.13,15.49a5.09,5.09,0,0,0,.84.07l21.19-3.53Z"/><path class="cls-7" d="M3877.83,65.57H3940A10.62,10.62,0,0,0,3950.59,55h0A10.62,10.62,0,0,0,3940,44.35H3877.3a.29.29,0,0,0-.3.3V64.74A.83.83,0,0,0,3877.83,65.57Z"/><path class="cls-27" d="M3877.83,65.57H3940A10.62,10.62,0,0,0,3950.59,55h0A10.62,10.62,0,0,0,3940,44.35H3877.3a.29.29,0,0,0-.3.3V64.74A.83.83,0,0,0,3877.83,65.57Z"/><path class="cls-28" d="M3877.83,65.57H3940A10.62,10.62,0,0,0,3950.59,55h0A10.62,10.62,0,0,0,3940,44.35H3877.3a.29.29,0,0,0-.3.3V64.74A.83.83,0,0,0,3877.83,65.57Z"/><path class="cls-29" d="M3877.83,65.57H3940A10.62,10.62,0,0,0,3950.59,55h0A10.62,10.62,0,0,0,3940,44.35H3877.3a.29.29,0,0,0-.3.3V64.74A.83.83,0,0,0,3877.83,65.57Z"/><rect class="cls-11" x="3600" width="600" height="100"/><path class="cls-1" d="M4706.66,23c-20.55,0-35.77,11-42,28l-12.35-.45a8.2,8.2,0,0,0-1.32.12,5.54,5.54,0,0,0-1.15-.12c-6.05,0-9.54,9.19-9.54,20.52V85.26L4659.91,88a.06.06,0,0,1,0,0,5.3,5.3,0,0,0,.85.07l11.76-2c6.73.62,15.29,1.82,16.76,2,14.53,2.17,29.29,1.57,43.95,1a76.2,76.2,0,0,0,9.79-.83,54.42,54.42,0,0,0,10.26-3c2.29-3.07,3.54-7.6,3.54-14.22C4756.81,43.76,4734,23,4706.66,23Z"/><path class="cls-2" d="M4317.53,83.28l.14,0-.18,0c-4.66-7.16-10.82-15.21-16.16-19.11l0,0a47.75,47.75,0,0,0-4.64-3.36c-.06-.06-.13-.11-.17-.16-3.81-2.41-7.59-4.68-11.31-6.63a7.27,7.27,0,0,1-.16-1.23,18.28,18.28,0,0,1,.75-6.06,9.54,9.54,0,0,1,1.13-2.85.8.8,0,0,1,.13-.13c1.69-6.11,9-9.52,16.41-7.61a15.82,15.82,0,0,1,7.74,4.52c-.48-6-5.13-10.72-14.13-13a32.09,32.09,0,0,0-20.81,1.58c-8.1-.36-28.07,18.68-28.81,19.39h-.14l-1.36-.24a1.25,1.25,0,0,1-.43-.25,4.23,4.23,0,0,1-.94-1.54,12.75,12.75,0,0,1-.83-3,14.92,14.92,0,0,1,.21-5.65,11.05,11.05,0,0,1,.39-1.36,7.43,7.43,0,0,1,.68-1.86,11,11,0,0,1,10.08-7.29,10.15,10.15,0,0,1,4.51,1.07c-1.38-4.61-4.4-6.77-12.55-6.77-12.21,0-24.52,18.94-29.34,35.91-7.59,2.37-10.86,29.15-18.7,29.89,12.15,3.6,17.16-14.2,30.06-1.58a2.35,2.35,0,0,0,1.1.47,9,9,0,0,0,6.76.73,12.52,12.52,0,0,0,4.36-3c.54.18,1.08.35,1.63.49s.87.2,1.29.28a14.49,14.49,0,0,1,2,.29l1,.19c1.45.3,3,.64,3.66.69,5.55.35,10.73.88,16.26.35q4.69-.44,9.32-1.31a6.84,6.84,0,0,1,1.75-.16c2.5-.55,5-1,7.53-1.42l.36-.05c.55-.09,1.11-.17,1.66-.24l.7-.09c1.11-.15,2.22-.28,3.34-.38l.28,0,1.57-.14.93-.06,1.53-.1,1.25-.06c.74,0,1.5,0,2.25-.06l1.19,0h1.4l1.63,0,1.85.07,1.49.08,1.3.08q.87.06,1.74.15l1.63.16,1.89.21,1.25.17,1.81.27,1.08.16Zm-28.22-26.14-.94-.33a5.58,5.58,0,0,1-2.44-1.22,2.92,2.92,0,0,1-.65-1.18A10.21,10.21,0,0,1,4289.31,57.14Z"/><path class="cls-3" d="M4229.06,85.93a2.35,2.35,0,0,0,1.1.47,9,9,0,0,0,6.76.73,14.12,14.12,0,0,0,4.93-3.54A118.72,118.72,0,0,0,4254.51,69c.42-.56.83-1.13,1.28-1.65,5.5-8.3,13-14,22.93-14,8.51,0,12.23,3.88,13.4,9.93a10.5,10.5,0,0,0-6.93-2.67c-6.4,0-11.6,6-11.6,13.49a14.35,14.35,0,0,0,4.5,10.66l.41-.29,9.17-4.84a11.51,11.51,0,0,0,1.21-.74c2.9-2,17.49,2.25,28.79,4.37-5.61,1.24-13.56-15.7-17.66-19.81-.71-.71-2.83-2.12-3.53-2.83-11.15-7-22.09-13-31.81-13a162.48,162.48,0,0,0-17.65,1,2.93,2.93,0,0,1-1.53-.52,4.23,4.23,0,0,1-.94-1.54,12.75,12.75,0,0,1-.83-3,14.92,14.92,0,0,1,.21-5.65,11.05,11.05,0,0,1,.39-1.36,7.43,7.43,0,0,1,.68-1.86,11,11,0,0,1,10.08-7.29,10.15,10.15,0,0,1,4.51,1.07c-1.38-4.61-4.4-6.77-12.55-6.77-12.21,0-24.52,18.94-29.34,35.91-7.59,2.37-10.86,29.15-18.7,29.89C4211.15,91.11,4216.16,73.31,4229.06,85.93Z"/><path class="cls-4" d="M4254.11,60.17a16.07,16.07,0,0,0-6.71-3.55,15.47,15.47,0,0,0-19,10.85,12.49,12.49,0,0,0-.24,1.31h0c-.49,3.91,1.33,7.46,4.31,10.26h0a17.76,17.76,0,0,0,1.74,1.47h0a25,25,0,0,0,8.71,4.14c.44.11.87.2,1.29.28a14.49,14.49,0,0,1,2,.29l1,.19c1.45.3,3,.64,3.66.69,5.55.35,10.73.88,16.26.35q4.69-.44,9.32-1.31a6.84,6.84,0,0,1,1.75-.16c2.5-.55,5-1,7.53-1.42l.36-.05c.55-.09,1.11-.17,1.66-.24l.7-.09c1.11-.15,2.22-.28,3.34-.38l.28,0,1.57-.14.93-.06,1.53-.1,1.25-.06c.74,0,1.5,0,2.25-.06l1.19,0h1.4l1.63,0,1.85.07,1.49.08,1.3.08q.87.06,1.74.15l1.63.16,1.89.21,1.25.17,1.81.27,1.08.16c-4.7-7.27-11-15.59-16.47-19.57l0,0a40.41,40.41,0,0,0-12.92-7.33,5.58,5.58,0,0,1-2.44-1.22,4.36,4.36,0,0,1-.92-2.83,18.28,18.28,0,0,1,.75-6.06,9.54,9.54,0,0,1,1.13-2.85.8.8,0,0,1,.13-.13c1.69-6.11,9-9.52,16.41-7.61a15.82,15.82,0,0,1,7.74,4.52c-.48-6-5.13-10.72-14.13-13a32.09,32.09,0,0,0-20.81,1.58c-8.26-.37-28.85,19.42-28.85,19.42L4240,47.3h-.1c.49.11,1,.22,1.49.35C4249.85,49.82,4253.45,54.31,4254.11,60.17Z"/><path class="cls-5" d="M4688.78,86.17c14.53,2.17,29.28,1.57,43.95,1a76.2,76.2,0,0,0,9.78-.83,54.42,54.42,0,0,0,10.26-3c2.29-3.07,3.54-7.6,3.54-14.22,0-27.35-22.84-48.11-50.15-48.11S4661,40.34,4661,67.7c0,7.88-.45,13.08,2.82,16.27C4665.83,83,4686.42,85.81,4688.78,86.17Z"/><path class="cls-5" d="M4660.25,69.11v17l-20.48-2.83V69.11c0-11.33,3.49-20.52,9.53-20.52S4660.25,57.78,4660.25,69.11Z"/><path class="cls-6" d="M4680.73,57.79c0-4.67-4.52-8.49-9.18-8.49l-19.78-.71a7.87,7.87,0,0,0-1.38.13c5.14,1.16,9.15,10.48,9.15,21.81,0,6.7.44,12-.13,15.49a5.09,5.09,0,0,0,.84.07l21.19-3.53Z"/><path class="cls-7" d="M4477.83,65.57H4549A10.61,10.61,0,0,0,4559.6,55h0A10.61,10.61,0,0,0,4549,44.35H4477.3a.29.29,0,0,0-.3.3V64.74A.83.83,0,0,0,4477.83,65.57Z"/><path class="cls-30" d="M4477.83,65.57H4549A10.61,10.61,0,0,0,4559.6,55h0A10.61,10.61,0,0,0,4549,44.35H4477.3a.29.29,0,0,0-.3.3V64.74A.83.83,0,0,0,4477.83,65.57Z"/><path class="cls-31" d="M4477.83,65.57H4549A10.61,10.61,0,0,0,4559.6,55h0A10.61,10.61,0,0,0,4549,44.35H4477.3a.29.29,0,0,0-.3.3V64.74A.83.83,0,0,0,4477.83,65.57Z"/><path class="cls-32" d="M4477.83,65.57H4549A10.61,10.61,0,0,0,4559.6,55h0A10.61,10.61,0,0,0,4549,44.35H4477.3a.29.29,0,0,0-.3.3V64.74A.83.83,0,0,0,4477.83,65.57Z"/><rect class="cls-11" x="4200" width="600" height="100"/><path class="cls-1" d="M5306.66,23c-20.55,0-35.77,11-42,28l-12.35-.45a8.2,8.2,0,0,0-1.32.12,5.54,5.54,0,0,0-1.15-.12c-6.05,0-9.54,9.19-9.54,20.52V85.26L5259.91,88a.06.06,0,0,1,0,0,5.3,5.3,0,0,0,.85.07l11.76-2c6.73.62,15.29,1.82,16.76,2,14.53,2.17,29.29,1.57,43.95,1a76.2,76.2,0,0,0,9.79-.83,54.42,54.42,0,0,0,10.26-3c2.29-3.07,3.54-7.6,3.54-14.22C5356.81,43.76,5334,23,5306.66,23Z"/><path class="cls-2" d="M4917.53,83.28l.14,0-.18,0c-4.66-7.16-10.82-15.21-16.16-19.11l0,0a47.75,47.75,0,0,0-4.64-3.36c-.06-.06-.13-.11-.17-.16-3.81-2.41-7.59-4.68-11.31-6.63a7.27,7.27,0,0,1-.16-1.23,18.28,18.28,0,0,1,.75-6.06,9.54,9.54,0,0,1,1.13-2.85.8.8,0,0,1,.13-.13c1.69-6.11,9-9.52,16.41-7.61a15.82,15.82,0,0,1,7.74,4.52c-.48-6-5.13-10.72-14.13-13a32.09,32.09,0,0,0-20.81,1.58c-8.1-.36-28.07,18.68-28.81,19.39h-.14l-1.36-.24a1.25,1.25,0,0,1-.43-.25,4.23,4.23,0,0,1-.94-1.54,12.75,12.75,0,0,1-.83-3,14.92,14.92,0,0,1,.21-5.65,11.05,11.05,0,0,1,.39-1.36,7.43,7.43,0,0,1,.68-1.86,11,11,0,0,1,10.08-7.29,10.15,10.15,0,0,1,4.51,1.07c-1.38-4.61-4.4-6.77-12.55-6.77-12.21,0-24.52,18.94-29.34,35.91-7.59,2.37-10.86,29.15-18.7,29.89,12.15,3.6,17.16-14.2,30.06-1.58a2.35,2.35,0,0,0,1.1.47,9,9,0,0,0,6.76.73,12.52,12.52,0,0,0,4.36-3c.54.18,1.08.35,1.63.49s.87.2,1.29.28a14.49,14.49,0,0,1,2,.29l1,.19c1.45.3,3,.64,3.66.69,5.55.35,10.73.88,16.26.35q4.69-.44,9.32-1.31a6.84,6.84,0,0,1,1.75-.16c2.5-.55,5-1,7.53-1.42l.36-.05c.55-.09,1.11-.17,1.66-.24l.7-.09c1.11-.15,2.22-.28,3.34-.38l.28,0,1.57-.14.93-.06,1.53-.1,1.25-.06c.74,0,1.5,0,2.25-.06l1.19,0h1.4l1.63,0,1.85.07,1.49.08,1.3.08q.87.06,1.74.15l1.63.16,1.89.21,1.25.17,1.81.27,1.08.16Zm-28.22-26.14-.94-.33a5.58,5.58,0,0,1-2.44-1.22,2.92,2.92,0,0,1-.65-1.18A10.21,10.21,0,0,1,4889.31,57.14Z"/><path class="cls-3" d="M4829.06,85.93a2.35,2.35,0,0,0,1.1.47,9,9,0,0,0,6.76.73,14.12,14.12,0,0,0,4.93-3.54A118.72,118.72,0,0,0,4854.51,69c.42-.56.83-1.13,1.28-1.65,5.5-8.3,13-14,22.93-14,8.51,0,12.23,3.88,13.4,9.93a10.5,10.5,0,0,0-6.93-2.67c-6.4,0-11.6,6-11.6,13.49a14.35,14.35,0,0,0,4.5,10.66l.41-.29,9.17-4.84a11.51,11.51,0,0,0,1.21-.74c2.9-2,17.49,2.25,28.79,4.37-5.61,1.24-13.56-15.7-17.66-19.81-.71-.71-2.83-2.12-3.53-2.83-11.15-7-22.09-13-31.81-13a162.48,162.48,0,0,0-17.65,1,2.93,2.93,0,0,1-1.53-.52,4.23,4.23,0,0,1-.94-1.54,12.75,12.75,0,0,1-.83-3,14.92,14.92,0,0,1,.21-5.65,11.05,11.05,0,0,1,.39-1.36,7.43,7.43,0,0,1,.68-1.86,11,11,0,0,1,10.08-7.29,10.15,10.15,0,0,1,4.51,1.07c-1.38-4.61-4.4-6.77-12.55-6.77-12.21,0-24.52,18.94-29.34,35.91-7.59,2.37-10.86,29.15-18.7,29.89C4811.15,91.11,4816.16,73.31,4829.06,85.93Z"/><path class="cls-4" d="M4854.11,60.17a16.07,16.07,0,0,0-6.71-3.55,15.47,15.47,0,0,0-19,10.85,12.49,12.49,0,0,0-.24,1.31h0c-.49,3.91,1.33,7.46,4.31,10.26h0a17.76,17.76,0,0,0,1.74,1.47h0a25,25,0,0,0,8.71,4.14c.44.11.87.2,1.29.28a14.49,14.49,0,0,1,2,.29l1,.19c1.45.3,3,.64,3.66.69,5.55.35,10.73.88,16.26.35q4.69-.44,9.32-1.31a6.84,6.84,0,0,1,1.75-.16c2.5-.55,5-1,7.53-1.42l.36-.05c.55-.09,1.11-.17,1.66-.24l.7-.09c1.11-.15,2.22-.28,3.34-.38l.28,0,1.57-.14.93-.06,1.53-.1,1.25-.06c.74,0,1.5,0,2.25-.06l1.19,0h1.4l1.63,0,1.85.07,1.49.08,1.3.08q.87.06,1.74.15l1.63.16,1.89.21,1.25.17,1.81.27,1.08.16c-4.7-7.27-11-15.59-16.47-19.57l0,0a40.41,40.41,0,0,0-12.92-7.33,5.58,5.58,0,0,1-2.44-1.22,4.36,4.36,0,0,1-.92-2.83,18.28,18.28,0,0,1,.75-6.06,9.54,9.54,0,0,1,1.13-2.85.8.8,0,0,1,.13-.13c1.69-6.11,9-9.52,16.41-7.61a15.82,15.82,0,0,1,7.74,4.52c-.48-6-5.13-10.72-14.13-13a32.09,32.09,0,0,0-20.81,1.58c-8.26-.37-28.85,19.42-28.85,19.42L4840,47.3h-.1c.49.11,1,.22,1.49.35C4849.85,49.82,4853.45,54.31,4854.11,60.17Z"/><path class="cls-5" d="M5288.78,86.17c14.53,2.17,29.28,1.57,43.95,1a76.2,76.2,0,0,0,9.78-.83,54.42,54.42,0,0,0,10.26-3c2.29-3.07,3.54-7.6,3.54-14.22,0-27.35-22.84-48.11-50.15-48.11S5261,40.34,5261,67.7c0,7.88-.45,13.08,2.82,16.27C5265.83,83,5286.42,85.81,5288.78,86.17Z"/><path class="cls-5" d="M5260.25,69.11v17l-20.48-2.83V69.11c0-11.33,3.49-20.52,9.53-20.52S5260.25,57.78,5260.25,69.11Z"/><path class="cls-6" d="M5280.73,57.79c0-4.67-4.52-8.49-9.18-8.49l-19.78-.71a7.87,7.87,0,0,0-1.38.13c5.14,1.16,9.15,10.48,9.15,21.81,0,6.7.44,12-.13,15.49a5.09,5.09,0,0,0,.84.07l21.19-3.53Z"/><path class="cls-7" d="M5077.83,65.57H5159A10.61,10.61,0,0,0,5169.62,55h0A10.61,10.61,0,0,0,5159,44.35h-81.7a.29.29,0,0,0-.3.3V64.74A.83.83,0,0,0,5077.83,65.57Z"/><path class="cls-33" d="M5077.83,65.57H5159A10.61,10.61,0,0,0,5169.62,55h0A10.61,10.61,0,0,0,5159,44.35h-81.7a.29.29,0,0,0-.3.3V64.74A.83.83,0,0,0,5077.83,65.57Z"/><path class="cls-34" d="M5077.83,65.57H5159A10.61,10.61,0,0,0,5169.62,55h0A10.61,10.61,0,0,0,5159,44.35h-81.7a.29.29,0,0,0-.3.3V64.74A.83.83,0,0,0,5077.83,65.57Z"/><path class="cls-35" d="M5077.83,65.57H5159A10.61,10.61,0,0,0,5169.62,55h0A10.61,10.61,0,0,0,5159,44.35h-81.7a.29.29,0,0,0-.3.3V64.74A.83.83,0,0,0,5077.83,65.57Z"/><rect class="cls-11" x="4800" width="600" height="100"/><path class="cls-1" d="M5906.66,23c-20.55,0-35.77,11-42,28l-12.35-.45a8.2,8.2,0,0,0-1.32.12,5.54,5.54,0,0,0-1.15-.12c-6.05,0-9.54,9.19-9.54,20.52V85.26L5859.91,88a.06.06,0,0,1,0,0,5.3,5.3,0,0,0,.85.07l11.76-2c6.73.62,15.29,1.82,16.76,2,14.53,2.17,29.29,1.57,43.95,1a76.2,76.2,0,0,0,9.79-.83,54.42,54.42,0,0,0,10.26-3c2.29-3.07,3.54-7.6,3.54-14.22C5956.81,43.76,5934,23,5906.66,23Z"/><path class="cls-2" d="M5517.53,83.28l.14,0-.18,0c-4.66-7.16-10.82-15.21-16.16-19.11l0,0a47.75,47.75,0,0,0-4.64-3.36c-.06-.06-.13-.11-.17-.16-3.81-2.41-7.59-4.68-11.31-6.63a7.27,7.27,0,0,1-.16-1.23,18.28,18.28,0,0,1,.75-6.06,9.54,9.54,0,0,1,1.13-2.85.8.8,0,0,1,.13-.13c1.69-6.11,9-9.52,16.41-7.61a15.82,15.82,0,0,1,7.74,4.52c-.48-6-5.13-10.72-14.13-13a32.09,32.09,0,0,0-20.81,1.58c-8.1-.36-28.07,18.68-28.81,19.39h-.14l-1.36-.24a1.25,1.25,0,0,1-.43-.25,4.23,4.23,0,0,1-.94-1.54,12.75,12.75,0,0,1-.83-3,14.92,14.92,0,0,1,.21-5.65,11.05,11.05,0,0,1,.39-1.36,7.43,7.43,0,0,1,.68-1.86,11,11,0,0,1,10.08-7.29,10.15,10.15,0,0,1,4.51,1.07c-1.38-4.61-4.4-6.77-12.55-6.77-12.21,0-24.52,18.94-29.34,35.91-7.59,2.37-10.86,29.15-18.7,29.89,12.15,3.6,17.16-14.2,30.06-1.58a2.35,2.35,0,0,0,1.1.47,9,9,0,0,0,6.76.73,12.52,12.52,0,0,0,4.36-3c.54.18,1.08.35,1.63.49s.87.2,1.29.28a14.49,14.49,0,0,1,2,.29l1,.19c1.45.3,3,.64,3.66.69,5.55.35,10.73.88,16.26.35q4.69-.44,9.32-1.31a6.84,6.84,0,0,1,1.75-.16c2.5-.55,5-1,7.53-1.42l.36-.05c.55-.09,1.11-.17,1.66-.24l.7-.09c1.11-.15,2.22-.28,3.34-.38l.28,0,1.57-.14.93-.06,1.53-.1,1.25-.06c.74,0,1.5,0,2.25-.06l1.19,0h1.4l1.63,0,1.85.07,1.49.08,1.3.08q.87.06,1.74.15l1.63.16,1.89.21,1.25.17,1.81.27,1.08.16Zm-28.22-26.14-.94-.33a5.58,5.58,0,0,1-2.44-1.22,2.92,2.92,0,0,1-.65-1.18A10.21,10.21,0,0,1,5489.31,57.14Z"/><path class="cls-3" d="M5429.06,85.93a2.35,2.35,0,0,0,1.1.47,9,9,0,0,0,6.76.73,14.12,14.12,0,0,0,4.93-3.54A118.72,118.72,0,0,0,5454.51,69c.42-.56.83-1.13,1.28-1.65,5.5-8.3,13-14,22.93-14,8.51,0,12.23,3.88,13.4,9.93a10.5,10.5,0,0,0-6.93-2.67c-6.4,0-11.6,6-11.6,13.49a14.35,14.35,0,0,0,4.5,10.66l.41-.29,9.17-4.84a11.51,11.51,0,0,0,1.21-.74c2.9-2,17.49,2.25,28.79,4.37-5.61,1.24-13.56-15.7-17.66-19.81-.71-.71-2.83-2.12-3.53-2.83-11.15-7-22.09-13-31.81-13a162.48,162.48,0,0,0-17.65,1,2.93,2.93,0,0,1-1.53-.52,4.23,4.23,0,0,1-.94-1.54,12.75,12.75,0,0,1-.83-3,14.92,14.92,0,0,1,.21-5.65,11.05,11.05,0,0,1,.39-1.36,7.43,7.43,0,0,1,.68-1.86,11,11,0,0,1,10.08-7.29,10.15,10.15,0,0,1,4.51,1.07c-1.38-4.61-4.4-6.77-12.55-6.77-12.21,0-24.52,18.94-29.34,35.91-7.59,2.37-10.86,29.15-18.7,29.89C5411.15,91.11,5416.16,73.31,5429.06,85.93Z"/><path class="cls-4" d="M5454.11,60.17a16.07,16.07,0,0,0-6.71-3.55,15.47,15.47,0,0,0-19,10.85,12.49,12.49,0,0,0-.24,1.31h0c-.49,3.91,1.33,7.46,4.31,10.26h0a17.76,17.76,0,0,0,1.74,1.47h0a25,25,0,0,0,8.71,4.14c.44.11.87.2,1.29.28a14.49,14.49,0,0,1,2,.29l1,.19c1.45.3,3,.64,3.66.69,5.55.35,10.73.88,16.26.35q4.69-.44,9.32-1.31a6.84,6.84,0,0,1,1.75-.16c2.5-.55,5-1,7.53-1.42l.36-.05c.55-.09,1.11-.17,1.66-.24l.7-.09c1.11-.15,2.22-.28,3.34-.38l.28,0,1.57-.14.93-.06,1.53-.1,1.25-.06c.74,0,1.5,0,2.25-.06l1.19,0h1.4l1.63,0,1.85.07,1.49.08,1.3.08q.87.06,1.74.15l1.63.16,1.89.21,1.25.17,1.81.27,1.08.16c-4.7-7.27-11-15.59-16.47-19.57l0,0a40.41,40.41,0,0,0-12.92-7.33,5.58,5.58,0,0,1-2.44-1.22,4.36,4.36,0,0,1-.92-2.83,18.28,18.28,0,0,1,.75-6.06,9.54,9.54,0,0,1,1.13-2.85.8.8,0,0,1,.13-.13c1.69-6.11,9-9.52,16.41-7.61a15.82,15.82,0,0,1,7.74,4.52c-.48-6-5.13-10.72-14.13-13a32.09,32.09,0,0,0-20.81,1.58c-8.26-.37-28.85,19.42-28.85,19.42L5440,47.3h-.1c.49.11,1,.22,1.49.35C5449.85,49.82,5453.45,54.31,5454.11,60.17Z"/><path class="cls-5" d="M5888.78,86.17c14.53,2.17,29.28,1.57,43.95,1a76.2,76.2,0,0,0,9.78-.83,54.42,54.42,0,0,0,10.26-3c2.29-3.07,3.54-7.6,3.54-14.22,0-27.35-22.84-48.11-50.15-48.11S5861,40.34,5861,67.7c0,7.88-.45,13.08,2.82,16.27C5865.83,83,5886.42,85.81,5888.78,86.17Z"/><path class="cls-5" d="M5860.25,69.11v17l-20.48-2.83V69.11c0-11.33,3.49-20.52,9.53-20.52S5860.25,57.78,5860.25,69.11Z"/><path class="cls-6" d="M5880.73,57.79c0-4.67-4.52-8.49-9.18-8.49l-19.78-.71a7.87,7.87,0,0,0-1.38.13c5.14,1.16,9.15,10.48,9.15,21.81,0,6.7.44,12-.13,15.49a5.09,5.09,0,0,0,.84.07l21.19-3.53Z"/><path class="cls-7" d="M5677.83,65.57H5769A10.61,10.61,0,0,0,5779.63,55h0A10.61,10.61,0,0,0,5769,44.35H5677.3a.29.29,0,0,0-.3.3V64.74A.83.83,0,0,0,5677.83,65.57Z"/><path class="cls-36" d="M5677.83,65.57H5769A10.61,10.61,0,0,0,5779.63,55h0A10.61,10.61,0,0,0,5769,44.35H5677.3a.29.29,0,0,0-.3.3V64.74A.83.83,0,0,0,5677.83,65.57Z"/><path class="cls-37" d="M5677.83,65.57H5769A10.61,10.61,0,0,0,5779.63,55h0A10.61,10.61,0,0,0,5769,44.35H5677.3a.29.29,0,0,0-.3.3V64.74A.83.83,0,0,0,5677.83,65.57Z"/><path class="cls-38" d="M5677.83,65.57H5769A10.61,10.61,0,0,0,5779.63,55h0A10.61,10.61,0,0,0,5769,44.35H5677.3a.29.29,0,0,0-.3.3V64.74A.83.83,0,0,0,5677.83,65.57Z"/><rect class="cls-11" x="5400" width="600" height="100"/><path class="cls-1" d="M6506.66,23c-20.55,0-35.77,11-42,28l-12.35-.45a8.2,8.2,0,0,0-1.32.12,5.54,5.54,0,0,0-1.15-.12c-6.05,0-9.54,9.19-9.54,20.52V85.26L6459.91,88a.06.06,0,0,1,0,0,5.3,5.3,0,0,0,.85.07l11.76-2c6.73.62,15.29,1.82,16.76,2,14.53,2.17,29.29,1.57,43.95,1a76.2,76.2,0,0,0,9.79-.83,54.42,54.42,0,0,0,10.26-3c2.29-3.07,3.54-7.6,3.54-14.22C6556.81,43.76,6534,23,6506.66,23Z"/><path class="cls-2" d="M6117.53,83.28l.14,0-.18,0c-4.66-7.16-10.82-15.21-16.16-19.11l0,0a47.75,47.75,0,0,0-4.64-3.36c-.06-.06-.13-.11-.17-.16-3.81-2.41-7.59-4.68-11.31-6.63a7.27,7.27,0,0,1-.16-1.23,18.28,18.28,0,0,1,.75-6.06,9.54,9.54,0,0,1,1.13-2.85.8.8,0,0,1,.13-.13c1.69-6.11,9-9.52,16.41-7.61a15.82,15.82,0,0,1,7.74,4.52c-.48-6-5.13-10.72-14.13-13a32.09,32.09,0,0,0-20.81,1.58c-8.1-.36-28.07,18.68-28.81,19.39h-.14l-1.36-.24a1.25,1.25,0,0,1-.43-.25,4.23,4.23,0,0,1-.94-1.54,12.75,12.75,0,0,1-.83-3,14.92,14.92,0,0,1,.21-5.65,11.05,11.05,0,0,1,.39-1.36,7.43,7.43,0,0,1,.68-1.86,11,11,0,0,1,10.08-7.29,10.15,10.15,0,0,1,4.51,1.07c-1.38-4.61-4.4-6.77-12.55-6.77-12.21,0-24.52,18.94-29.34,35.91-7.59,2.37-10.86,29.15-18.7,29.89,12.15,3.6,17.16-14.2,30.06-1.58a2.35,2.35,0,0,0,1.1.47,9,9,0,0,0,6.76.73,12.52,12.52,0,0,0,4.36-3c.54.18,1.08.35,1.63.49s.87.2,1.29.28a14.49,14.49,0,0,1,2,.29l1,.19c1.45.3,3,.64,3.66.69,5.55.35,10.73.88,16.26.35q4.69-.44,9.32-1.31a6.84,6.84,0,0,1,1.75-.16c2.5-.55,5-1,7.53-1.42l.36-.05c.55-.09,1.11-.17,1.66-.24l.7-.09c1.11-.15,2.22-.28,3.34-.38l.28,0,1.57-.14.93-.06,1.53-.1,1.25-.06c.74,0,1.5,0,2.25-.06l1.19,0h1.4l1.63,0,1.85.07,1.49.08,1.3.08q.87.06,1.74.15l1.63.16,1.89.21,1.25.17,1.81.27,1.08.16Zm-28.22-26.14-.94-.33a5.58,5.58,0,0,1-2.44-1.22,2.92,2.92,0,0,1-.65-1.18A10.21,10.21,0,0,1,6089.31,57.14Z"/><path class="cls-3" d="M6029.06,85.93a2.35,2.35,0,0,0,1.1.47,9,9,0,0,0,6.76.73,14.12,14.12,0,0,0,4.93-3.54A118.72,118.72,0,0,0,6054.51,69c.42-.56.83-1.13,1.28-1.65,5.5-8.3,13-14,22.93-14,8.51,0,12.23,3.88,13.4,9.93a10.5,10.5,0,0,0-6.93-2.67c-6.4,0-11.6,6-11.6,13.49a14.35,14.35,0,0,0,4.5,10.66l.41-.29,9.17-4.84a11.51,11.51,0,0,0,1.21-.74c2.9-2,17.49,2.25,28.79,4.37-5.61,1.24-13.56-15.7-17.66-19.81-.71-.71-2.83-2.12-3.53-2.83-11.15-7-22.09-13-31.81-13a162.48,162.48,0,0,0-17.65,1,2.93,2.93,0,0,1-1.53-.52,4.23,4.23,0,0,1-.94-1.54,12.75,12.75,0,0,1-.83-3,14.92,14.92,0,0,1,.21-5.65,11.05,11.05,0,0,1,.39-1.36,7.43,7.43,0,0,1,.68-1.86,11,11,0,0,1,10.08-7.29,10.15,10.15,0,0,1,4.51,1.07c-1.38-4.61-4.4-6.77-12.55-6.77-12.21,0-24.52,18.94-29.34,35.91-7.59,2.37-10.86,29.15-18.7,29.89C6011.15,91.11,6016.16,73.31,6029.06,85.93Z"/><path class="cls-4" d="M6054.11,60.17a16.07,16.07,0,0,0-6.71-3.55,15.47,15.47,0,0,0-19,10.85,12.49,12.49,0,0,0-.24,1.31h0c-.49,3.91,1.33,7.46,4.31,10.26h0a17.76,17.76,0,0,0,1.74,1.47h0a25,25,0,0,0,8.71,4.14c.44.11.87.2,1.29.28a14.49,14.49,0,0,1,2,.29l1,.19c1.45.3,3,.64,3.66.69,5.55.35,10.73.88,16.26.35q4.69-.44,9.32-1.31a6.84,6.84,0,0,1,1.75-.16c2.5-.55,5-1,7.53-1.42l.36-.05c.55-.09,1.11-.17,1.66-.24l.7-.09c1.11-.15,2.22-.28,3.34-.38l.28,0,1.57-.14.93-.06,1.53-.1,1.25-.06c.74,0,1.5,0,2.25-.06l1.19,0h1.4l1.63,0,1.85.07,1.49.08,1.3.08q.87.06,1.74.15l1.63.16,1.89.21,1.25.17,1.81.27,1.08.16c-4.7-7.27-11-15.59-16.47-19.57l0,0a40.41,40.41,0,0,0-12.92-7.33,5.58,5.58,0,0,1-2.44-1.22,4.36,4.36,0,0,1-.92-2.83,18.28,18.28,0,0,1,.75-6.06,9.54,9.54,0,0,1,1.13-2.85.8.8,0,0,1,.13-.13c1.69-6.11,9-9.52,16.41-7.61a15.82,15.82,0,0,1,7.74,4.52c-.48-6-5.13-10.72-14.13-13a32.09,32.09,0,0,0-20.81,1.58c-8.26-.37-28.85,19.42-28.85,19.42L6040,47.3h-.1c.49.11,1,.22,1.49.35C6049.85,49.82,6053.45,54.31,6054.11,60.17Z"/><path class="cls-5" d="M6488.78,86.17c14.53,2.17,29.28,1.57,43.95,1a76.2,76.2,0,0,0,9.78-.83,54.42,54.42,0,0,0,10.26-3c2.29-3.07,3.54-7.6,3.54-14.22,0-27.35-22.84-48.11-50.15-48.11S6461,40.34,6461,67.7c0,7.88-.45,13.08,2.82,16.27C6465.83,83,6486.42,85.81,6488.78,86.17Z"/><path class="cls-5" d="M6460.25,69.11v17l-20.48-2.83V69.11c0-11.33,3.49-20.52,9.53-20.52S6460.25,57.78,6460.25,69.11Z"/><path class="cls-6" d="M6480.73,57.79c0-4.67-4.52-8.49-9.18-8.49l-19.78-.71a7.87,7.87,0,0,0-1.38.13c5.14,1.16,9.15,10.48,9.15,21.81,0,6.7.44,12-.13,15.49a5.09,5.09,0,0,0,.84.07l21.19-3.53Z"/><path class="cls-7" d="M6277.83,65.57H6378A10.61,10.61,0,0,0,6388.65,55h0A10.61,10.61,0,0,0,6378,44.35H6277.3a.29.29,0,0,0-.3.3V64.74A.83.83,0,0,0,6277.83,65.57Z"/><path class="cls-39" d="M6277.83,65.57H6378A10.61,10.61,0,0,0,6388.65,55h0A10.61,10.61,0,0,0,6378,44.35H6277.3a.29.29,0,0,0-.3.3V64.74A.83.83,0,0,0,6277.83,65.57Z"/><path class="cls-40" d="M6277.83,65.57H6378A10.61,10.61,0,0,0,6388.65,55h0A10.61,10.61,0,0,0,6378,44.35H6277.3a.29.29,0,0,0-.3.3V64.74A.83.83,0,0,0,6277.83,65.57Z"/><path class="cls-41" d="M6277.83,65.57H6378A10.61,10.61,0,0,0,6388.65,55h0A10.61,10.61,0,0,0,6378,44.35H6277.3a.29.29,0,0,0-.3.3V64.74A.83.83,0,0,0,6277.83,65.57Z"/><rect class="cls-11" x="6000" width="600" height="100"/><path class="cls-1" d="M7107.66,23c-20.55,0-35.77,11-42,28l-12.35-.45a8.2,8.2,0,0,0-1.32.12,5.54,5.54,0,0,0-1.15-.12c-6.05,0-9.54,9.19-9.54,20.52V85.26L7060.91,88a.06.06,0,0,1,0,0,5.3,5.3,0,0,0,.85.07l11.76-2c6.73.62,15.29,1.82,16.76,2,14.53,2.17,29.29,1.57,43.95,1a76.2,76.2,0,0,0,9.79-.83,54.42,54.42,0,0,0,10.26-3c2.29-3.07,3.54-7.6,3.54-14.22C7157.81,43.76,7135,23,7107.66,23Z"/><path class="cls-2" d="M6718.53,83.28l.14,0-.18,0c-4.66-7.16-10.82-15.21-16.16-19.11l0,0a47.75,47.75,0,0,0-4.64-3.36c-.06-.06-.13-.11-.17-.16-3.81-2.41-7.59-4.68-11.31-6.63a7.27,7.27,0,0,1-.16-1.23,18.28,18.28,0,0,1,.75-6.06,9.54,9.54,0,0,1,1.13-2.85.8.8,0,0,1,.13-.13c1.69-6.11,9-9.52,16.41-7.61a15.82,15.82,0,0,1,7.74,4.52c-.48-6-5.13-10.72-14.13-13a32.09,32.09,0,0,0-20.81,1.58c-8.1-.36-28.07,18.68-28.81,19.39h-.14l-1.36-.24a1.25,1.25,0,0,1-.43-.25,4.23,4.23,0,0,1-.94-1.54,12.75,12.75,0,0,1-.83-3,14.92,14.92,0,0,1,.21-5.65,11.05,11.05,0,0,1,.39-1.36,7.43,7.43,0,0,1,.68-1.86,11,11,0,0,1,10.08-7.29,10.15,10.15,0,0,1,4.51,1.07c-1.38-4.61-4.4-6.77-12.55-6.77-12.21,0-24.52,18.94-29.34,35.91-7.59,2.37-10.86,29.15-18.7,29.89,12.15,3.6,17.16-14.2,30.06-1.58a2.35,2.35,0,0,0,1.1.47,9,9,0,0,0,6.76.73,12.52,12.52,0,0,0,4.36-3c.54.18,1.08.35,1.63.49s.87.2,1.29.28a14.49,14.49,0,0,1,2,.29l1,.19c1.45.3,3,.64,3.66.69,5.55.35,10.73.88,16.26.35q4.69-.44,9.32-1.31a6.84,6.84,0,0,1,1.75-.16c2.5-.55,5-1,7.53-1.42l.36-.05c.55-.09,1.11-.17,1.66-.24l.7-.09c1.11-.15,2.22-.28,3.34-.38l.28,0,1.57-.14.93-.06,1.53-.1,1.25-.06c.74,0,1.5,0,2.25-.06l1.19,0h1.4l1.63,0,1.85.07,1.49.08,1.3.08q.87.06,1.74.15l1.63.16,1.89.21,1.25.17,1.81.27,1.08.16Zm-28.22-26.14-.94-.33a5.58,5.58,0,0,1-2.44-1.22,2.92,2.92,0,0,1-.65-1.18A10.21,10.21,0,0,1,6690.31,57.14Z"/><path class="cls-3" d="M6630.06,85.93a2.35,2.35,0,0,0,1.1.47,9,9,0,0,0,6.76.73,14.12,14.12,0,0,0,4.93-3.54A118.72,118.72,0,0,0,6655.51,69c.42-.56.83-1.13,1.28-1.65,5.5-8.3,13-14,22.93-14,8.51,0,12.23,3.88,13.4,9.93a10.5,10.5,0,0,0-6.93-2.67c-6.4,0-11.6,6-11.6,13.49a14.35,14.35,0,0,0,4.5,10.66l.41-.29,9.17-4.84a11.51,11.51,0,0,0,1.21-.74c2.9-2,17.49,2.25,28.79,4.37-5.61,1.24-13.56-15.7-17.66-19.81-.71-.71-2.83-2.12-3.53-2.83-11.15-7-22.09-13-31.81-13a162.48,162.48,0,0,0-17.65,1,2.93,2.93,0,0,1-1.53-.52,4.23,4.23,0,0,1-.94-1.54,12.75,12.75,0,0,1-.83-3,14.92,14.92,0,0,1,.21-5.65,11.05,11.05,0,0,1,.39-1.36,7.43,7.43,0,0,1,.68-1.86,11,11,0,0,1,10.08-7.29,10.15,10.15,0,0,1,4.51,1.07c-1.38-4.61-4.4-6.77-12.55-6.77-12.21,0-24.52,18.94-29.34,35.91-7.59,2.37-10.86,29.15-18.7,29.89C6612.15,91.11,6617.16,73.31,6630.06,85.93Z"/><path class="cls-4" d="M6655.11,60.17a16.07,16.07,0,0,0-6.71-3.55,15.47,15.47,0,0,0-19,10.85,12.49,12.49,0,0,0-.24,1.31h0c-.49,3.91,1.33,7.46,4.31,10.26h0a17.76,17.76,0,0,0,1.74,1.47h0a25,25,0,0,0,8.71,4.14c.44.11.87.2,1.29.28a14.49,14.49,0,0,1,2,.29l1,.19c1.45.3,3,.64,3.66.69,5.55.35,10.73.88,16.26.35q4.69-.44,9.32-1.31a6.84,6.84,0,0,1,1.75-.16c2.5-.55,5-1,7.53-1.42l.36-.05c.55-.09,1.11-.17,1.66-.24l.7-.09c1.11-.15,2.22-.28,3.34-.38l.28,0,1.57-.14.93-.06,1.53-.1,1.25-.06c.74,0,1.5,0,2.25-.06l1.19,0h1.4l1.63,0,1.85.07,1.49.08,1.3.08q.87.06,1.74.15l1.63.16,1.89.21,1.25.17,1.81.27,1.08.16c-4.7-7.27-11-15.59-16.47-19.57l0,0a40.41,40.41,0,0,0-12.92-7.33,5.58,5.58,0,0,1-2.44-1.22,4.36,4.36,0,0,1-.92-2.83,18.28,18.28,0,0,1,.75-6.06,9.54,9.54,0,0,1,1.13-2.85.8.8,0,0,1,.13-.13c1.69-6.11,9-9.52,16.41-7.61a15.82,15.82,0,0,1,7.74,4.52c-.48-6-5.13-10.72-14.13-13a32.09,32.09,0,0,0-20.81,1.58c-8.26-.37-28.85,19.42-28.85,19.42L6641,47.3h-.1c.49.11,1,.22,1.49.35C6650.85,49.82,6654.45,54.31,6655.11,60.17Z"/><path class="cls-5" d="M7089.78,86.17c14.53,2.17,29.28,1.57,43.95,1a76.2,76.2,0,0,0,9.78-.83,54.42,54.42,0,0,0,10.26-3c2.29-3.07,3.54-7.6,3.54-14.22,0-27.35-22.84-48.11-50.15-48.11S7062,40.34,7062,67.7c0,7.88-.45,13.08,2.82,16.27C7066.83,83,7087.42,85.81,7089.78,86.17Z"/><path class="cls-5" d="M7061.25,69.11v17l-20.48-2.83V69.11c0-11.33,3.49-20.52,9.53-20.52S7061.25,57.78,7061.25,69.11Z"/><path class="cls-6" d="M7081.73,57.79c0-4.67-4.52-8.49-9.18-8.49l-19.78-.71a7.87,7.87,0,0,0-1.38.13c5.14,1.16,9.15,10.48,9.15,21.81,0,6.7.44,12-.13,15.49a5.09,5.09,0,0,0,.84.07l21.19-3.53Z"/><path class="cls-7" d="M6878.37,65.57h111A10.61,10.61,0,0,0,7000,55h0a10.61,10.61,0,0,0-10.61-10.61H6877.84a.29.29,0,0,0-.3.3V64.74A.83.83,0,0,0,6878.37,65.57Z"/><path class="cls-42" d="M6878.37,65.57h111A10.61,10.61,0,0,0,7000,55h0a10.61,10.61,0,0,0-10.61-10.61H6877.84a.29.29,0,0,0-.3.3V64.74A.83.83,0,0,0,6878.37,65.57Z"/><path class="cls-43" d="M6878.37,65.57h111A10.61,10.61,0,0,0,7000,55h0a10.61,10.61,0,0,0-10.61-10.61H6877.84a.29.29,0,0,0-.3.3V64.74A.83.83,0,0,0,6878.37,65.57Z"/><path class="cls-44" d="M6878.37,65.57h111A10.61,10.61,0,0,0,7000,55h0a10.61,10.61,0,0,0-10.61-10.61H6877.84a.29.29,0,0,0-.3.3V64.74A.83.83,0,0,0,6878.37,65.57Z"/><rect class="cls-11" x="6601" width="599" height="100"/><path class="cls-1" d="M7707.66,23c-20.55,0-35.77,11-42,28l-12.35-.45a8.2,8.2,0,0,0-1.32.12,5.54,5.54,0,0,0-1.15-.12c-6.05,0-9.54,9.19-9.54,20.52V85.26L7660.91,88a.06.06,0,0,1,0,0,5.3,5.3,0,0,0,.85.07l11.76-2c6.73.62,15.29,1.82,16.76,2,14.53,2.17,29.29,1.57,43.95,1a76.2,76.2,0,0,0,9.79-.83,54.42,54.42,0,0,0,10.26-3c2.29-3.07,3.54-7.6,3.54-14.22C7757.81,43.76,7735,23,7707.66,23Z"/><path class="cls-2" d="M7318.53,83.28l.14,0-.18,0c-4.66-7.16-10.82-15.21-16.16-19.11l0,0a47.75,47.75,0,0,0-4.64-3.36c-.06-.06-.13-.11-.17-.16-3.81-2.41-7.59-4.68-11.31-6.63a7.27,7.27,0,0,1-.16-1.23,18.28,18.28,0,0,1,.75-6.06,9.54,9.54,0,0,1,1.13-2.85.8.8,0,0,1,.13-.13c1.69-6.11,9-9.52,16.41-7.61a15.82,15.82,0,0,1,7.74,4.52c-.48-6-5.13-10.72-14.13-13a32.09,32.09,0,0,0-20.81,1.58c-8.1-.36-28.07,18.68-28.81,19.39h-.14l-1.36-.24a1.25,1.25,0,0,1-.43-.25,4.23,4.23,0,0,1-.94-1.54,12.75,12.75,0,0,1-.83-3,14.92,14.92,0,0,1,.21-5.65,11.05,11.05,0,0,1,.39-1.36,7.43,7.43,0,0,1,.68-1.86,11,11,0,0,1,10.08-7.29,10.15,10.15,0,0,1,4.51,1.07c-1.38-4.61-4.4-6.77-12.55-6.77-12.21,0-24.52,18.94-29.34,35.91-7.59,2.37-10.86,29.15-18.7,29.89,12.15,3.6,17.16-14.2,30.06-1.58a2.35,2.35,0,0,0,1.1.47,9,9,0,0,0,6.76.73,12.52,12.52,0,0,0,4.36-3c.54.18,1.08.35,1.63.49s.87.2,1.29.28a14.49,14.49,0,0,1,2,.29l1,.19c1.45.3,3,.64,3.66.69,5.55.35,10.73.88,16.26.35q4.69-.44,9.32-1.31a6.84,6.84,0,0,1,1.75-.16c2.5-.55,5-1,7.53-1.42l.36-.05c.55-.09,1.11-.17,1.66-.24l.7-.09c1.11-.15,2.22-.28,3.34-.38l.28,0,1.57-.14.93-.06,1.53-.1,1.25-.06c.74,0,1.5,0,2.25-.06l1.19,0h1.4l1.63,0,1.85.07,1.49.08,1.3.08q.87.06,1.74.15l1.63.16,1.89.21,1.25.17,1.81.27,1.08.16Zm-28.22-26.14-.94-.33a5.58,5.58,0,0,1-2.44-1.22,2.92,2.92,0,0,1-.65-1.18A10.21,10.21,0,0,1,7290.31,57.14Z"/><path class="cls-3" d="M7230.06,85.93a2.35,2.35,0,0,0,1.1.47,9,9,0,0,0,6.76.73,14.12,14.12,0,0,0,4.93-3.54A118.72,118.72,0,0,0,7255.51,69c.42-.56.83-1.13,1.28-1.65,5.5-8.3,13-14,22.93-14,8.51,0,12.23,3.88,13.4,9.93a10.5,10.5,0,0,0-6.93-2.67c-6.4,0-11.6,6-11.6,13.49a14.35,14.35,0,0,0,4.5,10.66l.41-.29,9.17-4.84a11.51,11.51,0,0,0,1.21-.74c2.9-2,17.49,2.25,28.79,4.37-5.61,1.24-13.56-15.7-17.66-19.81-.71-.71-2.83-2.12-3.53-2.83-11.15-7-22.09-13-31.81-13a162.48,162.48,0,0,0-17.65,1,2.93,2.93,0,0,1-1.53-.52,4.23,4.23,0,0,1-.94-1.54,12.75,12.75,0,0,1-.83-3,14.92,14.92,0,0,1,.21-5.65,11.05,11.05,0,0,1,.39-1.36,7.43,7.43,0,0,1,.68-1.86,11,11,0,0,1,10.08-7.29,10.15,10.15,0,0,1,4.51,1.07c-1.38-4.61-4.4-6.77-12.55-6.77-12.21,0-24.52,18.94-29.34,35.91-7.59,2.37-10.86,29.15-18.7,29.89C7212.15,91.11,7217.16,73.31,7230.06,85.93Z"/><path class="cls-4" d="M7255.11,60.17a16.07,16.07,0,0,0-6.71-3.55,15.47,15.47,0,0,0-19,10.85,12.49,12.49,0,0,0-.24,1.31h0c-.49,3.91,1.33,7.46,4.31,10.26h0a17.76,17.76,0,0,0,1.74,1.47h0a25,25,0,0,0,8.71,4.14c.44.11.87.2,1.29.28a14.49,14.49,0,0,1,2,.29l1,.19c1.45.3,3,.64,3.66.69,5.55.35,10.73.88,16.26.35q4.69-.44,9.32-1.31a6.84,6.84,0,0,1,1.75-.16c2.5-.55,5-1,7.53-1.42l.36-.05c.55-.09,1.11-.17,1.66-.24l.7-.09c1.11-.15,2.22-.28,3.34-.38l.28,0,1.57-.14.93-.06,1.53-.1,1.25-.06c.74,0,1.5,0,2.25-.06l1.19,0h1.4l1.63,0,1.85.07,1.49.08,1.3.08q.87.06,1.74.15l1.63.16,1.89.21,1.25.17,1.81.27,1.08.16c-4.7-7.27-11-15.59-16.47-19.57l0,0a40.41,40.41,0,0,0-12.92-7.33,5.58,5.58,0,0,1-2.44-1.22,4.36,4.36,0,0,1-.92-2.83,18.28,18.28,0,0,1,.75-6.06,9.54,9.54,0,0,1,1.13-2.85.8.8,0,0,1,.13-.13c1.69-6.11,9-9.52,16.41-7.61a15.82,15.82,0,0,1,7.74,4.52c-.48-6-5.13-10.72-14.13-13a32.09,32.09,0,0,0-20.81,1.58c-8.26-.37-28.85,19.42-28.85,19.42L7241,47.3h-.1c.49.11,1,.22,1.49.35C7250.85,49.82,7254.45,54.31,7255.11,60.17Z"/><path class="cls-5" d="M7689.78,86.17c14.53,2.17,29.28,1.57,43.95,1a76.2,76.2,0,0,0,9.78-.83,54.42,54.42,0,0,0,10.26-3c2.29-3.07,3.54-7.6,3.54-14.22,0-27.35-22.84-48.11-50.15-48.11S7662,40.34,7662,67.7c0,7.88-.45,13.08,2.82,16.27C7666.83,83,7687.42,85.81,7689.78,86.17Z"/><path class="cls-5" d="M7661.25,69.11v17l-20.48-2.83V69.11c0-11.33,3.49-20.52,9.53-20.52S7661.25,57.78,7661.25,69.11Z"/><path class="cls-6" d="M7681.73,57.79c0-4.67-4.52-8.49-9.18-8.49l-19.78-.71a7.87,7.87,0,0,0-1.38.13c5.14,1.16,9.15,10.48,9.15,21.81,0,6.7.44,12-.13,15.49a5.09,5.09,0,0,0,.84.07l21.19-3.53Z"/><path class="cls-7" d="M7478.37,65.57h121A10.61,10.61,0,0,0,7610,55h0a10.61,10.61,0,0,0-10.61-10.61H7477.84a.29.29,0,0,0-.3.3V64.74A.83.83,0,0,0,7478.37,65.57Z"/><path class="cls-45" d="M7478.37,65.57h121A10.61,10.61,0,0,0,7610,55h0a10.61,10.61,0,0,0-10.61-10.61H7477.84a.29.29,0,0,0-.3.3V64.74A.83.83,0,0,0,7478.37,65.57Z"/><path class="cls-46" d="M7478.37,65.57h121A10.61,10.61,0,0,0,7610,55h0a10.61,10.61,0,0,0-10.61-10.61H7477.84a.29.29,0,0,0-.3.3V64.74A.83.83,0,0,0,7478.37,65.57Z"/><path class="cls-47" d="M7478.37,65.57h121A10.61,10.61,0,0,0,7610,55h0a10.61,10.61,0,0,0-10.61-10.61H7477.84a.29.29,0,0,0-.3.3V64.74A.83.83,0,0,0,7478.37,65.57Z"/><rect class="cls-11" x="7201" width="599" height="100"/><path class="cls-1" d="M8307.66,23c-20.55,0-35.77,11-42,28l-12.35-.45a8.2,8.2,0,0,0-1.32.12,5.54,5.54,0,0,0-1.15-.12c-6,0-9.54,9.19-9.54,20.52V85.26L8260.91,88a.06.06,0,0,1,0,0,5.3,5.3,0,0,0,.85.07l11.76-2c6.73.62,15.29,1.82,16.76,2,14.53,2.17,29.29,1.57,43.95,1a76.2,76.2,0,0,0,9.79-.83,54.42,54.42,0,0,0,10.26-3c2.29-3.07,3.54-7.6,3.54-14.22C8357.81,43.76,8335,23,8307.66,23Z"/><path class="cls-2" d="M7918.53,83.28l.14,0-.18,0c-4.66-7.16-10.82-15.21-16.16-19.11l0,0a47.75,47.75,0,0,0-4.64-3.36c-.06-.06-.13-.11-.17-.16-3.81-2.41-7.59-4.68-11.31-6.63a7.27,7.27,0,0,1-.16-1.23,18.28,18.28,0,0,1,.75-6.06,9.54,9.54,0,0,1,1.13-2.85.8.8,0,0,1,.13-.13c1.69-6.11,9-9.52,16.41-7.61a15.82,15.82,0,0,1,7.74,4.52c-.48-6-5.13-10.72-14.13-13a32.09,32.09,0,0,0-20.81,1.58c-8.1-.36-28.07,18.68-28.81,19.39h-.14l-1.36-.24a1.25,1.25,0,0,1-.43-.25,4.23,4.23,0,0,1-.94-1.54,12.75,12.75,0,0,1-.83-3,14.92,14.92,0,0,1,.21-5.65,11.05,11.05,0,0,1,.39-1.36,7.43,7.43,0,0,1,.68-1.86,11,11,0,0,1,10.08-7.29,10.15,10.15,0,0,1,4.51,1.07c-1.38-4.61-4.4-6.77-12.55-6.77-12.21,0-24.52,18.94-29.34,35.91-7.59,2.37-10.86,29.15-18.7,29.89,12.15,3.6,17.16-14.2,30.06-1.58a2.35,2.35,0,0,0,1.1.47,9,9,0,0,0,6.76.73,12.52,12.52,0,0,0,4.36-3c.54.18,1.08.35,1.63.49s.87.2,1.29.28a14.49,14.49,0,0,1,2,.29l1,.19c1.45.3,3,.64,3.66.69,5.55.35,10.73.88,16.26.35q4.69-.44,9.32-1.31a6.84,6.84,0,0,1,1.75-.16c2.5-.55,5-1,7.53-1.42l.36-.05c.55-.09,1.11-.17,1.66-.24l.7-.09c1.11-.15,2.22-.28,3.34-.38l.28,0,1.57-.14.93-.06,1.53-.1,1.25-.06c.74,0,1.5,0,2.25-.06l1.19,0h1.4l1.63,0,1.85.07,1.49.08,1.3.08q.87.06,1.74.15l1.63.16,1.89.21,1.25.17,1.81.27,1.08.16Zm-28.22-26.14-.94-.33a5.58,5.58,0,0,1-2.44-1.22,2.92,2.92,0,0,1-.65-1.18A10.21,10.21,0,0,1,7890.31,57.14Z"/><path class="cls-3" d="M7830.06,85.93a2.35,2.35,0,0,0,1.1.47,9,9,0,0,0,6.76.73,14.12,14.12,0,0,0,4.93-3.54A118.72,118.72,0,0,0,7855.51,69c.42-.56.83-1.13,1.28-1.65,5.5-8.3,13-14,22.93-14,8.51,0,12.23,3.88,13.4,9.93a10.5,10.5,0,0,0-6.93-2.67c-6.4,0-11.6,6-11.6,13.49a14.35,14.35,0,0,0,4.5,10.66l.41-.29,9.17-4.84a11.51,11.51,0,0,0,1.21-.74c2.9-2,17.49,2.25,28.79,4.37-5.61,1.24-13.56-15.7-17.66-19.81-.71-.71-2.83-2.12-3.53-2.83-11.15-7-22.09-13-31.81-13a162.48,162.48,0,0,0-17.65,1,2.93,2.93,0,0,1-1.53-.52,4.23,4.23,0,0,1-.94-1.54,12.75,12.75,0,0,1-.83-3,14.92,14.92,0,0,1,.21-5.65,11.05,11.05,0,0,1,.39-1.36,7.43,7.43,0,0,1,.68-1.86,11,11,0,0,1,10.08-7.29,10.15,10.15,0,0,1,4.51,1.07c-1.38-4.61-4.4-6.77-12.55-6.77-12.21,0-24.52,18.94-29.34,35.91-7.59,2.37-10.86,29.15-18.7,29.89C7812.15,91.11,7817.16,73.31,7830.06,85.93Z"/><path class="cls-4" d="M7855.11,60.17a16.07,16.07,0,0,0-6.71-3.55,15.47,15.47,0,0,0-19,10.85,12.49,12.49,0,0,0-.24,1.31h0c-.49,3.91,1.33,7.46,4.31,10.26h0a17.76,17.76,0,0,0,1.74,1.47h0a25,25,0,0,0,8.71,4.14c.44.11.87.2,1.29.28a14.49,14.49,0,0,1,2,.29l1,.19c1.45.3,3,.64,3.66.69,5.55.35,10.73.88,16.26.35q4.69-.44,9.32-1.31a6.84,6.84,0,0,1,1.75-.16c2.5-.55,5-1,7.53-1.42l.36-.05c.55-.09,1.11-.17,1.66-.24l.7-.09c1.11-.15,2.22-.28,3.34-.38l.28,0,1.57-.14.93-.06,1.53-.1,1.25-.06c.74,0,1.5,0,2.25-.06l1.19,0h1.4l1.63,0,1.85.07,1.49.08,1.3.08q.87.06,1.74.15l1.63.16,1.89.21,1.25.17,1.81.27,1.08.16c-4.7-7.27-11-15.59-16.47-19.57l0,0a40.41,40.41,0,0,0-12.92-7.33,5.58,5.58,0,0,1-2.44-1.22,4.36,4.36,0,0,1-.92-2.83,18.28,18.28,0,0,1,.75-6.06,9.54,9.54,0,0,1,1.13-2.85.8.8,0,0,1,.13-.13c1.69-6.11,9-9.52,16.41-7.61a15.82,15.82,0,0,1,7.74,4.52c-.48-6-5.13-10.72-14.13-13a32.09,32.09,0,0,0-20.81,1.58c-8.26-.37-28.85,19.42-28.85,19.42L7841,47.3h-.1c.49.11,1,.22,1.49.35C7850.85,49.82,7854.45,54.31,7855.11,60.17Z"/><path class="cls-5" d="M8289.78,86.17c14.53,2.17,29.28,1.57,43.95,1a76.2,76.2,0,0,0,9.78-.83,54.42,54.42,0,0,0,10.26-3c2.29-3.07,3.54-7.6,3.54-14.22,0-27.35-22.84-48.11-50.15-48.11S8262,40.34,8262,67.7c0,7.88-.45,13.08,2.82,16.27C8266.83,83,8287.42,85.81,8289.78,86.17Z"/><path class="cls-5" d="M8261.25,69.11v17l-20.48-2.83V69.11c0-11.33,3.49-20.52,9.53-20.52S8261.25,57.78,8261.25,69.11Z"/><path class="cls-6" d="M8281.73,57.79c0-4.67-4.52-8.49-9.18-8.49l-19.78-.71a7.87,7.87,0,0,0-1.38.13c5.14,1.16,9.15,10.48,9.15,21.81,0,6.7.44,12-.13,15.49a5.09,5.09,0,0,0,.84.07l21.19-3.53Z"/><path class="cls-7" d="M8078.37,65.57h135A10.61,10.61,0,0,0,8224,55h0a10.61,10.61,0,0,0-10.61-10.61H8077.84a.29.29,0,0,0-.3.3V64.74A.83.83,0,0,0,8078.37,65.57Z"/><path class="cls-48" d="M8078.37,65.57h135A10.61,10.61,0,0,0,8224,55h0a10.61,10.61,0,0,0-10.61-10.61H8077.84a.29.29,0,0,0-.3.3V64.74A.83.83,0,0,0,8078.37,65.57Z"/><path class="cls-49" d="M8078.37,65.57h135A10.61,10.61,0,0,0,8224,55h0a10.61,10.61,0,0,0-10.61-10.61H8077.84a.29.29,0,0,0-.3.3V64.74A.83.83,0,0,0,8078.37,65.57Z"/><path class="cls-50" d="M8078.37,65.57h135A10.61,10.61,0,0,0,8224,55h0a10.61,10.61,0,0,0-10.61-10.61H8077.84a.29.29,0,0,0-.3.3V64.74A.83.83,0,0,0,8078.37,65.57Z"/><rect class="cls-11" x="7801" width="599" height="100"/><path class="cls-2" d="M8517.53,83.28l.14,0-.18,0c-4.66-7.16-10.82-15.21-16.16-19.11l0,0a47.75,47.75,0,0,0-4.64-3.36c-.06-.06-.13-.11-.17-.16-3.81-2.41-7.59-4.68-11.31-6.63a7.27,7.27,0,0,1-.16-1.23,18.28,18.28,0,0,1,.75-6.06,9.54,9.54,0,0,1,1.13-2.85.8.8,0,0,1,.13-.13c1.69-6.11,9-9.52,16.41-7.61a15.82,15.82,0,0,1,7.74,4.52c-.48-6-5.13-10.72-14.13-13a32.09,32.09,0,0,0-20.81,1.58c-8.1-.36-28.07,18.68-28.81,19.39h-.14l-1.36-.24a1.25,1.25,0,0,1-.43-.25,4.23,4.23,0,0,1-.94-1.54,12.75,12.75,0,0,1-.83-3,14.92,14.92,0,0,1,.21-5.65,11.05,11.05,0,0,1,.39-1.36,7.43,7.43,0,0,1,.68-1.86,11,11,0,0,1,10.08-7.29,10.15,10.15,0,0,1,4.51,1.07c-1.38-4.61-4.4-6.77-12.55-6.77-12.21,0-24.52,18.94-29.34,35.91-7.59,2.37-10.86,29.15-18.7,29.89,12.15,3.6,17.16-14.2,30.06-1.58a2.35,2.35,0,0,0,1.1.47,9,9,0,0,0,6.76.73,12.52,12.52,0,0,0,4.36-3c.54.18,1.08.35,1.63.49s.87.2,1.29.28a14.49,14.49,0,0,1,2,.29l1,.19c1.45.3,3,.64,3.66.69,5.55.35,10.73.88,16.26.35q4.7-.44,9.32-1.31a6.84,6.84,0,0,1,1.75-.16c2.5-.55,5-1,7.53-1.42l.36-.05c.55-.09,1.11-.17,1.66-.24l.7-.09c1.11-.15,2.22-.28,3.34-.38l.28,0,1.57-.14.93-.06,1.53-.1,1.25-.06c.74,0,1.5,0,2.25-.06l1.19,0h1.4l1.63,0,1.85.07,1.49.08,1.3.08q.87.06,1.74.15l1.63.16q.94.09,1.89.21l1.25.17,1.81.27,1.08.16Zm-28.22-26.14-.94-.33a5.58,5.58,0,0,1-2.44-1.22,2.92,2.92,0,0,1-.65-1.18A10.21,10.21,0,0,1,8489.31,57.14Z"/><path class="cls-3" d="M8429.06,85.93a2.35,2.35,0,0,0,1.1.47,9,9,0,0,0,6.76.73,14.12,14.12,0,0,0,4.93-3.54A118.72,118.72,0,0,0,8454.51,69c.42-.56.83-1.13,1.28-1.65,5.5-8.3,13-14,22.93-14,8.51,0,12.23,3.88,13.4,9.93a10.5,10.5,0,0,0-6.93-2.67c-6.4,0-11.6,6-11.6,13.49a14.35,14.35,0,0,0,4.5,10.66l.41-.29,9.17-4.84a11.51,11.51,0,0,0,1.21-.74c2.9-2,17.49,2.25,28.79,4.37-5.61,1.24-13.56-15.7-17.66-19.81-.71-.71-2.83-2.12-3.53-2.83-11.15-7-22.09-13-31.81-13a162.48,162.48,0,0,0-17.65,1,2.93,2.93,0,0,1-1.53-.52,4.23,4.23,0,0,1-.94-1.54,12.75,12.75,0,0,1-.83-3,14.92,14.92,0,0,1,.21-5.65,11.05,11.05,0,0,1,.39-1.36,7.43,7.43,0,0,1,.68-1.86,11,11,0,0,1,10.08-7.29,10.15,10.15,0,0,1,4.51,1.07c-1.38-4.61-4.4-6.77-12.55-6.77-12.21,0-24.52,18.94-29.34,35.91-7.59,2.37-10.86,29.15-18.7,29.89C8411.15,91.11,8416.16,73.31,8429.06,85.93Z"/><rect class="cls-11" x="8400" width="599" height="100"/></g></svg>