<svg xmlns="http://www.w3.org/2000/svg" xmlns:xlink="http://www.w3.org/1999/xlink" width="190" height="190" viewBox="0 0 190 190"><defs><style>.cls-1{filter:url(#AI_BevelShadow_1);}.cls-2{fill:url(#linear-gradient);}.cls-3{fill:#cfebf0;opacity:0.9;}.cls-4{fill:url(#linear-gradient-2);}</style><filter id="AI_BevelShadow_1" x="-20" y="-20" width="140" height="140" name="AI_BevelShadow_1"><feGaussianBlur result="blur" stdDeviation="4" in="SourceAlpha"/><feOffset result="offsetBlur" dx="4" dy="4" in="blur"/><feSpecularLighting result="specOut" surfaceScale="5" specularExponent="10" in="blur"><fePointLight x="-5000" y="-10000" z="-20000"/></feSpecularLighting><feComposite result="specOut" operator="in" in="specOut" in2="SourceAlpha"/><feComposite result="litPaint" operator="arithmetic" k2="1" k3="1" in="SourceGraphic" in2="specOut"/><feMerge><feMergeNode in="offsetBlur"/><feMergeNode in="litPaint"/></feMerge></filter><linearGradient id="linear-gradient" x1="66.05" y1="94.89" x2="123.33" y2="94.89" gradientUnits="userSpaceOnUse"><stop offset="0" stop-color="#00d1e3"/><stop offset="1" stop-color="#eb1ebd"/></linearGradient><linearGradient id="linear-gradient-2" x1="2.68" y1="73.58" x2="176.18" y2="106.84" gradientUnits="userSpaceOnUse"><stop offset="0" stop-color="#56dbe4"/><stop offset="1" stop-color="#ca23b8"/></linearGradient></defs><title>Replay</title><g id="Layer_13" data-name="Layer 13"><g class="cls-1"><path class="cls-2" d="M119.23,102.35l-39.62,25.1A8.83,8.83,0,0,1,66.05,120V69.8a8.83,8.83,0,0,1,13.56-7.46l39.62,25.09A8.83,8.83,0,0,1,119.23,102.35Z"/></g><path class="cls-3" d="M118.8,102.29,80.17,127.24a8.83,8.83,0,0,1-13.62-7.42V69.93a8.83,8.83,0,0,1,13.62-7.42L118.8,87.46A8.82,8.82,0,0,1,118.8,102.29Z"/><path class="cls-4" d="M144.29,22.12,153,8.49l-18.66-.87-18.65-.88,8.56,16.59,8.57,16.6,8.52-13.28A82.91,82.91,0,1,1,58.5,20.54V14.6a88.35,88.35,0,1,0,85.79,7.52Z"/></g></svg>
