<svg xmlns="http://www.w3.org/2000/svg" width="90" height="90" viewBox="0 0 90 90"><defs><style>.cls-1{fill:#fff;}</style></defs><title>S1</title><g id="The_stars" data-name="The stars"><path class="cls-1" d="M63.64,0C41.27,54,48.73,54,26.36,0,48.73,54,54,48.73,0,26.36,54,48.73,54,41.27,0,63.64,54,41.27,48.73,36,26.36,90c22.37-54,14.91-54,37.28,0C41.27,36,36,41.27,90,63.64,36,41.27,36,48.73,90,26.36,36,48.73,41.27,54,63.64,0Z"/><path class="cls-1" d="M45,10.91c0,40.91,4.82,38.91-24.1,10C49.82,49.82,51.82,45,10.91,45c40.91,0,38.91-4.82,10,24.1C49.82,40.18,45,38.18,45,79.09c0-40.91-4.82-38.91,24.1-10C40.18,40.18,38.18,45,79.09,45c-40.91,0-38.91,4.82-10-24.1C40.18,49.82,45,51.82,45,10.91Z"/></g></svg>
