<svg xmlns="http://www.w3.org/2000/svg" width="50" height="50" viewBox="0 0 50 50"><defs><style>.cls-1{fill:#fff;}</style></defs><title>S10</title><g id="The_stars" data-name="The stars"><path class="cls-1" d="M34.66,3.18c-11.4,27.53-7.6,27.53-19,0C27.06,30.71,29.75,28,2.22,16.62c27.53,11.4,27.53,7.6,0,19,27.53-11.4,24.84-14.09,13.44,13.44,11.4-27.53,7.6-27.53,19,0C23.26,21.53,20.57,24.22,48.1,35.62c-27.53-11.4-27.53-7.6,0-19C20.57,28,23.26,30.71,34.66,3.18Z"/><path class="cls-1" d="M25.16,8.74c0,20.85,2.46,19.84-12.29,5.09C27.62,28.58,28.63,26.12,7.78,26.12c20.85,0,19.84-2.46,5.09,12.29C27.62,23.66,25.16,22.64,25.16,43.5c0-20.86-2.46-19.84,12.29-5.09C22.7,23.66,21.68,26.12,42.54,26.12c-20.86,0-19.84,2.46-5.09-12.29C22.7,28.58,25.16,29.59,25.16,8.74Z"/></g></svg>
