<svg xmlns="http://www.w3.org/2000/svg" width="60" height="60" viewBox="0 0 60 60"><defs><style>.cls-1{fill:#fff;}</style></defs><title>S2</title><g id="The_stars" data-name="The stars"><path class="cls-1" d="M41.44,1.17C27.3,35.31,32,35.31,17.88,1.17,32,35.31,35.35,32,1.21,17.84,35.35,32,35.35,27.26,1.21,41.4,35.35,27.26,32,23.93,17.88,58.06c14.14-34.13,9.42-34.13,23.56,0C27.3,23.93,24,27.26,58.1,41.4,24,27.26,24,32,58.1,17.84,24,32,27.3,35.31,41.44,1.17Z"/><path class="cls-1" d="M29.66,8.07c0,25.86,3.05,24.6-15.24,6.31C32.71,32.67,34,29.62,8.11,29.62c25.86,0,24.6-3.05,6.31,15.24,18.29-18.29,15.24-19.55,15.24,6.31,0-25.86-3.05-24.6,15.24-6.31C26.61,26.57,25.35,29.62,51.21,29.62c-25.86,0-24.6,3.05-6.31-15.24C26.61,32.67,29.66,33.93,29.66,8.07Z"/></g></svg>
