<svg xmlns="http://www.w3.org/2000/svg" width="90" height="90" viewBox="0 0 90 90"><defs><style>.cls-1{fill:#fff;}</style></defs><title>S3</title><g id="The_stars" data-name="The stars"><path class="cls-1" d="M63.81,9.53c-18.18,43.91-12.12,43.91-30.31,0C51.69,53.44,56,49.15,12.07,31,56,49.15,56,43.09,12.07,61.27,56,43.09,51.69,38.8,33.5,82.71c18.19-43.91,12.13-43.91,30.31,0C45.63,38.8,41.34,43.09,85.25,61.27,41.34,43.09,41.34,49.15,85.25,31,41.34,49.15,45.63,53.44,63.81,9.53Z"/><path class="cls-1" d="M48.66,18.39c0,33.27,3.92,31.65-19.6,8.12C52.58,50,54.2,46.12,20.94,46.12c33.26,0,31.64-3.92,8.12,19.6,23.52-23.52,19.6-25.15,19.6,8.12,0-33.27-3.92-31.64,19.6-8.12-23.52-23.52-25.15-19.6,8.12-19.6-33.27,0-31.64,3.92-8.12-19.61C44.74,50,48.66,51.66,48.66,18.39Z"/></g></svg>
