<svg xmlns="http://www.w3.org/2000/svg" width="70" height="70" viewBox="0 0 70 70"><defs><style>.cls-1{fill:#fff;}</style></defs><title>S4</title><g id="The_stars" data-name="The stars"><path class="cls-1" d="M49.2,4.83c-15.05,36.35-10,36.35-25.09,0C39.17,41.18,42.72,37.63,6.37,22.57c36.35,15.06,36.35,10,0,25.09,36.35-15,32.8-18.6,17.74,17.75,15.06-36.35,10-36.35,25.09,0C34.15,29.06,30.6,32.61,67,47.66c-36.35-15-36.35-10,0-25.09C30.6,37.63,34.15,41.18,49.2,4.83Z"/><path class="cls-1" d="M36.66,12.17c0,27.54,3.24,26.19-16.23,6.72C39.9,38.36,41.25,35.12,13.71,35.12c27.54,0,26.19-3.25,6.72,16.23C39.9,31.87,36.66,30.53,36.66,58.07c0-27.54-3.25-26.2,16.23-6.72C33.41,31.87,32.07,35.12,59.61,35.12c-27.54,0-26.2,3.24-6.72-16.23C33.41,38.36,36.66,39.71,36.66,12.17Z"/></g></svg>
