<svg xmlns="http://www.w3.org/2000/svg" width="50" height="50" viewBox="0 0 50 50"><defs><style>.cls-1{fill:#fff;}</style></defs><title>S5</title><g id="The_stars" data-name="The stars"><path class="cls-1" d="M34.16,2.18c-11.4,27.53-7.6,27.53-19,0C26.56,29.71,29.25,27,1.72,15.62c27.53,11.4,27.53,7.6,0,19,27.53-11.4,24.84-14.09,13.44,13.44,11.4-27.53,7.6-27.53,19,0C22.76,20.53,20.07,23.22,47.6,34.62c-27.53-11.4-27.53-7.6,0-19C20.07,27,22.76,29.71,34.16,2.18Z"/><path class="cls-1" d="M24.66,7.74c0,20.85,2.46,19.84-12.29,5.09C27.12,27.58,28.13,25.12,7.28,25.12c20.85,0,19.84-2.46,5.09,12.29C27.12,22.66,24.66,21.64,24.66,42.5c0-20.86-2.46-19.84,12.29-5.09C22.2,22.66,21.18,25.12,42,25.12c-20.86,0-19.84,2.46-5.09-12.29C22.2,27.58,24.66,28.59,24.66,7.74Z"/></g></svg>
