<svg xmlns="http://www.w3.org/2000/svg" xmlns:xlink="http://www.w3.org/1999/xlink" width="100" height="100" viewBox="0 0 100 100"><defs><style>.cls-1{isolation:isolate;}.cls-2{opacity:0.5;}.cls-3{opacity:0.75;mix-blend-mode:screen;}.cls-4{fill:#fff;}</style></defs><title>S6</title><g class="cls-1"><g id="stars"><g class="cls-2"><image class="cls-3" width="2292" height="1109" transform="translate(-933.5 99.5)" xlink:href="S61.png"/></g></g><g id="The_stars" data-name="The stars"><path class="cls-4" d="M69.6,1.48c-23.93,57.77-15.95,57.77-39.88,0,23.93,57.77,29.57,52.13-28.2,28.2,57.77,23.93,57.77,16,0,39.88C59.29,45.63,53.65,40,29.72,97.76,53.65,40,45.67,40,69.6,97.76,45.67,40,40,45.63,97.8,69.56,40,45.63,40,53.61,97.8,29.68,40,53.61,45.67,59.25,69.6,1.48Z"/><path class="cls-4" d="M49.66,13.14c0,43.77,5.16,41.64-25.79,10.69,31,31,33.08,25.79-10.69,25.79,43.77,0,41.64-5.16,10.69,25.79,31-30.95,25.79-33.09,25.79,10.68,0-43.77-5.16-41.63,25.79-10.68C44.5,44.46,42.36,49.62,86.13,49.62c-43.77,0-41.63,5.16-10.68-25.79C44.5,54.78,49.66,56.91,49.66,13.14Z"/></g></g></svg>
