<svg xmlns="http://www.w3.org/2000/svg" width="80" height="80" viewBox="0 0 80 80"><defs><style>.cls-1{fill:#fff;}</style></defs><title>S7</title><g id="The_stars" data-name="The stars"><path class="cls-1" d="M56.81,3C38.63,46.94,44.69,46.94,26.5,3,44.69,46.94,49,42.65,5.07,24.46,49,42.65,49,36.59,5.07,54.77,49,36.59,44.69,32.3,26.5,76.21c18.19-43.91,12.13-43.91,30.31,0C38.63,32.3,34.34,36.59,78.25,54.77c-43.91-18.18-43.91-12.12,0-30.31C34.34,42.65,38.63,46.94,56.81,3Z"/><path class="cls-1" d="M41.66,11.89c0,33.27,3.92,31.65-19.6,8.12C45.58,43.54,47.2,39.62,13.94,39.62c33.26,0,31.64-3.92,8.12,19.6,23.52-23.52,19.6-25.15,19.6,8.12,0-33.27-3.92-31.64,19.6-8.12-23.52-23.52-25.15-19.6,8.12-19.6-33.27,0-31.64,3.92-8.12-19.61C37.74,43.54,41.66,45.16,41.66,11.89Z"/></g></svg>
