<svg xmlns="http://www.w3.org/2000/svg" width="80" height="80" viewBox="0 0 80 80"><defs><style>.cls-1{fill:#fff;}</style></defs><title>S8</title><g id="The_stars" data-name="The stars"><path class="cls-1" d="M55.81,3.53c-18.18,43.91-12.12,43.91-30.31,0C43.69,47.44,48,43.15,4.07,25,48,43.15,48,37.09,4.07,55.27,48,37.09,43.69,32.8,25.5,76.71c18.19-43.91,12.13-43.91,30.31,0C37.63,32.8,33.34,37.09,77.25,55.27,33.34,37.09,33.34,43.15,77.25,25,33.34,43.15,37.63,47.44,55.81,3.53Z"/><path class="cls-1" d="M40.66,12.39c0,33.27,3.92,31.65-19.6,8.12C44.58,44,46.2,40.12,12.94,40.12c33.26,0,31.64-3.92,8.12,19.6,23.52-23.52,19.6-25.15,19.6,8.12,0-33.27-3.92-31.64,19.6-8.12-23.52-23.52-25.15-19.6,8.12-19.6-33.27,0-31.64,3.92-8.12-19.61C36.74,44,40.66,45.66,40.66,12.39Z"/></g></svg>
