<svg xmlns="http://www.w3.org/2000/svg" xmlns:xlink="http://www.w3.org/1999/xlink" width="80" height="80" viewBox="0 0 80 80"><defs><style>.cls-1{isolation:isolate;}.cls-2{opacity:0.5;}.cls-3{opacity:0.75;mix-blend-mode:screen;}.cls-4{fill:#fff;}</style></defs><title>S9</title><g class="cls-1"><g id="stars"><g class="cls-2"><image class="cls-3" width="2292" height="1109" transform="translate(-1399.5 74.5)" xlink:href="S91.png"/></g></g><g id="The_stars" data-name="The stars"><path class="cls-4" d="M56.81,5C38.63,48.94,44.69,48.94,26.5,5,44.69,48.94,49,44.65,5.07,26.46,49,44.65,49,38.59,5.07,56.77,49,38.59,44.69,34.3,26.5,78.21c18.19-43.91,12.13-43.91,30.31,0C38.63,34.3,34.34,38.59,78.25,56.77c-43.91-18.18-43.91-12.12,0-30.31C34.34,44.65,38.63,48.94,56.81,5Z"/><path class="cls-4" d="M41.66,13.89c0,33.27,3.92,31.65-19.6,8.12C45.58,45.54,47.2,41.62,13.94,41.62c33.26,0,31.64-3.92,8.12,19.6,23.52-23.52,19.6-25.15,19.6,8.12,0-33.27-3.92-31.64,19.6-8.12-23.52-23.52-25.15-19.6,8.12-19.6-33.27,0-31.64,3.92-8.12-19.61C37.74,45.54,41.66,47.16,41.66,13.89Z"/></g></g></svg>
