<svg xmlns="http://www.w3.org/2000/svg" xmlns:xlink="http://www.w3.org/1999/xlink" width="70" height="70" viewBox="0 0 70 70"><defs><style>.cls-1,.cls-2{opacity:0.8;}.cls-1{fill:url(#linear-gradient);}.cls-2{fill:#fff;}</style><linearGradient id="linear-gradient" x1="-18.02" y1="41.79" x2="72.84" y2="29.91" gradientUnits="userSpaceOnUse"><stop offset="0" stop-color="#56dbe4"/><stop offset="1" stop-color="#ca23b8"/></linearGradient></defs><title>Settings</title><g id="menu"><circle class="cls-1" cx="33.97" cy="34.99" r="31"/><path class="cls-2" d="M50.16,51.38l-4.6-8.84a13.26,13.26,0,0,0,1.31-2.47l16.39-4.9-16.32-5.1A13.22,13.22,0,0,0,46,28.14l5.13-8.84-9.22,4.48a13.79,13.79,0,0,0-2.09-1.17L35.26,5.76,29.67,22.15l-.14.05h0l-.32.11h0l-.24.1h0l-.34.14h0l-.24.11h0l-.34.16h0l-.2.1,0,0h0l-.33.18h0l-.2.12h0l0,0-8.84-5.13,4.47,9.22-.07.1h0l-.17.26,0,0h0l0,0c-.05.07-.09.15-.14.23a2.91,2.91,0,0,0-.17.3h0l-.16.27-.15.29h0a2.59,2.59,0,0,0-.14.29h0l-.12.26L4.74,34l16.53,5.66a.14.14,0,0,0,0,.06h0v0c0,.06.05.13.08.19V40h0c0,.1.08.21.13.32h0a2,2,0,0,0,.1.21l0,.06c.05.11.1.22.16.33h0l.12.23v0h0c.06.11.11.22.17.32h0l.12.2,0,0h0l.18.31h0l.06.09-4.84,9,9.08-4.78h0l0,0h0l.23.15h0l.31.18h0l.24.13h0l.31.16h0l.26.13h0l.31.14h0l.09,0,.16.06h0l.08,0L34,64.24,39,47.69a13.92,13.92,0,0,0,2.3-1.11ZM40.85,40.06l-.1.14,0,0h0l0,0-.15.19-.11.13,0,0h0l0,0-.15.17-.09.11,0,0,0,0h0l0,0h0l-.14.15h0l0,0h0l0,0-.14.14,0,0h0l0,0-.16.15,0,0h0l0,0-.15.13,0,0h0l0,0-.15.13,0,0h0l0,0-.16.13h0l-.16.13-.17.12,0,0h0l0,0-.14.1,0,0h0l0,0-.18.11,0,0h0l0,0-.15.09-.19.11,0,0h0l0,0-.16.1-.2.1,0,0h0l0,0-.16.08h0l-.19.09v0h0v0l-.17.07-.19.08v0h0v0L37,43v0h0v0l-.19.07h0l-.18.06h0l-.18.06h0l-.22.06h0v0h0v0l-.18,0h0l-.24.06-.17,0v0h0v0l-.25,0-.17,0h0l-.26,0h0l-.17,0-.25,0h-1.3l-.24,0-.2,0-.22,0h0l-.17,0-.23,0-.18-.05h0l-.19,0-.28-.08h0a8.55,8.55,0,0,1,2.33-16.69h.31a9.49,9.49,0,0,1,1.68.18h0l.1,0h.06l.51.14h0L37,27,37,27h0l.19.08h0l.08,0h0l.1,0h0l.2.09h0l.17.08h0l.18.09h0l.16.09h0l.2.12.15.09h0l.18.12h0l.15.1h0l.18.13h0l.15.12h0a1.09,1.09,0,0,0,.17.13h0l.15.12h0l.16.14h0l.14.13h0l.15.14h0l.11.12,0,0h0l.13.13h0l.12.13,0,0v0h0l.12.14h0l.14.17h0l.1.14h0l0,0,.13.17v0h0l.11.15.12.19h0l.1.15h0l0,0,.12.2h0l.09.16a1.14,1.14,0,0,1,.1.19h0a1.19,1.19,0,0,1,.08.16h0l.1.2h0l.08.18.08.2v0L42,32h0l.06.19h0l.06.19a1.25,1.25,0,0,1,.06.18h0l.06.22h0l.05.18c0,.07,0,.15,0,.22h0l0,.17h0c0,.08,0,.16,0,.24h0l0,.18h0a2.17,2.17,0,0,1,0,.25h0v.17h0a2.11,2.11,0,0,1,0,.25h0a1.09,1.09,0,0,1,0,.18h0c0,.08,0,.17,0,.25a1.34,1.34,0,0,1,0,.2h0v.22h0c0,.08,0,.15,0,.23h0c0,.07,0,.14,0,.2l0,.24h0l0,.19h0a2,2,0,0,1,0,.24h0l0,.18c0,.07,0,.15,0,.22h0v0l0,.15h0l-.06.21h0l-.06.2-.06.2h0l0,0a1.07,1.07,0,0,1-.07.19,1.07,1.07,0,0,1-.07.19l0,0v0l-.05,0a.87.87,0,0,1-.07.17l.05,0h0l0,0c0,.06,0,.12-.07.17l0,0h0l-.05,0-.09.2-.08.17h0a2.12,2.12,0,0,1-.11.21l-.08.15h0l-.12.21,0,0h0l0,0-.09.14-.13.2-.1.15Z"/></g></svg>
