<svg xmlns="http://www.w3.org/2000/svg" width="1700" height="1000" viewBox="0 0 1700 1000"><defs><style>.cls-1,.cls-3{fill:#cfebf0;}.cls-2{fill:#9dd6e0;}.cls-3{opacity:0.5;}.cls-4{fill:#b5e3e8;}.cls-5{fill:#8fe2df;}.cls-6{fill:#1833a0;}.cls-7{fill:#162872;}.cls-8{fill:#ff8b00;}.cls-9{fill:#1b1464;}</style></defs><title>Splash</title><g id="bar"><path class="cls-1" d="M663,198.31c-.33.76-.65,1.59-1,2.45C662.33,199.9,662.65,199.07,663,198.31Z"/><path class="cls-1" d="M571.22,904h0Z"/><path class="cls-1" d="M664.4,195.38a29.12,29.12,0,0,0-1.39,2.84A29.12,29.12,0,0,1,664.4,195.38Z"/><path class="cls-1" d="M575.29,901.63l-.49.29Z"/><path class="cls-1" d="M717.66,123.45a152.64,152.64,0,0,0-14.26,12.44A152.64,152.64,0,0,1,717.66,123.45Z"/><path class="cls-1" d="M590.27,891.47l-.37.27Z"/><path class="cls-1" d="M594,888.57l-.42.34Z"/><path class="cls-1" d="M1373.62,208.61A223.32,223.32,0,0,1,1467,212.7c43.19,11.05,79.78,33.42,106.14,61.93q-.56-6.87-1.66-13.59c-25.08-23-57.34-40.84-94.48-50.34C1441.26,201.55,1405.7,201.37,1373.62,208.61Z"/><path class="cls-1" d="M579.24,899.2l-.58.36Z"/><path class="cls-1" d="M723.44,119.23q-2.55,1.77-5,3.64Q720.9,121,723.44,119.23Z"/><path class="cls-1" d="M583,896.72l-.39.27Z"/><path class="cls-1" d="M567.6,905.84l-.51.26Z"/><path class="cls-1" d="M387.14,849l-1.76-.94Z"/><path class="cls-1" d="M731.67,113.9c-1.85,1.11-3.68,2.27-5.48,3.46C728,116.17,729.82,115,731.67,113.9Z"/><path class="cls-1" d="M137.73,786.79q4.53-10.65,9-21.69Q142.26,776.13,137.73,786.79Z"/><path class="cls-1" d="M559.37,909.55l-.55.21Z"/><path class="cls-1" d="M563.59,907.75l-.67.3Z"/><path class="cls-1" d="M146.73,765.1c1.19-2.93,2.38-5.89,3.57-8.85C149.11,759.21,147.92,762.17,146.73,765.1Z"/><path class="cls-1" d="M150.3,756.25q1.78-4.46,3.56-8.94Q152.07,751.8,150.3,756.25Z"/><path class="cls-1" d="M489.6,131.8q2.89-3.21,5.8-6.37Q492.49,128.58,489.6,131.8Z"/><path class="cls-1" d="M482.8,139.51q2.65-3.06,5.31-6Q485.45,136.46,482.8,139.51Z"/><path class="cls-1" d="M157.9,737l3-7.77Z"/><path class="cls-1" d="M163.39,723l2.16-5.56Z"/><path class="cls-1" d="M651.06,237.58a203.39,203.39,0,0,0-2.8,77.28c2.21,14,5.79,28.15,11.29,40.91l.22.52-.22-.52c-5.5-12.76-9.08-26.92-11.29-40.92a203.34,203.34,0,0,1,2.8-77.27A189,189,0,0,1,656.4,219c.35-1,.89-3,1.57-5.32-.68,2.37-1.22,4.31-1.57,5.32A189,189,0,0,0,651.06,237.58Z"/><path class="cls-1" d="M604.46,879.73l-.16.14Z"/><path class="cls-1" d="M1106.15,881.75q-63.35,11.84-127.74,17.92c-75.77,7.17-146.84,0-223-4.86-9.51-.6-30.22-5.25-50.2-9.39l-13.29-2.66c-10.94-2.1-20.68-3.67-27.09-3.89-5.8-1.12-11.68-2.39-17.71-3.94-9.47-2.42-18.92-5.3-28.28-8.57-1.36,1.32-2.72,2.63-4.1,3.93,7.43,2.44,14.89,4.73,22.38,6.64,6,1.55,11.91,2.82,17.71,3.94,6.41.21,16.15,1.78,27.09,3.89l13.29,2.66c20,4.14,40.69,8.79,50.2,9.39,76.18,4.85,147.25,12,223,4.86q64.3-6.09,127.74-17.92c7.93-1.48,16-3,24-2.27,3.13-.69,6.27-1.36,9.4-2C1121.74,878.89,1113.88,880.31,1106.15,881.75Z"/><path class="cls-1" d="M608,876.58l-.18.16Z"/><path class="cls-1" d="M389.54,850.3c18,9.94,37.08,24.38,57.65,44.45,1.4.93,2.79,1.8,4.17,2.58-1.38-.78-2.77-1.65-4.17-2.58C426.62,874.68,407.51,860.24,389.54,850.3Z"/><path class="cls-1" d="M693.8,15.59C797.94,15.59,841,41.38,861.68,96,841,41.38,797.94,15.59,693.8,15.59c-66.61,0-133.44,41-193.92,105C560.36,56.61,627.19,15.59,693.8,15.59Z"/><path class="cls-1" d="M665.8,193.5h0a164.41,164.41,0,0,1,37.32-57.35A164.41,164.41,0,0,0,665.8,193.5Z"/><path class="cls-1" d="M137.73,786.79C108.1,856.39,76.13,912.5,35,916.38h0C76.14,912.5,108.1,856.39,137.73,786.79Z"/><path class="cls-1" d="M670.79,375.21a55.9,55.9,0,0,1-9.16-14.65,55.9,55.9,0,0,0,9.16,14.65Z"/><path class="cls-1" d="M597.48,885.73l-.2.16Z"/><path class="cls-1" d="M1104,116.08a416,416,0,0,1,82.2-26.41A418.2,418.2,0,0,0,1098.78,116C1100.57,116,1102.32,116,1104,116.08Z"/><path class="cls-1" d="M1659.29,859.88c-1.62-.26-3.23-.49-4.85-.74a45.8,45.8,0,0,1-13.49-2c-2.19-.31-4.4-.64-6.59-.94q-8.58-1.17-17.09-2.25c-8.68-1.09-17.29-2.06-25.87-3q-11.24-1.2-22.37-2.2c-8-.72-15.94-1.4-23.85-2q-9-.64-17.84-1.17c-6.85-.41-13.66-.74-20.46-1q-12.75-.57-25.39-.9c-7.46-.19-14.91-.36-22.31-.43-6.43-.06-12.83,0-19.21,0q-8.17,0-16.3.2-15.54.27-30.92.92c-5.7.23-11.41.43-17.08.73-7,.38-14,.86-21,1.34q-6.4.45-12.8.95c-7.17.56-14.33,1.13-21.46,1.8l-3.78.39q-23,2.24-45.81,5.21c-3.2.42-6.41.83-9.61,1.27-7.63,1-15.25,2.11-22.84,3.27l-4.92.78q-39.14,6.07-77.87,14,33.79-6.68,67.87-12l4.92-.78c7.59-1.16,15.21-2.23,22.84-3.27,3.2-.44,6.41-.85,9.61-1.27q22.79-3,45.81-5.21l3.78-.39c7.13-.67,14.3-1.24,21.46-1.8q6.39-.51,12.8-.95c7-.48,14-1,21-1.34,5.67-.3,11.38-.5,17.08-.74q15.39-.61,30.92-.91,8.13-.15,16.3-.2c6.38,0,12.78-.06,19.21,0,7.4.07,14.85.24,22.31.43q12.63.31,25.39.9c6.8.3,13.61.63,20.46,1q8.88.52,17.84,1.17c7.91.58,15.87,1.26,23.85,2q11.15,1,22.37,2.2c8.58.92,17.19,1.89,25.87,3,5.67.71,11.38,1.47,17.09,2.25q12.39,1.71,24.93,3.66c4.91.76,9.77,1.46,14.71,2.27-.84-1.3-1.72-2.62-2.58-3.94Z"/><path class="cls-1" d="M1076.58,119.21c-114.31,18-345.2,233.52-374.79,261.52l6.65,1.18S950.91,149.28,1076.58,119.21Z"/><path class="cls-2" d="M495.4,125.43q2.24-2.42,4.48-4.8Q497.63,123,495.4,125.43Z"/><path class="cls-2" d="M488.11,133.47c.5-.56,1-1.12,1.49-1.67C489.1,132.35,488.61,132.91,488.11,133.47Z"/><path class="cls-2" d="M726.19,117.36c-.92.62-1.84,1.24-2.75,1.87C724.35,118.6,725.27,118,726.19,117.36Z"/><path class="cls-2" d="M291.45,507.22C328.71,376.11,398.74,236.36,482.8,139.51c-84.06,96.85-154.09,236.6-191.35,367.71-51.57,16.09-88.6,114.1-125.9,210.18C202.85,621.32,239.88,523.31,291.45,507.22Z"/><path class="cls-2" d="M718.42,122.87l-.76.58Z"/><path class="cls-2" d="M153.86,747.31q2-5.12,4-10.27Q155.88,742.2,153.86,747.31Z"/><path class="cls-2" d="M462.24,901.18c-3.12,0-6.91-1.57-10.88-3.85,4,2.28,7.76,3.85,10.88,3.85,29.22,14.2,62.41,20.44,92.78,10C524.65,921.62,491.46,915.38,462.24,901.18Z"/><path class="cls-2" d="M608,876.58q3.4-3.11,6.75-6.29h0Q611.38,873.47,608,876.58Z"/><path class="cls-2" d="M558.82,909.76c-1.26.5-2.52,1-3.8,1.41C556.3,910.73,557.56,910.26,558.82,909.76Z"/><path class="cls-2" d="M35,916.38h0c145.73,43.15,216.51-137.85,350.39-68.32C251.5,778.53,180.72,959.53,35,916.38Z"/><path class="cls-2" d="M160.94,729.27q1.23-3.15,2.45-6.31Q162.18,726.13,160.94,729.27Z"/><path class="cls-2" d="M389.54,850.3c-.8-.45-1.6-.87-2.4-1.3C387.94,849.43,388.74,849.85,389.54,850.3Z"/><path class="cls-2" d="M562.92,908.05c-1.17.52-2.35,1-3.55,1.5C560.57,909.07,561.75,908.57,562.92,908.05Z"/><path class="cls-2" d="M578.66,899.56c-1.11.71-2.24,1.4-3.37,2.07C576.42,901,577.55,900.27,578.66,899.56Z"/><path class="cls-2" d="M582.59,897c-1.11.75-2.23,1.49-3.35,2.21C580.36,898.48,581.48,897.74,582.59,897Z"/><path class="cls-2" d="M604.3,879.87q-3.37,3-6.82,5.86Q600.93,882.87,604.3,879.87Z"/><path class="cls-2" d="M607.79,876.74q-1.65,1.5-3.33,3Q606.14,878.25,607.79,876.74Z"/><path class="cls-2" d="M593.56,888.91c-1.09.86-2.19,1.72-3.29,2.56C591.37,890.63,592.47,889.77,593.56,888.91Z"/><path class="cls-2" d="M589.9,891.74c-2.28,1.73-4.58,3.39-6.92,5C585.32,895.13,587.62,893.47,589.9,891.74Z"/><path class="cls-2" d="M597.28,885.89c-1.09.91-2.2,1.8-3.3,2.68C595.08,887.69,596.19,886.8,597.28,885.89Z"/><path class="cls-2" d="M1302.86,506l.21.08q-28.75-17.14-57.25-32.94l.15.17Q1274.27,489,1302.86,506Z"/><path class="cls-2" d="M574.8,901.92c-1.19.7-2.38,1.38-3.58,2C572.42,903.3,573.61,902.62,574.8,901.92Z"/><path class="cls-2" d="M665.8,193.5h0a7.69,7.69,0,0,0-1.4,1.88A7.69,7.69,0,0,1,665.8,193.5Z"/><path class="cls-2" d="M663,198.22l0,.09Z"/><path class="cls-2" d="M703.12,136.15l.28-.26Z"/><path class="cls-2" d="M803.93,93.7a139.73,139.73,0,0,0-72.26,20.2,139,139,0,0,1,134.18-5.6c-1.28-4.26-2.67-8.35-4.17-12.3,1.5,4,2.89,8,4.17,12.3A139,139,0,0,0,803.93,93.7Z"/><path class="cls-2" d="M659.77,356.29c.59,1.43,1.21,2.86,1.86,4.27Q660.66,358.44,659.77,356.29Z"/><path class="cls-2" d="M662,200.76c-1.52,4.1-3,9.06-4,12.88C659.05,209.82,660.49,204.86,662,200.76Z"/><path class="cls-2" d="M567.09,906.1c-1.16.57-2.33,1.12-3.5,1.65C564.76,907.22,565.93,906.67,567.09,906.1Z"/><path class="cls-2" d="M571.2,904c-1.19.65-2.39,1.27-3.6,1.87C568.81,905.24,570,904.62,571.2,904Z"/><path class="cls-2" d="M1270.43,494.15c10.92,3.49,21.73,7.48,32.43,11.88q-28.58-17-56.89-32.69C1255.15,483.65,1265,492.4,1270.43,494.15Z"/><path class="cls-2" d="M1654.44,859.14q-6.76-1-13.49-2A45.8,45.8,0,0,0,1654.44,859.14Z"/><path class="cls-2" d="M527.63,818.36l0,0a280.89,280.89,0,0,1-23.86-20.08l0,.11C463,760,438,711.38,444.71,657.93l.06.05A143.45,143.45,0,0,1,448,640.09C476.58,528.52,593.3,462,708.74,491.56a220.85,220.85,0,0,1,92,48.62c-9.07-80.27-58.34-141.77-173.94-171.34q-10.21-2.61-20.38-4.71l1.38-.15,63,11.23a55.9,55.9,0,0,1-9.16-14.65c-.65-1.41-1.27-2.84-1.86-4.27l-.22-.52c-5.5-12.76-9.08-26.92-11.29-40.91a203.39,203.39,0,0,1,2.8-77.28A189,189,0,0,1,656.4,219c.35-1,.89-3,1.57-5.32,1.08-3.82,2.52-8.78,4-12.88.32-.86.64-1.69,1-2.45l0-.09a29.12,29.12,0,0,1,1.39-2.84,7.69,7.69,0,0,1,1.4-1.88,164.41,164.41,0,0,1,37.32-57.35l.28-.26a152.64,152.64,0,0,1,14.26-12.44l.76-.58q2.48-1.87,5-3.64c.91-.63,1.83-1.25,2.75-1.87,1.8-1.19,3.63-2.35,5.48-3.46a139,139,0,0,1,134.18-5.6c-1.28-4.26-2.67-8.35-4.17-12.3C841,41.38,797.94,15.59,693.8,15.59c-66.61,0-133.44,41-193.92,105q-2.25,2.39-4.48,4.8-2.91,3.15-5.8,6.37c-.5.55-1,1.11-1.49,1.67q-2.66,3-5.31,6c-84.06,96.85-154.09,236.6-191.35,367.71-51.57,16.09-88.6,114.1-125.9,210.18L163.39,723q-1.21,3.16-2.45,6.31l-3,7.77q-2,5.16-4,10.27-1.79,4.49-3.56,8.94c-1.19,3-2.38,5.92-3.57,8.85q-4.47,11-9,21.69C108.1,856.39,76.14,912.5,35,916.38c145.72,43.15,216.5-137.85,350.38-68.32l1.76.94c.8.43,1.6.85,2.4,1.3,18,9.94,37.08,24.38,57.65,44.45,1.4.93,2.79,1.8,4.17,2.58,4,2.28,7.76,3.85,10.88,3.85,29.22,14.2,62.41,20.44,92.78,10,1.28-.44,2.54-.91,3.8-1.41l.55-.21c1.2-.48,2.38-1,3.55-1.5l.67-.3c1.17-.53,2.34-1.08,3.5-1.65l.51-.26c1.21-.6,2.41-1.22,3.6-1.87h0c1.2-.66,2.39-1.34,3.58-2l.49-.29c1.13-.67,2.26-1.36,3.37-2.07l.58-.36c1.12-.72,2.24-1.46,3.35-2.21l.39-.27c2.34-1.59,4.64-3.25,6.92-5l.37-.27c1.1-.84,2.2-1.7,3.29-2.56l.42-.34c1.1-.88,2.21-1.77,3.3-2.68l.2-.16q3.45-2.87,6.82-5.86l.16-.14q1.68-1.49,3.33-3l.18-.16q3.4-3.11,6.75-6.29h0c1.38-1.3,2.74-2.61,4.1-3.93C586.15,855,554.68,838.6,527.63,818.36Z"/><path class="cls-3" d="M1130.19,879.48q12.68-2.79,25.38-5.39-13,2.58-26,5.36Z"/><path class="cls-3" d="M1379.38,96.36c116.5,29.8,179.83,89.44,192.14,164.68q6.12,5.61,11.66,11.59c-6.62-81.62-70.36-146.69-193.8-178.27a447.86,447.86,0,0,0-203.15-4.69A448.5,448.5,0,0,1,1379.38,96.36Z"/><path class="cls-3" d="M1094,118.08c1.58-.7,3.17-1.36,4.75-2a108.94,108.94,0,0,0-22.2,3.17A88,88,0,0,1,1094,118.08Z"/><path class="cls-3" d="M1362.49,542.54l9,5.69.14.09c.63.63,1.54,1.4,2.33,2.11a648.83,648.83,0,0,1,63.7,46.08c.17-.08.33-.2.5-.28,73.31,53.37,157.68,163.58,221.66,261.58l2.39.46h0l-1.85.36,1,1.57c4.18.63,8.36,1.24,12.58,1.94-64.44-99.53-150.93-213.39-225.81-267.91-.17.08-.33.2-.5.28-43.09-35.28-92.36-66.88-144.62-88.4q29,17.26,58.11,35.62Z"/><path class="cls-3" d="M1242,317a9.77,9.77,0,0,0-1.87,1.74c-7.86,10.23-11.83,26.89-15.48,39a247.4,247.4,0,0,0-10.23,83,106.17,106.17,0,0,0,2.13,16.68q14.57,7.65,29.23,15.75c-11-12.38-21-27-21.36-34.43a247.43,247.43,0,0,1,10.23-83c3.65-12.15,7.62-28.81,15.48-39A9.77,9.77,0,0,1,1252,315c15-54.3,62.33-93,121.58-106.35C1309.74,219.71,1257.83,259.64,1242,317Z"/><path class="cls-3" d="M1260.43,496.15c4.33,1.38,8.61,3,12.9,4.57-14.24-15.94-32.34-28.68-55.24-37.5,1.88,5.95,4.58,11.56,9,16.18C1235.62,488.49,1248.41,492.29,1260.43,496.15Z"/><path class="cls-3" d="M672.5,377l.55.48a22.18,22.18,0,0,0,5.27,2.88l18.59,3.31,2.05-.23,2.83-2.68-31-5.52c.54.58,1.08,1.16,1.65,1.71Z"/><path class="cls-1" d="M696.91,383.64l-18.59-3.31a22.18,22.18,0,0,1-5.27-2.88c4.24,3.5,12.2,5.51,20.37,6.58Z"/><path class="cls-3" d="M696.91,383.64l-18.59-3.31a22.18,22.18,0,0,1-5.27-2.88c4.24,3.5,12.2,5.51,20.37,6.58Z"/><path class="cls-1" d="M935.47,370.64c87.77,0,182.81,35.19,281.12,86.78a106.17,106.17,0,0,1-2.13-16.68,247.4,247.4,0,0,1,10.23-83c3.65-12.15,7.62-28.81,15.48-39A9.77,9.77,0,0,1,1242,317c15.79-57.32,67.7-97.25,131.58-108.35,32.08-7.24,67.64-7.06,103.42,2.09,37.14,9.5,69.4,27.38,94.48,50.34-12.31-75.24-75.64-134.88-192.14-164.68a448.5,448.5,0,0,0-193.15-6.69,416,416,0,0,0-82.2,26.41c-1.71-.08-3.46-.09-5.25,0-1.58.68-3.17,1.34-4.75,2a88,88,0,0,0-17.45,1.13c-125.67,30.07-368.14,262.7-368.14,262.7l-6.65-1.18L699,383.41A2221.14,2221.14,0,0,1,935.47,370.64Z"/><path class="cls-3" d="M935.47,370.64c87.77,0,182.81,35.19,281.12,86.78a106.17,106.17,0,0,1-2.13-16.68,247.4,247.4,0,0,1,10.23-83c3.65-12.15,7.62-28.81,15.48-39A9.77,9.77,0,0,1,1242,317c15.79-57.32,67.7-97.25,131.58-108.35,32.08-7.24,67.64-7.06,103.42,2.09,37.14,9.5,69.4,27.38,94.48,50.34-12.31-75.24-75.64-134.88-192.14-164.68a448.5,448.5,0,0,0-193.15-6.69,416,416,0,0,0-82.2,26.41c-1.71-.08-3.46-.09-5.25,0-1.58.68-3.17,1.34-4.75,2a88,88,0,0,0-17.45,1.13c-125.67,30.07-368.14,262.7-368.14,262.7l-6.65-1.18L699,383.41A2221.14,2221.14,0,0,1,935.47,370.64Z"/><path class="cls-1" d="M1654.44,859.14c1.62.25,3.23.48,4.85.74l2.13.32-1-1.57A38.23,38.23,0,0,1,1654.44,859.14Z"/><path class="cls-3" d="M1654.44,859.14c1.62.25,3.23.48,4.85.74l2.13.32-1-1.57A38.23,38.23,0,0,1,1654.44,859.14Z"/><path class="cls-1" d="M672.44,376.92l.06.05-.06-.05c-.57-.55-1.11-1.13-1.65-1.71h0C671.33,375.79,671.87,376.37,672.44,376.92Z"/><path class="cls-3" d="M672.44,376.92l.06.05-.06-.05c-.57-.55-1.11-1.13-1.65-1.71h0C671.33,375.79,671.87,376.37,672.44,376.92Z"/><path class="cls-1" d="M1662.24,858.27l-2.39-.46c-64-98-148.35-208.21-221.66-261.58-.17.08-.33.2-.5.28a648.83,648.83,0,0,0-63.7-46.08c-.79-.71-1.7-1.48-2.33-2.11l-.14-.09.14.09c9.68,9.68,38.74,29.06,48.43,38.74,48.18,48.19,135.09,225.21,207.32,264.38q17.7,3.6,34.83,6.83Z"/><path class="cls-3" d="M1662.24,858.27l-2.39-.46c-64-98-148.35-208.21-221.66-261.58-.17.08-.33.2-.5.28a648.83,648.83,0,0,0-63.7-46.08c-.79-.71-1.7-1.48-2.33-2.11l-.14-.09.14.09c9.68,9.68,38.74,29.06,48.43,38.74,48.18,48.19,135.09,225.21,207.32,264.38q17.7,3.6,34.83,6.83Z"/><path class="cls-1" d="M1361.18,541.73l1.31.81Z"/><path class="cls-3" d="M1361.18,541.73l1.31.81Z"/><path class="cls-1" d="M1238.36,859.34c7.59-1.16,15.21-2.23,22.84-3.27,3.2-.44,6.41-.85,9.61-1.27q22.79-3,45.81-5.21l3.78-.39c7.13-.67,14.29-1.24,21.46-1.8q6.39-.51,12.8-.95c7-.48,14-1,21-1.34,5.67-.3,11.38-.5,17.08-.73q15.39-.63,30.92-.92,8.13-.15,16.3-.2c6.38,0,12.78-.06,19.21,0,7.4.07,14.85.24,22.31.43q12.63.31,25.39.9c6.8.3,13.61.63,20.46,1q8.88.52,17.84,1.17c7.91.58,15.87,1.26,23.85,2q11.15,1,22.37,2.2c8.58.92,17.19,1.89,25.87,3q8.51,1.06,17.09,2.25c2.19.3,4.4.63,6.59.94a69.82,69.82,0,0,1-13.54-5.71c-148.69-30.29-323.11-78.21-359.86-53a170,170,0,0,1-16.69,10.07l-125.73,66.33-5.57,3.88c-37.52-33.77-61.73-86.52-61.73-145.9,0-102,71.22-184.63,159.08-184.63,35.61,0,68.49,13.59,95,36.54-16-82.76-67.1-136-183.72-136-136,0-239.05,77.56-314.46,191.23-6.14,7.19-11.86,14.94-17.52,22.64A1623.23,1623.23,0,0,1,622.53,862.76l-3.71,3.6c9.36,3.27,18.81,6.15,28.28,8.57,6,1.55,11.91,2.82,17.71,3.94,6.41.22,16.15,1.79,27.09,3.89l13.29,2.66c20,4.14,40.69,8.79,50.2,9.39,76.18,4.85,147.25,12,223,4.86q64.3-6.09,127.74-17.92c7.73-1.44,15.59-2.86,23.44-2.3q13-2.79,26-5.36,38.76-7.9,77.87-14Zm35-358.62c-4.29-1.54-8.57-3.19-12.9-4.57-12-3.86-24.81-7.66-33.39-16.75-4.37-4.62-7.07-10.23-9-16.18C1241,472,1259.09,484.78,1273.33,500.72Z"/><path class="cls-3" d="M1238.36,859.34c7.59-1.16,15.21-2.23,22.84-3.27,3.2-.44,6.41-.85,9.61-1.27q22.79-3,45.81-5.21l3.78-.39c7.13-.67,14.29-1.24,21.46-1.8q6.39-.51,12.8-.95c7-.48,14-1,21-1.34,5.67-.3,11.38-.5,17.08-.73q15.39-.63,30.92-.92,8.13-.15,16.3-.2c6.38,0,12.78-.06,19.21,0,7.4.07,14.85.24,22.31.43q12.63.31,25.39.9c6.8.3,13.61.63,20.46,1q8.88.52,17.84,1.17c7.91.58,15.87,1.26,23.85,2q11.15,1,22.37,2.2c8.58.92,17.19,1.89,25.87,3q8.51,1.06,17.09,2.25c2.19.3,4.4.63,6.59.94a69.82,69.82,0,0,1-13.54-5.71c-148.69-30.29-323.11-78.21-359.86-53a170,170,0,0,1-16.69,10.07l-125.73,66.33-5.57,3.88c-37.52-33.77-61.73-86.52-61.73-145.9,0-102,71.22-184.63,159.08-184.63,35.61,0,68.49,13.59,95,36.54-16-82.76-67.1-136-183.72-136-136,0-239.05,77.56-314.46,191.23-6.14,7.19-11.86,14.94-17.52,22.64A1623.23,1623.23,0,0,1,622.53,862.76l-3.71,3.6c9.36,3.27,18.81,6.15,28.28,8.57,6,1.55,11.91,2.82,17.71,3.94,6.41.22,16.15,1.79,27.09,3.89l13.29,2.66c20,4.14,40.69,8.79,50.2,9.39,76.18,4.85,147.25,12,223,4.86q64.3-6.09,127.74-17.92c7.73-1.44,15.59-2.86,23.44-2.3q13-2.79,26-5.36,38.76-7.9,77.87-14Zm35-358.62c-4.29-1.54-8.57-3.19-12.9-4.57-12-3.86-24.81-7.66-33.39-16.75-4.37-4.62-7.07-10.23-9-16.18C1241,472,1259.09,484.78,1273.33,500.72Z"/><path class="cls-2" d="M672.5,377l.55.48Z"/><path class="cls-3" d="M672.5,377l.55.48Z"/><path class="cls-2" d="M1362.49,542.54l9,5.69Z"/><path class="cls-3" d="M1362.49,542.54l9,5.69Z"/><path class="cls-2" d="M1660.39,858.63l1.85-.36h0c-.64.14-1.3.12-1.94.23Z"/><path class="cls-3" d="M1660.39,858.63l1.85-.36h0c-.64.14-1.3.12-1.94.23Z"/><path class="cls-2" d="M698.92,383.45l0,0-2.05.23H697Z"/><path class="cls-3" d="M698.92,383.45l0,0-2.05.23H697Z"/><path class="cls-2" d="M1361.18,541.73q-29.15-18.29-58.11-35.62l-.21-.08Q1331.92,523.31,1361.18,541.73Z"/><path class="cls-3" d="M1361.18,541.73q-29.15-18.29-58.11-35.62l-.21-.08Q1331.92,523.31,1361.18,541.73Z"/><path class="cls-2" d="M1216.61,457.53q14.64,7.68,29.36,15.81l-.15-.17q-14.65-8.1-29.23-15.75A.43.43,0,0,1,1216.61,457.53Z"/><path class="cls-3" d="M1216.61,457.53q14.64,7.68,29.36,15.81l-.15-.17q-14.65-8.1-29.23-15.75A.43.43,0,0,1,1216.61,457.53Z"/><path class="cls-2" d="M1420.09,587.06c-9.69-9.68-38.75-29.06-48.43-38.74l-.14-.09-9-5.69-1.31-.81q-29.25-18.35-58.32-35.7c-10.7-4.4-21.51-8.39-32.43-11.88-5.46-1.75-15.28-10.5-24.46-20.81q-14.71-8.11-29.36-15.81a.43.43,0,0,0,0-.11c-98.31-51.59-193.35-86.78-281.12-86.78A2221.14,2221.14,0,0,0,699,383.41l0,0-1.93.2h-.08l-3.49.39c-8.17-1.07-16.13-3.08-20.37-6.58l-.55-.48-.06-.05c-.57-.55-1.11-1.13-1.65-1.71l-63-11.23-1.38.15q10.17,2.12,20.38,4.71c115.6,29.57,164.87,91.07,173.94,171.34a220.85,220.85,0,0,0-92-48.62C593.3,462,476.58,528.52,448,640.09A143.45,143.45,0,0,0,444.77,658l-.06-.05C438,711.38,463,760,503.77,798.35l0-.11a280.89,280.89,0,0,0,23.86,20.08l0,0c27,20.24,58.52,36.6,91.19,48l3.71-3.6A1623.23,1623.23,0,0,0,796.21,662.63c5.66-7.7,11.38-15.45,17.52-22.64,75.41-113.67,178.43-191.23,314.46-191.23,116.62,0,167.72,53.19,183.72,136-26.51-23-59.39-36.54-95-36.54-87.86,0-159.08,82.66-159.08,184.63,0,59.38,24.21,112.13,61.73,145.9l5.57-3.88,125.73-66.33a170,170,0,0,0,16.69-10.07c36.75-25.19,211.17,22.73,359.86,53C1555.18,812.27,1468.27,635.25,1420.09,587.06Z"/><path class="cls-3" d="M1420.09,587.06c-9.69-9.68-38.75-29.06-48.43-38.74l-.14-.09-9-5.69-1.31-.81q-29.25-18.35-58.32-35.7c-10.7-4.4-21.51-8.39-32.43-11.88-5.46-1.75-15.28-10.5-24.46-20.81q-14.71-8.11-29.36-15.81a.43.43,0,0,0,0-.11c-98.31-51.59-193.35-86.78-281.12-86.78A2221.14,2221.14,0,0,0,699,383.41l0,0-1.93.2h-.08l-3.49.39c-8.17-1.07-16.13-3.08-20.37-6.58l-.55-.48-.06-.05c-.57-.55-1.11-1.13-1.65-1.71l-63-11.23-1.38.15q10.17,2.12,20.38,4.71c115.6,29.57,164.87,91.07,173.94,171.34a220.85,220.85,0,0,0-92-48.62C593.3,462,476.58,528.52,448,640.09A143.45,143.45,0,0,0,444.77,658l-.06-.05C438,711.38,463,760,503.77,798.35l0-.11a280.89,280.89,0,0,0,23.86,20.08l0,0c27,20.24,58.52,36.6,91.19,48l3.71-3.6A1623.23,1623.23,0,0,0,796.21,662.63c5.66-7.7,11.38-15.45,17.52-22.64,75.41-113.67,178.43-191.23,314.46-191.23,116.62,0,167.72,53.19,183.72,136-26.51-23-59.39-36.54-95-36.54-87.86,0-159.08,82.66-159.08,184.63,0,59.38,24.21,112.13,61.73,145.9l5.57-3.88,125.73-66.33a170,170,0,0,0,16.69-10.07c36.75-25.19,211.17,22.73,359.86,53C1555.18,812.27,1468.27,635.25,1420.09,587.06Z"/><path class="cls-2" d="M1660.39,858.63l-.09-.13c.64-.11,1.3-.09,1.94-.23q-17.1-3.21-34.83-6.83a69.82,69.82,0,0,0,13.54,5.71q6.73,1,13.49,2A38.23,38.23,0,0,0,1660.39,858.63Z"/><path class="cls-3" d="M1660.39,858.63l-.09-.13c.64-.11,1.3-.09,1.94-.23q-17.1-3.21-34.83-6.83a69.82,69.82,0,0,0,13.54,5.71q6.73,1,13.49,2A38.23,38.23,0,0,0,1660.39,858.63Z"/><rect class="cls-4" x="944" y="500.5" width="292" height="284" rx="12"/><rect class="cls-4" x="823" y="428.5" width="335" height="247" rx="12"/><ellipse class="cls-4" cx="1162" cy="567" rx="148" ry="114.5"/><path class="cls-4" d="M1194,812.5c0,76.22-179.37,90-336.5,90S529,867.72,529,791.5s171.37-165,328.5-165S1194,736.28,1194,812.5Z"/></g><g id="little_dude" data-name="little dude"><path class="cls-5" d="M566.89,652.38a229.88,229.88,0,0,0,18.73,33.27A171.39,171.39,0,0,0,607,711.7c6,5.94,12.81,11.67,20.62,15.13a26.35,26.35,0,0,0,8.16,2.25c2.21.21,4.33-.67,6.54-.56a23.48,23.48,0,0,1,6.59,1.62,6.37,6.37,0,0,0,3.44.56,4.86,4.86,0,0,0,3-2.47,60,60,0,0,0,3.26-6.58,71,71,0,0,0,3.76-11.45,117.17,117.17,0,0,0,3-29.16,136.91,136.91,0,0,0-4.51-33.21,112.56,112.56,0,0,0-13.91-32.14c-7.65-11.89-12.65-20-19.13-29.73a62.57,62.57,0,0,1-5.91-10.49,81.07,81.07,0,0,0-9.24-17.31c-5.4-10.38-13.18-22.51-19.64-28.85l-.86-.86-11-20.13c-1.49-3.25-3.57,1.64-6.82,3.13l-1.36.63c-3.25,1.49-3.33,4.74-1.84,8l4.38,9.54a30.49,30.49,0,0,0-2,5.88,18.23,18.23,0,0,0-6.33,2.34,95,95,0,0,0-13.17,9.4l-1.3-5c-.26-.7-1.42-3.86-1.67-3.64a6.49,6.49,0,0,1-4.33,1.92l-3.36.51c-1.8.67-4.3-.14-3.63,1.67l4.87,19.06c-2,10.85,5.18,23.08,10,44.53C557.14,617.77,561.42,640.45,566.89,652.38Z"/><path class="cls-6" d="M543.41,658.75c17,19.34,34.2,28,44.82,31.49-4.39-7-22.05-35.64-25.33-48.12l-1-.65C535.6,624.92,524.6,598.78,518,604.62S522.19,634.62,543.41,658.75Z"/><path class="cls-6" d="M651,732.62a31.35,31.35,0,0,0,4.54-2.08,18.51,18.51,0,0,1,8-2.29,19.74,19.74,0,0,1,8.17,1.55,6.87,6.87,0,0,0,3.29.94,3.14,3.14,0,0,0,2.34-1.32c.68-1,.37-2.1.06-3.19q-.72-2.52-1.52-5-1.58-5-3.42-10c-.41-1.1-.83-2.19-1.26-3.29a25.47,25.47,0,0,1-1.8-5.82,24.42,24.42,0,0,1,.25-6.44c6-49,2.69-100.17-17.33-145.32A57.3,57.3,0,0,0,644.64,537c-.56-.68-1.32-1.41-2.2-1.25-1.07.19-1.45,1.51-1.55,2.59-1.09,11.26,3.48,22.17,6.81,33,8.77,28.49-1.73,60.1,4.38,89.27,4.63,22.09,6.49,33.33,3.23,50.23-1.1,5.7-3.78,6.14-3.49,13.64.1,2.62-2.49,7.23.09,7.72C652.16,732.25,650.75,732.65,651,732.62Z"/><path class="cls-7" d="M559.73,492.84l4.21-5.23c8.37,3.86,11.22-9.11,14-3.11l1.1,7.2c-2,7.53-.79,10.26,2.13,16.62l-9.39,13.11c1.32.49-4.32-4.62-7.24-11l-7.31-8.75C545.76,496,553.74,495.59,559.73,492.84Z"/><path class="cls-7" d="M515,517.73l17.54-2.54c6-2.75,12.27-18.83,15.3-2.62l1.22,17c2.75,6,8.39,19.25,2.39,22l-9.13-7.92c-6,2.75,0-14.32-23.56-17.8l-7.47-4.27C516.71,521.37,509.05,520.48,515,517.73Z"/><path class="cls-7" d="M638.74,777.85c4.49-4.52,24.78-9,28.59-12a3.37,3.37,0,0,0,.43-.4,22.19,22.19,0,0,0,6.92-5.17c8.18-9,6.32-24.59,2.87-32.12-3.75-8.18-34.24,6.91-33,9.63C647,743,643,752.48,641.9,759.12c-.94,1.42-2.11,3.29-3.62,5.74-13.25,21.48-23.33,24.26-25.49,26C609.58,793.42,626.7,790,638.74,777.85Z"/><path class="cls-8" d="M627,781c-1.56,1.25,12.21-8.72,17-13.3s5.92-7.59,4.77-8.79-5.38.27-6.85,4.25C639.89,768.66,630.22,778.46,627,781Z"/><path class="cls-8" d="M664.47,731.14a7.21,7.21,0,0,1,3.37,3.06,9.57,9.57,0,0,1,.81,5.73c-.63,5.2,4.09,9.12,7.35,7.63s3.25-13.32,1.06-18.09c-1.93-4.21-7.67-5.41-20.66.5a26,26,0,0,1,3.42,0A13.79,13.79,0,0,1,664.47,731.14Z"/><path class="cls-8" d="M621.21,723.67a20.22,20.22,0,0,0,4.88,2.75c2.59,1,5.18,2.06,7.76,3.14,2.11.84,4.26,1.69,6.28,2.74a6.88,6.88,0,0,1,2.45,2c.9,1.27,1.11,3,2.12,4.15a1.9,1.9,0,0,0,1.2.74c2,.19,3.22-2.41,4-3.89a12.68,12.68,0,0,0,1-2.57l.15-.09h0c1.93-1,3.72-1.89,5.4-2.65-.42,0-.84,0-1.26.06-1.14.09-2.29.22-3.42.41a3.91,3.91,0,0,1-.48,0h.21l-.11,0h-.26l-.09,0h0l.25,0H651c-.13-2.41-.63-5.42-1.8-6.88a6.15,6.15,0,0,0-4-1.84,23.23,23.23,0,0,0-5.27-.09,70.91,70.91,0,0,1-12.19.24,23.78,23.78,0,0,1-11.13-3.63l-7.89-5.9Z"/></g><g id="Layer_13" data-name="Layer 13"><path class="cls-9" d="M892.36,516.73a26.83,26.83,0,0,1-4.5,15.06,31.36,31.36,0,0,1-12.32,10.82,37.63,37.63,0,0,1-17.34,4,45.66,45.66,0,0,1-9.26-.91q-8.48-1.83-13.17-7a28.69,28.69,0,0,1-6.33-10.1,26.85,26.85,0,0,1-1.63-7.05l-.13-2.47a26.24,26.24,0,0,1,2.74-12.2,20.64,20.64,0,0,1,7.11-8.08,16.74,16.74,0,0,1,9.19-2.8,13.72,13.72,0,0,1,4,.52c3.4,1,5.61,2.78,6.66,5.21v.13c0,.27-.22.4-.66.4a1.86,1.86,0,0,1-1.17-.4,7.49,7.49,0,0,0-6.52-3.12q-6.14,0-10,6a25.58,25.58,0,0,0-3.84,14.09A26.29,26.29,0,0,0,840.4,535q5.15,6.9,15.32,7.82,14.34.27,19.3-6.59a24.18,24.18,0,0,0,5-14.4,31.31,31.31,0,0,0-3.65-14.61,62.93,62.93,0,0,0-8.8-12.84q-5.14-5.81-14.15-14.67-8.48-8.08-13.56-13.76a60.09,60.09,0,0,1-8.54-12.26,28.77,28.77,0,0,1-3.46-13.49q-.12-12.26,6.59-18.32a23.7,23.7,0,0,1,16.5-6.07q10.17,0,16.69.13,2.73-.26,5.73-.72a11.26,11.26,0,0,0,3.52-.84,1.06,1.06,0,0,1,.79-.26,1.42,1.42,0,0,1,.65.13,1.39,1.39,0,0,1,.39.26c0-.26-.39.69-1.17,2.87a57.5,57.5,0,0,0-2.15,8.08,52.67,52.67,0,0,0-1,10.56c0,1.22.08,3.13.26,5.74,0,1.31-.57,2-1.7,2a6.25,6.25,0,0,1-2.74-.79l-1-.52c.09-.34.26-1.19.52-2.54a23.87,23.87,0,0,0,.39-4.5q0-9.64-6.39-13.69a18.68,18.68,0,0,0-9.38-2.22,21.67,21.67,0,0,0-9.72,2.22,11.89,11.89,0,0,0-6.06,5.87,17.1,17.1,0,0,0-1.31,6.39q0,9.78,10.3,22.3,4.57,5.47,13.7,14.6,12.25,12.26,21.64,23.08T892.36,516.73Z"/><path class="cls-9" d="M902.34,485.89c-1.35-2-4-3.11-7.89-3.19a1,1,0,0,1-.79-.33,1.16,1.16,0,0,1-.26-.72.78.78,0,0,1,.26-.52,1.11,1.11,0,0,1,.79-.26h2.21c.7,0,2.16-.06,4.37-.2s3.89-.28,5-.45a24.19,24.19,0,0,0,5.15-1.5,13.33,13.33,0,0,0,3.2-1.76,2.26,2.26,0,0,1,.91-.39.69.69,0,0,1,.78.78c0,.17-.06.83-.19,2s-.24,2.73-.33,4.82a16.8,16.8,0,0,1,5.09-4,26.67,26.67,0,0,1,8.86-3.13,25.62,25.62,0,0,1,4.44-.39,25.27,25.27,0,0,1,14.28,4.37,30.49,30.49,0,0,1,10.49,12.32,40.2,40.2,0,0,1,3.92,18l-.13,2.87a40.86,40.86,0,0,1-3.85,14.93,32.48,32.48,0,0,1-10.11,12.52,25.83,25.83,0,0,1-16,5c-.87,0-2.26-.09-4.17-.26a24.4,24.4,0,0,1-8.61-2.74c-2.52-1.39-4-2.65-4.43-3.78v45.77q0,7.7,6,7.69a.79.79,0,0,1,.65.33,1.16,1.16,0,0,1,.26.72c0,.52-.3.78-.91.78H898.36a1.06,1.06,0,0,1-.78-.26.74.74,0,0,1-.26-.52,1.1,1.1,0,0,1,.26-.72.92.92,0,0,1,.78-.33q3.52,0,4.69-2.21a12.68,12.68,0,0,0,1.31-5.48v-93A12,12,0,0,0,902.34,485.89Zm16,51.12a16,16,0,0,0,5.34,2.87,16.26,16.26,0,0,0,4.11.84q10.81.79,16.69-7.56t5.87-21.78q0-13-5.09-21.19T930.83,482a16.57,16.57,0,0,0-2.35.13,17.28,17.28,0,0,0-8.67,3.85c-2.83,2.22-4.33,4.54-4.5,7v38.6A8.25,8.25,0,0,0,918.38,537Z"/><path class="cls-9" d="M989.25,544.77a.89.89,0,0,1,.26.65.76.76,0,0,1-.26.52,1.1,1.1,0,0,1-.78.26H965.78a1.11,1.11,0,0,1-.79-.26.76.76,0,0,1-.26-.52.79.79,0,0,1,.33-.65,1.11,1.11,0,0,1,.72-.27c3.39,0,5.34-2,5.87-6V425.84A10.41,10.41,0,0,0,969,420.1q-2.22-2.48-7.31-2.6a.81.81,0,0,1-.65-.33,1,1,0,0,1-.26-.59c0-.52.31-.78.91-.78H964c.7,0,2.17-.08,4.43-.26s3.92-.35,5-.52a21,21,0,0,0,5.22-1.37,10.61,10.61,0,0,0,3.13-1.76,2.21,2.21,0,0,1,1-.39.88.88,0,0,1,.52.19.48.48,0,0,1,.13.59c0,.26-.09,1.39-.26,3.39s-.35,4.91-.52,8.74V538.77a8.61,8.61,0,0,0,1.63,4.17c.82,1,2.24,1.56,4.24,1.56A1.06,1.06,0,0,1,989.25,544.77Z"/><path class="cls-9" d="M1012.33,546.33q-8.22,0-12.72-3.13a15.18,15.18,0,0,1-5.93-7,18.32,18.32,0,0,1-1.3-7,16.28,16.28,0,0,1,4.1-10.5,23.73,23.73,0,0,1,8.61-5.93,106.11,106.11,0,0,1,12.32-3.91q5.08-1.3,7.5-2.16a7,7,0,0,0,3.46-2.28l.13-6.13A28.5,28.5,0,0,0,1026,485.5q-2.54-5.14-9.84-5.15-5.48,0-8.48,3.19a10,10,0,0,0-3,7,5.66,5.66,0,0,0,.66,3,11,11,0,0,0,1.82,2.22,7.51,7.51,0,0,1,1.7,2,6.15,6.15,0,0,1,.52,2.8,5.28,5.28,0,0,1-1.7,3.78,5.37,5.37,0,0,1-3.78,1.44,5.74,5.74,0,0,1-3.45-1.18,6.78,6.78,0,0,1-2.42-3.52,14.86,14.86,0,0,1-.78-4.95,19.63,19.63,0,0,1,2.35-9.2,19.16,19.16,0,0,1,7.3-7.49,23.28,23.28,0,0,1,12.26-3q9.9,0,15.19,6.39t5.28,17.86v33a40.83,40.83,0,0,0,.26,5.09,7.73,7.73,0,0,0,1.7,3.78c1,1.22,2.52,1.83,4.69,1.83a.92.92,0,0,1,.78.32,1.1,1.1,0,0,1,.26.72c0,.52-.34.78-1,.78h-17.86v-4.43Q1021.85,546.33,1012.33,546.33Zm-5-7.63a14.44,14.44,0,0,0,9.32,3.07,18.17,18.17,0,0,0,7.43-1.5q3.39-1.5,4.31-3.59V508.51a9.33,9.33,0,0,1-2.81,1.5c-1.26.48-2.63.94-4.11,1.37a83.32,83.32,0,0,0-9,3.59,17.51,17.51,0,0,0-6.33,5.22,14.18,14.18,0,0,0-2.67,8.93Q1003.46,535.65,1007.31,538.7Z"/><path class="cls-9" d="M1064.62,496.26a80.49,80.49,0,0,0,11.47,6.65A118.22,118.22,0,0,1,1087.5,509a25.6,25.6,0,0,1,7.43,7.1,17.57,17.57,0,0,1,3.07,10.37,17.39,17.39,0,0,1-3.39,10.43,22.41,22.41,0,0,1-9.13,7.3,29.6,29.6,0,0,1-12.39,2.61,35.31,35.31,0,0,1-6.26-.65q-8.73-1.83-13.49-7.11a16.72,16.72,0,0,1-4.76-11.41,11.83,11.83,0,0,1,3.91-9.25,8.15,8.15,0,0,1,2.8-1.83,9,9,0,0,1,3.33-.65,5.7,5.7,0,0,1,4.69,2.08,4.25,4.25,0,0,1,.78,2.35,4.16,4.16,0,0,1-1.43,3.07,4.6,4.6,0,0,1-3.26,1.36,5.85,5.85,0,0,1-2-.52,2.32,2.32,0,0,0-1-.26,2.35,2.35,0,0,0-1.69.78,5.67,5.67,0,0,0-1.18,3.92,12.27,12.27,0,0,0,3.39,8.08q3.39,3.91,10.3,5.22a21,21,0,0,0,4.83.52,15.72,15.72,0,0,0,11.21-4,13.08,13.08,0,0,0,4.31-9.91,9.79,9.79,0,0,0-2.22-6.46,20.29,20.29,0,0,0-5.48-4.56q-3.25-1.89-9.13-4.63a102.54,102.54,0,0,1-10.82-5.54,24.41,24.41,0,0,1-7-6.46,15.67,15.67,0,0,1-2.87-9.52,13.09,13.09,0,0,1,5.35-10.82q5.34-4.17,14.34-4.17a24.44,24.44,0,0,1,7.24,1,49.74,49.74,0,0,1,5.41,1.95c1.48.65,2.43,1.07,2.87,1.24a33.48,33.48,0,0,0,3.13,1.24,9.37,9.37,0,0,0,3,.59,5.08,5.08,0,0,0,2.08-.4,2,2,0,0,1,.79-.13c.69,0,1,.31,1,.92a1.85,1.85,0,0,1-1,1.56c-.35.18-.87.48-1.57.91a9.45,9.45,0,0,0-2.35,2.48q-.25.39-2.6,4.7a37.27,37.27,0,0,1-2.22,4.17,2.56,2.56,0,0,1-2.09,1.3,1.53,1.53,0,0,1-1.37-.71,1.08,1.08,0,0,1,.07-1.37,9.07,9.07,0,0,0,1.11-3.2c.3-1.52.5-2.54.58-3.06a6.83,6.83,0,0,0-2.08-5.22,13.42,13.42,0,0,0-4.63-2.87,13.16,13.16,0,0,0-4.11-.91q-6.39-.25-9.19,2.48a8.51,8.51,0,0,0-2.81,6.26A8.32,8.32,0,0,0,1064.62,496.26Z"/><path class="cls-9" d="M1171.28,544.77a.85.85,0,0,1,.26.65.72.72,0,0,1-.26.52,1.06,1.06,0,0,1-.78.26h-23a1.06,1.06,0,0,1-.78-.26.72.72,0,0,1-.26-.52.81.81,0,0,1,.32-.65,1.11,1.11,0,0,1,.72-.27q4.56,0,5.61-4.69v-30.9q0-11.75-4.37-19.43t-14.15-7.7a22.44,22.44,0,0,0-2.74.13,12.67,12.67,0,0,0-5.87,2.29,21.75,21.75,0,0,0-5.08,4.69,9.33,9.33,0,0,0-2.22,5.15v44.47c.52,4,2.48,6,5.87,6a1,1,0,0,1,.78.27.85.85,0,0,1,.26.65.72.72,0,0,1-.26.52,1.06,1.06,0,0,1-.78.26h-22.69c-.61,0-.91-.26-.91-.78a1,1,0,0,1,.26-.59.82.82,0,0,1,.65-.33c3.57,0,5.52-2,5.87-6V427a11.39,11.39,0,0,0-2-6.2c-1.3-2-3.91-3.11-7.82-3.19a1,1,0,0,1-1-.92c0-.52.34-.78,1-.78h2.09c.69,0,2-.06,3.91-.19s3.73-.33,5.47-.59a20.78,20.78,0,0,0,5.22-1.37,10.34,10.34,0,0,0,3.13-1.76,1.45,1.45,0,0,1,1.24-.39c.39.09.54.3.46.65s-.13,1.72-.4,4.37-.39,6.54-.39,11.67v57.11a22.54,22.54,0,0,1,14.35-8.73,45.54,45.54,0,0,1,6.91-.65q13,0,19.3,9.06t5.6,24.32v30.38q1,4.7,5.61,4.69A1,1,0,0,1,1171.28,544.77Z"/><path class="cls-9" d="M1192.54,529.9a7.42,7.42,0,0,1,5.54,2.35,8,8,0,0,1,0,11.21,7.72,7.72,0,0,1-11.09,0,8,8,0,0,1,0-11.21A7.43,7.43,0,0,1,1192.54,529.9Zm7.3-93-5.74,85.8h-3.52l-3.26-85.8c0-1.31-.09-2.92-.26-4.83l-.26-3.78q0-6.26,1.5-9.39a5.37,5.37,0,0,1,5.28-3.13q3.92,0,5.28,3.2t1.37,10.49l-.26,4.05Z"/><path d="M763.19,643.66V630.77l-9.6-17.5h4.46l4.29,8.39c1.17,2.3,2.07,4.15,3,6.27h.09c.86-2,1.89-4,3.07-6.27l4.37-8.39h4.46l-10.19,17.45v12.94Z"/><path d="M797,632.57c0,8.07-5.6,11.59-10.87,11.59-5.91,0-10.46-4.33-10.46-11.23,0-7.3,4.78-11.59,10.82-11.59C792.78,621.34,797,625.9,797,632.57Zm-17.32.23c0,4.78,2.75,8.38,6.63,8.38s6.63-3.56,6.63-8.47c0-3.7-1.85-8.39-6.54-8.39S779.7,628.65,779.7,632.8Z"/><path d="M820.29,637.71c0,2.25,0,4.24.18,5.95H817l-.23-3.56h-.09a8.19,8.19,0,0,1-7.21,4.06c-3.43,0-7.53-1.9-7.53-9.56V621.84h4v12.08c0,4.15,1.26,7,4.87,7a5.73,5.73,0,0,0,5.23-3.61,6,6,0,0,0,.36-2V621.84h4Z"/><path d="M835.89,639.6a10.37,10.37,0,0,0,5.23,1.58c2.89,0,4.24-1.44,4.24-3.24s-1.13-2.94-4.06-4c-3.92-1.39-5.77-3.56-5.77-6.17,0-3.52,2.84-6.41,7.53-6.41a10.82,10.82,0,0,1,5.37,1.36l-1,2.88a8.47,8.47,0,0,0-4.46-1.26c-2.34,0-3.65,1.35-3.65,3,0,1.81,1.31,2.62,4.15,3.7,3.78,1.44,5.72,3.34,5.72,6.59,0,3.83-3,6.53-8.16,6.53a12.45,12.45,0,0,1-6.13-1.48Z"/><path d="M859.07,615.57v6.27h5.68v3h-5.68v11.77c0,2.7.77,4.24,3,4.24a9.15,9.15,0,0,0,2.3-.27l.18,3a9.67,9.67,0,0,1-3.52.54,5.45,5.45,0,0,1-4.28-1.67c-1.13-1.17-1.54-3.11-1.54-5.68v-11.9h-3.38v-3h3.38v-5.23Z"/><path d="M869.22,628.65c0-2.57-.05-4.78-.18-6.81h3.47l.14,4.28h.17a6.57,6.57,0,0,1,6-4.78,4.23,4.23,0,0,1,1.12.14v3.74a5.9,5.9,0,0,0-1.35-.14c-2.79,0-4.78,2.12-5.32,5.1a11.15,11.15,0,0,0-.18,1.85v11.63h-3.92Z"/><path d="M895.82,643.66l-.31-2.75h-.14a8.11,8.11,0,0,1-6.67,3.25c-4.42,0-6.67-3.11-6.67-6.27,0-5.27,4.69-8.16,13.12-8.12v-.45c0-1.8-.5-5.05-5-5.05a10.79,10.79,0,0,0-5.68,1.63l-.91-2.62a13.59,13.59,0,0,1,7.17-1.94c6.68,0,8.3,4.56,8.3,8.93v8.16a30.75,30.75,0,0,0,.36,5.23Zm-.58-11.13c-4.33-.1-9.25.67-9.25,4.91a3.52,3.52,0,0,0,3.75,3.79,5.43,5.43,0,0,0,5.27-3.65,4.06,4.06,0,0,0,.23-1.27Z"/><path d="M906.56,621.84l4.78,12.89c.49,1.45,1,3.16,1.4,4.47h.09c.4-1.31.85-3,1.39-4.56l4.33-12.8h4.2l-6,15.55c-2.84,7.49-4.78,11.32-7.48,13.67a10.8,10.8,0,0,1-4.87,2.57l-1-3.34a10.61,10.61,0,0,0,3.47-1.94,12.09,12.09,0,0,0,3.34-4.42,2.79,2.79,0,0,0,.31-.94,3.4,3.4,0,0,0-.27-1l-8.07-20.11Z"/><path d="M928.11,633.47c.09,5.37,3.52,7.58,7.49,7.58a14.36,14.36,0,0,0,6-1.13l.68,2.84a17.73,17.73,0,0,1-7.26,1.35c-6.72,0-10.73-4.42-10.73-11s3.87-11.77,10.23-11.77c7.13,0,9,6.27,9,10.28a13.84,13.84,0,0,1-.14,1.85Zm11.64-2.84c0-2.52-1-6.45-5.5-6.45-4,0-5.77,3.7-6.09,6.45Z"/><path d="M967.35,611.65V638c0,1.93,0,4.14.18,5.63H964l-.19-3.78h-.09a8.06,8.06,0,0,1-7.44,4.28c-5.27,0-9.33-4.47-9.33-11.09,0-7.26,4.47-11.73,9.79-11.73a7.3,7.3,0,0,1,6.58,3.34h.09v-13Zm-4,19.07a7.36,7.36,0,0,0-.18-1.67,5.85,5.85,0,0,0-5.73-4.6c-4.1,0-6.54,3.61-6.54,8.44,0,4.41,2.17,8.07,6.45,8.07a6,6,0,0,0,5.82-4.74,7.12,7.12,0,0,0,.18-1.71Z"/><path d="M988.27,615.57v6.27H994v3h-5.68v11.77c0,2.7.77,4.24,3,4.24a9.08,9.08,0,0,0,2.3-.27l.18,3a9.63,9.63,0,0,1-3.52.54,5.47,5.47,0,0,1-4.28-1.67c-1.13-1.17-1.53-3.11-1.53-5.68v-11.9H981v-3h3.39v-5.23Z"/><path d="M1017.9,632.57c0,8.07-5.59,11.59-10.87,11.59-5.9,0-10.46-4.33-10.46-11.23,0-7.3,4.78-11.59,10.82-11.59C1013.66,621.34,1017.9,625.9,1017.9,632.57Zm-17.31.23c0,4.78,2.75,8.38,6.62,8.38s6.63-3.56,6.63-8.47c0-3.7-1.85-8.39-6.54-8.39S1000.59,628.65,1000.59,632.8Z"/><path d="M1042.66,632.57c0,8.07-5.59,11.59-10.87,11.59-5.91,0-10.46-4.33-10.46-11.23,0-7.3,4.78-11.59,10.82-11.59C1038.42,621.34,1042.66,625.9,1042.66,632.57Zm-17.32.23c0,4.78,2.75,8.38,6.63,8.38s6.63-3.56,6.63-8.47c0-3.7-1.85-8.39-6.54-8.39S1025.34,628.65,1025.34,632.8Z"/><path d="M1057.63,643.66v-18.8h-3.06v-3h3.06v-1c0-3.06.68-5.86,2.53-7.62a7.61,7.61,0,0,1,5.32-2,9.32,9.32,0,0,1,3.38.63l-.54,3.07a6,6,0,0,0-2.53-.5c-3.38,0-4.23,3-4.23,6.32v1.17h5.27v3h-5.27v18.8Z"/><path d="M1082.48,643.66l-.32-2.75H1082a8.12,8.12,0,0,1-6.68,3.25c-4.41,0-6.67-3.11-6.67-6.27,0-5.27,4.69-8.16,13.12-8.12v-.45c0-1.8-.49-5.05-5-5.05a10.79,10.79,0,0,0-5.68,1.63l-.9-2.62a13.56,13.56,0,0,1,7.17-1.94c6.67,0,8.3,4.56,8.3,8.93v8.16a29.76,29.76,0,0,0,.36,5.23Zm-.59-11.13c-4.33-.1-9.24.67-9.24,4.91a3.51,3.51,0,0,0,3.74,3.79,5.44,5.44,0,0,0,5.28-3.65,4.35,4.35,0,0,0,.22-1.27Z"/><path d="M1092.13,628.65c0-2.57,0-4.78-.18-6.81h3.47l.14,4.28h.18a6.55,6.55,0,0,1,6-4.78,4.31,4.31,0,0,1,1.13.14v3.74a6,6,0,0,0-1.35-.14c-2.8,0-4.78,2.12-5.33,5.1a12.42,12.42,0,0,0-.17,1.85v11.63h-3.93Z"/><path d="M1116.84,643.66v-18.8h-3.06v-3h3.06v-1c0-3.06.68-5.86,2.53-7.62a7.61,7.61,0,0,1,5.32-2,9.27,9.27,0,0,1,3.38.63l-.54,3.07a5.94,5.94,0,0,0-2.52-.5c-3.39,0-4.24,3-4.24,6.32v1.17H1126v3h-5.27v18.8Z"/><path d="M1129.61,628.65c0-2.57,0-4.78-.18-6.81h3.47l.13,4.28h.18a6.57,6.57,0,0,1,6-4.78,4.23,4.23,0,0,1,1.12.14v3.74a5.9,5.9,0,0,0-1.35-.14c-2.8,0-4.78,2.12-5.32,5.1a11.15,11.15,0,0,0-.18,1.85v11.63h-3.92Z"/><path d="M1163.65,632.57c0,8.07-5.59,11.59-10.87,11.59-5.9,0-10.46-4.33-10.46-11.23,0-7.3,4.78-11.59,10.83-11.59C1159.41,621.34,1163.65,625.9,1163.65,632.57Zm-17.31.23c0,4.78,2.75,8.38,6.63,8.38s6.62-3.56,6.62-8.47c0-3.7-1.85-8.39-6.53-8.39S1146.34,628.65,1146.34,632.8Z"/><path d="M1168.66,627.75c0-2.26-.05-4.11-.18-5.91H1172l.18,3.52h.14a7.5,7.5,0,0,1,6.85-4,6.46,6.46,0,0,1,6.18,4.38h.09a8.82,8.82,0,0,1,2.43-2.84,7.41,7.41,0,0,1,4.83-1.54c2.88,0,7.17,1.9,7.17,9.47v12.85h-3.88V631.31c0-4.2-1.53-6.72-4.74-6.72a5.12,5.12,0,0,0-4.68,3.61,6.52,6.52,0,0,0-.32,2v13.48h-3.88V630.59c0-3.48-1.53-6-4.55-6a5.42,5.42,0,0,0-4.92,4,5.56,5.56,0,0,0-.31,1.94v13.16h-3.88Z"/><path d="M1215.83,611.65h4v32h-4Z"/><path d="M1238.56,643.66l-.32-2.75h-.13a8.12,8.12,0,0,1-6.68,3.25c-4.41,0-6.67-3.11-6.67-6.27,0-5.27,4.69-8.16,13.12-8.12v-.45c0-1.8-.49-5.05-5-5.05a10.79,10.79,0,0,0-5.68,1.63l-.9-2.62a13.56,13.56,0,0,1,7.17-1.94c6.67,0,8.3,4.56,8.3,8.93v8.16a30.75,30.75,0,0,0,.36,5.23Zm-.59-11.13c-4.33-.1-9.24.67-9.24,4.91a3.51,3.51,0,0,0,3.74,3.79,5.44,5.44,0,0,0,5.28-3.65,4.35,4.35,0,0,0,.22-1.27Z"/><path d="M1248.21,627.75c0-2.26,0-4.11-.18-5.91h3.52l.22,3.61h.09a8,8,0,0,1,7.22-4.11c3,0,7.71,1.81,7.71,9.29v13h-4V631.08c0-3.51-1.31-6.45-5-6.45a5.64,5.64,0,0,0-5.32,4.06,5.73,5.73,0,0,0-.27,1.85v13.12h-4Z"/><path d="M1292.09,611.65V638c0,1.93,0,4.14.18,5.63h-3.56l-.19-3.78h-.09a8.06,8.06,0,0,1-7.44,4.28c-5.27,0-9.33-4.47-9.33-11.09,0-7.26,4.47-11.73,9.79-11.73a7.3,7.3,0,0,1,6.58,3.34h.09v-13Zm-4,19.07a7.36,7.36,0,0,0-.18-1.67,5.85,5.85,0,0,0-5.73-4.6c-4.1,0-6.54,3.61-6.54,8.44,0,4.41,2.17,8.07,6.45,8.07a6,6,0,0,0,5.82-4.74,7.12,7.12,0,0,0,.18-1.71Z"/></g></svg>
