<svg xmlns="http://www.w3.org/2000/svg" xmlns:xlink="http://www.w3.org/1999/xlink" width="1060" height="620" viewBox="0 0 1060 620"><defs><style>.cls-1{stroke:#fff;stroke-miterlimit:10;stroke-width:5px;opacity:0.8;fill:url(#linear-gradient);}.cls-2{fill:#fff;}</style><linearGradient id="linear-gradient" x1="-0.38" y1="310.24" x2="1059.62" y2="310.24" gradientUnits="userSpaceOnUse"><stop offset="0" stop-color="#93278f"/><stop offset="1" stop-color="#1b1464"/></linearGradient></defs><title>To Win</title><g id="Layer_13" data-name="Layer 13"><rect class="cls-1" x="-0.38" y="0.24" width="1060" height="620"/><path class="cls-2" d="M480.9,59.94c.4,0,.6.12.6.37a1.23,1.23,0,0,1-.15.53.45.45,0,0,1-.19.11,1.11,1.11,0,0,0-.34.26A18,18,0,0,0,478,67.06a22.87,22.87,0,0,0-.94,6.3,13.06,13.06,0,0,0,.3,3.08,3.35,3.35,0,0,0,.71.86,2,2,0,0,1,.64,1.46,2.48,2.48,0,0,1-.86,1.95,3,3,0,0,1-2.06.75,2.87,2.87,0,0,1-2-.78,3.09,3.09,0,0,1-.94-2.22,21.76,21.76,0,0,1,.38-4l.52-3.08a27.47,27.47,0,0,0,.38-3.07,4.36,4.36,0,0,0-.38-1.76c-.25-.58-.4-.94-.45-1.09q-1.72-3.6-7.72-3.6H460q-3,.3-4,2.06a6.64,6.64,0,0,0-.94,3.64v61.5a4.78,4.78,0,0,0,1.39,3.26,5.62,5.62,0,0,0,4.24,1.61.61.61,0,0,1,.45.15.52.52,0,0,1,.15.38q0,.45-.6.45H443.32a.61.61,0,0,1-.45-.15.43.43,0,0,1-.15-.3.46.46,0,0,1,.19-.38.63.63,0,0,1,.41-.15c2.25-.05,3.79-.68,4.61-1.91a6.66,6.66,0,0,0,1.24-3.79L449,67.59A7.28,7.28,0,0,0,448,64c-.68-1.17-2-1.86-4-2.06h-5q-6,0-7.65,3.6c-.3.7-.51,1.24-.64,1.61a4.32,4.32,0,0,0-.18,1.31,20.85,20.85,0,0,0,.37,3.15c.25,1.45.43,2.43.53,2.93a21.74,21.74,0,0,1,.37,4,2.88,2.88,0,0,1-.86,2.22,3,3,0,0,1-2.06.78,3.09,3.09,0,0,1-2-.75,2.42,2.42,0,0,1-.9-1.95,2,2,0,0,1,.64-1.46,3.35,3.35,0,0,0,.71-.86,16.62,16.62,0,0,0,.3-2.93,23.18,23.18,0,0,0-.94-6.33,18.88,18.88,0,0,0-2.81-6,1.11,1.11,0,0,0-.34-.26.42.42,0,0,1-.18-.11q-.53-.9.45-.9Z"/><path class="cls-2" d="M492.45,97.25a16.59,16.59,0,0,1,6,6.79,22.74,22.74,0,0,1,2.21,10.27,27.9,27.9,0,0,1-.15,3.38,23,23,0,0,1-2.25,8,17.9,17.9,0,0,1-5.25,6.45,14.19,14.19,0,0,1-8.17,2.81h-1.13a14.37,14.37,0,0,1-8.21-2.81,17.3,17.3,0,0,1-5.25-6.45,24.65,24.65,0,0,1-2.29-8c-.1-1.5-.15-2.58-.15-3.23A23,23,0,0,1,470,104.08a16.45,16.45,0,0,1,6-6.83,16,16,0,0,1,16.5,0ZM494,113.94a28,28,0,0,0-2.4-12q-2.4-5.15-7.42-5.14T476.77,102a28,28,0,0,0-2.4,12c0,1,0,1.82.08,2.32q.53,8,3.11,12.3t6.64,4.35q4.05,0,6.64-4.35t3.11-12.3C494,115.76,494,115,494,113.94Z"/><path class="cls-2" d="M593.32,59.94a.53.53,0,0,1,.45.19.63.63,0,0,1,.15.41.91.91,0,0,1-.15.52.51.51,0,0,1-.45.23,7.5,7.5,0,0,0-4.57,1.27,8.77,8.77,0,0,0-2.52,2.7,6.37,6.37,0,0,0-.78,1.73l-17.48,68H565.2l-10.28-41.7-13.27,41.7H539L520.5,67.36a9,9,0,0,0-.87-1.83,10.4,10.4,0,0,0-2.4-3,5,5,0,0,0-3.63-1.27.51.51,0,0,1-.45-.23.91.91,0,0,1-.15-.52.53.53,0,0,1,.6-.6h15.6c.35,0,.52.15.52.45a.63.63,0,0,1-.15.41.44.44,0,0,1-.37.19q-3.15,0-3.15,3.15a18,18,0,0,0,.3,2.55l15.07,54.82L553,85.36l-3.9-18-.52-1.65a12.67,12.67,0,0,0-.94-2.55,3.5,3.5,0,0,0-1.5-1.42,6.09,6.09,0,0,0-3-.45.51.51,0,0,1-.45-.23.91.91,0,0,1-.15-.52.63.63,0,0,1,.15-.41.53.53,0,0,1,.45-.19h14.4c.3,0,.45.17.45.52a.64.64,0,0,1-.12.34.35.35,0,0,1-.33.19,3.23,3.23,0,0,0-2.59.86,3.72,3.72,0,0,0-.71,2.44,11,11,0,0,0,.07,1.35q.07.6.15,1l13.13,54.82,13.5-55.65a13.64,13.64,0,0,0,.07-1.5,3.86,3.86,0,0,0-.71-2.55A3.42,3.42,0,0,0,577.8,61q-.45,0-.45-.6a.4.4,0,0,1,.45-.45Z"/><path class="cls-2" d="M600.52,133.89a.53.53,0,0,1,.45.19.63.63,0,0,1,.15.41.43.43,0,0,1-.15.3.61.61,0,0,1-.45.15H587.4a.61.61,0,0,1-.45-.15.43.43,0,0,1-.15-.3.63.63,0,0,1,.15-.41.53.53,0,0,1,.45-.19,2.77,2.77,0,0,0,2.7-1.28,7.31,7.31,0,0,0,.75-3.15V104c0-.15,0-.76,0-1.84a3.72,3.72,0,0,0-1-2.74,4.2,4.2,0,0,0-3.22-1.12.53.53,0,0,1-.45-.19.56.56,0,0,1-.15-.34.43.43,0,0,1,.15-.3.61.61,0,0,1,.45-.15h1.2a14.27,14.27,0,0,0,1.5-.15l2.4-.3a12.2,12.2,0,0,0,3-.78,7.61,7.61,0,0,0,1.87-1,.66.66,0,0,1,.64-.22c.22,0,.34.17.34.37a63.05,63.05,0,0,0-.53,9.53v24.67Q597.22,133.89,600.52,133.89ZM589.87,89.08a3.58,3.58,0,0,1-1.12-2.67,3.68,3.68,0,0,1,1.12-2.7,3.6,3.6,0,0,1,2.63-1.12,3.82,3.82,0,0,1,3.82,3.82,3.58,3.58,0,0,1-1.12,2.67,3.76,3.76,0,0,1-2.7,1.08A3.68,3.68,0,0,1,589.87,89.08Z"/><path class="cls-2" d="M606.52,102a3.93,3.93,0,0,0-.82-2.58c-.56-.68-1.63-1-3.23-1.09a.53.53,0,0,1-.45-.19.56.56,0,0,1-.15-.34q0-.45.6-.45h1.2a13.14,13.14,0,0,0,1.46-.15l2.29-.3a12.2,12.2,0,0,0,3-.78,7.72,7.72,0,0,0,1.88-1,.7.7,0,0,1,.52-.22.53.53,0,0,1,.3.11.29.29,0,0,1,.08.34c0,.1,0,.54-.12,1.31s-.14,1.89-.18,3.34A8.74,8.74,0,0,1,616,96.35a10.55,10.55,0,0,1,6.49-1.84,11.39,11.39,0,0,1,1.5.08,10.62,10.62,0,0,1,6.67,3.26c1.9,1.93,2.85,4.91,2.85,9v22.65a7.51,7.51,0,0,0,.75,3.23A2.76,2.76,0,0,0,637,134a.61.61,0,0,1,.45.15.52.52,0,0,1,.15.38.43.43,0,0,1-.15.3.61.61,0,0,1-.45.15h-13.2a.61.61,0,0,1-.45-.15.43.43,0,0,1-.15-.3.46.46,0,0,1,.19-.38.63.63,0,0,1,.41-.15,2.76,2.76,0,0,0,2.7-1.27,7.51,7.51,0,0,0,.75-3.23v-25q0-4-1.87-5.44a7,7,0,0,0-3.6-1.61,7.12,7.12,0,0,0-5,1.5,9.51,9.51,0,0,0-3,4.2,14.58,14.58,0,0,0-.94,5.1l-.07,22.35a3.49,3.49,0,0,0,.86,2.36,3.09,3.09,0,0,0,2.51,1,.61.61,0,0,1,.45.15.52.52,0,0,1,.15.38.43.43,0,0,1-.15.3.61.61,0,0,1-.45.15h-13c-.41,0-.6-.15-.6-.45a.48.48,0,0,1,.18-.38.68.68,0,0,1,.42-.15c2,0,3.1-1.15,3.3-3.45V103.89Z"/><path class="cls-2" d="M649.8,93.54a5.38,5.38,0,1,1-3.75,1.57A5.13,5.13,0,0,1,649.8,93.54Zm0,28.5a5.38,5.38,0,1,1-3.75,1.57A5.13,5.13,0,0,1,649.8,122Z"/><path class="cls-2" d="M187.28,231.25a23.29,23.29,0,0,1,14.58-4.59,41.23,41.23,0,0,1,9.56,1.3,4,4,0,0,0,1.51.21c.06,1.24.33,4.65.76,7.94a1.14,1.14,0,0,1-1.46.11c-.81-3.67-3.24-7.89-11.07-7.89-8.26,0-15.28,5.24-15.28,16.42,0,11.34,7.18,17.6,16,17.6a11.5,11.5,0,0,0,11.28-7.72,1.14,1.14,0,0,1,1.41.22,20.36,20.36,0,0,1-2.59,7.4,9.79,9.79,0,0,0-1.89.54,32,32,0,0,1-8.54,1.24,23.6,23.6,0,0,1-13.44-3.62,17.4,17.4,0,0,1-7.67-14.85A18,18,0,0,1,187.28,231.25Z"/><path class="cls-2" d="M224.44,257.12c0,3.88.1,4.42,2.05,4.69l1.29.17a1,1,0,0,1-.1,1.35c-1.79-.11-3.35-.16-5.24-.16s-3.57.05-5.19.16a1,1,0,0,1-.1-1.35l1.24-.17c2-.27,2.05-.81,2.05-4.69V232.71c0-3.19-.05-3.51-1.67-4.48l-.54-.33a.82.82,0,0,1,0-1.08,38,38,0,0,0,5.83-2.27.6.6,0,0,1,.54.33c-.06,1.62-.16,4.32-.16,6.69Z"/><path class="cls-2" d="M234.32,247.67c0-2.11,0-2.38-1.46-3.35l-.49-.33a.74.74,0,0,1,.06-1,36.84,36.84,0,0,0,5.56-2.64c.27,0,.49.1.54.32-.11,1.89-.22,4.48-.22,6.7v9.72c0,3.88.11,4.42,2.06,4.69l1.13.17a.94.94,0,0,1-.11,1.35c-1.62-.11-3.18-.16-5.07-.16s-3.57.05-5.08.16a.94.94,0,0,1-.11-1.35l1.14-.17c2-.27,2-.81,2-4.69Zm4.48-15.39a2.81,2.81,0,0,1-5.62.1,2.81,2.81,0,0,1,2.92-2.91A2.7,2.7,0,0,1,238.8,232.28Z"/><path class="cls-2" d="M262.72,242.05a3.07,3.07,0,0,1,.81,2.16c0,1-.54,2-1.19,2a.93.93,0,0,1-.75-.38,7.37,7.37,0,0,0-5.4-2.86c-3.78,0-7.46,3-7.46,8.69,0,4.22,2.92,9.24,8.7,9.24a6.59,6.59,0,0,0,6-3.24.85.85,0,0,1,1,.75,9.82,9.82,0,0,1-9,5.51,10.5,10.5,0,0,1-7.4-2.75,10.76,10.76,0,0,1-3.13-8c0-5.83,4.1-12,13.06-12A13.43,13.43,0,0,1,262.72,242.05Z"/><path class="cls-2" d="M269.25,232.71c0-3.19-.05-3.51-1.67-4.48l-.54-.33a.82.82,0,0,1,0-1.08,37.56,37.56,0,0,0,5.83-2.27.59.59,0,0,1,.54.33c-.05,1.62-.16,4.32-.16,6.69V250.1c0,.7.05.81,1,.81,1.19,0,2.22-.6,3.67-2.11l2.22-2.38c1.51-1.62,1.89-2.21,1.89-2.48s-.27-.43-1.19-.54l-1.3-.16c-.48-.16-.48-1.19,0-1.35h1.25a85.46,85.46,0,0,0,8.58-.43c.38.16.43,1.08.11,1.35l-1.73.32a7.85,7.85,0,0,0-3.4,1.89,65.29,65.29,0,0,0-4.91,4.54c-.65.59-.71.86-.38,1.29a55.81,55.81,0,0,0,3.62,4.32c2.1,2.38,4,4.48,5.07,5.51a5.47,5.47,0,0,0,2.81,1.19l.76.11c.37.27.32,1.19-.11,1.35-1.57-.11-3.4-.16-5.13-.16-2.16,0-4.05.05-5.62.16a.92.92,0,0,1-.11-1.35l1-.17c.81-.1,1.35-.21,1.35-.54s-.22-.7-.92-1.51L276,253.07a2.2,2.2,0,0,0-1.67-.76c-1,0-1,.16-1,1.84v3c0,3.88.11,4.42,2.05,4.69l1.3.17a.94.94,0,0,1-.11,1.35c-1.78-.11-3.35-.16-5.24-.16s-3.56.05-5.18.16A.9.9,0,0,1,266,262l1.19-.17c2-.27,2.05-.81,2.05-4.69Z"/><path class="cls-2" d="M313.75,244.16c-.92,0-1,.16-1,1.29v10.1c0,3.13.38,6,3.94,6a4,4,0,0,0,1.46-.27c.48-.16,1.19-.75,1.35-.75.43,0,.65.59.54.92a7.49,7.49,0,0,1-5.67,2.48c-4.65,0-5.62-2.59-5.62-5.83V245.72c0-1.46,0-1.56-1.13-1.56h-1.51A.91.91,0,0,1,306,243a10.72,10.72,0,0,0,3.46-1.67,13.5,13.5,0,0,0,2.27-3.19c.27-.11.92-.11,1.13.27v2.43c0,1,.06,1,1,1h6a1.72,1.72,0,0,1,.05,2.27Z"/><path class="cls-2" d="M325.36,232.71c0-3.19-.05-3.51-1.67-4.48l-.54-.33a.82.82,0,0,1,0-1.08,38,38,0,0,0,5.83-2.27.6.6,0,0,1,.54.33c-.06,1.62-.16,4.32-.16,6.69v11.34c0,.49.05.92.21,1a12.31,12.31,0,0,1,7.29-2.81c5.13,0,7,3.19,7,7v9c0,3.88.11,4.48,2.05,4.69l1.46.17a.94.94,0,0,1-.11,1.35c-1.94-.11-3.51-.16-5.4-.16s-3.56.05-5,.16a.94.94,0,0,1-.11-1.35l1.08-.17c2-.32,2.05-.81,2.05-4.69V249.4c0-3.46-1.67-5.78-5.13-5.78a6.46,6.46,0,0,0-4.21,1.45c-1,.81-1.13,1.08-1.13,3v9.08c0,3.88.1,4.42,2.05,4.69l1.13.17c.38.21.27,1.19-.11,1.35-1.62-.11-3.18-.16-5.07-.16s-3.57.05-5.29.16A.94.94,0,0,1,322,262l1.35-.17c2-.21,2.05-.81,2.05-4.69Z"/><path class="cls-2" d="M355.44,249.34c-1.41,0-1.46.11-1.46,1.46,0,5.45,3.19,10.1,9,10.1,1.79,0,3.3-.54,5-2.65a.71.71,0,0,1,1,.65,9.43,9.43,0,0,1-8.47,5,9.67,9.67,0,0,1-7.83-3.56,11.49,11.49,0,0,1-2.27-7c0-6.65,4.37-12.21,10.85-12.21,4.65,0,7.67,3.19,7.67,6.43a3.26,3.26,0,0,1-.22,1.4c-.16.33-.91.38-3.18.38Zm3.35-1.62c4,0,5.18-.22,5.61-.54.16-.11.33-.32.33-1,0-1.51-1-3.4-4.16-3.4s-5.94,2.92-6,4.7c0,.11,0,.27.38.27Z"/><path class="cls-2" d="M405.28,232.71c-3,0-4.21.16-5.78,2.75a.85.85,0,0,1-1.13-.43,53,53,0,0,0,1.83-5.83c.87.11,2.76.16,5.73.16h9.12c3,0,6.59,0,7.24-.16a.51.51,0,0,1,.38.48,91.47,91.47,0,0,0-5.08,9.24l-13.77,27.7a1.59,1.59,0,0,1-1.83-1l15.28-30.89c.81-1.62.54-2-1.19-2Z"/><path class="cls-2" d="M452.1,242.1a12.79,12.79,0,0,1,.86,4.38.93.93,0,0,1-1.29.16c-.92-2.38-2.54-3.94-4.76-3.94a3.19,3.19,0,0,0-3.45,3.29c0,2.22,2.27,3.41,4.16,4.48,2.86,1.62,5.5,3.46,5.5,7.3,0,4.1-3.78,6.15-7.77,6.15a9,9,0,0,1-5.78-1.62,16,16,0,0,1-.65-5.45.91.91,0,0,1,1.24-.06c.92,3,2.65,5.56,5.73,5.56a3.33,3.33,0,0,0,3.62-3.45c0-2.48-2.16-3.84-4.16-5-3.13-1.78-5.35-3.67-5.35-6.64,0-3.94,3.24-6.16,7.35-6.16A9.61,9.61,0,0,1,452.1,242.1Z"/><path class="cls-2" d="M464.46,244.16c-.91,0-1,.16-1,1.29v10.1c0,3.13.38,6,3.94,6a4,4,0,0,0,1.46-.27c.49-.16,1.19-.75,1.35-.75.43,0,.65.59.54.92a7.48,7.48,0,0,1-5.67,2.48c-4.64,0-5.61-2.59-5.61-5.83V245.72c0-1.46-.06-1.56-1.14-1.56h-1.51a.91.91,0,0,1-.16-1.14,10.75,10.75,0,0,0,3.45-1.67,13.22,13.22,0,0,0,2.27-3.19c.27-.11.92-.11,1.14.27v2.43c0,1,.05,1,1,1h6a1.73,1.73,0,0,1,.06,2.27Z"/><path class="cls-2" d="M484.12,252c.81-.27.92-.76.92-1.57l0-2.48c.06-2-.59-4.7-3.94-4.7-1.51,0-3.35.75-3.46,2.43-.05.86-.1,1.51-.54,1.83a5.77,5.77,0,0,1-3.07,1,.69.69,0,0,1-.76-.76c0-2.8,6.1-6.64,10-6.64s5.78,2.27,5.62,6.32l-.32,9.4c-.11,2.48.37,4.69,2.48,4.69a3.12,3.12,0,0,0,1.35-.32c.27-.16.54-.38.7-.38s.38.33.38.7a5.67,5.67,0,0,1-4.54,2.38,4.31,4.31,0,0,1-3.51-1.67c-.21-.33-.54-.76-.86-.76a8.4,8.4,0,0,0-2.11,1.08,7.92,7.92,0,0,1-3.88,1.35,5.57,5.57,0,0,1-3.78-1.24,5,5,0,0,1-1.68-3.78c0-2.11,1-3.35,4.48-4.59Zm-3.35,9.5a6.13,6.13,0,0,0,3.3-1.35c.64-.65.64-1.4.7-2.54l.11-3.18c0-.6-.22-.71-.54-.71a10.36,10.36,0,0,0-2.22.54c-3.18,1.08-4.75,1.9-4.75,4A3.25,3.25,0,0,0,480.77,261.49Z"/><path class="cls-2" d="M498.43,247.67c0-2.11,0-2.38-1.46-3.35l-.49-.33a.74.74,0,0,1,.06-1,41.58,41.58,0,0,0,5.45-2.64c.27.05.43.16.43.37v3.14c0,.27.06.43.17.48,1.89-1.56,3.94-3.24,5.94-3.24a2.24,2.24,0,0,1,2.43,2.16,2.41,2.41,0,0,1-2.33,2.49,2.07,2.07,0,0,1-1.18-.38,4.44,4.44,0,0,0-2.38-.87,2.4,2.4,0,0,0-1.94,1.08c-.54.76-.71,2.33-.71,4.16v7.35c0,3.88.11,4.53,2.16,4.69l1.95.17a.94.94,0,0,1-.11,1.35c-2.54-.11-4.1-.16-6-.16s-3.57.05-5,.16a.94.94,0,0,1-.11-1.35l1-.17c2-.32,2.05-.81,2.05-4.69Z"/><path class="cls-2" d="M525.86,242.1a12.55,12.55,0,0,1,.86,4.38.93.93,0,0,1-1.29.16c-.92-2.38-2.54-3.94-4.75-3.94a3.19,3.19,0,0,0-3.46,3.29c0,2.22,2.27,3.41,4.16,4.48,2.86,1.62,5.51,3.46,5.51,7.3,0,4.1-3.78,6.15-7.78,6.15a9,9,0,0,1-5.78-1.62,16.3,16.3,0,0,1-.65-5.45.93.93,0,0,1,1.25-.06c.91,3,2.64,5.56,5.72,5.56a3.33,3.33,0,0,0,3.62-3.45c0-2.48-2.16-3.84-4.16-5-3.13-1.78-5.35-3.67-5.35-6.64,0-3.94,3.24-6.16,7.35-6.16A9.58,9.58,0,0,1,525.86,242.1Z"/><path class="cls-2" d="M566.36,252.31c0,6.75-4.64,11.61-11.39,11.61A10.67,10.67,0,0,1,543.9,252.8a11.35,11.35,0,0,1,11.5-11.67A10.79,10.79,0,0,1,566.36,252.31Zm-11.61-9.56c-3.56,0-6.21,3.4-6.21,9.34,0,4.92,2.21,10.21,7,10.21s6.21-5,6.21-9.13C561.72,248.58,559.88,242.75,554.75,242.75Z"/><path class="cls-2" d="M578.29,244.16c-.91,0-.91.1-.91,1.56v11.4c0,3.88.1,4.53,2,4.69l1.94.17a.94.94,0,0,1-.11,1.35c-2.43-.11-4-.16-5.88-.16s-3.57.05-5.19.16a1,1,0,0,1-.1-1.35l1.24-.17c2-.27,2-.81,2-4.69v-11.4c0-1.46,0-1.56-1.08-1.56h-1.89a.76.76,0,0,1-.16-1l2.32-1.13a1.23,1.23,0,0,0,.81-1.08,24.34,24.34,0,0,1,1.67-9.51c1.35-3.08,4.38-6.86,9.72-6.86,2.87,0,5.3,1.3,5.3,3.24a2.08,2.08,0,0,1-2.06,2,1.54,1.54,0,0,1-1.29-.65,6,6,0,0,0-4.32-2.38c-1.68,0-3,1-3.84,3-1,2.49-1.18,6.43-1.18,9.13v1.57c0,1.45,0,1.51.91,1.51h6.16a1.67,1.67,0,0,1-.38,2.27Z"/><path class="cls-2" d="M607.13,244.16c-.92,0-1,.16-1,1.29v10.1c0,3.13.37,6,3.94,6a4,4,0,0,0,1.46-.27c.48-.16,1.18-.75,1.35-.75.43,0,.65.59.54.92a7.51,7.51,0,0,1-5.67,2.48c-4.65,0-5.62-2.59-5.62-5.83V245.72c0-1.46,0-1.56-1.13-1.56h-1.51a.91.91,0,0,1-.17-1.14,10.72,10.72,0,0,0,3.46-1.67,13.5,13.5,0,0,0,2.27-3.19,1,1,0,0,1,1.13.27v2.43c0,1,.06,1,1,1h6a1.73,1.73,0,0,1,.05,2.27Z"/><path class="cls-2" d="M618.74,232.71c0-3.19-.06-3.51-1.68-4.48l-.54-.33a.82.82,0,0,1,0-1.08,38,38,0,0,0,5.84-2.27.6.6,0,0,1,.54.33c-.06,1.62-.17,4.32-.17,6.69v11.34c0,.49.06.92.22,1a12.28,12.28,0,0,1,7.29-2.81c5.13,0,7,3.19,7,7v9c0,3.88.1,4.48,2,4.69l1.46.17a.94.94,0,0,1-.11,1.35c-1.94-.11-3.51-.16-5.4-.16s-3.57.05-5,.16a.94.94,0,0,1-.11-1.35l1.08-.17c2-.32,2.05-.81,2.05-4.69V249.4c0-3.46-1.67-5.78-5.13-5.78a6.44,6.44,0,0,0-4.21,1.45c-1,.81-1.14,1.08-1.14,3v9.08c0,3.88.11,4.42,2.06,4.69l1.13.17c.38.21.27,1.19-.11,1.35-1.62-.11-3.18-.16-5.07-.16s-3.57.05-5.3.16a1,1,0,0,1-.1-1.35l1.35-.17c2-.21,2-.81,2-4.69Z"/><path class="cls-2" d="M648.82,249.34c-1.41,0-1.46.11-1.46,1.46,0,5.45,3.18,10.1,9,10.1,1.78,0,3.3-.54,5-2.65a.71.71,0,0,1,1,.65,9.44,9.44,0,0,1-8.48,5,9.69,9.69,0,0,1-7.83-3.56,11.48,11.48,0,0,1-2.26-7c0-6.65,4.37-12.21,10.85-12.21,4.64,0,7.67,3.19,7.67,6.43A3.26,3.26,0,0,1,662,249c-.16.33-.92.38-3.18.38Zm3.34-1.62c4,0,5.19-.22,5.62-.54.16-.11.32-.32.32-1,0-1.51-1-3.4-4.15-3.4s-5.94,2.92-6,4.7c0,.11,0,.27.38.27Z"/><path class="cls-2" d="M683.59,234.54c0-4-.21-5-2.64-5.23l-1.73-.17a.87.87,0,0,1,0-1.35c2.92-.27,6.59-.43,11.61-.43,3.4,0,6.64.27,9.07,1.51a7.09,7.09,0,0,1,4.11,6.75c0,3.89-2.27,5.89-5.51,7.4,0,.54.43.7,1,.81a8.94,8.94,0,0,1,7.23,9c0,6.26-4.64,10.48-14.36,10.48-1.57,0-4.21-.16-6.48-.16s-4.21.1-6.21.16a1,1,0,0,1-.11-1.35l1-.17c2.86-.48,3-1.08,3-6.75Zm4.43,7.19c0,1.51.05,1.62,2.81,1.51,5.51-.22,8.48-1.84,8.48-6.91,0-5.3-3.95-7.29-8-7.29a6.53,6.53,0,0,0-2.48.32c-.54.16-.76.43-.76,1.4Zm0,12.52c0,1.95.11,4.7,1.13,5.89s2.65,1.51,4.27,1.51c4.81,0,8.48-2.16,8.48-7.56,0-4.26-2.16-9.23-10.75-9.23-2.91,0-3.13.32-3.13,1.4Z"/><path class="cls-2" d="M714,247.67c0-2.11,0-2.38-1.45-3.35l-.49-.33a.73.73,0,0,1,.05-1,36.93,36.93,0,0,0,5.57-2.64c.27,0,.48.1.54.32-.11,1.89-.22,4.48-.22,6.7v9.72c0,3.88.11,4.42,2,4.69l1.14.17a.94.94,0,0,1-.11,1.35c-1.62-.11-3.19-.16-5.08-.16s-3.56.05-5.07.16a.94.94,0,0,1-.11-1.35l1.13-.17c2-.27,2-.81,2-4.69Zm4.49-15.39a2.81,2.81,0,0,1-5.62.1,2.81,2.81,0,0,1,2.92-2.91A2.7,2.7,0,0,1,718.48,232.28Z"/><path class="cls-2" d="M746.66,243.08c.6.27.49,2.1-.32,2.21h-3.89a23.08,23.08,0,0,1,.11,2.75c0,3.73-2.21,8.59-9.07,8.59-1,0-1.73-.11-2.38-.16-.65.38-2.37,1.4-2.37,3,0,1.24,1.24,2.27,3.78,2.27,1.83,0,4.05-.17,6.42-.17,3,0,7.56.54,7.56,5.95,0,5.88-6.42,10.2-13.44,10.2-6.65,0-9-3.56-9-6.26a3,3,0,0,1,.6-2c.91-1,2.43-2.38,3.67-3.62.48-.48.92-1,.43-1.29-2.11-.54-3.94-2.38-3.94-4.27,0-.27.21-.49.81-.92a16.65,16.65,0,0,0,2.86-2.48,2.15,2.15,0,0,0,.54-1,7.32,7.32,0,0,1-4-6.53c0-4.65,4-8.16,8.8-8.16a13.55,13.55,0,0,1,5.19,1.08,6.4,6.4,0,0,0,3.29.87Zm-11.28,21.81c-1.73,0-3.89.11-4.65.6a5.54,5.54,0,0,0-2.59,4.53c0,2.92,2.32,5.35,7.24,5.35s8-2.7,8-5.78c0-3.29-2.27-4.7-6.16-4.7Zm3.35-15.44c0-3.67-1.52-6.75-4.81-6.75-2.59,0-4.54,2.37-4.54,6.05,0,3.83,2.33,6.31,4.92,6.31C737.21,255.06,738.73,252.74,738.73,249.45Z"/><path class="cls-2" d="M767.08,234.54c0-3.78-.27-4.91-2.54-5.23l-1.19-.17a.81.81,0,0,1,0-1.35c4.59-.27,9-.43,13.56-.43s8.37.33,11.88,1.62c7.29,2.65,11,8.8,11,15.93A17.69,17.69,0,0,1,790.35,261a26,26,0,0,1-12.1,2.6c-3.45,0-6.91-.43-8.8-.43-2.27,0-4.21.05-6.75.16a1.06,1.06,0,0,1-.11-1.35l1.25-.17c3.13-.43,3.24-1.08,3.24-6.75Zm4.42,19.28c0,2.87.17,4.59,1.08,5.89,1.19,1.67,3.24,2.21,6.65,2.21,10.47,0,15.17-6.86,15.17-16.9,0-5.94-2.86-16-17-16-3.19,0-4.91.43-5.35.75s-.54,1.68-.54,4.11Z"/><path class="cls-2" d="M806.93,247.67c0-2.11,0-2.38-1.46-3.35L805,244a.74.74,0,0,1,.06-1,36.84,36.84,0,0,0,5.56-2.64c.27,0,.49.1.54.32-.11,1.89-.22,4.48-.22,6.7v9.72c0,3.88.11,4.42,2.06,4.69l1.13.17a.94.94,0,0,1-.11,1.35c-1.62-.11-3.18-.16-5.07-.16s-3.57.05-5.08.16a1,1,0,0,1-.11-1.35l1.14-.17c2-.27,2-.81,2-4.69Zm4.48-15.39a2.81,2.81,0,0,1-5.62.1,2.81,2.81,0,0,1,2.92-2.91A2.7,2.7,0,0,1,811.41,232.28Z"/><path class="cls-2" d="M820.1,247.67c0-2.11,0-2.38-1.45-3.35l-.49-.33a.73.73,0,0,1,.05-1,32.37,32.37,0,0,0,5.35-2.91.61.61,0,0,1,.65.37A24.36,24.36,0,0,0,824,243c0,.38.11.7.49.7.7-.32,4.1-2.54,7.56-2.54,5.45,0,9,4.43,9,9.88,0,7.51-5.51,12.91-13.17,12.91a21.58,21.58,0,0,1-3-.21c-.49.1-.76.37-.76,1.51v5.67c0,3.83.11,4.32,2,4.59l2.11.27a.94.94,0,0,1-.11,1.35c-2.59-.11-4.16-.16-6-.16s-3.56.05-5.07.16a.94.94,0,0,1-.11-1.35l1.13-.16c2-.27,2.05-.81,2.05-4.7Zm4,10a3.47,3.47,0,0,0,1.62,3.24,7.1,7.1,0,0,0,3.89,1.19c4.43,0,7-4.1,7-9.72,0-4.32-2.43-8.7-7.29-8.7a6.62,6.62,0,0,0-4.59,1.52c-.49.59-.65,1.4-.65,3.18Z"/><path class="cls-2" d="M847.48,247.67c0-2.11,0-2.38-1.46-3.35l-.48-.33a.73.73,0,0,1,.05-1,32.78,32.78,0,0,0,5.35-2.91.61.61,0,0,1,.65.37,24.36,24.36,0,0,0-.22,2.49c0,.38.11.7.49.7.7-.32,4.1-2.54,7.56-2.54,5.45,0,9,4.43,9,9.88,0,7.51-5.51,12.91-13.18,12.91a21.83,21.83,0,0,1-3-.21c-.48.1-.75.37-.75,1.51v5.67c0,3.83.11,4.32,2,4.59l2.11.27a1,1,0,0,1-.11,1.35c-2.59-.11-4.16-.16-6-.16s-3.56.05-5.08.16a1,1,0,0,1-.1-1.35l1.13-.16c2-.27,2.05-.81,2.05-4.7Zm4,10A3.47,3.47,0,0,0,853.1,261a7.1,7.1,0,0,0,3.89,1.19c4.42,0,7-4.1,7-9.72,0-4.32-2.43-8.7-7.29-8.7a6.6,6.6,0,0,0-4.59,1.52c-.49.59-.65,1.4-.65,3.18Z"/><path class="cls-2" d="M877.29,249.34c-1.41,0-1.46.11-1.46,1.46,0,5.45,3.19,10.1,9,10.1,1.79,0,3.3-.54,5-2.65a.72.72,0,0,1,1,.65,9.46,9.46,0,0,1-8.48,5,9.67,9.67,0,0,1-7.83-3.56,11.49,11.49,0,0,1-2.27-7c0-6.65,4.37-12.21,10.85-12.21,4.65,0,7.67,3.19,7.67,6.43a3.26,3.26,0,0,1-.22,1.4c-.16.33-.91.38-3.18.38Zm3.35-1.62c4,0,5.18-.22,5.61-.54.16-.11.33-.32.33-1,0-1.51-1-3.4-4.16-3.4s-5.94,2.92-6,4.7c0,.11,0,.27.38.27Z"/><path class="cls-2" d="M896.94,247.67c0-2.11,0-2.38-1.45-3.35L895,244a.73.73,0,0,1,0-1,41.08,41.08,0,0,0,5.46-2.64c.27.05.43.16.43.37v3.14c0,.27,0,.43.16.48,1.89-1.56,3.94-3.24,5.94-3.24a2.24,2.24,0,0,1,2.43,2.16,2.4,2.4,0,0,1-2.32,2.49,2.13,2.13,0,0,1-1.19-.38,4.44,4.44,0,0,0-2.37-.87,2.41,2.41,0,0,0-2,1.08c-.54.76-.7,2.33-.7,4.16v7.35c0,3.88.11,4.53,2.16,4.69L905,262a1,1,0,0,1-.1,1.35c-2.54-.11-4.11-.16-6-.16s-3.56.05-5,.16a1,1,0,0,1-.1-1.35l1-.17c2-.32,2.05-.81,2.05-4.69Z"/><path class="cls-2" d="M196.65,299.34c0-4-.21-5-2.64-5.23l-1.73-.17a.87.87,0,0,1,.05-1.35c2.92-.27,6.59-.43,11.61-.43,3.41,0,6.65.27,9.08,1.51a7.1,7.1,0,0,1,4.1,6.75c0,3.89-2.27,5.89-5.51,7.4,0,.54.43.7,1,.81a8.93,8.93,0,0,1,7.23,9c0,6.27-4.64,10.48-14.36,10.48-1.57,0-4.21-.17-6.48-.17s-4.21.11-6.21.17a1.06,1.06,0,0,1-.11-1.35l1-.16c2.87-.49,3-1.08,3-6.76Zm4.43,7.19c0,1.51.06,1.62,2.81,1.51,5.51-.22,8.48-1.84,8.48-6.91,0-5.3-3.94-7.29-8.05-7.29a6.53,6.53,0,0,0-2.48.32c-.54.16-.76.43-.76,1.4Zm0,12.52c0,1.95.11,4.7,1.14,5.89s2.64,1.51,4.26,1.51c4.81,0,8.48-2.16,8.48-7.56,0-4.26-2.16-9.23-10.75-9.23-2.91,0-3.13.32-3.13,1.4Z"/><path class="cls-2" d="M229.11,314.14c-1.41,0-1.46.11-1.46,1.46,0,5.45,3.19,10.1,9,10.1,1.79,0,3.3-.54,5-2.65a.71.71,0,0,1,1,.65,9.43,9.43,0,0,1-8.47,5,9.67,9.67,0,0,1-7.83-3.56,11.49,11.49,0,0,1-2.27-7c0-6.65,4.37-12.21,10.85-12.21,4.65,0,7.67,3.19,7.67,6.43a3.26,3.26,0,0,1-.22,1.4c-.16.33-.91.38-3.18.38Zm3.35-1.62c4,0,5.18-.22,5.61-.54.16-.11.33-.32.33-1,0-1.51-1-3.4-4.16-3.4s-5.94,2.92-6,4.7c0,.11,0,.27.38.27Z"/><path class="cls-2" d="M253.52,309c-.92,0-.92.1-.92,1.56v11.4c0,3.88.11,4.53,2.05,4.7l1.94.16a1,1,0,0,1-.1,1.35c-2.43-.11-4-.17-5.89-.17s-3.56.06-5.18.17a.94.94,0,0,1-.11-1.35l1.24-.16c2-.28,2-.82,2-4.7v-11.4c0-1.46,0-1.56-1.08-1.56h-1.89a.76.76,0,0,1-.16-1l2.32-1.13a1.23,1.23,0,0,0,.81-1.08,24.17,24.17,0,0,1,1.68-9.51c1.35-3.08,4.37-6.86,9.72-6.86,2.86,0,5.29,1.3,5.29,3.24a2.07,2.07,0,0,1-2.05,2,1.55,1.55,0,0,1-1.3-.65,6,6,0,0,0-4.32-2.38c-1.67,0-3,1-3.83,3-1,2.49-1.19,6.43-1.19,9.13v1.57c0,1.45,0,1.51.92,1.51h6.15a1.66,1.66,0,0,1-.38,2.27Z"/><path class="cls-2" d="M283.49,317.11c0,6.75-4.65,11.61-11.4,11.61A10.67,10.67,0,0,1,261,317.6a11.35,11.35,0,0,1,11.5-11.67A10.8,10.8,0,0,1,283.49,317.11Zm-11.61-9.56c-3.57,0-6.21,3.4-6.21,9.34,0,4.92,2.21,10.21,7,10.21s6.21-5,6.21-9.13C278.84,313.38,277,307.55,271.88,307.55Z"/><path class="cls-2" d="M290.67,312.47c0-2.11,0-2.38-1.46-3.35l-.49-.33a.74.74,0,0,1,.06-1,41.58,41.58,0,0,0,5.45-2.64c.27.05.43.16.43.37v3.14c0,.27.06.43.17.48,1.89-1.56,3.94-3.24,5.94-3.24a2.24,2.24,0,0,1,2.43,2.16,2.4,2.4,0,0,1-2.33,2.49,2,2,0,0,1-1.18-.38,4.44,4.44,0,0,0-2.38-.87,2.39,2.39,0,0,0-1.94,1.09c-.54.75-.71,2.32-.71,4.15v7.35c0,3.88.11,4.53,2.16,4.7l1.95.16a.94.94,0,0,1-.11,1.35c-2.54-.11-4.1-.17-6-.17s-3.57.06-5,.17a.94.94,0,0,1-.11-1.35l1-.16c2-.33,2.05-.82,2.05-4.7Z"/><path class="cls-2" d="M309.78,314.14c-1.4,0-1.45.11-1.45,1.46,0,5.45,3.18,10.1,9,10.1,1.78,0,3.29-.54,5-2.65a.71.71,0,0,1,1,.65,9.44,9.44,0,0,1-8.48,5,9.69,9.69,0,0,1-7.83-3.56,11.49,11.49,0,0,1-2.27-7c0-6.65,4.38-12.21,10.86-12.21,4.64,0,7.67,3.19,7.67,6.43a3.26,3.26,0,0,1-.22,1.4c-.16.33-.92.38-3.19.38Zm3.35-1.62c4,0,5.19-.22,5.62-.54.16-.11.32-.32.32-1,0-1.51-1-3.4-4.16-3.4s-5.94,2.92-6,4.7c0,.11,0,.27.38.27Z"/><path class="cls-2" d="M338.94,339.09a2,2,0,0,1,2.16-2.16h1a2,2,0,0,0,1.78-1,33.53,33.53,0,0,0,3.13-6,8.18,8.18,0,0,0,.54-2.32,10.05,10.05,0,0,0-.92-3.72l-4.21-11.56c-.91-2.54-1.29-3.84-3.18-4.21l-1.35-.27c-.33-.27-.27-1.19.16-1.35,1.73.1,3.35.16,5.13.16,1.46,0,3-.06,4.7-.16.43.16.48,1.08.11,1.35l-1.36.27c-.75.16-1.18.32-1.18.7a40.84,40.84,0,0,0,1.56,5.07l1.73,5a30.35,30.35,0,0,0,1.57,3.84,27.86,27.86,0,0,0,2-4l1.83-4.27a24.73,24.73,0,0,0,1.89-5.4c0-.37-.32-.75-1.29-.91l-1.68-.27c-.38-.27-.32-1.19.11-1.35,1.73.1,3.35.16,4.75.16s2.59-.06,4.11-.16a.9.9,0,0,1,.1,1.35l-.92.16c-1.78.32-2.75,1.89-4.58,5.72l-3,6.21c-1.78,3.62-6.21,13-8.86,18.9-.91,2.05-2.21,2.54-3.45,2.54A2.17,2.17,0,0,1,338.94,339.09Z"/><path class="cls-2" d="M385.33,317.11c0,6.75-4.65,11.61-11.4,11.61a10.67,10.67,0,0,1-11.07-11.12,11.35,11.35,0,0,1,11.51-11.67A10.79,10.79,0,0,1,385.33,317.11Zm-11.61-9.56c-3.57,0-6.21,3.4-6.21,9.34,0,4.92,2.21,10.21,7,10.21s6.21-5,6.21-9.13C380.68,313.38,378.85,307.55,373.72,307.55Z"/><path class="cls-2" d="M395.8,320c0,3.72.92,6.21,5,6.21a7.11,7.11,0,0,0,4.37-1.62,3.78,3.78,0,0,0,1.08-3.14v-8.85c0-3.51-.38-3.62-2-4.27l-.7-.27a.74.74,0,0,1,.05-1.19,21.47,21.47,0,0,0,6.32-1c.27.06.43.16.49.38-.11,1-.16,2.7-.16,4.7v9.07c0,4.27.16,5.89,1.67,5.89a10.43,10.43,0,0,0,2.11-.27c.32.27.37,1.35-.06,1.56-2.1.44-5.24,1-7.07,2a.75.75,0,0,1-.65-.38v-2.21c0-.49-.16-.76-.49-.76-1.62,1-4.26,2.81-7.45,2.81-4.75,0-6.53-2.38-6.53-6.75v-9c0-3.4,0-3.89-1.62-4.59l-.65-.27a.81.81,0,0,1,.11-1.19,19.11,19.11,0,0,0,5.78-1c.32.06.48.16.54.38a39.55,39.55,0,0,0-.17,4.7Z"/><path class="cls-2" d="M443.16,306.9a12.56,12.56,0,0,1,.87,4.38,1,1,0,0,1-1.3.16c-.92-2.38-2.54-3.94-4.75-3.94a3.19,3.19,0,0,0-3.46,3.29c0,2.22,2.27,3.4,4.16,4.48,2.86,1.62,5.51,3.46,5.51,7.29,0,4.11-3.78,6.16-7.78,6.16a9,9,0,0,1-5.78-1.62,16,16,0,0,1-.64-5.45.91.91,0,0,1,1.24-.06c.92,3,2.64,5.57,5.72,5.57a3.33,3.33,0,0,0,3.62-3.46c0-2.49-2.16-3.84-4.16-5-3.13-1.78-5.34-3.67-5.34-6.64,0-3.94,3.24-6.16,7.34-6.16A9.55,9.55,0,0,1,443.16,306.9Z"/><path class="cls-2" d="M455.53,309c-.92,0-1,.16-1,1.29v10.1c0,3.13.37,6,3.94,6a4.22,4.22,0,0,0,1.46-.26c.48-.17,1.18-.76,1.35-.76.43,0,.64.59.54.92a7.51,7.51,0,0,1-5.67,2.48c-4.65,0-5.62-2.59-5.62-5.83V310.52c0-1.46-.05-1.56-1.13-1.56h-1.52a.92.92,0,0,1-.16-1.14,10.72,10.72,0,0,0,3.46-1.67,13.5,13.5,0,0,0,2.27-3.19,1,1,0,0,1,1.13.27v2.43c0,1,.05,1,1,1h6a1.73,1.73,0,0,1,.05,2.27Z"/><path class="cls-2" d="M467.68,312.47c0-2.11,0-2.38-1.46-3.35l-.49-.33a.74.74,0,0,1,.06-1,41.58,41.58,0,0,0,5.45-2.64c.27.05.43.16.43.37v3.14c0,.27.06.43.17.48,1.89-1.56,3.94-3.24,5.94-3.24a2.24,2.24,0,0,1,2.43,2.16,2.4,2.4,0,0,1-2.33,2.49,2,2,0,0,1-1.18-.38,4.44,4.44,0,0,0-2.38-.87,2.39,2.39,0,0,0-1.94,1.09c-.54.75-.71,2.32-.71,4.15v7.35c0,3.88.11,4.53,2.16,4.7l1.95.16a.94.94,0,0,1-.11,1.35c-2.54-.11-4.1-.17-6-.17s-3.57.06-5,.17a.94.94,0,0,1-.11-1.35l1-.16c2-.33,2.05-.82,2.05-4.7Z"/><path class="cls-2" d="M493.11,316.79c.81-.27.92-.76.92-1.57l.05-2.48c.06-2-.59-4.7-3.94-4.7-1.51,0-3.35.75-3.46,2.43-.05.86-.1,1.51-.54,1.83a5.77,5.77,0,0,1-3.07,1,.69.69,0,0,1-.76-.76c0-2.8,6.1-6.64,10-6.64s5.78,2.27,5.62,6.32l-.32,9.4c-.11,2.48.37,4.69,2.48,4.69a3.12,3.12,0,0,0,1.35-.32c.27-.16.54-.38.7-.38s.38.33.38.7a5.64,5.64,0,0,1-4.54,2.38,4.34,4.34,0,0,1-3.51-1.67c-.21-.33-.54-.76-.86-.76a8.4,8.4,0,0,0-2.11,1.08,7.92,7.92,0,0,1-3.88,1.35,5.57,5.57,0,0,1-3.78-1.24,5,5,0,0,1-1.68-3.78c0-2.11,1-3.35,4.48-4.59Zm-3.35,9.5a6.13,6.13,0,0,0,3.3-1.35c.64-.65.64-1.4.7-2.54l.11-3.18c0-.6-.22-.71-.54-.71a10.36,10.36,0,0,0-2.22.54c-3.18,1.08-4.75,1.89-4.75,4A3.25,3.25,0,0,0,489.76,326.29Z"/><path class="cls-2" d="M503.42,339.09a2,2,0,0,1,2.16-2.16h1a2,2,0,0,0,1.78-1,33.53,33.53,0,0,0,3.13-6,7.85,7.85,0,0,0,.54-2.32,10.19,10.19,0,0,0-.91-3.72l-4.22-11.56c-.91-2.54-1.29-3.84-3.18-4.21l-1.35-.27c-.33-.27-.27-1.19.16-1.35,1.73.1,3.35.16,5.13.16,1.46,0,3-.06,4.7-.16.43.16.48,1.08.11,1.35l-1.35.27c-.76.16-1.19.32-1.19.7a40.84,40.84,0,0,0,1.56,5.07l1.73,5a30.35,30.35,0,0,0,1.57,3.84,27.86,27.86,0,0,0,2-4l1.83-4.27a24.73,24.73,0,0,0,1.89-5.4c0-.37-.32-.75-1.29-.91l-1.68-.27c-.38-.27-.32-1.19.11-1.35,1.73.1,3.35.16,4.75.16s2.59-.06,4.11-.16a.9.9,0,0,1,.1,1.35l-.91.16c-1.79.32-2.76,1.89-4.59,5.72l-3,6.21c-1.78,3.62-6.21,13-8.85,18.9-.92,2.05-2.22,2.54-3.46,2.54A2.17,2.17,0,0,1,503.42,339.09Z"/><path class="cls-2" d="M549,309c-.92,0-1,.16-1,1.29v10.1c0,3.13.38,6,3.94,6a4.17,4.17,0,0,0,1.46-.26c.48-.17,1.19-.76,1.35-.76.43,0,.65.59.54.92a7.49,7.49,0,0,1-5.67,2.48c-4.65,0-5.62-2.59-5.62-5.83V310.52c0-1.46,0-1.56-1.13-1.56h-1.51a.91.91,0,0,1-.17-1.14,10.72,10.72,0,0,0,3.46-1.67A13.5,13.5,0,0,0,547,303c.27-.11.92-.11,1.13.27v2.43c0,1,.06,1,1,1h6a1.72,1.72,0,0,1,.05,2.27Z"/><path class="cls-2" d="M580.21,317.11c0,6.75-4.64,11.61-11.39,11.61a10.67,10.67,0,0,1-11.07-11.12,11.35,11.35,0,0,1,11.5-11.67A10.79,10.79,0,0,1,580.21,317.11Zm-11.61-9.56c-3.56,0-6.21,3.4-6.21,9.34,0,4.92,2.21,10.21,7,10.21s6.21-5,6.21-9.13C575.57,313.38,573.73,307.55,568.6,307.55Z"/><path class="cls-2" d="M605.64,309c-.91,0-.91.1-.91,1.56v11.4c0,3.88.1,4.53,2,4.7l1.94.16a.94.94,0,0,1-.11,1.35c-2.43-.11-4-.17-5.88-.17s-3.57.06-5.19.17a1,1,0,0,1-.1-1.35l1.24-.16c2-.28,2.05-.82,2.05-4.7v-11.4c0-1.46,0-1.56-1.08-1.56h-1.89a.76.76,0,0,1-.16-1l2.32-1.13a1.23,1.23,0,0,0,.81-1.08,24.34,24.34,0,0,1,1.67-9.51c1.35-3.08,4.38-6.86,9.72-6.86,2.87,0,5.3,1.3,5.3,3.24a2.08,2.08,0,0,1-2.06,2,1.54,1.54,0,0,1-1.29-.65,6,6,0,0,0-4.32-2.38c-1.68,0-3,1-3.84,3-1,2.49-1.18,6.43-1.18,9.13v1.57c0,1.45,0,1.51.91,1.51h6.16a1.67,1.67,0,0,1-.38,2.27Z"/><path class="cls-2" d="M624.06,316.79c.81-.27.92-.76.92-1.57l0-2.48c.05-2-.59-4.7-3.94-4.7-1.51,0-3.35.75-3.46,2.43,0,.86-.11,1.51-.54,1.83a5.81,5.81,0,0,1-3.08,1,.68.68,0,0,1-.75-.76c0-2.8,6.1-6.64,10-6.64s5.78,2.27,5.62,6.32l-.33,9.4c-.1,2.48.38,4.69,2.49,4.69a3.16,3.16,0,0,0,1.35-.32c.27-.16.54-.38.7-.38s.38.33.38.7a5.64,5.64,0,0,1-4.54,2.38,4.34,4.34,0,0,1-3.51-1.67c-.21-.33-.54-.76-.86-.76a8.4,8.4,0,0,0-2.11,1.08,8,8,0,0,1-3.89,1.35,5.6,5.6,0,0,1-3.78-1.24,5.08,5.08,0,0,1-1.67-3.78c0-2.11,1-3.35,4.48-4.59Zm-3.35,9.5a6.09,6.09,0,0,0,3.29-1.35c.65-.65.65-1.4.71-2.54l.1-3.18c0-.6-.21-.71-.54-.71a10.45,10.45,0,0,0-2.21.54c-3.19,1.08-4.75,1.89-4.75,4A3.25,3.25,0,0,0,620.71,326.29Z"/><path class="cls-2" d="M638.37,312.47c0-2.11,0-2.38-1.46-3.35l-.49-.33a.74.74,0,0,1,.06-1,41.58,41.58,0,0,0,5.45-2.64c.27.05.43.16.43.37v3.14c0,.27.06.43.17.48,1.89-1.56,3.94-3.24,5.94-3.24a2.24,2.24,0,0,1,2.43,2.16,2.4,2.4,0,0,1-2.33,2.49,2,2,0,0,1-1.18-.38,4.44,4.44,0,0,0-2.38-.87,2.39,2.39,0,0,0-1.94,1.09c-.54.75-.71,2.32-.71,4.15v7.35c0,3.88.11,4.53,2.16,4.7l2,.16a.94.94,0,0,1-.11,1.35c-2.54-.11-4.1-.17-6-.17s-3.57.06-5,.17a.94.94,0,0,1-.11-1.35l1-.16c2-.33,2-.82,2-4.7Z"/><path class="cls-2" d="M674.55,309c-.92,0-.92.1-.92,1.56v11.4c0,3.88.11,4.53,2,4.7l1.94.16a1,1,0,0,1-.1,1.35c-2.43-.11-4-.17-5.89-.17s-3.56.06-5.18.17a.94.94,0,0,1-.11-1.35l1.24-.16c2-.28,2-.82,2-4.7v-11.4c0-1.46,0-1.56-1.08-1.56h-1.89a.76.76,0,0,1-.16-1l2.32-1.13a1.23,1.23,0,0,0,.81-1.08,24.17,24.17,0,0,1,1.68-9.51c1.35-3.08,4.37-6.86,9.72-6.86,2.86,0,5.29,1.3,5.29,3.24a2.07,2.07,0,0,1-2.05,2,1.55,1.55,0,0,1-1.3-.65,6,6,0,0,0-4.32-2.38c-1.67,0-3,1-3.83,3-1,2.49-1.19,6.43-1.19,9.13v1.57c0,1.45,0,1.51.92,1.51h6.15a1.66,1.66,0,0,1-.38,2.27Z"/><path class="cls-2" d="M685.45,312.47c0-2.11,0-2.38-1.45-3.35l-.49-.33a.73.73,0,0,1,0-1,41.08,41.08,0,0,0,5.46-2.64c.27.05.43.16.43.37v3.14c0,.27,0,.43.16.48,1.89-1.56,3.95-3.24,5.94-3.24a2.24,2.24,0,0,1,2.43,2.16,2.4,2.4,0,0,1-2.32,2.49,2.06,2.06,0,0,1-1.19-.38,4.44,4.44,0,0,0-2.37-.87,2.39,2.39,0,0,0-2,1.09c-.54.75-.7,2.32-.7,4.15v7.35c0,3.88.11,4.53,2.16,4.7l1.95.16a1,1,0,0,1-.11,1.35c-2.54-.11-4.11-.17-6-.17s-3.56.06-5,.17a1,1,0,0,1-.1-1.35l1-.16c2-.33,2.05-.82,2.05-4.7Z"/><path class="cls-2" d="M722.12,317.11c0,6.75-4.64,11.61-11.39,11.61a10.67,10.67,0,0,1-11.07-11.12,11.35,11.35,0,0,1,11.5-11.67A10.79,10.79,0,0,1,722.12,317.11Zm-11.61-9.56c-3.56,0-6.21,3.4-6.21,9.34,0,4.92,2.21,10.21,7,10.21s6.21-5,6.21-9.13C717.48,313.38,715.64,307.55,710.51,307.55Z"/><path class="cls-2" d="M757.92,314.09c0-3.67-1.62-5.57-5-5.57a5.78,5.78,0,0,0-4.48,1.9c-.65.8-.81,1.34-.81,3.23v8.27c0,3.88.11,4.42,2,4.7l1.13.16a1,1,0,0,1-.1,1.35c-1.62-.11-3.19-.17-5.08-.17s-3.4.06-4.91.17a.94.94,0,0,1-.11-1.35l1-.16c2-.33,2.05-.82,2.05-4.7v-7.83c0-3.62-1.62-5.57-5-5.57a5.79,5.79,0,0,0-4.53,2c-.54.65-.81,1.35-.81,3.08v8.37c0,3.88.11,4.37,2.05,4.7l1,.16a.94.94,0,0,1-.11,1.35c-1.45-.11-3-.17-4.91-.17s-3.56.06-5.24.17a1,1,0,0,1-.11-1.35l1.3-.16c2-.28,2-.82,2-4.7v-9.45c0-2.11,0-2.38-1.46-3.35l-.48-.33a.73.73,0,0,1,0-1,29.33,29.33,0,0,0,5.4-2.64.63.63,0,0,1,.6.37c-.11,1.25-.11,2.06-.11,2.54a.56.56,0,0,0,.59.6,13,13,0,0,1,7.18-2.76c2.7,0,4.22,1,5.73,3.19a1.71,1.71,0,0,0,1.35-.43,13.46,13.46,0,0,1,7.34-2.76c4.32,0,6.43,3,6.43,6.7v9.29c0,3.88.11,4.42,2.05,4.7l1.3.16a1,1,0,0,1-.11,1.35c-1.78-.11-3.35-.17-5.24-.17s-3.4.06-4.91.17a.94.94,0,0,1-.11-1.35l1-.16c2-.33,2-.82,2-4.7Z"/><path class="cls-2" d="M784.76,297.51c0-3.19-.06-3.51-1.68-4.48l-.54-.33a.82.82,0,0,1,0-1.08,38,38,0,0,0,5.84-2.27.6.6,0,0,1,.54.33c-.06,1.62-.17,4.32-.17,6.69v11.34c0,.49.06.92.22,1a12.28,12.28,0,0,1,7.29-2.81c5.13,0,7,3.19,7,7v9c0,3.88.1,4.48,2,4.7l1.46.16a.94.94,0,0,1-.11,1.35c-1.94-.11-3.51-.17-5.4-.17s-3.57.06-5,.17a.94.94,0,0,1-.11-1.35l1.08-.16c2-.33,2.05-.82,2.05-4.7v-7.73c0-3.45-1.67-5.77-5.13-5.77a6.39,6.39,0,0,0-4.21,1.46c-1,.8-1.14,1.07-1.14,3v9.08c0,3.88.11,4.42,2.06,4.7l1.13.16c.38.21.27,1.18-.11,1.35-1.62-.11-3.18-.17-5.07-.17s-3.57.06-5.3.17a1,1,0,0,1-.1-1.35l1.35-.16c2-.22,2-.82,2-4.7Z"/><path class="cls-2" d="M832.17,317.11c0,6.75-4.64,11.61-11.39,11.61a10.67,10.67,0,0,1-11.07-11.12,11.35,11.35,0,0,1,11.5-11.67A10.79,10.79,0,0,1,832.17,317.11Zm-11.61-9.56c-3.56,0-6.21,3.4-6.21,9.34,0,4.92,2.22,10.21,7,10.21s6.21-5,6.21-9.13C827.53,313.38,825.69,307.55,820.56,307.55Z"/><path class="cls-2" d="M868,314.09c0-3.67-1.62-5.57-5-5.57a5.78,5.78,0,0,0-4.48,1.9c-.65.8-.81,1.34-.81,3.23v8.27c0,3.88.11,4.42,2.05,4.7l1.13.16a.94.94,0,0,1-.1,1.35c-1.62-.11-3.19-.17-5.08-.17s-3.4.06-4.91.17a.94.94,0,0,1-.11-1.35l1-.16c2-.33,2-.82,2-4.7v-7.83c0-3.62-1.62-5.57-5-5.57a5.79,5.79,0,0,0-4.53,2c-.54.65-.81,1.35-.81,3.08v8.37c0,3.88.11,4.37,2,4.7l1,.16a.94.94,0,0,1-.11,1.35c-1.45-.11-3-.17-4.91-.17s-3.56.06-5.24.17a1,1,0,0,1-.11-1.35l1.3-.16c2-.28,2.05-.82,2.05-4.7v-9.45c0-2.11,0-2.38-1.46-3.35l-.48-.33a.73.73,0,0,1,.05-1,29.33,29.33,0,0,0,5.4-2.64.63.63,0,0,1,.6.37c-.11,1.25-.11,2.06-.11,2.54a.56.56,0,0,0,.59.6,13,13,0,0,1,7.18-2.76c2.71,0,4.22,1,5.73,3.19a1.71,1.71,0,0,0,1.35-.43,13.46,13.46,0,0,1,7.34-2.76c4.32,0,6.43,3,6.43,6.7v9.29c0,3.88.11,4.42,2,4.7l1.3.16a.94.94,0,0,1-.11,1.35c-1.78-.11-3.35-.17-5.24-.17s-3.4.06-4.91.17a.94.94,0,0,1-.11-1.35l1-.16c2-.33,2.05-.82,2.05-4.7Z"/><path class="cls-2" d="M883.58,314.14c-1.41,0-1.46.11-1.46,1.46,0,5.45,3.19,10.1,9,10.1,1.79,0,3.3-.54,5-2.65a.72.72,0,0,1,1,.65,9.46,9.46,0,0,1-8.48,5,9.67,9.67,0,0,1-7.83-3.56,11.49,11.49,0,0,1-2.27-7c0-6.65,4.37-12.21,10.85-12.21,4.65,0,7.67,3.19,7.67,6.43a3.26,3.26,0,0,1-.22,1.4c-.16.33-.91.38-3.18.38Zm3.35-1.62c4,0,5.18-.22,5.61-.54.16-.11.33-.32.33-1,0-1.51-1-3.4-4.16-3.4s-5.94,2.92-6,4.7c0,.11,0,.27.38.27Z"/><path class="cls-2" d="M420.58,493.75a8.85,8.85,0,0,1-3-3.45q-.82-1.79-1.69-11.38T415,464.63V461c-.05-1.06-.07-2.23-.07-3.52a62.24,62.24,0,0,1,.41-7.11,17,17,0,0,1,.73-3,10.35,10.35,0,0,1,1.27-2.41,7.29,7.29,0,0,1,4.56-3.11,14.23,14.23,0,0,1,3.52-.41,5.31,5.31,0,0,1,2.65.76,2.14,2.14,0,0,1,1.35,1.79c0,.51-.37.76-1.1.76a5.34,5.34,0,0,1-1.59-.48,4.52,4.52,0,0,0-1.86-.49,7.57,7.57,0,0,0-3.49.8,6.55,6.55,0,0,0-2.45,2.1,10.51,10.51,0,0,0-1.31,3,18.76,18.76,0,0,0-.69,3.86,34.91,34.91,0,0,0-.21,4.14l.07,3.87c.05,1.1.07,2.3.07,3.59q0,4.76,1,14t1.86,10.7a5.22,5.22,0,0,0,2.45,2,8.64,8.64,0,0,0,3.42.69,5.94,5.94,0,0,0,4.83-2,1.68,1.68,0,0,1,1.31-.83c.41,0,.62.32.62,1a3.38,3.38,0,0,1-.76,2.18,4.72,4.72,0,0,1-2.07,1.41,11.81,11.81,0,0,1-4.83,1A7.11,7.11,0,0,1,420.58,493.75Z"/><path class="cls-2" d="M438.52,493.48a10.88,10.88,0,0,0,.13-2.28q0-6.34.21-18.84t.21-17.94l.14-2.48.2-2.07a.43.43,0,0,1,.49-.49,3.21,3.21,0,0,1,1,.21l.21.07c0,1,0,1.93-.07,2.76v10.21q.08,3.31.07,7.52a9.53,9.53,0,0,0-.07,1.52l-.07,1.45c-.05.92-.07,1.86-.07,2.83s0,2,.07,2.9l.07,3-.21.56.07-.07c0,.14,0,.23-.07.27v.28a2.06,2.06,0,0,0,.21,1l-.21,6.63v.41a7.59,7.59,0,0,0,.07,1.38.31.31,0,0,0,.35.35l3.59.14c1.05,0,1.78,0,2.17,0l.72,0h.21a1,1,0,0,1,.69.37,1.2,1.2,0,0,1,.35.8c0,.55-.37.85-1.11.89s-2.69-.06-5.73-.06l.14.06c-.46,0-.89,0-1.31.07a4.75,4.75,0,0,1-1.24.14C439,495.06,438.65,494.53,438.52,493.48Z"/><path class="cls-2" d="M457.49,493.48a2,2,0,0,0-.55.06h-.55c-1,0-1.66-.23-1.94-.69A1,1,0,0,1,455,492l.34-.35h2l.28-.27.14-.63.07-.82q0-4.21-.21-7.52l-.14-2.56-.14-5q0-2.7.21-8.08l.14-8a69.27,69.27,0,0,0-.35-8,7.6,7.6,0,0,0-2.07-.2l-.76.07a6.13,6.13,0,0,1-.89.06c-.88,0-1.31-.39-1.31-1.17,0-.18.2-.37.62-.55a2.75,2.75,0,0,1,1-.28,51.29,51.29,0,0,1,5.25.28,11.2,11.2,0,0,1,3.17.62c.83.28,1.24.67,1.24,1.17a1.64,1.64,0,0,1-.21.56l-1.58.13a3.35,3.35,0,0,0-2-.41l-.35.21a17.17,17.17,0,0,1,.21,3.65q0,4.56-.07,8.22l-.14,8.21c0,2.07.09,4.57.28,7.52q.21,5,.21,7.59v.89a8.62,8.62,0,0,0-.07,1.25,5.35,5.35,0,0,0,.2,1.93l-.07.14c0,.46.51.69,1.52.69a7.28,7.28,0,0,0,1-.07h1c1.34,0,2,.32,2,1a1.3,1.3,0,0,1-.41,1,1.55,1.55,0,0,1-1.1.38,4.13,4.13,0,0,1-1.11-.13,8.76,8.76,0,0,0-1.17-.07,3.57,3.57,0,0,0-1.24.34,3.19,3.19,0,0,1-1.25.42C458.3,494.17,457.67,493.94,457.49,493.48Z"/><path class="cls-2" d="M477.09,494.65a6.85,6.85,0,0,1-2.25-1.17,7.83,7.83,0,0,1-1.76-2.28,19.82,19.82,0,0,1-1.72-7.94c-.09-1.56-.14-2.94-.14-4.14v-7.86q0-4.49.28-8.7a43,43,0,0,1,.62-5.24,21.22,21.22,0,0,1,1.31-4.28,7.68,7.68,0,0,1,2.14-3.1,7.15,7.15,0,0,1,1.86-1c.6-.23,1.17-.48,1.73-.76h3a.28.28,0,0,0,.21.07l.35.07.27.21c.14.13.21.23.21.27a1.06,1.06,0,0,1,.07.42l-.9,1h-2.9a3.09,3.09,0,0,0-2.38,1.28,8.66,8.66,0,0,0-1.62,3.21,25.4,25.4,0,0,0-.9,4.07,37.5,37.5,0,0,0-.41,4.07c-.09,1.47-.14,2.48-.14,3l-.14.35q0,3.87-.13,7l-.14,7a35.87,35.87,0,0,0,.41,5.59,10.26,10.26,0,0,0,2,5,5.61,5.61,0,0,0,4.9,2.21,2.47,2.47,0,0,0,1.73-.62c.69,0,1,.25,1,.76,0,.32-.29.7-.86,1.14a7.13,7.13,0,0,1-1.76,1h-2.28Z"/><path class="cls-2" d="M502.82,489.2a104.15,104.15,0,0,1-3.72-12.42,61.39,61.39,0,0,1-1.73-9.39l-.21-.27-1,2.21a24.93,24.93,0,0,0-1.14,2.38,17.89,17.89,0,0,0-.72,2.31,8.74,8.74,0,0,0-.42,2.69,18.57,18.57,0,0,1-.14,2.48l-.13,2.49v8.83a16.5,16.5,0,0,0,.2,2,12.41,12.41,0,0,1,.21,1.93.73.73,0,0,1-.34.59,1.34,1.34,0,0,1-.76.24,1.86,1.86,0,0,1-1.21-.28,1.56,1.56,0,0,1-.31-1.17v-13c0-.74.11-2.19.34-4.35s.35-3.61.35-4.35q0-2.89.34-6.69t.28-6.62v-9.59a1.38,1.38,0,0,1,1.31-.76,1.23,1.23,0,0,1,.93.38,1.27,1.27,0,0,1,.38.93,8.24,8.24,0,0,0-.55,3.31l-.14,7.24q-.14,3.31-.14,7.32.69-.21,5.39-9.52T505,448.9q1.8,0,1.8,1.17a93.75,93.75,0,0,0-7.32,12.77l-.07,2.21c0,.64-.07,1.38-.07,2.2q0,3,2.35,11.39a70.93,70.93,0,0,0,4,11.59c.51.69.81,1.08.9,1.18a11.08,11.08,0,0,1,1,1.62,3,3,0,0,1,.31,1.34.92.92,0,0,1-.35.76,1.29,1.29,0,0,1-.82.28Q505.1,495.41,502.82,489.2Z"/><path class="cls-2" d="M530.77,493.2l-.07-2.55c-.05-.74-.07-1.57-.07-2.49a7.81,7.81,0,0,1,.07-1.17l.07-1.24a6.44,6.44,0,0,0-.28-1.66q0-4.62-.69-17.18-.69-12.15-.76-16.49a49.39,49.39,0,0,1-5.73-.21c-.92-.23-1.38-.6-1.38-1.1a1.3,1.3,0,0,1,1.31-.76c1.38,0,3.39.09,6,.28q3.59.35,6,.34h1.45l1.45-.07c.83,0,1.24.3,1.24.9a.73.73,0,0,1-.45.65,2.12,2.12,0,0,1-1.07.24c-.92,0-1.88,0-2.89-.13l-3-.14c-.19,0-.28.07-.28.21a7,7,0,0,0-.07,1.31q0,6.69.83,20.28.76,14.08.76,20.22a1.16,1.16,0,0,1-.59.9,2,2,0,0,1-1.13.41Z"/><path class="cls-2" d="M545.81,470.08v-2.41q0-19.26,5-19.25a3.21,3.21,0,0,1,1,.21,19.35,19.35,0,0,0,4.35,1c.87.19,1.75,1.08,2.62,2.69a19.92,19.92,0,0,1,2.17,6.56,46.81,46.81,0,0,1,.73,8.35l-.14.34c0,1.52,0,2.88.07,4.07l.07,4.14c0,2.35-.09,4.46-.28,6.35a36.27,36.27,0,0,1-1.38,7.38,13.93,13.93,0,0,1-1.41,3.11,7.35,7.35,0,0,1-2,2.07,4.35,4.35,0,0,1-2.69.83Q545.81,495.48,545.81,470.08Zm11.8,19.6a31.07,31.07,0,0,0,1.58-7.87c.19-2.76.28-5,.28-6.62q0-2.76-.41-8.14c-.23-4-.35-6.72-.35-8.14l-.27-.56.13-.34a8.35,8.35,0,0,0-1.69-5.24,5,5,0,0,0-4.1-2.21,3.48,3.48,0,0,0-3.8,3q-.13,1-.27,3a37.69,37.69,0,0,1-.42,7q0,1-.21,3.24L548,470c0,1,0,1.9.07,2.69l.06,2.76a57.89,57.89,0,0,0,.56,7.45,43.6,43.6,0,0,0,1,5.24,11.58,11.58,0,0,0,1.59,3.66,2.92,2.92,0,0,0,2.42,1.66Q556.29,493.48,557.61,489.68Z"/><path class="cls-2" d="M581.69,494.41a1.48,1.48,0,0,1-.76-1.07l.34-.55a7.51,7.51,0,0,1,1.25.2,3.36,3.36,0,0,0,3.93-.93,7.81,7.81,0,0,0,1.79-3.14,25.77,25.77,0,0,0,1-6.76,21.89,21.89,0,0,0-2.9-10.21q-1.8-3.18-2.76-5a26.47,26.47,0,0,1-1.72-4.28,17.91,17.91,0,0,1-.9-5.45,17.31,17.31,0,0,1,1.24-5.86,6.52,6.52,0,0,1,1.76-2.59,3.63,3.63,0,0,1,2.45-1,3,3,0,0,1,1.76.62,1.69,1.69,0,0,1,.86,1.31c0,.37-.3.55-.9.55a1.64,1.64,0,0,1-.69-.21,1.79,1.79,0,0,0-.75-.2,2.54,2.54,0,0,0-1.87.83,5.17,5.17,0,0,0-1.24,2.14,15.33,15.33,0,0,0-.83,4.69,11.1,11.1,0,0,0,.35,2.69c0,.27.09.5.13.69a1.64,1.64,0,0,1,.07.41l.42,1.38.34,1.24.55,1.25a6.26,6.26,0,0,0,.45.86l.45.72.83,1.45c.18.28.57.93,1.17,2a33.51,33.51,0,0,1,1.66,3.28,16,16,0,0,1,1,2.72,28,28,0,0,1,.62,3.07A31.63,31.63,0,0,1,591,483a21.19,21.19,0,0,1-.89,6.21,8.78,8.78,0,0,1-3.59,4.83,5.6,5.6,0,0,1-3,.82l-.34.14A3.85,3.85,0,0,1,581.69,494.41Zm7-44.41s0-.06-.07-.06V450Z"/><path class="cls-2" d="M603.9,493.2l-.07-2.55q-.06-1.11-.06-2.49a9.64,9.64,0,0,1,.06-1.17l.07-1.24a6.38,6.38,0,0,0-.27-1.66q0-4.62-.69-17.18-.69-12.15-.76-16.49a49.39,49.39,0,0,1-5.73-.21c-.92-.23-1.38-.6-1.38-1.1a1.3,1.3,0,0,1,1.31-.76q2.07,0,6,.28,3.58.35,6,.34h1.45l1.45-.07c.83,0,1.24.3,1.24.9a.73.73,0,0,1-.45.65,2.14,2.14,0,0,1-1.07.24c-.92,0-1.89,0-2.9-.13l-3-.14c-.19,0-.28.07-.28.21a6.14,6.14,0,0,0-.07,1.31q0,6.69.83,20.28.75,14.08.76,20.22a1.16,1.16,0,0,1-.59.9,2,2,0,0,1-1.14.41Z"/><path class="cls-2" d="M632.4,494.79l-.28-.25a2.27,2.27,0,0,1-.41-1.27c-.41-3.36-.67-5.45-.76-6.28l-.34-2.76a15.72,15.72,0,0,0-3.45-.35l-2.49-.13a21.54,21.54,0,0,0-2.41-.21c-.28,0-.44.11-.48.34s0,.21-.07.21l-.14,1.38c-.05.83-.3,2.49-.76,5a12.6,12.6,0,0,1-.83,2.9c-.37.78-.71,1.17-1,1.17a1.51,1.51,0,0,1-.9-.38,1,1,0,0,1-.48-.79l.06-.21.07-.21c.83-3.26,1.52-6.51,2.07-9.73l.83-4.27.83-5.25.76-4.55q.34-1.86,1.24-6c.64-3.13,1-5.27,1.17-6.42,0-.14.14-1,.28-2.55q.27-2.62.48-3.87a6.62,6.62,0,0,1,.42-2.07h.48a1.43,1.43,0,0,0,.48.07,1.74,1.74,0,0,0,1.25-.41,1.32,1.32,0,0,1,.86.31.92.92,0,0,1,.38.72,68.87,68.87,0,0,0,.48,7.59c.18,1.47.32,2.69.41,3.66q.76,8.89,3.87,33.39v.21a1.16,1.16,0,0,1-.55,1Zm-2.14-12.42q-.69-9.94-2.62-29.33l-3.73,18.42a73.05,73.05,0,0,0-1.58,10c0,.23.87.44,2.62.62a46.1,46.1,0,0,0,4.62.28Z"/><path class="cls-2" d="M652,495c-.56-.6-1.15-2.18-1.8-4.76s-1.24-5.47-1.79-8.69a65.75,65.75,0,0,0-1.59-7.8q-.83-3.45-1.59-3.45H645c-1,0-1.52.32-1.52,1q0,5,.55,15.11a44.8,44.8,0,0,0,.62,7.24l-.55,1.18h-1l-.55-.56q-1.1-31.87-1.1-43.47a6.07,6.07,0,0,1,.1-1.24,2,2,0,0,1,.45-.89,1,1,0,0,1,1-.49,8.72,8.72,0,0,1,5.65,1.73,6,6,0,0,1,2.14,5v5a10.2,10.2,0,0,1-.86,3.52,32.66,32.66,0,0,1-1.9,4.07l-.89,1.73q.75,3.51,3,12.66c1.49,6.09,2.31,9.33,2.45,9.69a1.38,1.38,0,0,1,.17.35,5.72,5.72,0,0,0,.45.83,3.83,3.83,0,0,1,.48,1.65c0,.65-.25,1-.76,1Zm-5.8-27.74a10.16,10.16,0,0,0,1.66-3.38,28.18,28.18,0,0,0,1.1-6.69,17,17,0,0,0-.17-2.62,13.28,13.28,0,0,0-.59-2.21q-.83-2.42-3.93-2.41c-.23,0-.42.19-.55.58a3.58,3.58,0,0,0-.21,1.21c0,3.08,0,5.87.14,8.35s.07,5.27.07,8.35l.13.14A3,3,0,0,0,646.2,467.25Z"/><path class="cls-2" d="M666,493.2l-.07-2.55c0-.74-.07-1.57-.07-2.49a9.42,9.42,0,0,1,.07-1.17l.07-1.24a6.38,6.38,0,0,0-.27-1.66q0-4.62-.69-17.18-.69-12.15-.76-16.49a49.27,49.27,0,0,1-5.73-.21c-.92-.23-1.38-.6-1.38-1.1a1.3,1.3,0,0,1,1.31-.76q2.07,0,6,.28,3.6.35,6,.34h1.45l1.45-.07c.82,0,1.24.3,1.24.9a.73.73,0,0,1-.45.65,2.14,2.14,0,0,1-1.07.24c-.92,0-1.89,0-2.9-.13l-3-.14q-.27,0-.27.21a6.14,6.14,0,0,0-.07,1.31q0,6.69.83,20.28.75,14.08.76,20.22a1.16,1.16,0,0,1-.59.9,2,2,0,0,1-1.14.41Z"/></g></svg>