<svg xmlns="http://www.w3.org/2000/svg" xmlns:xlink="http://www.w3.org/1999/xlink" width="1060" height="620" viewBox="0 0 1060 620"><defs><style>.cls-1{stroke:#fff;stroke-miterlimit:10;stroke-width:5px;opacity:0.8;fill:url(#linear-gradient);}.cls-2{fill:#fff;}</style><linearGradient id="linear-gradient" x1="2" y1="311" x2="1058" y2="311" gradientUnits="userSpaceOnUse"><stop offset="0" stop-color="#93278f"/><stop offset="1" stop-color="#1b1464"/></linearGradient></defs><title>To Win</title><g id="Layer_13" data-name="Layer 13"><rect class="cls-1" x="2" y="1.25" width="1056" height="619.5"/><path class="cls-2" d="M446.07,62.7c.54,0,.8.16.8.5a1.54,1.54,0,0,1-.2.7.76.76,0,0,1-.25.15,1.42,1.42,0,0,0-.45.35,24.34,24.34,0,0,0-3.75,7.8A30.83,30.83,0,0,0,441,80.6a17.77,17.77,0,0,0,.4,4.1,4.78,4.78,0,0,0,.95,1.15,2.65,2.65,0,0,1,.85,2A3.29,3.29,0,0,1,442,90.4a4.07,4.07,0,0,1-2.75,1,3.82,3.82,0,0,1-2.65-1.05,4.16,4.16,0,0,1-1.25-2.95,29.31,29.31,0,0,1,.5-5.3l.7-4.1a34.62,34.62,0,0,0,.5-4.1,5.71,5.71,0,0,0-.5-2.35c-.33-.77-.53-1.25-.6-1.45q-2.3-4.8-10.3-4.8h-7.5c-2.66.26-4.45,1.18-5.35,2.75a8.91,8.91,0,0,0-1.25,4.85v82a6.44,6.44,0,0,0,1.85,4.35,7.57,7.57,0,0,0,5.65,2.15.78.78,0,0,1,.6.2.65.65,0,0,1,.2.5c0,.4-.26.6-.8.6H396a.85.85,0,0,1-.6-.2.61.61,0,0,1-.2-.4.63.63,0,0,1,.25-.5.83.83,0,0,1,.55-.2q4.5-.1,6.15-2.55a9,9,0,0,0,1.65-5l-.2-80.9a9.59,9.59,0,0,0-1.35-4.85q-1.35-2.35-5.35-2.75h-6.7q-8,0-10.2,4.8c-.4.93-.68,1.65-.85,2.15a5.72,5.72,0,0,0-.25,1.75,28.7,28.7,0,0,0,.5,4.2c.34,1.93.57,3.23.7,3.9a28.44,28.44,0,0,1,.5,5.3,3.79,3.79,0,0,1-1.15,2.95,3.92,3.92,0,0,1-2.75,1.05,4.14,4.14,0,0,1-2.7-1,3.24,3.24,0,0,1-1.2-2.6,2.69,2.69,0,0,1,.85-2,4.3,4.3,0,0,0,.95-1.15,21.84,21.84,0,0,0,.4-3.9,31,31,0,0,0-1.25-8.45A25.12,25.12,0,0,0,370,64.4a1.42,1.42,0,0,0-.45-.35.87.87,0,0,1-.25-.15q-.69-1.2.6-1.2Z"/><path class="cls-2" d="M461.47,112.45a21.89,21.89,0,0,1,7.95,9,30.2,30.2,0,0,1,2.95,13.7,35.74,35.74,0,0,1-.2,4.5,30.49,30.49,0,0,1-3,10.65,23.71,23.71,0,0,1-7,8.6,18.89,18.89,0,0,1-10.9,3.75h-1.5A19.18,19.18,0,0,1,438.82,159a23.22,23.22,0,0,1-7-8.6,33.14,33.14,0,0,1-3.05-10.65c-.13-2-.2-3.44-.2-4.3a30.87,30.87,0,0,1,2.95-13.85,22,22,0,0,1,8-9.1,21.36,21.36,0,0,1,22,0Zm2.1,22.25a37.19,37.19,0,0,0-3.2-15.95q-3.19-6.85-9.9-6.85t-9.9,6.85a37.34,37.34,0,0,0-3.2,15.95c0,1.4,0,2.43.1,3.1q.7,10.59,4.15,16.4t8.85,5.8q5.4,0,8.85-5.8t4.15-16.4C463.54,137.13,463.57,136.1,463.57,134.7Z"/><path class="cls-2" d="M596,62.7a.7.7,0,0,1,.6.25.81.81,0,0,1,.2.55,1.2,1.2,0,0,1-.2.7.67.67,0,0,1-.6.3,10,10,0,0,0-6.1,1.7,11.54,11.54,0,0,0-3.35,3.6,8.32,8.32,0,0,0-1,2.3l-23.3,90.6h-3.7l-13.7-55.6-17.7,55.6h-3.6l-24.6-90.1a11.81,11.81,0,0,0-1.15-2.45,13.89,13.89,0,0,0-3.2-4,6.7,6.7,0,0,0-4.85-1.7.69.69,0,0,1-.6-.3,1.27,1.27,0,0,1-.2-.7.71.71,0,0,1,.8-.8h20.8c.47,0,.7.2.7.6a.83.83,0,0,1-.2.55.63.63,0,0,1-.5.25q-4.2,0-4.2,4.2a25.18,25.18,0,0,0,.4,3.4l20.1,73.1,15.4-48.2-5.2-24-.7-2.2A16.06,16.06,0,0,0,535,67a4.55,4.55,0,0,0-2-1.9,8,8,0,0,0-3.95-.6.69.69,0,0,1-.6-.3,1.27,1.27,0,0,1-.2-.7.87.87,0,0,1,.2-.55.73.73,0,0,1,.6-.25h19.2c.4,0,.6.23.6.7a.92.92,0,0,1-.15.45.5.5,0,0,1-.45.25c-1.66,0-2.81.38-3.45,1.15a5,5,0,0,0-1,3.25,16.25,16.25,0,0,0,.1,1.8c.07.53.14,1,.2,1.4l17.5,73.1,18-74.2a14.66,14.66,0,0,0,.1-2,5.06,5.06,0,0,0-.95-3.4c-.63-.74-1.81-1.1-3.55-1.1-.4,0-.6-.27-.6-.8a.53.53,0,0,1,.6-.6Z"/><path class="cls-2" d="M605.57,161.3a.7.7,0,0,1,.6.25.81.81,0,0,1,.2.55.57.57,0,0,1-.2.4.82.82,0,0,1-.6.2h-17.5a.83.83,0,0,1-.6-.2.61.61,0,0,1-.2-.4.87.87,0,0,1,.2-.55.72.72,0,0,1,.6-.25c1.8,0,3-.57,3.6-1.7a9.85,9.85,0,0,0,1-4.2V121.5c0-.2,0-1,.05-2.45a4.91,4.91,0,0,0-1.35-3.65,5.6,5.6,0,0,0-4.3-1.5.76.76,0,0,1-.6-.25.79.79,0,0,1-.2-.45.57.57,0,0,1,.2-.4.81.81,0,0,1,.6-.2h1.6a19.84,19.84,0,0,0,2-.2c1-.14,2.07-.27,3.2-.4a15.94,15.94,0,0,0,4-1,9.91,9.91,0,0,0,2.5-1.35.88.88,0,0,1,.85-.3.48.48,0,0,1,.45.5,85,85,0,0,0-.7,12.7v32.9C601.1,159.33,602.64,161.3,605.57,161.3Zm-14.2-59.75a4.75,4.75,0,0,1-1.5-3.55,4.91,4.91,0,0,1,1.5-3.6,4.8,4.8,0,0,1,3.5-1.5A5.12,5.12,0,0,1,600,98a4.75,4.75,0,0,1-1.5,3.55,5,5,0,0,1-3.6,1.45A4.91,4.91,0,0,1,591.37,101.55Z"/><path class="cls-2" d="M613.57,118.8a5.3,5.3,0,0,0-1.1-3.45c-.73-.9-2.16-1.39-4.3-1.45a.76.76,0,0,1-.6-.25.79.79,0,0,1-.2-.45c0-.4.27-.6.8-.6h1.6a18.53,18.53,0,0,0,2-.2c1-.14,2-.27,3-.4a15.94,15.94,0,0,0,4-1,9.91,9.91,0,0,0,2.5-1.35,1,1,0,0,1,.7-.3.66.66,0,0,1,.4.15.35.35,0,0,1,.1.45c0,.13-.05.71-.15,1.75s-.18,2.51-.25,4.45a11.7,11.7,0,0,1,4.15-4.85,14,14,0,0,1,8.65-2.45,14.56,14.56,0,0,1,2,.1,14.11,14.11,0,0,1,8.9,4.35q3.81,3.84,3.8,12v30.2a10.06,10.06,0,0,0,1,4.3c.6,1.13,1.8,1.7,3.6,1.7a.78.78,0,0,1,.6.2.69.69,0,0,1,.2.5.61.61,0,0,1-.2.4.82.82,0,0,1-.6.2h-17.6a.83.83,0,0,1-.6-.2.61.61,0,0,1-.2-.4.6.6,0,0,1,.25-.5.83.83,0,0,1,.55-.2c1.8,0,3-.57,3.6-1.7a10.06,10.06,0,0,0,1-4.3V122.1c0-3.54-.83-5.95-2.5-7.25a9.21,9.21,0,0,0-4.8-2.15,9.42,9.42,0,0,0-6.7,2,12.74,12.74,0,0,0-3.95,5.6,19.63,19.63,0,0,0-1.25,6.8l-.1,29.8a4.74,4.74,0,0,0,1.15,3.15,4.16,4.16,0,0,0,3.35,1.35.78.78,0,0,1,.6.2.69.69,0,0,1,.2.5.61.61,0,0,1-.2.4.82.82,0,0,1-.6.2h-17.3c-.53,0-.8-.2-.8-.6a.63.63,0,0,1,.25-.5.83.83,0,0,1,.55-.2c2.67,0,4.13-1.54,4.4-4.6V121.3Z"/><path class="cls-2" d="M671.27,107.5a7.17,7.17,0,1,1-5,2.1A6.82,6.82,0,0,1,671.27,107.5Zm0,38a7.17,7.17,0,1,1-5,2.1A6.82,6.82,0,0,1,671.27,145.5Z"/><path class="cls-2" d="M101.86,281.34c-2.3,1.15-6.91,2.3-12.81,2.3-13.68,0-24-8.64-24-24.55,0-15.19,10.3-25.49,25.34-25.49,6,0,9.87,1.3,11.53,2.16l-1.52,5.11a22.83,22.83,0,0,0-9.79-2c-11.38,0-18.94,7.27-18.94,20,0,11.88,6.85,19.52,18.65,19.52a25.15,25.15,0,0,0,10.23-2Z"/><path class="cls-2" d="M109.49,231.8h6.34v51.12h-6.34Z"/><path class="cls-2" d="M133.54,238.28a3.93,3.93,0,0,1-7.85,0,3.86,3.86,0,0,1,4-4A3.76,3.76,0,0,1,133.54,238.28Zm-7.06,44.64V248.07h6.34v34.85Z"/><path class="cls-2" d="M168.17,281.63a23.37,23.37,0,0,1-10,2c-10.51,0-17.35-7.13-17.35-17.78s7.35-18.51,18.72-18.51a21.26,21.26,0,0,1,8.79,1.8l-1.44,4.9a14.63,14.63,0,0,0-7.35-1.66c-8,0-12.31,5.91-12.31,13.18,0,8.06,5.18,13,12.1,13a18,18,0,0,0,7.77-1.72Z"/><path class="cls-2" d="M181.85,264.06H182c.86-1.23,2.08-2.74,3.09-4l10.23-12H203L189.48,262.4l15.34,20.52h-7.7l-12-16.7-3.24,3.6v13.1h-6.26V231.8h6.26Z"/><path class="cls-2" d="M232.25,238.06v10h9.07v4.83h-9.07v18.79c0,4.32,1.22,6.77,4.75,6.77a14.33,14.33,0,0,0,3.67-.43l.29,4.75a15.59,15.59,0,0,1-5.61.86,8.76,8.76,0,0,1-6.84-2.66c-1.8-1.87-2.45-5-2.45-9.07v-19h-5.4v-4.83h5.4v-8.35Z"/><path class="cls-2" d="M248.45,231.8h6.34v21.74h.14a11.73,11.73,0,0,1,4.54-4.46,13,13,0,0,1,6.48-1.8c4.68,0,12.17,2.88,12.17,14.91v20.73h-6.34v-20c0-5.62-2.09-10.37-8.07-10.37a9.1,9.1,0,0,0-8.49,6.33,7.7,7.7,0,0,0-.43,3v21h-6.34Z"/><path class="cls-2" d="M291.94,266.65c.14,8.57,5.61,12.1,11.95,12.1a22.89,22.89,0,0,0,9.65-1.8l1.08,4.53A28.19,28.19,0,0,1,303,283.64c-10.73,0-17.14-7.05-17.14-17.57s6.19-18.79,16.34-18.79c11.38,0,14.4,10,14.4,16.42a24.66,24.66,0,0,1-.21,2.95Zm18.57-4.54c.08-4-1.65-10.29-8.78-10.29-6.41,0-9.22,5.9-9.72,10.29Z"/><path class="cls-2" d="M338.88,276.44a16.53,16.53,0,0,0,8.35,2.52c4.61,0,6.77-2.3,6.77-5.18s-1.8-4.68-6.48-6.41c-6.26-2.23-9.22-5.69-9.22-9.86,0-5.62,4.54-10.23,12-10.23a17.44,17.44,0,0,1,8.57,2.16l-1.59,4.61a13.49,13.49,0,0,0-7.13-2c-3.74,0-5.83,2.16-5.83,4.76,0,2.88,2.09,4.17,6.63,5.9,6,2.3,9.14,5.33,9.14,10.51,0,6.12-4.75,10.44-13,10.44a19.83,19.83,0,0,1-9.79-2.37Z"/><path class="cls-2" d="M375.89,238.06v10H385v4.83h-9.07v18.79c0,4.32,1.22,6.77,4.75,6.77a14.33,14.33,0,0,0,3.67-.43l.29,4.75a15.61,15.61,0,0,1-5.62.86,8.79,8.79,0,0,1-6.84-2.66c-1.8-1.87-2.44-5-2.44-9.07v-19h-5.41v-4.83h5.41v-8.35Z"/><path class="cls-2" d="M411.38,282.92l-.5-4.39h-.22A13,13,0,0,1,400,283.72c-7.06,0-10.66-5-10.66-10,0-8.43,7.49-13,20.95-13V260c0-2.88-.79-8.07-7.92-8.07a17.4,17.4,0,0,0-9.07,2.59l-1.44-4.17a21.57,21.57,0,0,1,11.45-3.1c10.66,0,13.25,7.27,13.25,14.26v13a48.19,48.19,0,0,0,.58,8.35Zm-.93-17.78c-6.91-.15-14.76,1.08-14.76,7.85,0,4.1,2.73,6.05,6,6.05a8.68,8.68,0,0,0,8.43-5.84,6.82,6.82,0,0,0,.36-2Z"/><path class="cls-2" d="M426.79,259c0-4.11-.07-7.64-.29-10.88h5.55l.21,6.84h.29c1.59-4.68,5.4-7.63,9.65-7.63a6.62,6.62,0,0,1,1.8.22v6a9.82,9.82,0,0,0-2.16-.21c-4.46,0-7.63,3.38-8.5,8.13a18.44,18.44,0,0,0-.29,3v18.57h-6.26Z"/><path class="cls-2" d="M449.47,276.44a16.56,16.56,0,0,0,8.35,2.52c4.61,0,6.77-2.3,6.77-5.18s-1.8-4.68-6.48-6.41c-6.26-2.23-9.22-5.69-9.22-9.86,0-5.62,4.54-10.23,12-10.23a17.44,17.44,0,0,1,8.57,2.16l-1.59,4.61a13.45,13.45,0,0,0-7.12-2c-3.75,0-5.84,2.16-5.84,4.76,0,2.88,2.09,4.17,6.63,5.9,6.05,2.3,9.14,5.33,9.14,10.51,0,6.12-4.75,10.44-13,10.44a19.83,19.83,0,0,1-9.79-2.37Z"/><path class="cls-2" d="M525.65,265.21c0,12.89-8.93,18.51-17.36,18.51-9.43,0-16.7-6.92-16.7-17.93,0-11.67,7.63-18.51,17.28-18.51C518.88,247.28,525.65,254.55,525.65,265.21Zm-27.65.36c0,7.63,4.39,13.39,10.58,13.39s10.59-5.69,10.59-13.53c0-5.91-2.95-13.4-10.44-13.4S498,259,498,265.57Z"/><path class="cls-2" d="M534.29,282.92v-30h-4.9v-4.83h4.9v-1.65c0-4.9,1.08-9.36,4-12.17a12.08,12.08,0,0,1,8.49-3.24,14.51,14.51,0,0,1,5.4,1l-.86,4.89a9.5,9.5,0,0,0-4-.79c-5.4,0-6.77,4.75-6.77,10.08v1.87H549v4.83h-8.42v30Z"/><path class="cls-2" d="M577.56,238.06v10h9.07v4.83h-9.07v18.79c0,4.32,1.22,6.77,4.75,6.77A14.33,14.33,0,0,0,586,278l.29,4.75a15.61,15.61,0,0,1-5.62.86,8.79,8.79,0,0,1-6.84-2.66c-1.8-1.87-2.45-5-2.45-9.07v-19H566v-4.83h5.4v-8.35Z"/><path class="cls-2" d="M593.76,231.8h6.33v21.74h.15a11.7,11.7,0,0,1,4.53-4.46,13.05,13.05,0,0,1,6.48-1.8c4.68,0,12.17,2.88,12.17,14.91v20.73h-6.33v-20c0-5.62-2.09-10.37-8.07-10.37a9.12,9.12,0,0,0-8.5,6.33,7.7,7.7,0,0,0-.43,3v21h-6.33Z"/><path class="cls-2" d="M637.24,266.65c.15,8.57,5.62,12.1,12,12.1a22.93,22.93,0,0,0,9.65-1.8l1.08,4.53a28.24,28.24,0,0,1-11.6,2.16c-10.73,0-17.13-7.05-17.13-17.57s6.19-18.79,16.34-18.79c11.38,0,14.4,10,14.4,16.42a24.66,24.66,0,0,1-.21,2.95Zm18.58-4.54c.07-4-1.66-10.29-8.78-10.29-6.41,0-9.22,5.9-9.72,10.29Z"/><path class="cls-2" d="M685.27,235a60.22,60.22,0,0,1,11.44-1c6.27,0,10.3,1.08,13.33,3.53a10.17,10.17,0,0,1,4,8.57c0,4.68-3.1,8.78-8.21,10.66v.14c4.61,1.15,10,5,10,12.17a13.09,13.09,0,0,1-4.11,9.72c-3.38,3.1-8.85,4.54-16.77,4.54a72.63,72.63,0,0,1-9.72-.58Zm6.26,19.87h5.69c6.62,0,10.51-3.45,10.51-8.13,0-5.69-4.32-7.92-10.66-7.92a26.59,26.59,0,0,0-5.54.43Zm0,23.26a32.9,32.9,0,0,0,5.26.29c6.48,0,12.45-2.38,12.45-9.43,0-6.63-5.69-9.36-12.53-9.36h-5.18Z"/><path class="cls-2" d="M731.13,238.28a3.93,3.93,0,0,1-7.85,0,3.86,3.86,0,0,1,4-4A3.76,3.76,0,0,1,731.13,238.28Zm-7.06,44.64V248.07h6.34v34.85Z"/><path class="cls-2" d="M771,248.07c-.15,2.52-.29,5.33-.29,9.58v20.23c0,8-1.58,12.89-5,15.92S757.41,298,753,298c-4.18,0-8.79-1-11.6-2.88l1.59-4.82A19.63,19.63,0,0,0,753.23,293c6.48,0,11.24-3.38,11.24-12.17V277h-.15c-1.94,3.24-5.69,5.83-11.09,5.83-8.64,0-14.83-7.35-14.83-17,0-11.81,7.7-18.51,15.7-18.51,6,0,9.36,3.17,10.87,6.05h.14l.29-5.26Zm-6.56,13.76A9,9,0,0,0,764,259a9.11,9.11,0,0,0-8.85-6.7c-6,0-10.37,5.11-10.37,13.18,0,6.84,3.46,12.53,10.3,12.53a9.27,9.27,0,0,0,8.78-6.49,11,11,0,0,0,.5-3.38Z"/><path class="cls-2" d="M796.65,235A89.08,89.08,0,0,1,810,234c9,0,15.41,2.09,19.66,6.05s6.84,9.58,6.84,17.43-2.45,14.4-7,18.86-12,7-21.46,7a101,101,0,0,1-11.37-.58ZM802.91,278a40.76,40.76,0,0,0,6.34.35c13.39,0,20.66-7.48,20.66-20.59.08-11.45-6.4-18.72-19.65-18.72a35.66,35.66,0,0,0-7.35.65Z"/><path class="cls-2" d="M851.44,238.28a3.93,3.93,0,0,1-7.85,0,3.86,3.86,0,0,1,4-4A3.76,3.76,0,0,1,851.44,238.28Zm-7.06,44.64V248.07h6.34v34.85Z"/><path class="cls-2" d="M861.23,259.45c0-4.47-.14-8.07-.29-11.38h5.69l.29,6h.14a13.71,13.71,0,0,1,12.39-6.77c8.42,0,14.76,7.13,14.76,17.71,0,12.53-7.63,18.73-15.84,18.73-4.61,0-8.64-2-10.73-5.48h-.15v18.94h-6.26Zm6.26,9.29a14.64,14.64,0,0,0,.29,2.59,9.78,9.78,0,0,0,9.51,7.42c6.69,0,10.58-5.48,10.58-13.47,0-7-3.67-13-10.37-13a11,11,0,0,0-10,10.44Z"/><path class="cls-2" d="M902.2,259.45c0-4.47-.15-8.07-.29-11.38h5.69l.29,6H908a13.7,13.7,0,0,1,12.38-6.77c8.43,0,14.77,7.13,14.77,17.71,0,12.53-7.64,18.73-15.85,18.73-4.6,0-8.64-2-10.72-5.48h-.15v18.94H902.2Zm6.26,9.29a14.64,14.64,0,0,0,.29,2.59,9.78,9.78,0,0,0,9.5,7.42c6.7,0,10.59-5.48,10.59-13.47,0-7-3.67-13-10.37-13a10.12,10.12,0,0,0-9.58,7.85,10.55,10.55,0,0,0-.43,2.59Z"/><path class="cls-2" d="M946.69,266.65c.15,8.57,5.62,12.1,11.95,12.1a22.86,22.86,0,0,0,9.65-1.8l1.08,4.53a28.15,28.15,0,0,1-11.59,2.16c-10.73,0-17.14-7.05-17.14-17.57s6.2-18.79,16.35-18.79c11.38,0,14.4,10,14.4,16.42a22.34,22.34,0,0,1-.22,2.95Zm18.58-4.54c.07-4-1.66-10.29-8.79-10.29-6.4,0-9.21,5.9-9.72,10.29Z"/><path class="cls-2" d="M979.24,259c0-4.11-.08-7.64-.29-10.88h5.54l.22,6.84H985c1.59-4.68,5.41-7.63,9.65-7.63a6.57,6.57,0,0,1,1.8.22v6a9.69,9.69,0,0,0-2.16-.21c-4.46,0-7.63,3.38-8.49,8.13a17.36,17.36,0,0,0-.29,3v18.57h-6.26Z"/></g></svg>