<svg id="Layer_1" data-name="Layer 1" xmlns="http://www.w3.org/2000/svg" xmlns:xlink="http://www.w3.org/1999/xlink" width="500" height="100" viewBox="0 0 500 100"><defs><style>.cls-1{opacity:0.8;}.cls-2{fill:#fff;}.cls-3{fill:#e6e6e6;}.cls-4{fill:url(#linear-gradient);}.cls-5{fill:url(#linear-gradient-2);}.cls-6{fill:url(#linear-gradient-3);}.cls-7{fill:none;}.cls-8{fill:url(#linear-gradient-4);}.cls-9{fill:url(#linear-gradient-5);}.cls-10{fill:url(#linear-gradient-6);}.cls-11{fill:url(#linear-gradient-7);}.cls-12{fill:url(#linear-gradient-8);}.cls-13{fill:url(#linear-gradient-9);}.cls-14{fill:url(#linear-gradient-10);}.cls-15{fill:url(#linear-gradient-11);}.cls-16{fill:url(#linear-gradient-12);}.cls-17{fill:#b3b3b3;}.cls-18{fill:url(#linear-gradient-13);}.cls-19{fill:url(#linear-gradient-14);}.cls-20{fill:url(#linear-gradient-15);}</style><linearGradient id="linear-gradient" x1="50.12" y1="30.89" x2="50" y2="66.3" gradientUnits="userSpaceOnUse"><stop offset="0" stop-opacity="0.25"/><stop offset="0" stop-opacity="0.24"/><stop offset="0.17" stop-opacity="0"/></linearGradient><linearGradient id="linear-gradient-2" x1="31.22" y1="30.95" x2="31.13" y2="58.08" gradientUnits="userSpaceOnUse"><stop offset="0" stop-color="#66b9bd"/><stop offset="1" stop-color="#58ffff"/></linearGradient><linearGradient id="linear-gradient-3" x1="31.19" y1="30.52" x2="31.16" y2="58.5" gradientUnits="userSpaceOnUse"><stop offset="0" stop-color="#fff"/><stop offset="0.01" stop-color="#fff" stop-opacity="0.91"/><stop offset="0.03" stop-color="#fff" stop-opacity="0.7"/><stop offset="0.06" stop-color="#fff" stop-opacity="0.51"/><stop offset="0.08" stop-color="#fff" stop-opacity="0.36"/><stop offset="0.11" stop-color="#fff" stop-opacity="0.23"/><stop offset="0.13" stop-color="#fff" stop-opacity="0.13"/><stop offset="0.16" stop-color="#fff" stop-opacity="0.06"/><stop offset="0.19" stop-color="#fff" stop-opacity="0.01"/><stop offset="0.22" stop-color="#fff" stop-opacity="0"/></linearGradient><linearGradient id="linear-gradient-4" x1="150.12" y1="30.89" x2="150" y2="66.3" xlink:href="#linear-gradient"/><linearGradient id="linear-gradient-5" x1="141.22" y1="30.95" x2="141.13" y2="58.08" xlink:href="#linear-gradient-2"/><linearGradient id="linear-gradient-6" x1="141.19" y1="30.52" x2="141.16" y2="58.5" xlink:href="#linear-gradient-3"/><linearGradient id="linear-gradient-7" x1="250.12" y1="30.89" x2="250" y2="66.3" xlink:href="#linear-gradient"/><linearGradient id="linear-gradient-8" x1="250.22" y1="30.95" x2="250.13" y2="58.08" xlink:href="#linear-gradient-2"/><linearGradient id="linear-gradient-9" x1="250.19" y1="30.52" x2="250.16" y2="58.5" xlink:href="#linear-gradient-3"/><linearGradient id="linear-gradient-10" x1="350.12" y1="30.89" x2="350" y2="66.3" xlink:href="#linear-gradient"/><linearGradient id="linear-gradient-11" x1="359.22" y1="30.95" x2="359.13" y2="58.08" xlink:href="#linear-gradient-2"/><linearGradient id="linear-gradient-12" x1="359.19" y1="30.52" x2="359.16" y2="58.5" xlink:href="#linear-gradient-3"/><linearGradient id="linear-gradient-13" x1="450.12" y1="30.89" x2="450" y2="66.3" xlink:href="#linear-gradient"/><linearGradient id="linear-gradient-14" x1="469.22" y1="30.95" x2="469.13" y2="58.08" xlink:href="#linear-gradient-2"/><linearGradient id="linear-gradient-15" x1="469.19" y1="30.52" x2="469.16" y2="58.5" xlink:href="#linear-gradient-3"/></defs><title>Toggle_sprite</title><g class="cls-1"><rect class="cls-2" x="10.14" y="30.85" width="79.86" height="30.51" rx="9.83"/><rect class="cls-2" x="10.14" y="30.85" width="79.86" height="30.51" rx="9.83"/></g><rect class="cls-3" x="10.14" y="29.35" width="79.86" height="30.51" rx="9.83"/><rect class="cls-4" x="10.14" y="29.35" width="79.86" height="30.51" rx="9.83"/><rect class="cls-3" x="10.14" y="29.35" width="42.07" height="30.51" rx="9.83"/><rect class="cls-5" x="10.14" y="29.35" width="42.07" height="30.51" rx="9.83"/><rect class="cls-6" x="10.14" y="29.35" width="42.07" height="30.51" rx="9.83"/><rect class="cls-7" width="100" height="100"/><g class="cls-1"><rect class="cls-2" x="110.14" y="30.85" width="79.86" height="30.51" rx="9.83"/><rect class="cls-2" x="110.14" y="30.85" width="79.86" height="30.51" rx="9.83"/></g><rect class="cls-3" x="110.14" y="29.35" width="79.86" height="30.51" rx="9.83"/><rect class="cls-8" x="110.14" y="29.35" width="79.86" height="30.51" rx="9.83"/><rect class="cls-3" x="120.14" y="29.35" width="42.07" height="30.51" rx="9.83"/><rect class="cls-9" x="120.14" y="29.35" width="42.07" height="30.51" rx="9.83"/><rect class="cls-10" x="120.14" y="29.35" width="42.07" height="30.51" rx="9.83"/><rect class="cls-7" x="100" width="100" height="100"/><g class="cls-1"><rect class="cls-2" x="210.14" y="30.85" width="79.86" height="30.51" rx="9.83"/><rect class="cls-2" x="210.14" y="30.85" width="79.86" height="30.51" rx="9.83"/></g><rect class="cls-3" x="210.14" y="29.35" width="79.86" height="30.51" rx="9.83"/><rect class="cls-11" x="210.14" y="29.35" width="79.86" height="30.51" rx="9.83"/><rect class="cls-3" x="229.14" y="29.35" width="42.07" height="30.51" rx="9.83"/><rect class="cls-12" x="229.14" y="29.35" width="42.07" height="30.51" rx="9.83"/><rect class="cls-13" x="229.14" y="29.35" width="42.07" height="30.51" rx="9.83"/><rect class="cls-7" x="200" width="100" height="100"/><g class="cls-1"><rect class="cls-2" x="310.14" y="30.85" width="79.86" height="30.51" rx="9.83"/><rect class="cls-2" x="310.14" y="30.85" width="79.86" height="30.51" rx="9.83"/></g><rect class="cls-3" x="310.14" y="29.35" width="79.86" height="30.51" rx="9.83"/><rect class="cls-14" x="310.14" y="29.35" width="79.86" height="30.51" rx="9.83"/><rect class="cls-3" x="338.14" y="29.35" width="42.07" height="30.51" rx="9.83"/><rect class="cls-15" x="338.14" y="29.35" width="42.07" height="30.51" rx="9.83"/><rect class="cls-16" x="338.14" y="29.35" width="42.07" height="30.51" rx="9.83"/><rect class="cls-7" x="300" width="100" height="100"/><g class="cls-1"><rect class="cls-2" x="410.14" y="30.85" width="79.86" height="30.51" rx="9.83"/><rect class="cls-2" x="410.14" y="30.85" width="79.86" height="30.51" rx="9.83"/></g><rect class="cls-17" x="410.14" y="29.35" width="79.86" height="30.51" rx="9.83"/><rect class="cls-18" x="410.14" y="29.35" width="79.86" height="30.51" rx="9.83"/><rect class="cls-3" x="448.14" y="29.35" width="42.07" height="30.51" rx="9.83"/><rect class="cls-19" x="448.14" y="29.35" width="42.07" height="30.51" rx="9.83"/><rect class="cls-20" x="448.14" y="29.35" width="42.07" height="30.51" rx="9.83"/><rect class="cls-7" x="400" width="100" height="100"/></svg>
