<svg xmlns="http://www.w3.org/2000/svg" xmlns:xlink="http://www.w3.org/1999/xlink" width="70" height="70" viewBox="0 0 70 70"><defs><style>.cls-1,.cls-2{opacity:0.8;}.cls-1{fill:url(#linear-gradient);}</style><linearGradient id="linear-gradient" x1="-16.99" y1="41.79" x2="73.88" y2="29.92" gradientUnits="userSpaceOnUse"><stop offset="0" stop-color="#56dbe4"/><stop offset="1" stop-color="#ca23b8"/></linearGradient></defs><title>Ud af menu</title><g id="Layer_13" data-name="Layer 13"><circle class="cls-1" cx="35" cy="35" r="31"/><path class="cls-2" d="M51.19,51.39l-4.6-8.84a13.92,13.92,0,0,0,1.32-2.47l16.38-4.9L48,30.08A12.79,12.79,0,0,0,47,28.15l5.13-8.85-9.22,4.48a12.93,12.93,0,0,0-2.09-1.16L36.3,5.77,30.7,22.16l-.14.05h0l-.32.11h0l-.24.09h0l-.34.14h0l-.25.12h0l-.34.16h0l-.21.11,0,0h0l-.33.18h0l-.21.11,0,0h0l0,0-8.84-5.14,4.47,9.23a.86.86,0,0,0-.07.1h0l-.17.26,0,0h0l0,0-.14.22-.17.3h0l-.15.28a2.7,2.7,0,0,0-.15.29h0l-.14.29h0l-.12.26L5.77,34,22.3,39.7s0,0,0,.06h0v0l.07.19v0h0l.13.33h0l.1.21,0,.06.15.33h0a2.4,2.4,0,0,0,.11.23h0l.18.32h0a2.12,2.12,0,0,0,.11.21l0,0h0l.18.31h0l.06.1-4.84,9,9.07-4.77h0l.23.15h0l.31.18h0l.24.14h0l.32.16h0l.26.13h0l.32.14h0l.1,0,.15.06h0l.08,0L35,64.24l5.07-16.55a12.83,12.83,0,0,0,2.3-1.11ZM41.88,40.07l-.1.14,0,0h0l0,0-.15.19-.11.13,0,0h0l0,0-.15.18-.1.1,0,0,0,0h0l0,0h0L41.1,41h0l0,0h0l0,0-.14.14,0,0h0l0,0-.16.15,0,0h0l0,0-.14.13,0,0h0l0,0-.15.13,0,0h0l0,0-.17.13h0l-.15.12-.17.13,0,0h0l0,0-.14.1,0,0h0l0,0-.18.12,0,0h0l0,0-.15.1-.19.11,0,0h0l0,0-.16.09-.2.11,0,0h0v0a.8.8,0,0,0-.16.08h0l-.19.09v0h0v0l-.17.07-.19.08v0h0v0L38,43v0h0v0l-.19.07h0l-.18.06h0l-.19.05h0l-.22.06h0v0h0v0l-.18,0h0l-.23,0-.18,0v0h0v0l-.25,0-.16,0h0l-.25,0h0l-.18,0-.25,0h-1.1l-.2,0-.24,0-.19,0-.23,0h0l-.17,0-.23,0-.18,0h0l-.19,0-.27-.08h0a8.55,8.55,0,0,1,2.33-16.69h.32a7.83,7.83,0,0,1,1.67.18h0l.11,0h0l.52.13h0L38,27l.08,0h0l.2.08h0l.08,0h0l.09.05h0l.2.09h0l.17.08h0l.18.09h0l.16.09h0l.2.12.16.09h0l.18.11h0l.15.1h0l.19.13h0l.15.12h0l.17.13h0l.15.13v0l.16.15h0l.14.13h0l.15.14v0h0l.12.12,0,0h0l.13.14h0a.69.69,0,0,1,.11.13l0,0h0l.13.14h0l.13.17h0l.11.13h0l.13.18,0,0h0l.11.15.12.19h0l.1.15h0l0,0c0,.06.07.13.11.2h0l.09.15.11.2,0,0h0l0,0,.09.16h0a1.54,1.54,0,0,0,.09.19h0l.08.19.09.2v0A1,1,0,0,1,43,32h0a1.46,1.46,0,0,0,.07.19h0v0a1.07,1.07,0,0,1,.07.19c0,.05,0,.1.05.18h0l.06.22h0l0,.18a1.89,1.89,0,0,1,0,.23h0l0,.18h0c0,.08,0,.16,0,.24h0l0,.18h0l0,.25h0l0,.17h0c0,.08,0,.16,0,.25h0v.17h0a2,2,0,0,1,0,.25v.2h0a1.7,1.7,0,0,1,0,.22h0c0,.08,0,.15,0,.23h0c0,.07,0,.13,0,.2a1.94,1.94,0,0,1,0,.24h0l0,.19h0l0,.24h0l0,.18a1.89,1.89,0,0,1,0,.23h0v0a1,1,0,0,0,0,.14h0l-.06.21h0c0,.07,0,.13-.05.2a1.46,1.46,0,0,1-.07.19l.05,0h-.05l-.06.19a1.46,1.46,0,0,0-.07.19l0,0v0h0a1.22,1.22,0,0,0-.07.17l0,0h0l-.05,0c0,.06,0,.11-.07.17l0,0h0c0,.06-.06.13-.1.2l-.08.16h0l-.1.21-.09.16h0l-.12.21,0,0h0l0,0-.09.14a1.37,1.37,0,0,1-.13.2l-.1.15Z"/></g></svg>