<svg xmlns="http://www.w3.org/2000/svg" width="1970" height="220" viewBox="0 0 1970 220"><defs><style>.cls-1{fill:#0071bc;}.cls-1,.cls-2{opacity:0.8;}.cls-3{fill:#cfebf0;}.cls-3,.cls-4{opacity:0.5;}.cls-4{fill:#58bacb;}</style></defs><title>Waves</title><g id="waves-2" data-name="waves"><path class="cls-1" d="M835.06,142.5a25.68,25.68,0,0,0,10.44,20.55l1-.55,21.26-9.34a31,31,0,0,0,2.82-1.42c10.15-5.79,76.26-42.73,111.5-43-17-46.86-48.87-72.26-85.4-72.26-16.36,0-46.2,10.34-75.63,25a86,86,0,0,1-17.62,5.22c-4.65.85-9.67,1.27-14-.69a34.21,34.21,0,0,0-3.7-1.71C758.44,44,717.68,31.94,678.82,42.5c-34.47,9.37-52.69,17.12-75.66,29-43.79,18.44-73.57-3.33-82.66-13-2.47-2.63-6-4.27-9.48-5.67-18.79-14.48-44.5-23.33-71.23-23.33-43.65,0-96.18,30.38-153.43,58.92a65.14,65.14,0,0,1-17.17,3.69,70,70,0,0,1-7.38.39h-1a63.74,63.74,0,0,1-12.63-1.2,73.59,73.59,0,0,1-10.2-3c-3.14-1.11-6.47-2.08-9.32-3.79a26.43,26.43,0,0,1-6-4.86A24.1,24.1,0,0,1,216.42,66a23.65,23.65,0,0,1-.14-2.52c0-13.81,12.05-25,26.91-25a28.21,28.21,0,0,1,15.59,4.63,34.9,34.9,0,0,1-.07-3.63c-23.14-34-73.26-10.29-97.44,28.39C137.62,56.42,108.53,49.5,79.18,49.5c-74,0-57.43-10-63.64,84-2.3,34.89,3.51,40.36,3.11,86C37,203.72,141.64,117,246.93,107.09l-.7.3c6.43-.58,13-.89,19.72-.89,44.14,0,80.8,12.79,100.11,30.47,13.53-27.8,35.22-50.47,66-50.47,15.74,0,24,6.25,27.82,16.21a29,29,0,0,0-13.33-3.21c-15.72,0-28.46,12.31-28.46,27.5s17.4,23.5,33.11,23.5c.82,0,1.62,0,2.39-.08a25.81,25.81,0,0,1,3.59-.38l1.79-.1c2.69-.12,5.48-.21,6.72-.44,9.89-1.87,19.21-3.28,28.65-6.67q8-2.88,15.74-6.46a12,12,0,0,1,3-1.08c25.13-12.68,52-20.79,87.64-20.79,58.27,0,85.59,13.84,131.1,50.81a6,6,0,0,0,2.54.9c4.95,2,10.56,2.88,15.69,1.41,4.33-1.24,8-4,11.42-6.82a247.77,247.77,0,0,0,29.38-28.18c.95-1.09,1.92-2.18,3-3.19,12.75-16,30.18-26.93,53.18-26.93,19.73,0,28.37,7.49,31.08,19.15A27.38,27.38,0,0,0,862,116.5C847.11,116.5,835.06,128.14,835.06,142.5Z"/><g class="cls-2"><path class="cls-3" d="M731.79,165.31a6,6,0,0,0,2.54.9c4.95,2,10.56,2.88,15.69,1.41,4.33-1.24,8-4,11.42-6.82a247.77,247.77,0,0,0,29.38-28.18c.95-1.09,1.92-2.18,3-3.19,12.75-16,30.18-26.93,53.18-26.93,19.73,0,28.37,7.49,31.08,19.15A27.38,27.38,0,0,0,862,116.5c-14.86,0-26.91,11.64-26.91,26a25.68,25.68,0,0,0,10.44,20.55l1-.55,21.26-9.34a31,31,0,0,0,2.82-1.42c6.71-3.83,37.86-21.26,68.39-32.71-13,2.38-26.64,2-39.13-2.16-1.5-.49-3-1.05-4.42-1.63-25.85-13.6-58.46-23.74-81-23.74-12,0-26.44.53-40.94,1.88a7.78,7.78,0,0,1-3.55-1,8.4,8.4,0,0,1-2.18-3,21.32,21.32,0,0,1-1.91-5.76,24,24,0,0,1,.48-10.88,24.54,24.54,0,0,1,.9-2.62c.23-.56,1-3.12,1.59-3.59,3.85-8.25,12.86-14,23.36-14a27.34,27.34,0,0,1,10.47,2.06c-3.21-8.88-10.21-13.06-29.09-13.06-28.33,0-56.89,36.53-68,69.23a311,311,0,0,1-53.83,9C679.79,126.68,701.86,141,731.79,165.31Z"/><path class="cls-3" d="M459.85,102.71a29,29,0,0,0-13.33-3.21c-15.72,0-28.46,12.31-28.46,27.5a18.67,18.67,0,0,0,.17,2.39h0c.89,7.05,5.67,12.44,12.13,16v0a36.24,36.24,0,0,0,3.71,1.79h0a45.52,45.52,0,0,0,17.11,3.32c.82,0,1.62,0,2.39-.08a25.81,25.81,0,0,1,3.59-.38l1.79-.1c2.69-.12,5.48-.21,6.72-.44,9.89-1.87,19.21-3.28,28.65-6.67q8-2.88,15.74-6.46a12,12,0,0,1,3-1.08q6.18-3.12,12.56-5.85l.6-.26c.93-.4,1.87-.78,2.81-1.16l1.19-.48c1.87-.75,3.77-1.47,5.68-2.16l.47-.18,2.68-.93,1.61-.54,2.64-.86,2.16-.65c1.29-.39,2.6-.76,3.92-1.13l2.07-.55c.82-.22,1.63-.43,2.46-.63s1.9-.46,2.86-.68l3.28-.71,2.64-.54,2.32-.43,3.12-.53,2.93-.45c1.12-.16,2.25-.32,3.4-.46.75-.1,1.5-.19,2.26-.27,1.09-.13,2.19-.24,3.3-.35l2-.19C570.48,104.69,555.7,93,544.35,88.45l-.05,0a73,73,0,0,0-25.93-7,10,10,0,0,1-4.81-1,7.73,7.73,0,0,1-2.87-4.53A32.67,32.67,0,0,1,509.28,65c.07-1.67,0-3.93.7-5.49a1.23,1.23,0,0,1,.18-.28c.21-11.45,11.47-20.68,25.34-20.68a28.74,28.74,0,0,1,15.59,4.44C547.58,32.73,537.3,26.5,520.5,26.5a58,58,0,0,0-35.75,12.1c-14.63,3.06-41.86,46.9-41.86,46.9l-13.45,1-.17.06q1.37-.06,2.76-.06C447.77,86.5,456.07,92.75,459.85,102.71Z"/><path class="cls-3" d="M250.41,107Q252,107,253.5,107l1.91,0c1.42,0-.26-1.21-.59-1.52s-.94-.88-1.42-1.31c-1-.86-1.91-1.7-2.88-2.53-1.91-1.61-3.88-3.17-5.9-4.65A102.91,102.91,0,0,0,232.2,89.1a108.26,108.26,0,0,0-13.31-6,126.94,126.94,0,0,0-14.31-4.36c-5.09-1.24-10.24-2.19-15.43-2.93-5.52-.78-11.07-1.31-16.63-1.67-6-.39-12-.58-18-.63h-3.48C97,73.5,43,101.18,15.16,140.93c-.7,18.44,1.12,28.26,2.39,44.31v.1c.06.69.11,1.41.16,2.13l0,.36c.05.66.09,1.34.14,2l0,.55c0,.64.09,1.3.12,2,0,.23,0,.46.05.7,0,.63.06,1.27.1,1.92,0,.29,0,.57,0,.86q0,1,.09,2c0,.32,0,.63,0,.95,0,.64.05,1.3.07,1.95,0,.37,0,.73,0,1.11,0,.64,0,1.3.05,2,0,.41,0,.81,0,1.24,0,.68,0,1.38,0,2.09l0,1.26c0,.73,0,1.5,0,2.26,0,.42,0,.83,0,1.27v2.47c0,.42,0,.82,0,1.24,0,1.27,0,2.57,0,3.9l.81-.7.32-.27.61-.52.39-.34.71-.6.37-.31,1.1-.92.47-.4.78-.64.6-.5.74-.61.68-.57.82-.66c.4-.34.82-.68,1.25-1l.79-.64.9-.73.7-.56,1-.8.64-.51,4-3.2.48-.38,1.38-1.07.52-.4q3.33-2.59,7.1-5.43l.28-.21,1.92-1.44c2.75-2.05,5.66-4.18,8.7-6.38,26.67-19.19,64.2-43.09,106.05-60.4l.1,0,3.55-1.45h0a346.14,346.14,0,0,1,33.78-11.66l.66-.18c1-.3,2.09-.59,3.13-.87l.54-.15q2.83-.77,5.67-1.47l1.19-.29,2.54-.61,1.81-.41,2.32-.52c1.26-.28,2.51-.54,3.77-.8l1.75-.34,2.67-.51c3.93-.72,7.89-1.38,11.85-1.9a6.15,6.15,0,0,0,.75-.1l.77-.09,1.53-.17c1-.11,2-.21,3-.3Z"/><path class="cls-3" d="M366.06,137a134.46,134.46,0,0,1,7.55-13.53h0l.19-.29c1.43-2.23,2.93-4.39,4.48-6.49l.23-.3c1.61-2.14,3.28-4.21,5-6.18l.11-.13c1.78-2,3.64-3.92,5.56-5.73l0,0a77.32,77.32,0,0,1,6.07-5.13l-56.47,21h0C349.85,124.85,359.09,130.59,366.06,137Z"/></g><path class="cls-4" d="M871.34,37.55a3,3,0,0,1,.31.66Z"/><path class="cls-1" d="M1132.24,142.5a25.66,25.66,0,0,1-10.45,20.55l-.94-.55-21.28-9.34c-1-.43-1.91-.9-2.83-1.42-10.16-5.79-76.32-42.73-111.59-43,17-46.86,48.91-72.26,85.47-72.26,16.38,0,46.24,10.34,75.7,25A86.13,86.13,0,0,0,1164,66.68c4.66.85,9.68,1.27,14-.69a33.35,33.35,0,0,1,3.7-1.71c27.31-20.32,68.11-32.34,107-21.78,34.5,9.37,52.73,17.12,75.72,29h0c43.83,18.44,73.63-3.33,82.73-13,2.47-2.63,6-4.27,9.49-5.67,18.8-14.48,44.54-23.33,71.29-23.33,43.68,0,96.27,30.38,153.56,58.92a65.22,65.22,0,0,0,17.18,3.69,70.18,70.18,0,0,0,7.39.39h1c9.06,0,17.15-1.72,22.47-4.41C1742,86,1751.55,75.77,1751.55,63.5c0-13.81-12.06-25-26.93-25A28.28,28.28,0,0,0,1709,43.13a34.9,34.9,0,0,0,.07-3.63c23.17-34,73.33-10.29,97.52,28.39,23.68-11.47,52.79-18.39,82.17-18.39,74.07,0,57.47-10,63.69,84,2.3,34.89-3.51,40.36-3.11,86C1931,203.72,1826.25,117,1720.87,107.09l.7.3c-6.43-.58-13-.89-19.73-.89-44.18,0-80.87,12.79-100.2,30.47-13.54-27.8-35.25-50.47-66-50.47-15.75,0-24.07,6.25-27.85,16.21a29.07,29.07,0,0,1,13.35-3.21c15.73,0,28.48,12.31,28.48,27.5s-17.41,23.5-33.14,23.5c-.82,0-1.62,0-2.39-.08a25.81,25.81,0,0,0-3.6-.38l-1.78-.1c-2.69-.12-5.49-.21-6.73-.44-9.9-1.87-19.22-3.28-28.68-6.67q-8-2.88-15.75-6.46a12,12,0,0,0-3-1.08c-25.15-12.68-52-20.79-87.72-20.79-58.31,0-85.66,13.84-131.21,50.81a6,6,0,0,1-2.54.9c-5,2-10.57,2.88-15.71,1.41-4.32-1.24-8-4-11.43-6.82a247.1,247.1,0,0,1-29.39-28.18c-1-1.09-1.93-2.18-3-3.19-12.76-16-30.2-26.93-53.23-26.93-19.74,0-28.39,7.49-31.1,19.15a27.41,27.41,0,0,1,16.08-5.15C1120.18,116.5,1132.24,128.14,1132.24,142.5Z"/><g class="cls-2"><path class="cls-3" d="M1235.6,165.31a6,6,0,0,1-2.54.9c-5,2-10.57,2.88-15.71,1.41-4.32-1.24-8-4-11.43-6.82a247.1,247.1,0,0,1-29.39-28.18c-1-1.09-1.93-2.18-3-3.19-12.76-16-30.2-26.93-53.23-26.93-19.74,0-28.39,7.49-31.1,19.15a27.41,27.41,0,0,1,16.08-5.15c14.87,0,26.93,11.64,26.93,26a25.66,25.66,0,0,1-10.45,20.55l-.94-.55-21.28-9.34c-1-.43-1.91-.9-2.83-1.42-6.71-3.83-37.89-21.26-68.45-32.71,13,2.38,26.66,2,39.17-2.16,1.5-.49,3-1.05,4.43-1.63,25.87-13.6,58.5-23.74,81.06-23.74,12,0,26.46.53,41,1.88a7.79,7.79,0,0,0,3.56-1,8.4,8.4,0,0,0,2.18-3,21,21,0,0,0,1.91-5.76,24,24,0,0,0-.47-10.88,22.56,22.56,0,0,0-.91-2.62c-.23-.56-1-3.12-1.59-3.59-3.85-8.25-12.87-14-23.38-14a27.39,27.39,0,0,0-10.48,2.06C1168,45.68,1175,41.5,1193.86,41.5c28.35,0,56.93,36.53,68.11,69.23a311.26,311.26,0,0,0,53.87,9C1287.64,126.68,1265.56,141,1235.6,165.31Z"/><path class="cls-3" d="M1507.77,102.71a29.07,29.07,0,0,1,13.35-3.21c15.73,0,28.48,12.31,28.48,27.5a18.67,18.67,0,0,1-.17,2.39h0c-.89,7.05-5.67,12.44-12.15,16v0a34.33,34.33,0,0,1-3.71,1.79h0a45.62,45.62,0,0,1-17.13,3.32c-.82,0-1.62,0-2.39-.08a25.81,25.81,0,0,0-3.6-.38l-1.78-.1c-2.69-.12-5.49-.21-6.73-.44-9.9-1.87-19.22-3.28-28.68-6.67q-8-2.88-15.75-6.46a12,12,0,0,0-3-1.08q-6.19-3.12-12.57-5.85l-.6-.26c-.94-.4-1.88-.78-2.82-1.16l-1.18-.48q-2.82-1.12-5.69-2.16l-.47-.18-2.69-.93-1.6-.54-2.65-.86-2.16-.65c-1.29-.39-2.6-.76-3.92-1.13l-2.08-.55q-1.21-.33-2.46-.63c-.94-.24-1.9-.46-2.86-.68l-3.28-.71c-.88-.18-1.76-.37-2.65-.54l-2.32-.43-3.11-.53-2.94-.45c-1.12-.16-2.26-.32-3.4-.46-.75-.1-1.51-.19-2.26-.27-1.1-.13-2.2-.24-3.31-.35l-2-.19c11.49-10.61,26.28-22.33,37.64-26.85,0,0,0,0,0,0a73.13,73.13,0,0,1,26-7,10,10,0,0,0,4.82-1,7.73,7.73,0,0,0,2.87-4.53A32.42,32.42,0,0,0,1458.3,65c-.07-1.67,0-3.93-.7-5.49a1.23,1.23,0,0,0-.18-.28c-.21-11.45-11.48-20.68-25.37-20.68a28.74,28.74,0,0,0-15.59,4.44c3.51-10.21,13.79-16.44,30.61-16.44a58.11,58.11,0,0,1,35.78,12.1c14.65,3.06,41.89,46.9,41.89,46.9l13.47,1,.17.06q-1.37-.06-2.76-.06C1519.87,86.5,1511.55,92.75,1507.77,102.71Z"/><path class="cls-3" d="M1950.44,185.24v.1c-.06.69-.11,1.41-.17,2.13,0,.12,0,.24,0,.36,0,.66-.1,1.34-.14,2,0,.19,0,.36,0,.55,0,.64-.08,1.3-.12,2,0,.23,0,.46,0,.7,0,.63-.07,1.27-.1,1.92,0,.29,0,.57,0,.86,0,.64-.06,1.29-.09,2,0,.32,0,.63,0,.95,0,.64-.05,1.3-.07,1.95,0,.37,0,.73,0,1.11,0,.64,0,1.3,0,2,0,.41,0,.81,0,1.24,0,.68,0,1.38,0,2.09,0,.42,0,.83,0,1.26,0,.73,0,1.5,0,2.26,0,.42,0,.83,0,1.27,0,.8,0,1.64,0,2.47v1.24c0,1.27,0,2.57,0,3.9l-.82-.7-.31-.27-.61-.52-.4-.34-.71-.6-.37-.31-1.1-.92-.47-.4-.78-.64c-.19-.17-.39-.33-.6-.5l-.74-.61-.68-.57-.82-.66c-.4-.34-.82-.68-1.25-1l-.79-.64-.9-.73-.71-.56c-.32-.27-.66-.53-1-.8l-.63-.51q-1.92-1.53-4.05-3.2l-.48-.38-1.38-1.07-.52-.4c-2.22-1.73-4.6-3.54-7.11-5.43l-.28-.21-1.91-1.43h0q-4.12-3.08-8.71-6.37h0c-26.68-19.19-64.25-43.09-106.14-60.4l-.09,0-3.56-1.45h0a346.69,346.69,0,0,0-33.81-11.66l-.65-.18-3.14-.87-.54-.15q-2.84-.77-5.68-1.47l-1.19-.29-2.54-.61-1.81-.41-2.32-.52c-1.26-.28-2.52-.54-3.78-.8l-1.74-.34-2.68-.51-1.78-.32-3.06-.52-1.27-.21c-1.41-.22-2.83-.43-4.24-.63l-1.26-.17c-1.1-.15-2.2-.29-3.31-.42l-1.3-.15c-1.47-.17-3-.33-4.42-.47l.7.3q-2.46-.23-5-.39h0c-1.65-.11-3.31-.2-5-.28,27-26.09,59.89-33.22,105.19-33.22,54.17,0,108.22,27.68,136,67.43C1953.54,159.37,1951.72,169.19,1950.44,185.24Z"/><path class="cls-3" d="M1601.64,137a134.46,134.46,0,0,0-7.55-13.53h0l-.2-.29q-2.14-3.34-4.48-6.49l-.23-.3c-1.61-2.14-3.28-4.21-5-6.18l-.11-.13c-1.79-2-3.64-3.92-5.57-5.73l0,0a77.32,77.32,0,0,0-6.07-5.13l56.52,21h0C1617.86,124.85,1608.62,130.59,1601.64,137Z"/></g></g></svg>
