<svg xmlns="http://www.w3.org/2000/svg" xmlns:xlink="http://www.w3.org/1999/xlink" width="1504" height="907" viewBox="0 0 1504 907"><defs><style>.cls-1{fill:#fff;}.cls-2{fill:#9dd6e0;fill-opacity:0.8;}.cls-3{fill:#86b5ba;}.cls-4{fill:#8fe2df;}.cls-5{fill:#1833a0;}.cls-6{fill:#162872;}.cls-7{fill:#ff8b00;}.cls-8{fill:#ff00c3;}.cls-9{fill:#1b1464;}</style></defs><title>Win</title><g id="northen_ligth" data-name="northen ligth"><image width="1154" height="802" transform="translate(-1133 -200)" xlink:href="Win1.png"/></g><g id="bar"><path class="cls-1" d="M865.41,45.94c-256.7,0-446.8,136.64-525.19,349.63L186,390.06a104,104,0,0,0-16.47,1.44,74.68,74.68,0,0,0-14.41-1.44C79.59,390.06,36,504.62,36,645.94V822.41l245.4,33.85c0,.18,0,.4-.07.58a75.73,75.73,0,0,0,10.55.87l146.87-24.48c84.11,7.74,191.1,22.63,209.46,25.38,181.5,27.13,365.84,19.61,549,12,40.86-1.7,81.85-3.4,122.22-10.32,43.82-7.52,86.45-21.13,128.15-37.08,28.58-38.29,44.29-94.77,44.29-177.3C1491.88,304.82,1206.53,45.94,865.41,45.94Z"/><path class="cls-2" d="M640.28,845.66c181.49,27.14,365.84,19.62,549,12,40.87-1.69,81.86-3.39,122.23-10.31,43.82-7.52,86.45-21.14,128.14-37.08C1468.24,772,1484,715.53,1484,633c0-341.12-285.36-600-626.47-600S292.77,274.24,292.77,615.35c0,98.34-5.59,163.21,35.3,202.94C353.59,805.65,610.84,841.26,640.28,845.66Z"/><path class="cls-2" d="M284,633V844.76L28.07,809.47V633c0-141.32,43.58-255.88,119.11-255.88S284,491.68,284,633Z"/><path class="cls-3" d="M539.83,491.82c0-58.23-56.47-105.88-114.7-105.88l-247.06-8.82a105.09,105.09,0,0,0-17.3,1.55c64.27,14.51,114.36,130.73,114.36,272,0,83.62,5.4,150.32-1.74,193.25a75.65,75.65,0,0,0,10.56.86l264.7-44.11Z"/></g><g id="little_dude" data-name="little dude"><path class="cls-4" d="M814.16,713.14a193.9,193.9,0,0,0-2.66-32.09,144.43,144.43,0,0,0-7.19-27.45c-2.54-6.68-5.72-13.45-10.49-18.85a22.26,22.26,0,0,0-5.46-4.59c-1.62-.93-3.55-1-5.21-1.87a19.73,19.73,0,0,1-4.48-3.56,5.48,5.48,0,0,0-2.44-1.64,4.14,4.14,0,0,0-3.13.86,50,50,0,0,0-4.81,3.9,57.91,57.91,0,0,0-6.9,7.45,98.27,98.27,0,0,0-12.57,21.28,115.75,115.75,0,0,0-8.23,27,95.22,95.22,0,0,0-.63,29.52c1.69,11.8,2.68,19.75,4.21,29.51a53.06,53.06,0,0,1,.85,10.12,68.11,68.11,0,0,0,1,16.51c.49,9.85,2.19,21.88,4.91,29l.36,1,1.33,19.27c0,3,3.31,0,6.32,0h1.26c3,0,4.22-2.46,4.22-5.48V804.2a25.92,25.92,0,0,0,3.6-3.81,15.14,15.14,0,0,0,5.67.44,79.82,79.82,0,0,0,13.4-2.58l-.75,4.26c-.05.63-.27,3.45,0,3.37a5.5,5.5,0,0,1,4,.06l2.76.79c1.62.12,3.25,1.62,3.37,0l3-16.33c5.36-7.6,4.14-19.5,8-37.63C809.47,743.09,814.16,724.2,814.16,713.14Z"/><path class="cls-5" d="M834.39,716.51C828.15,695.7,818,683,811.11,676.62c.91,6.9,4.37,35.06,2.5,45.78l.55.86c14.33,21.92,13.57,45.82,20.71,43.68S842.17,742.46,834.39,716.51Z"/><path class="cls-5" d="M777.9,622.08a25.85,25.85,0,0,0-4.22,0,15.66,15.66,0,0,1-6.89-1,16.74,16.74,0,0,1-5.72-4.06,5.68,5.68,0,0,0-2.19-1.88,2.62,2.62,0,0,0-2.25.19,3.05,3.05,0,0,0-1.17,2.42c-.22,1.46-.42,2.93-.61,4.39q-.55,4.41-.87,8.83c-.07,1-.14,2-.19,3a22.28,22.28,0,0,1-.66,5.1,21.49,21.49,0,0,1-2.46,4.85c-21.86,35.44-37.27,75.82-37.8,117.45A48.62,48.62,0,0,0,714,774.21c.19.72.52,1.55,1.24,1.73.89.24,1.65-.65,2.11-1.44,4.79-8.24,5.12-18.21,6.37-27.66,3.29-24.91,22.44-45.45,28-70,4.22-18.55,6.75-27.82,15.18-39.62,2.85-4,5.06-3.38,7.47-9.23.84-2,4.45-4.67,2.65-5.95C776.88,622,778.1,622.14,777.9,622.08Z"/><path class="cls-6" d="M763.57,837.92l-5.06,2.53c-5.06-5.9-11.81,3-11.81-2.53l1.69-5.9c4.22-5.06,4.22-7.59,4.22-13.49l11.8-6.74c-.84-.85,1.69,5.06,1.69,11l2.53,9.27C775.37,840.45,769.13,837.92,763.57,837.92Z"/><path class="cls-6" d="M806.57,834.55l-14.34-4.21c-5.56,0-16,10.11-12.64-3.38l5.06-13.49c0-5.56.33-17.7,5.9-17.7l4.21,9.27c5.57,0-5.06,11,11.81,21.92l4.21,5.9C806.57,831.18,812.13,834.55,806.57,834.55Z"/><path class="cls-6" d="M803.19,591.73c-5,1.88-22.14-1.86-26.13-.85a3.67,3.67,0,0,0-.47.16,18.79,18.79,0,0,0-7.12,1.53c-9.43,4-13.49,16.62-13.49,23.61,0,7.59,28.67,6.74,28.67,4.21,0-4.87,6.37-10.72,9.54-15.42,1.22-.76,2.78-1.78,4.79-3.13,17.7-11.8,26.41-10.39,28.67-11C831,590,816.68,586.67,803.19,591.73Z"/><path class="cls-7" d="M813.31,593.41a175.21,175.21,0,0,0-17.7,4.22c-5.29,1.82-7.21,3.74-6.75,5.06s4.22,1.68,6.75-.85C799.08,598.37,809.94,594.26,813.31,593.41Z"/><path class="cls-7" d="M767.06,618.47a6,6,0,0,1-1.51-3.52,8,8,0,0,1,1.39-4.67c2.32-3.77.08-8.44-3-8.44s-7.17,9.07-7.17,13.49c0,3.91,4,6.85,16,6.88a20.58,20.58,0,0,1-2.6-1.23A11.38,11.38,0,0,1,767.06,618.47Z"/><path class="cls-7" d="M797.59,639.41a16.84,16.84,0,0,0-2.78-3.82c-1.62-1.7-3.24-3.41-4.84-5.13a56.27,56.27,0,0,1-3.85-4.32,5.58,5.58,0,0,1-1.18-2.37c-.24-1.3.19-2.67-.17-3.93a1.63,1.63,0,0,0-.66-1c-1.47-.85-3.32.72-4.42,1.58a10.6,10.6,0,0,0-1.64,1.64h-.15c-1.83.1-3.51.14-5.07.13.33.14.65.28,1,.4.9.33,1.83.63,2.76.88a3.54,3.54,0,0,1,.39.14l-.17-.07.1,0,0,0H777l.1,0,.07.05h0l-.2-.07.2.07c-.76,1.9-1.43,4.39-1,5.91a5.17,5.17,0,0,0,2.41,2.82,19.71,19.71,0,0,0,4,1.92,60,60,0,0,1,9.42,4.09,20.13,20.13,0,0,1,7.26,6.7l4,7.29Z"/><path class="cls-4" d="M973.82,723.35a170.67,170.67,0,0,1,2.46-29,127.79,127.79,0,0,1,6.66-24.8c2.35-6,5.3-12.14,9.71-17a20.63,20.63,0,0,1,5.06-4.14c1.5-.85,3.29-.92,4.82-1.7a18.23,18.23,0,0,0,4.15-3.21,5.13,5.13,0,0,1,2.26-1.48,3.89,3.89,0,0,1,2.9.78,47.1,47.1,0,0,1,4.45,3.52,53.47,53.47,0,0,1,6.39,6.73,88.53,88.53,0,0,1,11.64,19.22,101.92,101.92,0,0,1,7.61,24.42,83.4,83.4,0,0,1,.59,26.66C1041,734,1040,741.19,1038.62,750a46.84,46.84,0,0,0-.78,9.14,60.18,60.18,0,0,1-.92,14.91c-.46,8.9-2,19.76-4.55,26.21l-.33.86-1.23,17.41c0,2.72-3.06,0-5.85,0h-1.17c-2.8,0-3.91-2.23-3.91-4.95v-8a23.26,23.26,0,0,1-3.33-3.44,14.37,14.37,0,0,1-5.25.39,75.6,75.6,0,0,1-12.41-2.32l.7,3.84c0,.57.24,3.12,0,3.05a5.19,5.19,0,0,0-3.7,0l-2.55.71c-1.5.11-3,1.46-3.12,0l-2.75-14.74c-5-6.87-3.84-17.62-7.4-34C978.17,750.39,973.82,733.34,973.82,723.35Z"/><path class="cls-5" d="M955.09,726.39c5.77-18.79,15.16-30.22,21.55-36-.83,6.23-4,31.66-2.31,41.34-.17.26-.33.52-.51.77-13.27,19.8-12.56,41.39-19.17,39.45S947.88,749.83,955.09,726.39Z"/><path class="cls-5" d="M1007.39,641.11a24.3,24.3,0,0,1,3.91,0,14.85,14.85,0,0,0,6.38-.94,15.49,15.49,0,0,0,5.29-3.67,5.27,5.27,0,0,1,2-1.69,2.5,2.5,0,0,1,2.09.16,2.77,2.77,0,0,1,1.08,2.19c.2,1.32.39,2.65.56,4q.51,4,.81,8,.11,1.33.18,2.67a18.69,18.69,0,0,0,.61,4.61,19.19,19.19,0,0,0,2.27,4.38c20.24,32,34.51,68.48,35,106.08a42.62,42.62,0,0,1-1.07,11.66c-.18.66-.48,1.4-1.15,1.57-.82.21-1.52-.59-2-1.3-4.44-7.45-4.74-16.45-5.9-25-3-22.49-20.78-41-25.94-63.18-3.9-16.75-6.24-25.13-14-35.79-2.64-3.6-4.68-3-6.92-8.33-.78-1.84-4.12-4.22-2.45-5.37C1008.33,641,1007.21,641.16,1007.39,641.11Z"/><path class="cls-6" d="M1020.66,836.05l4.69,2.28c4.68-5.33,10.93,2.74,10.93-2.28l-1.57-5.33c-3.9-4.57-3.9-6.86-3.9-12.19l-10.93-6.09c.78-.76-1.56,4.57-1.56,9.9l-2.34,8.38C1009.73,838.33,1015.51,836.05,1020.66,836.05Z"/><path class="cls-6" d="M980.85,833l13.27-3.81c5.15,0,14.83,9.14,11.71-3L1001.15,814c0-5-.32-16-5.47-16l-3.9,8.38c-5.15,0,4.68,9.9-10.93,19.8l-3.9,5.33C980.85,830,975.7,833,980.85,833Z"/><path class="cls-6" d="M984,613.69c4.66,1.71,20.5-1.67,24.2-.76a2,2,0,0,1,.43.15,17.68,17.68,0,0,1,6.6,1.38c8.73,3.62,12.49,15,12.49,21.32,0,6.85-26.54,6.09-26.54,3.8,0-4.4-5.91-9.68-8.84-13.92-1.13-.69-2.57-1.62-4.43-2.83-16.4-10.66-24.46-9.39-26.55-9.9C958.21,612.17,971.48,609.13,984,613.69Z"/><path class="cls-7" d="M974.6,615.22A167.76,167.76,0,0,1,991,619c4.89,1.65,6.67,3.38,6.24,4.57s-3.9,1.53-6.24-.76C987.78,619.69,977.73,616,974.6,615.22Z"/><path class="cls-7" d="M1017.43,637.85a5.39,5.39,0,0,0,1.4-3.18,7.15,7.15,0,0,0-1.29-4.22c-2.15-3.41-.07-7.62,2.73-7.62s6.64,8.19,6.64,12.19c0,3.52-3.68,6.18-14.82,6.21a21.84,21.84,0,0,0,2.41-1.11A11,11,0,0,0,1017.43,637.85Z"/><path class="cls-7" d="M989.16,656.76a15.5,15.5,0,0,1,2.57-3.45c1.51-1.54,3-3.08,4.49-4.64a50.33,50.33,0,0,0,3.56-3.89,5.05,5.05,0,0,0,1.09-2.15c.23-1.17-.17-2.4.16-3.55a1.48,1.48,0,0,1,.61-.89c1.37-.77,3.07.65,4.09,1.43a8.87,8.87,0,0,1,1.52,1.48h.14c1.7.08,3.26.12,4.7.12-.31.12-.61.25-.92.36-.84.3-1.69.57-2.56.8l-.36.12.16-.07-.09,0,0,0h-.06l-.09,0-.06,0h0l.18-.06-.18.07c.7,1.71,1.32,3.95,1,5.33a4.66,4.66,0,0,1-2.23,2.54,17.94,17.94,0,0,1-3.71,1.74,55.4,55.4,0,0,0-8.72,3.7,18.3,18.3,0,0,0-6.72,6.05L984,668.52Z"/><path class="cls-4" d="M936.51,785.65a123.89,123.89,0,0,1,1.29-18,90.58,90.58,0,0,1,3.53-15.38,35.66,35.66,0,0,1,5.13-10.55,11.44,11.44,0,0,1,2.68-2.57c.79-.53,1.74-.57,2.54-1.05a10.1,10.1,0,0,0,2.2-2,2.65,2.65,0,0,1,1.2-.92,1.83,1.83,0,0,1,1.53.48,25.39,25.39,0,0,1,2.35,2.18,31.19,31.19,0,0,1,3.38,4.18A57.36,57.36,0,0,1,968.5,754a71.37,71.37,0,0,1,4,15.15,60.53,60.53,0,0,1,.31,16.52c-.82,6.61-1.31,11.06-2.06,16.53a33.11,33.11,0,0,0-.41,5.66,43.29,43.29,0,0,1-.49,9.25c-.24,5.52-1.07,12.25-2.4,16.25l-.18.54-.65,10.79c0,1.69-1.62,0-3.09,0h-.62c-1.48,0-2.07-1.38-2.07-3.07v-5a14.36,14.36,0,0,1-1.76-2.13,6.42,6.42,0,0,1-2.78.24,34.36,34.36,0,0,1-6.56-1.44l.37,2.39a7.78,7.78,0,0,1,0,1.89,2.35,2.35,0,0,0-2,0l-1.34.44c-.8.07-1.6.91-1.66,0l-1.45-9.14c-2.62-4.26-2-10.92-3.91-21.08C938.8,802.42,936.51,791.85,936.51,785.65Z"/><path class="cls-5" d="M926.6,787.54c3-11.65,8-18.74,11.39-22.34-.44,3.87-2.14,19.64-1.22,25.64l-.26.48c-7,12.27-6.65,25.66-10.15,24.46S922.79,802.07,926.6,787.54Z"/><path class="cls-5" d="M954.26,734.66a10.9,10.9,0,0,1,2.06,0,6.68,6.68,0,0,0,3.38-.58,8.43,8.43,0,0,0,2.8-2.27c.33-.41.59-.86,1.07-1a1.14,1.14,0,0,1,1.1.1,1.81,1.81,0,0,1,.57,1.36q.16,1.23.3,2.46c.18,1.64.32,3.29.43,4.94,0,.55.07,1.1.09,1.66a13.54,13.54,0,0,0,.33,2.85,12,12,0,0,0,1.2,2.72c10.7,19.84,18.25,42.46,18.51,65.77a31.16,31.16,0,0,1-.57,7.23c-.09.4-.25.87-.61,1s-.8-.36-1-.81c-2.34-4.61-2.51-10.19-3.12-15.49-1.61-13.95-11-25.45-13.72-39.17-2.06-10.39-3.3-15.58-7.43-22.19-1.39-2.23-2.47-1.89-3.65-5.16-.42-1.15-2.18-2.62-1.3-3.34C954.76,734.59,954.16,734.7,954.26,734.66Z"/><path class="cls-6" d="M961.81,856.19l2.61,1.35c2.4-3.51,6,1.48,5.88-1.72l-1-3.36c-2.25-2.82-2.32-4.27-2.47-7.67l-6.11-3.62c.4-.5-.72,3-.57,6.35l-1,5.39C955.94,857.92,959,856.32,961.81,856.19Z"/><path class="cls-6" d="M940.22,853.64l7-2.36c2.72,0,7.84,5.66,6.19-1.89L951,841.84c0-3.12-.16-9.92-2.89-9.92L946,837.11c-2.72,0,2.48,6.14-5.78,12.28l-2.06,3.31C940.22,851.75,937.5,853.64,940.22,853.64Z"/><path class="cls-6" d="M941.87,717.67c2.46,1.05,10.84-1,12.8-.48l.23.09a8.19,8.19,0,0,1,3.49.86c4.61,2.24,6.6,9.31,6.6,13.22,0,4.25-14,3.77-14,2.36,0-2.73-3.12-6-4.67-8.64-.59-.42-1.36-1-2.34-1.75-8.67-6.61-12.93-5.82-14-6.14C928.25,716.72,935.27,714.83,941.87,717.67Z"/><path class="cls-7" d="M936.92,718.61a77.61,77.61,0,0,1,8.67,2.36c2.58,1,3.52,2.09,3.3,2.83s-2.06,1-3.3-.47C943.89,721.38,938.57,719.08,936.92,718.61Z"/><path class="cls-7" d="M959.57,732.64a3.73,3.73,0,0,0,.74-2,5.06,5.06,0,0,0-.69-2.62c-1.13-2.11,0-4.72,1.45-4.72s3.51,5.08,3.51,7.56c0,2.18-2,3.83-7.84,3.85a11.06,11.06,0,0,0,1.27-.69A6,6,0,0,0,959.57,732.64Z"/><path class="cls-7" d="M944.62,744.36a9.42,9.42,0,0,1,1.36-2.13c.79-1,1.59-1.91,2.37-2.88a27.76,27.76,0,0,0,1.88-2.41,3.38,3.38,0,0,0,.58-1.33c.12-.73-.09-1.49.08-2.2a.94.94,0,0,1,.33-.55c.72-.48,1.62.4,2.16.88a5,5,0,0,1,.8.92h.08c.89.06,1.72.08,2.48.08l-.48.22a13.82,13.82,0,0,1-1.36.49l-.19.08.08,0,0,0h0l-.05,0,0,0h0l.09,0-.09,0a7.37,7.37,0,0,1,.51,3.31,2.88,2.88,0,0,1-1.18,1.58,9.2,9.2,0,0,1-2,1.07,27.92,27.92,0,0,0-4.61,2.3,10.52,10.52,0,0,0-3.56,3.75l-1.94,4.08Z"/><path class="cls-8" d="M1027.34,609.19a6.57,6.57,0,0,0-6.79-.44,4.46,4.46,0,0,0-3.61-2,6.82,6.82,0,0,0-2.84-5.25c-3.08-2.19-4.33-1-6.52,2.08s-4.49,6.88-1.41,9.07a6.8,6.8,0,0,0,6.63.71,4.48,4.48,0,0,0,3.94,2.41,6.45,6.45,0,0,0,2.66,4.55c3,2.12,5.81-1.31,8-4.39S1030.32,611.31,1027.34,609.19Z"/><path class="cls-9" d="M713.29,125.35a.69.69,0,0,1,.55.23.81.81,0,0,1,.18.51,1.14,1.14,0,0,1-.18.64.64.64,0,0,1-.55.28,9.18,9.18,0,0,0-5.6,1.56,10.6,10.6,0,0,0-3.08,3.3,7.81,7.81,0,0,0-1,2.11l-21.39,83.18h-3.4l-12.58-51-16.25,51h-3.3l-22.59-82.72a11.09,11.09,0,0,0-1.06-2.25,13,13,0,0,0-2.93-3.62,6.16,6.16,0,0,0-4.46-1.56.64.64,0,0,1-.55-.28,1.14,1.14,0,0,1-.18-.64.65.65,0,0,1,.73-.74h19.1c.43,0,.64.19.64.55a.79.79,0,0,1-.18.51.58.58,0,0,1-.46.23q-3.85,0-3.86,3.85a22.9,22.9,0,0,0,.37,3.13l18.46,67.11,14.13-44.25-4.77-22-.64-2a15.44,15.44,0,0,0-1.15-3.12,4.26,4.26,0,0,0-1.84-1.74,7.42,7.42,0,0,0-3.62-.55.62.62,0,0,1-.55-.28,1.07,1.07,0,0,1-.19-.64.77.77,0,0,1,.19-.51.66.66,0,0,1,.55-.23h17.62c.37,0,.55.22.55.65a.81.81,0,0,1-.13.41.46.46,0,0,1-.42.23,3.93,3.93,0,0,0-3.16,1,4.54,4.54,0,0,0-.87,3,13.67,13.67,0,0,0,.09,1.65q.09.73.18,1.29l16.07,67.11,16.52-68.12a14.19,14.19,0,0,0,.09-1.84,4.69,4.69,0,0,0-.87-3.12c-.58-.67-1.67-1-3.26-1-.36,0-.55-.25-.55-.74a.49.49,0,0,1,.55-.55Z"/><path class="cls-9" d="M705.3,192.46c0,.07,0,.25,0,.56s0,.73,0,1.28a31.49,31.49,0,0,0,3,13.22q3,6.61,11.66,7.25A11.59,11.59,0,0,0,730,210.5a6.06,6.06,0,0,0,1.52-3.53,2,2,0,0,0-.37-1.1,3.53,3.53,0,0,0-.69-.51,1.54,1.54,0,0,0-.69-.23,2.13,2.13,0,0,1-1.88-.78,2.88,2.88,0,0,1-.78-2,3.18,3.18,0,0,1,1.19-2.43,4.12,4.12,0,0,1,5.88.82,7,7,0,0,1,1.19,4.09,10.52,10.52,0,0,1-1.88,5.87,13.73,13.73,0,0,1-5.46,4.64,18.3,18.3,0,0,1-8.27,1.79c-5,0-9.18-1.16-12.48-3.49a20.84,20.84,0,0,1-7.35-9.13,31.67,31.67,0,0,1-2.38-12.44A29.45,29.45,0,0,1,700,179.84a19.42,19.42,0,0,1,7.16-8.45,20.33,20.33,0,0,1,11.34-3.07,18.61,18.61,0,0,1,9,2.25,16.41,16.41,0,0,1,6.7,7,24.3,24.3,0,0,1,2.53,11.61c0,.61-.06,1.71-.19,3.3Zm23.87-5.14q0-7.06-3-11.61a9.49,9.49,0,0,0-8.4-4.54,9.69,9.69,0,0,0-7.81,3.35,17.9,17.9,0,0,0-3.85,7.62,25.54,25.54,0,0,0-.83,7.3h23.78A18.77,18.77,0,0,0,729.17,187.32Z"/><path class="cls-9" d="M757.63,216.15a.63.63,0,0,1,.18.46.54.54,0,0,1-.18.37.76.76,0,0,1-.55.18h-16a.76.76,0,0,1-.55-.18.54.54,0,0,1-.18-.37.58.58,0,0,1,.23-.46.79.79,0,0,1,.5-.18q3.58,0,4.14-4.23V132.42a7.29,7.29,0,0,0-1.84-4q-1.56-1.74-5.14-1.83a.56.56,0,0,1-.46-.23.72.72,0,0,1-.18-.42c0-.36.21-.55.64-.55h1.56q.73,0,3.12-.18c1.59-.12,2.75-.24,3.49-.37a14.51,14.51,0,0,0,3.67-1,7.21,7.21,0,0,0,2.2-1.24,1.68,1.68,0,0,1,.74-.28.66.66,0,0,1,.37.14.34.34,0,0,1,.09.41c0,.19-.06,1-.19,2.39s-.24,3.46-.36,6.15v80.52a6.14,6.14,0,0,0,1.14,2.94,3.63,3.63,0,0,0,3,1.1A.76.76,0,0,1,757.63,216.15Z"/><path class="cls-9" d="M797.7,201a6.37,6.37,0,0,1,1.24,3.95,5.88,5.88,0,0,1-.27,1.84q-1.47,6.06-6.15,8.21a21.35,21.35,0,0,1-8.91,2.16q-10.47,0-16.53-6.15t-7-16.62a26.67,26.67,0,0,1-.1-2.75,24.63,24.63,0,0,1,3-12.17,21.23,21.23,0,0,1,8.08-8.3,21.72,21.72,0,0,1,11.06-2.94,16.77,16.77,0,0,1,4.73.59q2,.6,4.82,1.79a23.41,23.41,0,0,0,2.2,1,6,6,0,0,0,2,.41,4.79,4.79,0,0,0,1.47-.27,1.28,1.28,0,0,1,.55-.1c.49,0,.74.22.74.65s-.25.7-.74,1c-.3.18-.69.43-1.15.73a6.58,6.58,0,0,0-1.51,1.65,22.44,22.44,0,0,0-1.74,3.22q-.28.54-.78,1.65a5.73,5.73,0,0,1-.79,1.38,1.73,1.73,0,0,1-1.37.91,1.05,1.05,0,0,1-1-.55.82.82,0,0,1,0-1,5.32,5.32,0,0,0,.78-2.15c.21-1.07.35-1.79.41-2.16a5,5,0,0,0-.46-2.62,7.73,7.73,0,0,0-1.47-2,6.57,6.57,0,0,0-2.93-1.61,9.3,9.3,0,0,0-2.85-.32,13.31,13.31,0,0,0-10.88,6.11q-3.72,5.64-3.72,14.09l.09,2.11q.55,9.64,3.68,14.55t6.75,6.52c2.41,1.07,3.62,1.42,3.62,1.06a11.16,11.16,0,0,0,1.65.09,12.55,12.55,0,0,0,5.74-1.24,9.41,9.41,0,0,0,3.63-3,6.26,6.26,0,0,0,1.19-3.44,3.11,3.11,0,0,0-.27-1.38,1.4,1.4,0,0,0-.65-.46,2.12,2.12,0,0,0-.73-.18,2.18,2.18,0,0,1-1.88-.78,2.57,2.57,0,0,1-.69-2,2.73,2.73,0,0,1,1.05-2.34,4,4,0,0,1,2.44-.78A4.14,4.14,0,0,1,797.7,201Z"/><path class="cls-9" d="M831.81,171a20.28,20.28,0,0,1,7.3,8.31,27.83,27.83,0,0,1,2.71,12.57,34.4,34.4,0,0,1-.19,4.14,27.9,27.9,0,0,1-2.75,9.77,21.69,21.69,0,0,1-6.43,7.9,17.32,17.32,0,0,1-10,3.44h-1.38A17.59,17.59,0,0,1,811,213.72a21.17,21.17,0,0,1-6.42-7.9,30.06,30.06,0,0,1-2.8-9.77c-.13-1.84-.19-3.16-.19-4a28.36,28.36,0,0,1,2.71-12.72,20.21,20.21,0,0,1,7.3-8.35,19.62,19.62,0,0,1,20.2,0Zm1.93,20.42a34.25,34.25,0,0,0-2.94-14.64q-2.94-6.28-9.09-6.29t-9.09,6.29a34.25,34.25,0,0,0-2.94,14.64q0,1.94.09,2.85.65,9.73,3.81,15.06c2.12,3.55,4.82,5.32,8.13,5.32s6-1.77,8.13-5.32,3.38-8.57,3.8-15.06A28,28,0,0,0,833.74,191.45Z"/><path class="cls-9" d="M847.23,174.19c-1-1.4-2.78-2.14-5.41-2.2a.63.63,0,0,1-.55-.23.65.65,0,0,1-.19-.41c0-.37.25-.55.74-.55h1.47c.48,0,1.4-.05,2.75-.14s2.63-.23,3.86-.41a15,15,0,0,0,3.67-1,7.34,7.34,0,0,0,2.2-1.24,1,1,0,0,1,.87-.27c.28.06.38.21.32.46L856.6,173a10.35,10.35,0,0,1,3.72-3.53,12,12,0,0,1,6.56-1.7,13,13,0,0,1,6.7,1.79A10.26,10.26,0,0,1,878,175.2V175a11.34,11.34,0,0,1,2.25-3.35,10.41,10.41,0,0,1,3.07-2.34,14.24,14.24,0,0,1,6.43-1.56,11.67,11.67,0,0,1,8.45,3.4q3.48,3.39,3.48,10.55v29.84q.38,4,4.14,4a.59.59,0,0,1,.46.23.69.69,0,0,1,.18.41c0,.37-.22.55-.64.55h-16a.76.76,0,0,1-.55-.18.52.52,0,0,1-.18-.37.56.56,0,0,1,.23-.46.79.79,0,0,1,.5-.18q3.58,0,4.13-4.22V179.52c0-3.24-.58-5.48-1.74-6.7a5.32,5.32,0,0,0-3.49-1.93q-5.33-.27-7.53,3.63a18.23,18.23,0,0,0-2.2,9.13v27.73c.37,2.81,1.74,4.22,4.13,4.22a.76.76,0,0,1,.55.18.65.65,0,0,1,.18.46.52.52,0,0,1-.18.37.76.76,0,0,1-.55.18H867.25a.74.74,0,0,1-.55-.18.5.5,0,0,1-.19-.37.59.59,0,0,1,.23-.46.79.79,0,0,1,.51-.18q3.57,0,4.13-4.22V179.52c0-3.24-.6-5.48-1.79-6.7a5.48,5.48,0,0,0-3.54-1.93q-5.22-.27-7.43,3.63a18.23,18.23,0,0,0-2.21,9.13v27.73q.55,4.22,4.13,4.22a.79.79,0,0,1,.56.18.65.65,0,0,1,.18.46.52.52,0,0,1-.18.37.79.79,0,0,1-.56.18h-16c-.43,0-.64-.18-.64-.55a.69.69,0,0,1,.18-.41.58.58,0,0,1,.46-.23q3.76,0,4.13-4.22V178.79A7.89,7.89,0,0,0,847.23,174.19Z"/><path class="cls-9" d="M915.54,192.46c0,.07,0,.25,0,.56s0,.73,0,1.28a31.49,31.49,0,0,0,3,13.22q3,6.61,11.66,7.25a11.6,11.6,0,0,0,10.15-4.27,6,6,0,0,0,1.51-3.53,2,2,0,0,0-.36-1.1,3.86,3.86,0,0,0-.69-.51,1.58,1.58,0,0,0-.69-.23,2.12,2.12,0,0,1-1.88-.78,2.88,2.88,0,0,1-.78-2,3.18,3.18,0,0,1,1.19-2.43,4.12,4.12,0,0,1,5.88.82,7,7,0,0,1,1.19,4.09,10.52,10.52,0,0,1-1.88,5.87,13.69,13.69,0,0,1-5.47,4.64,18.26,18.26,0,0,1-8.26,1.79q-7.53,0-12.48-3.49a20.84,20.84,0,0,1-7.35-9.13,31.67,31.67,0,0,1-2.39-12.44,29.3,29.3,0,0,1,2.44-12.26,19.42,19.42,0,0,1,7.16-8.45,20.33,20.33,0,0,1,11.34-3.07,18.61,18.61,0,0,1,9,2.25,16.41,16.41,0,0,1,6.7,7,24.42,24.42,0,0,1,2.52,11.61q0,.92-.18,3.3Zm23.87-5.14q0-7.06-3-11.61a9.49,9.49,0,0,0-8.4-4.54,9.68,9.68,0,0,0-7.8,3.35,18,18,0,0,0-3.86,7.62,25.49,25.49,0,0,0-.82,7.3h23.77A16.29,16.29,0,0,0,939.41,187.32Z"/><path class="cls-9" d="M1018.18,209a7.36,7.36,0,0,0,1.83,4.59q1.85,2.29,6.06,2.39a.74.74,0,0,1,.55.18.6.6,0,0,1,.19.46.52.52,0,0,1-.19.37.74.74,0,0,1-.55.18h-22.21c-.43,0-.65-.18-.65-.55a.65.65,0,0,1,.19-.41.54.54,0,0,1,.46-.23q4.21-.09,5.6-2.3a8.75,8.75,0,0,0,1.37-4.68V176.58a6.63,6.63,0,0,0-.87-3.85,2.67,2.67,0,0,0-2.11-1.24,7.94,7.94,0,0,1-1.52-.14H983.2a3.8,3.8,0,0,1-1,.09,3.77,3.77,0,0,0-1.56.37,2.92,2.92,0,0,0-1.38,1.56V209a8.68,8.68,0,0,0,1.38,4.68c.92,1.47,2.78,2.24,5.6,2.3a.76.76,0,0,1,.55.18.63.63,0,0,1,.18.46.54.54,0,0,1-.18.37.76.76,0,0,1-.55.18H964.1c-.43,0-.64-.18-.64-.55a.69.69,0,0,1,.18-.41.56.56,0,0,1,.46-.23q4.23-.09,6.06-2.39A7.32,7.32,0,0,0,972,209V133.25a7.32,7.32,0,0,0-1.84-4.59q-1.83-2.3-6.06-2.39a.59.59,0,0,1-.46-.23.69.69,0,0,1-.18-.41c0-.37.21-.55.64-.55h22.13a.76.76,0,0,1,.55.18.54.54,0,0,1,.18.37.69.69,0,0,1-.18.41.67.67,0,0,1-.55.23c-2.82.06-4.68.83-5.6,2.3a8.68,8.68,0,0,0-1.38,4.68v32.5a4,4,0,0,0,1.56,1.79,4.57,4.57,0,0,0,2.66.5h22.59l2.43.05q2.34,0,2.34-5.37V133.25a8.05,8.05,0,0,0-1.56-4.64q-1.56-2.25-5.78-2.34a.56.56,0,0,1-.46-.23.69.69,0,0,1-.18-.41c0-.37.21-.55.64-.55h22.58a.74.74,0,0,1,.55.18.52.52,0,0,1,.19.37.72.72,0,0,1-.74.64q-4.21.09-6.06,2.39a7.36,7.36,0,0,0-1.83,4.59Z"/><path class="cls-9" d="M1054.72,171a20.28,20.28,0,0,1,7.3,8.31,27.83,27.83,0,0,1,2.7,12.57,34.86,34.86,0,0,1-.18,4.14,28.12,28.12,0,0,1-2.75,9.77,21.8,21.8,0,0,1-6.43,7.9,17.33,17.33,0,0,1-10,3.44H1044a17.59,17.59,0,0,1-10.06-3.44,21.17,21.17,0,0,1-6.42-7.9,30.06,30.06,0,0,1-2.8-9.77c-.13-1.84-.19-3.16-.19-4a28.36,28.36,0,0,1,2.71-12.72,20.21,20.21,0,0,1,7.3-8.35,19.62,19.62,0,0,1,20.2,0Zm1.93,20.42a34.25,34.25,0,0,0-2.94-14.64q-2.94-6.28-9.09-6.29t-9.09,6.29a34.25,34.25,0,0,0-2.94,14.64q0,1.94.09,2.85.64,9.73,3.81,15.06c2.12,3.55,4.82,5.32,8.13,5.32s6-1.77,8.12-5.32,3.39-8.57,3.81-15.06C1056.61,193.69,1056.65,192.74,1056.65,191.45Z"/><path class="cls-9" d="M1070.14,174.19c-1-1.4-2.78-2.14-5.42-2.2a.66.66,0,0,1-.55-.23.69.69,0,0,1-.18-.41c0-.37.25-.55.73-.55h1.47c.49,0,1.41-.05,2.76-.14s2.63-.23,3.85-.41a15,15,0,0,0,3.68-1,7.34,7.34,0,0,0,2.2-1.24,1,1,0,0,1,.87-.27c.28.06.38.21.32.46l-.36,4.77a10.39,10.39,0,0,1,3.71-3.53,12.08,12.08,0,0,1,6.57-1.7,13,13,0,0,1,6.7,1.79,10.26,10.26,0,0,1,4.41,5.64V175a11.34,11.34,0,0,1,2.25-3.35,10.41,10.41,0,0,1,3.07-2.34,14.24,14.24,0,0,1,6.43-1.56,11.63,11.63,0,0,1,8.44,3.4q3.5,3.39,3.49,10.55v29.84c.25,2.69,1.62,4,4.13,4a.56.56,0,0,1,.46.23.65.65,0,0,1,.19.41c0,.37-.22.55-.65.55h-16a.76.76,0,0,1-.55-.18.52.52,0,0,1-.18-.37.56.56,0,0,1,.23-.46.79.79,0,0,1,.5-.18c2.39,0,3.76-1.41,4.13-4.22V179.52c0-3.24-.58-5.48-1.74-6.7a5.34,5.34,0,0,0-3.49-1.93q-5.33-.27-7.53,3.63a18.23,18.23,0,0,0-2.2,9.13v27.73q.54,4.22,4.13,4.22a.76.76,0,0,1,.55.18.65.65,0,0,1,.18.46.52.52,0,0,1-.18.37.76.76,0,0,1-.55.18h-15.88a.79.79,0,0,1-.56-.18.52.52,0,0,1-.18-.37.59.59,0,0,1,.23-.46.79.79,0,0,1,.51-.18q3.57,0,4.13-4.22V179.52c0-3.24-.6-5.48-1.79-6.7a5.5,5.5,0,0,0-3.54-1.93q-5.24-.27-7.43,3.63a18.23,18.23,0,0,0-2.21,9.13v27.73q.56,4.22,4.13,4.22a.74.74,0,0,1,.55.18.62.62,0,0,1,.19.46.5.5,0,0,1-.19.37.74.74,0,0,1-.55.18h-16c-.43,0-.64-.18-.64-.55a.69.69,0,0,1,.18-.41.56.56,0,0,1,.46-.23q3.76,0,4.13-4.22V178.79A7.89,7.89,0,0,0,1070.14,174.19Z"/><path class="cls-9" d="M1138.45,192.46c0,.07,0,.25,0,.56s-.05.73-.05,1.28a31.49,31.49,0,0,0,3,13.22q3,6.61,11.66,7.25a11.6,11.6,0,0,0,10.15-4.27,6,6,0,0,0,1.51-3.53,1.93,1.93,0,0,0-.37-1.1,3.44,3.44,0,0,0-.68-.51,1.58,1.58,0,0,0-.69-.23,2.12,2.12,0,0,1-1.88-.78,2.88,2.88,0,0,1-.78-2,3.15,3.15,0,0,1,1.19-2.43,4.12,4.12,0,0,1,5.88.82,7,7,0,0,1,1.19,4.09,10.52,10.52,0,0,1-1.88,5.87,13.69,13.69,0,0,1-5.47,4.64,18.26,18.26,0,0,1-8.26,1.79q-7.53,0-12.49-3.49a20.89,20.89,0,0,1-7.34-9.13,31.67,31.67,0,0,1-2.39-12.44,29.3,29.3,0,0,1,2.44-12.26,19.35,19.35,0,0,1,7.16-8.45,20.33,20.33,0,0,1,11.34-3.07,18.61,18.61,0,0,1,8.95,2.25,16.46,16.46,0,0,1,6.7,7,24.42,24.42,0,0,1,2.52,11.61q0,.92-.18,3.3Zm23.87-5.14q0-7.06-3-11.61a9.49,9.49,0,0,0-8.4-4.54,9.67,9.67,0,0,0-7.8,3.35,17.92,17.92,0,0,0-3.86,7.62,25.49,25.49,0,0,0-.82,7.3h23.77A18.31,18.31,0,0,0,1162.32,187.32Z"/><path d="M683.12,304.46V288L670.87,265.7h5.69L682,276.39c1.49,2.94,2.64,5.29,3.85,8H686c1.1-2.53,2.42-5.06,3.91-8l5.58-10.69h5.7l-13,22.25v16.51Z"/><path d="M726.25,290.31c0,10.29-7.13,14.78-13.86,14.78-7.54,0-13.35-5.52-13.35-14.32,0-9.32,6.1-14.78,13.81-14.78C720.84,276,726.25,281.8,726.25,290.31Zm-22.09.29c0,6.09,3.51,10.69,8.46,10.69s8.45-4.54,8.45-10.81c0-4.71-2.36-10.69-8.34-10.69S704.16,285.31,704.16,290.6Z"/><path d="M755.92,296.87c0,2.87.06,5.4.23,7.59h-4.49l-.28-4.55h-.12a10.46,10.46,0,0,1-9.2,5.18c-4.37,0-9.6-2.41-9.6-12.19V276.62h5.06V292c0,5.29,1.61,8.85,6.21,8.85a7.12,7.12,0,0,0,7.13-7.19V276.62h5.06Z"/><path d="M777,304.46v-24h-3.91v-3.86H777V275.3c0-3.91.86-7.48,3.22-9.72A9.7,9.7,0,0,1,787,263a11.78,11.78,0,0,1,4.31.81l-.69,3.91a7.49,7.49,0,0,0-3.22-.63c-4.31,0-5.41,3.79-5.41,8.05v1.49h6.73v3.86H782v24Z"/><path d="M817.74,290.31c0,10.29-7.14,14.78-13.86,14.78-7.54,0-13.35-5.52-13.35-14.32,0-9.32,6.1-14.78,13.81-14.78C812.33,276,817.74,281.8,817.74,290.31Zm-22.09.29c0,6.09,3.51,10.69,8.46,10.69s8.45-4.54,8.45-10.81c0-4.71-2.36-10.69-8.34-10.69S795.65,285.31,795.65,290.6Z"/><path d="M847.41,296.87c0,2.87.06,5.4.23,7.59h-4.49l-.29-4.55h-.11a10.46,10.46,0,0,1-9.2,5.18c-4.37,0-9.61-2.41-9.61-12.19V276.62H829V292c0,5.29,1.62,8.85,6.22,8.85a7.32,7.32,0,0,0,6.67-4.6,7.6,7.6,0,0,0,.46-2.59V276.62h5.06Z"/><path d="M855.8,284.16c0-2.88-.06-5.24-.23-7.54h4.49l.28,4.6h.12a10.24,10.24,0,0,1,9.2-5.23c3.85,0,9.84,2.3,9.84,11.85v16.62h-5.07v-16c0-4.48-1.66-8.22-6.44-8.22a7.19,7.19,0,0,0-6.78,5.17,7.33,7.33,0,0,0-.35,2.36v16.74H855.8Z"/><path d="M911.75,263.63v33.64c0,2.47.06,5.29.23,7.19h-4.54l-.23-4.83h-.11a10.32,10.32,0,0,1-9.49,5.46c-6.73,0-11.91-5.69-11.91-14.15-.06-9.26,5.7-14.95,12.48-14.95,4.26,0,7.13,2,8.4,4.26h.11V263.63ZM906.69,288a8.63,8.63,0,0,0-.23-2.13,7.42,7.42,0,0,0-7.3-5.86c-5.23,0-8.34,4.6-8.34,10.75,0,5.64,2.76,10.3,8.22,10.3a7.61,7.61,0,0,0,7.42-6,8.46,8.46,0,0,0,.23-2.19Z"/><path d="M938.43,268.63v8h7.25v3.86h-7.25v15c0,3.45,1,5.4,3.8,5.4a11.39,11.39,0,0,0,2.93-.34l.23,3.79a12.22,12.22,0,0,1-4.48.69,7,7,0,0,1-5.47-2.12c-1.44-1.5-2-4-2-7.25V280.48h-4.32v-3.86h4.32V270Z"/><path d="M951.37,263.63h5.06V281h.12a9.39,9.39,0,0,1,3.62-3.56,10.47,10.47,0,0,1,5.18-1.44c3.73,0,9.72,2.3,9.72,11.91v16.56H970v-16c0-4.49-1.66-8.28-6.44-8.28a7.27,7.27,0,0,0-6.78,5.06,6.09,6.09,0,0,0-.35,2.42v16.79h-5.06Z"/><path d="M986.1,291.46c.12,6.84,4.49,9.66,9.55,9.66a18.26,18.26,0,0,0,7.71-1.44l.86,3.63A22.64,22.64,0,0,1,995,305c-8.57,0-13.69-5.63-13.69-14s5-15,13.06-15c9.08,0,11.5,8,11.5,13.11a20.84,20.84,0,0,1-.17,2.36Zm14.84-3.62c.06-3.22-1.32-8.23-7-8.23-5.11,0-7.36,4.72-7.76,8.23Z"/><path d="M1026.3,276.62l3.68,14.15c.8,3.11,1.55,6,2.07,8.86h.17c.63-2.82,1.55-5.81,2.47-8.8l4.55-14.21h4.25l4.32,13.92c1,3.34,1.84,6.27,2.47,9.09h.17a83.77,83.77,0,0,1,2.13-9l4-14h5l-9,27.84H1048l-4.26-13.29a94.23,94.23,0,0,1-2.47-9.14h-.12a82.11,82.11,0,0,1-2.53,9.2l-4.48,13.23h-4.6l-8.4-27.84Z"/><path d="M1081.79,304.46l-.4-3.51h-.17a10.38,10.38,0,0,1-8.52,4.14c-5.63,0-8.51-4-8.51-8,0-6.73,6-10.41,16.74-10.36v-.57c0-2.3-.63-6.44-6.33-6.44a13.78,13.78,0,0,0-7.24,2.07l-1.15-3.34a17.3,17.3,0,0,1,9.14-2.47c8.51,0,10.58,5.81,10.58,11.39v10.41a39.76,39.76,0,0,0,.46,6.67Zm-.75-14.21c-5.52-.11-11.79.87-11.79,6.27a4.48,4.48,0,0,0,4.78,4.83,6.93,6.93,0,0,0,6.73-4.66,5.29,5.29,0,0,0,.28-1.61Z"/><path d="M1095.48,276.62l6.09,16.45c.63,1.84,1.32,4,1.78,5.69h.12c.52-1.66,1.09-3.79,1.78-5.8l5.52-16.34h5.35l-7.59,19.84c-3.62,9.55-6.1,14.44-9.55,17.43a13.64,13.64,0,0,1-6.21,3.28l-1.26-4.26a13.52,13.52,0,0,0,4.43-2.47,15.32,15.32,0,0,0,4.25-5.64,3.59,3.59,0,0,0,.4-1.2,4.43,4.43,0,0,0-.34-1.33L1090,276.62Z"/></g></svg>
